<mxfile host="65bd71144e">
    <diagram id="c5VKrr74w7nrfTHKFaol" name="Page-1">
        <mxGraphModel dx="4722" dy="1887" grid="1" gridSize="10" guides="1" tooltips="1" connect="1" arrows="1" fold="1" page="1" pageScale="1" pageWidth="850" pageHeight="1100" math="0" shadow="0">
            <root>
                <mxCell id="0"/>
                <mxCell id="1" parent="0"/>
                <mxCell id="4" style="edgeStyle=none;html=1;" parent="1" source="2" edge="1">
                    <mxGeometry relative="1" as="geometry">
                        <mxPoint x="-2240" y="492" as="targetPoint"/>
                    </mxGeometry>
                </mxCell>
                <mxCell id="2" value="" style="shape=image;verticalLabelPosition=bottom;labelBackgroundColor=default;verticalAlign=top;aspect=fixed;imageAspect=0;image=data:image/png,iVBORw0KGgoAAAANSUhEUgAAAEAAAABACAYAAACqaXHeAAAABHNCSVQICAgIfAhkiAAAAAlwSFlzAAABYgAAAWIBXyfQUwAAABl0RVh0U29mdHdhcmUAd3d3Lmlua3NjYXBlLm9yZ5vuPBoAAAdiSURBVHic7ZprbBTXGYafb2b24jVeXyHYxjEQVS0UQqhDk5SSogIBUkgohYj0ogiRRkpp2kZCIVVUqW5alFZE/GiNq4SoaaKECCKkXEzABEgFaqVSbimQHxUlODQuqW0sG2yvvTtff4CXvd/G9lSqn1+7Z895z3veOTNzzsyKqvL/jOG2AbcZD8BtA24zHoDbBtxmPAC3DbjNeABuG3Cb8QDcNuA21lh32NhO4NpQ/1zBmKei845+1v+VIlNOeUT2e8PGm283lHSMpR8Zq83QpgsD9ZYlLygsAszh8j1tPTfNAOVes3NikeeBd2eV/HksfI3JKbC5beARy5IPFe4jZvCJKNA1GKk83xs6uvhU94tj4W1UZ0DjObx9JaGdwOp0dWJnQCJVPvPTuquRz+9aOPHqaPiDUZ4BfSUDPyfD4LPREYrUXA5arSPnKJlRC2DzpaEvgzzlVKe9P3zPstPd60fCUypGJYDGj/Gj9stkON9zRYF/hyLN3zzVXebYWApGJYB+M7QemDFSeteGbF+vavNI6cUyKgEoctdIa/bbzBtpTchjIbT6YG9lOByq9wcHPtp1z5T+zLW1wamxRPrDdm22OrKNIrzMwM/HuoGuXHQz3gYfPNBRE1HZAnovyLQbxWGQsyh7Aj0Vz+1ay2Bsm8Z2An3hUA85nv+ZboNxRoHp5b7KfTODcQOT3Xjp4GlgNcoXuXlQ/wkcZohn9MdcTqeb9hRY0dq1IaJyDngkZvBc70DnINrYV9p5fEVrR9zRvjY49AVG4OKXiAJmhGWxZdJMA//hOEojyhziZ/R0YAMezsp2Hk6nmzKAlfu71oPuAEqz+JoFcmhVa1fdcIFlDVzMNphCMSKhY8OfZTt1KIeue8hIJfC6NPFgSs3EglWtXXUqui0PX8GwanTZuqW2pBNhxEMoMo3wO3dM/Ee0QHgRCOYsIPxemilPLE4KYAj9JdmPfKL40vtbryyPfrX5W17tc6DYI9HzWJpZjrI0T4nJKE8nFiYFIHBvAf4wsOcPf1bkeCEamSgSORv9oszPUDU9ktwuLoClrZcnAVMLElfuvNlR+I/AlYJ0UuAxRP1+uXn0JKavfFDmyu74C3RcAH7bO7kgYQCRW4Y//rou8KkiGwvWSqA2YDXtnVl2Mlqg3JKheiYC/IuS2IK4AHr85eeALIuc1Kjoydjvv6nz7hRhdyFasVT5zEsH5pQ9Ed8ZJ9NUz8YF/QndsQVxARxeSBj0RCHKoskXPkMGHwfOpqieE8UeCVVZka8nd1bwRTbZY3Id4w8FCPeIxVuJhVtqSzr7Q74Gha2AnauYADUBz7EaNSbF3fqiFnkLyG0JGYvySlJfqZbCK1o73gNZlvRDOl2R77csqdiRqc5TnwwsEORlrq/QoiQuhQOWMVQd8Dy5b3awKZOeNPHojbVArrymP+C7STqpAlh5qLNWwxwGPpdNVeD1d+6r/E4uDh4Cs/6TwRmCfacgDYLcdaD96sxiS857TTnmNcx328ySvWdmxu8v0vbdxGsI386h6hl8fC3VBintZuihv1wq6usN/AL0SVKv7TtV9ImWJVU7czH7zMW+6rCYa0VYqTANqAX8e9p6MAT8pjHkN6R3gmV84Beebbmj7FQuujfW+b/l+pI3kTDCc1TxrK5NHWrWh6L3v/fZbaZhzleRr6L2DEQ+xLY/CIvv4L6lwaxbzs1tA4sQ+RmwgBTXnFS7QQFKfWZ3hdf81f7bS7dm60NeooJBFqEsBG4HPkI5gnJUf8iFjG3TBfDA+1dutW37ewhfAhpQ6mN+thWOGMqbRcH+l1I9H/hpW2i6LTwPrMpkINt2uNJntk/yeR9+e/aEPyWZ30YRPjYAa0gO+CJwHDiBxav6GG2p9NNdBB8D2Qrxi4aUCOdUjHUti8v/Ply0uW1wDaKvAv5szXN5HmAI1Bd7n2+dU7op2u3vmI3wBsLMrALQi7BJH+eFJPuxAXxjb3e9WJEdwOIcRGMZUGFTy5LKps1toR8hbCPHx235PBCpC3j2HJxb9i1pZiPKVnIIOIH3UR7VjTd3q9EAlu3vqbBk6AxQnadolCnVviOlZZ4F+bTJNYBhKvBd+Ovp4LTsNdPSjo9Zw3eE6FGyJNyEg8EXF5uUluY3+EK4Qmja1CkhJxLVDBJdYxgAK1u71oCuK1TRsoQpNf7r83SUUSAwsZeS4ogTkXWynTUAsnxvZ9Aw7POIVBWqV1Pto7zMU1DbfE+BYYL4OHE69wdCKeggwm2GZXG3k8F7PQZlpYUN3glXJURladiJRBUmdxu2qqMXDlVVHmQMpn4itkL91D6nMvMMKPyNiwDBkjH/k0mUfmMQcfZuy1kAgYCJabpw+G8wZCu3TnZ0R5hnADWFtp4wYcTff+RNeUVOG8d01DiaQB6P+38yMywHt0Mcvh22LPem/zBqOPuLj6WQtMvKFdPABzg6Cct85hwn7Q1bwjh47jhmf5P7X8X9k9hlxgNw24DbjAfgtgG3GQ/AbQNuMx6A2wbcZjwAtw24zX8B7Sc2leFwPKEAAAAASUVORK5CYII=;" parent="1" vertex="1">
                    <mxGeometry x="-2500" y="434" width="116" height="116" as="geometry"/>
                </mxCell>
                <mxCell id="7" style="edgeStyle=none;html=1;fontSize=14;" parent="1" edge="1">
                    <mxGeometry relative="1" as="geometry">
                        <mxPoint x="-2187" y="440" as="sourcePoint"/>
                        <mxPoint x="-2187.37" y="350" as="targetPoint"/>
                    </mxGeometry>
                </mxCell>
                <mxCell id="5" value="&lt;font style=&quot;font-size: 14px;&quot;&gt;Question&lt;/font&gt;" style="text;html=1;align=center;verticalAlign=middle;resizable=0;points=[];autosize=1;strokeColor=none;fillColor=none;" parent="1" vertex="1">
                    <mxGeometry x="-2350" y="460" width="80" height="30" as="geometry"/>
                </mxCell>
                <mxCell id="6" value="" style="shape=image;verticalLabelPosition=bottom;labelBackgroundColor=default;verticalAlign=top;aspect=fixed;imageAspect=0;image=data:image/png,iVBORw0KGgoAAAANSUhEUgAAAPoAAAD6CAYAAACI7Fo9AAAgAElEQVR4XuxdBWAUV7ee3Y07wSFYcHd3d7cEd5dSKBRaHIK0UFyKOxR3K8UdCoWfAsW9WIjrJvu+787esFnigZZXMu/1D9nMzty5c7977DvnaJSUI2UGUmbgPz8Dmv/8E6Y8YMoMpMyAkgL0lEWQMgNfwAykAP0LeMkpj5gyAylAT1kDKTPwBcxACtC/gJec8ogpM5AC9JQ1kDIDX8AMpAD9C3jJKY+YMgMpQE9ZAykz8AXMQArQv4CXnPKIKTOQAvSUNZAyA1/ADKQA/Qt4ySmPmDIDKUBPWQMpM/AFzEAK0L+Al5zyiCkzkAL0lDWQMgNfwAykAP0LeMkpj5gyAylAT1kDKTPwBcxACtC/gJec8ogpM5AC9JQ1kDIDX8AMpAD9C3jJKY+YMgMpQE9ZAykz8AXMQArQv4CXnPKIKTOQAvSUNZAyA1/ADKQA/Qt4ySmPmDIDKUBPWQMpM/AFzEAK0L+Al5zyiCkzkAL0lDWQMgNfwAz8p4FuMBisnzx54ubrG5QqNDDAJigsTGdra6nXah39s2RxDUqbNu0zjUYT/AW855RH/MJn4D8F9Ldvg9yuXDlf7K+/7ud68+pl6ne+3lkePnycMyQwxDkkLMhKr4+0sLS01NtY2QS7pHYOdnFJdc/dPfdDBwf7d1myuD3Kl6/kxZw5XR9/4Wsi5fH/gzPw/x7oAQEB6ffuPVTv4vmLpe7cvVf82bNHOd+88XYOCwuzwvvS4acCya5AcitarVb8OyIiQvyu01kqOgsrvZ2djT516tSBGTJkvFOwYIHLpUuXuVizZoXdzs7O3v/Bd57ySF/gDPy/BfrRo0fL7d6zv/tvR47X8vV5lzEgIIjSWmdhYaHo9XolMjJSAJs/CW55EOAS9OLfWguFm4H8DP82WFlZRBYsWPBxkSKF9w0cOHxG9uwuD77AtZHyyP+hGfh/BXQA1uHgwSOlV6xYPuzU6TM1goODbSy0VgoALsAcHh5ulNQ68Yr4GcFOEPPfEvDy98gInIMZMOB/cBokvE5sDNwo+Duv6+hk965li5abWrfu+FPRou6P8N3Q/9D7T3mUL2QG/l8AHQDVPHnyyn3JwoV9lixfNigoKMgKqrbi7x+oUIIrBhXM/I8HwcpDfmb6u9wA5N/le+YmIM/j5qBeQL1ORES4kiZNGv9u3TtPadmy+Xp3d/dHX8j6SHnM/8gMfPZAf/HiXfatW7c027hhQ48bN/7MB2DrrK2thbpNCazVWETZ3VKC83Npi0eB1uSFmW4KISEhYrMQG4ZRCzDdJHidsPAQIeWdnByUAgULXOvUqcO0hg3rHXJycnrzH1kHKY/xH5+Bzxrod+48KjDNa+rw346daOzj4+3q4OAQZU8TzKGhqhZtZWUlVHQ62STYTSW7BLu016XqzvNtbeyjbHr1XasOO3kd9buRYiMICQ1SuDG4u2d93bRZ02Xjxo3+Edd6+x9fIymP9x+Ygc8W6Pv3H2oyder0SY8fPc0Hz7olgUaAUrJKFZ02tFS3TZ1u/DftdUp9/ieltfS283sEMK9lobNSqCHwHBXcqnTnv+W9+D29PkxsKPwvMMhfgUc+vHLFCofGTvhuKFT52/+BtfBZPML91yF59/x6quXbt36pbe1sdFp9uOLobO+X1T3HH2lzZHmst7a08w3S2+hsLazDgxVLK4swnd5C0WngT4VOFn0968x+hxzQw9CTD2qwwr+D4agxOxCPiboO5IkirxtuodMaIhT+Z7DUhWv1iqXBxlL3OrOTcimXRvPqs5jAWAbx2QEdANMeOnS84fBvhs9++vRpDoKOwLWytFElrRIhVHaCT8hfoznNcyjh+bmjo0MIQmVPM2XI+CBX3twPnZ2d/nZ2dvTXaq1xSrhtYIC308sXb9J5+7zJfvv2vZw+Pj5u+M+SG4ilhbVxI9FGaQncCKQNrzr0IoWjLjQsWClcNP/VH39Y0LZYsZx/fc4v+nMfG/0wO84+9Ji2aNW4N/4huS1s7PT+vn4GCwRQwsKDg1NnyxiQp3iREPcyxSx8FW2acGtLbaTGwlITbuASEOsYP9+HV8RbMn4OF47p8zMQI3/XAdP01/J30+iM0Ajx/Yjw8Kjvmv/dAt7cNFYWvhldbI+6p3X+ubGTcghr6MOd4zOY/M8K6HzZG9b+4jH821GLITkdIcmFVHV0dFQi9AYlMDBQsbWzFtMGh5z4PCSE6nSw4uDgGFaoUMELdes12lu9euXDJUoUvsPTMPHYxGM+cD+Ld+/e2T9+/Nj96JHjDfbsO1T3f9evVw4NCTdqAVrxk9IfHn6xwdjY2Ih/W1tbKhGR4QoUAMXV1fXRrp1b6+TMqYId17XED8bxtW9gxet074zbER17qSLTpOEaUsL5H8YXbXF+BmviXxnCiWuGqr1GjPjFV7FI5483ZmFto4SGhCkOltZYA+GKT4ivonG2U8o1q6dkKFRQ8UG0JUILzQxg0xk4naqJldifUiM0B7EEvvT3mE8Kz7fE+7eFOWcXGaK4udj6F8+ZoV87V+u1/8oExnPTzwbolOS7dh1oM/r7MdP9/Pyy+Pr4C6lpa2sL77q/YmWtAo4SW6rWBHmmTOmf1G9Qd0+rVh3XlClT+BKAQwAl6cAYdKeOnau8/pdfPE+dPN789at3aan629vbixCc+m9bhRsQXzQ3neBgev51Sp48ea+379BxIWwGy7/u3Sl4596DXIEBfi5h4XqL4KAgu3B9hA72R6iLi7N/uvRpvbNnz3k3ffr0t4sUKXLH3t7pberUmV66u6d6ivGrrv4v6HhtMDj2GbR4/+W7zyr6a6yUUD34D+F6xQaaVGhAMNaAjRIU6ov//BXXEgWVqq1aK952DoqfPkKxt4LmpXAvTxrQpb/GdLpNQW++AZj+bgHVwFFnoUQE+Sp2FmFKQVf74x6FMngW0GhefG6v77MB+pEjx6uMHTNmxfXrN93t7OyEBCfQaWvTLo6EdSXVdUrUjJkyvalRtfLePv17LipatOi5jz2xe/Ycbrhp/cauJ06dru/9FssKjkDeX3j6jfZCuD5UqPlU7X19fcVGIA91czCI803j+dRQaGJQkggNwc423M3N7XXxYkUvlSpV+nDBgoVuFijgfgvhvGcf+5k+1+udv/a2fM/xs44/8Y+w1OvsoTDD6I6AogMgW8KHEhjoB2Mc5jQMcfId6/booeizZlcCaGrBYNbAnIvtiElSx3wunbC8jrphcGPnT42GnAxVUzD/uxZDtMCfsErx90AlgzZE6V4yV+PqNpo9n9tcfxZAv3jxavGJEyb/dObMmaoEt5DaeMEyDEZPNyU6gRQeHqpUqVrlVK9efaY0alT76KdMSsEicVq1ar3HihUr+/zv+o3iVNs5JsmkE5pFpErGkYd0FErPPT+X1FvzOL1wIEKA8+80S3QWGiVbtiw+2d1zXStfruyx2jUbbC1RIu/1/7p6P2XFvgmztx4ZHWjpiFAmgAWz2BZTqokAeQnmdKQhTLGE6as3hCoB4UFKwQb1Ffe69ZS/w8IVa0hUeZiDOj5pHQ2MADbupDKoaE3F8lNYCca/Ezw2Ghs4ZyHRHTWKY+g7pVG29LN6ZbEf9rnZ6v860PFyHIcN+27Kzh07e8MhRhqrKrlBgiGQCCoHRzshMWnONmvecvWAAYNnAgB//FO75rFjF2v37NF1HcaQlhKZ0ppjpGS20NmIYUiAy59ybJKKKzct041ARAciwqCaWgsJz2cVn0FTgN0fkTdv3j/KlSv966CB/eeCIPT0n3ref/I+eP923ceu3Lb72p26fgCNJsIaCQqRij3efySISqHYCIV/Sx+IDVWv+IcGKOmKFFLKdemqvAE0SWGO7TAHeszSXXWfJFTyR9vUsRlYwhXDdxhphXUBoFd2sr3QsWj6xp+bF/5fB/qWLXvqjh83ZuPz53+7iLAX1DYCnB5tvigufKryb+DV6ta9y/yxY0dNw6J/8k8txssnLhfZ/eueLsuWr+gLdc6GpDsZpqP/IDAgVEhkqc6bSnKOX0YIpNkhNwX+Tcbo+YzCLIBE5xxwM6HJAuq+Ymttq89bIO+Vzp27z2zbtsnmz01SJPc9/HbJu+HYaYvW3gyPdPGPsFCsNHaKLoRAh0IeEaoEahE3s0S0JThA0WkjlSA4XsPsbJSag/or2gxplBDOHYWwkRVpPp54AQyNLKGH+bW02IwUPRiZeE8YlWIfEajkigyNaFUqe/MG9prdCb3uP3Fewp/yE4zm9ps3mfu2bn/k99+v5qWU5AKnJBfgoEcbAOKCp8Prm2FDpo0dP2YiXmjgJxjKB5eEAzDtyuWru65cve6r69f+yJg6ddooHjzHJ5JnwhH2g/9APVQbjrZdZKTqHJK/UxNhphxNe/6dlFpuGPxcqvVyUxDSBTYngS/Cirg+nY6I2weXKl361+nTJ32VLVu2+//EHPwT95i54vzkeRv2j3oHh1tAhFax1doD6BGKNWx0ZC8owVr4MxCxtogEExKfhIVCqsNmz9+muVKwVlXFOyxECdNFBTWiDTkukMu/CbCaHfFuDlID4HcxTq0l3hGCO3YGUKWDfZW6+bKO6JVJ+8PnZHL9q0AfP37ipFk/zf2OIKBDi4tbglsmmMAmN/Tp3W/2qO/Hejk6al5/6sXn729Iu3//5qoL5v/83cWLl4pZWFipqjqcgwQd1Wtpq8u4PTnxtNU18M5QI+FPyHLBlef3BGeei8J4Hn/qEBqSjjqCXs2000eRdGSiDueEmx61B56TM2fu/3Xv0XFqu3ZtKd3fe/8+9cR8guu/DDCk7z9x3bYTfz6u4GehVUKxCdopNoo2FDwFbKKU4OGWejAS/RV7+kPCocLj/72DAhSnPFmVVv37KM8xecHv+S1Ro5QEKlNNK+ZHUJmQCTliOk9onfQbYvO3QqjPKdRPKeZiec2jeNrmRTSaz2ZD/teAfuvWrRwNGje/HuQXYG+JWKlksHHiJJWV3vXOHTqsHTtx0sjUqe0+qY1KW/HixYvFFi1aMmT7tp3NGWqzsbETACbIXr9+rbi4uAhJHAYpQm+ssK3JtRLeWdXMkNlvMlVWMvqEpDYuKGmvU7oT8Gr2nFT/1Wvx4DV4b8HMgx1I7YbXyJo1u3e//v2/bd687kZUyfFPyCL9HM/59erTRsOmb/rlWajG1h9+iUjMg40GGxqnFJLbAmwEg2U4nF1+ih3j6aHY1yK1UJIjlRA45loO7quEZUin+EOiq3lM7+PonFNqVKZe8w/j7Ca2uZnzzdTpFptzzgCNzIBNPUJoH5bQOiIVJyQ3umGnal4gU+dGrprPJqb+rwH9+3HjF82YPqN3KudURnVXXeBc1NJOzZ83/9V5C39uV7hw9pufaqECOJpz586V+eWX7d127tjeFL6C9E5OLqpkFoBTqbIqOScEY6X05SIi4IOFR9iAVSEIFJaWhjRpXF+6Zcn6MFeunPfTp8/w3NHe3ge6nR6KuxISEWLp4+Pv6v36VbrHj5/kev73yxwv/37rime2iFIljWm1Mr2Wm4rx2mIzkHF9aBNhLVu32DB0aP9vc+TI8fenmp9Ped35G49+O2PdWS9/gy196mIzs4RDTgu+USSpzhYEUqgSog/G+9ApeojOSKj3GgA7JOCtUqBOdSV73RqKH/xxAmxGYNMkigvo78Nkpk8XPayW0Li8Hu9fB5BHhlso1hijDXapVHpfpXpW58X93B0HYA3FStj6lHNrfu1/BegPHz7M0bRZ61/fvn3jTnOWkorqMBc0FzIXNNTkoO++/25Y795dFn6qCQmA6jh//swuhw//2vYS1HRoFhqOg3YgXzRVaxlOk5uPBJ2g3IapnmD3nNkeFS9e4mjx4qWu5MmT766bW9rHGTNmfJoqVSqfmMaOazj8+eef2Z4/f579/t2/c1z/39USp06erv7g4f3s3GBoxgj5xFg7HHRCxYdmIbn30pPPjadj53Yrx4//7it46X0/1Tx9ius+8jG4e81dO//A+af1fEItFDtbS6joIK+DMGPQwkcDk0ejjVDCI4PxO8wXbrAw8fThlJ6IUIQGKlaZ0yj1BvZS3mJD0OME+tWErwP/xwiYZLpGmnCQNNSzox3QBvA9xsRjUs1NtbCY5oE5ENbWtoo+SFGsoYJosFnZh/kpRZ01fzUpk6lhBY3m7qeYv8Re818B+k+z5w6bOWPOlPCwcAtyFAguVVrCDka8HGE2pUXL5ptWrVrS9VPFyTes29Bx0c/Lhty+dbt4CKiW9OwTTNK2swPzSh0THENG/wElDo+AAD+hUhcuUvi8h0frVRUqlDtWqFChRxgrXnfiDzy37YMHD7IeO3a62soVK7pdvXq1DDcWHjrEian+h8M+lZsApZcsshERGarUrVd3z9q1y1rh/v9vimLsufKi4dS561feeRmWJgzquqpWM0T9PnuQnwnTCPKea0NscEZA6pHREoK/VR/US7HOnlHxCQN5iTkJCM1BiVasMG/00CP+Caqsylcg+HXcMATWVSccrvg+ZB6Drf6hp938/UK7Q7xfhIVB1bXA3W31IUo2S/2b5sXTta7vqDmW+BXx8b/xjwP96VND6pEje644cOBgY0oqJVKt6sJQknQ82dhYRSxbvqhunTp1jnzMR1bV9MvFQYD5BiWomiD11Y4vUhJfeC8CngAnsDgmjjE4RHX0Y1yCd507d+6rnTp3XtSqVdO9kKSsJJswb04CHsbb2zvr0qVLPTZs2NgP6n02mcyjYW4WDnr6uUgt4emlyUAHHp1/Q4d9PX7YsEGTPhdVMa5HxZxrJ685NWr5jmMTfUNge8NPIUBuEiLTGM0hg4hg4GAKMhOajJ/rAWxkQij5GtRU8lWvpLzEhqeFwFDgyDMwGoL54jf0tKEBdAFtfFcYYyIvSV36cJ/Kf6pj+EDiR3+SaIChXS/Wrx6aF30qCAXiWaxx//SIGNTJlWZazezacTk0mpAEvPpPeso/AnS8WCcsYOcjRy4WPHBgd/d9+/Y2BqghKOFpB3tQtctVwAcgdNKoccNd69evbI4X/9F43/fv38+2Zs2G3uvWru35/PmrNPZ2YGHBTLC2sRS7MRU+3p8gF78bnWsEOiU5x5gqleMbD0+Pn4cPHzoLNvsnjQBAqueZNu3HqSeOn2yCUJ/OxSW1GBulOqMAPj5+IgrAPYbjy5wx49s+/ftN6NWr89yPufF8itX3NMjgNmDMkt1nbzwtFqZ1ANDU+Y5+qBI4NqCTIRkAeWzj7qbU7NBW8bFBKNYKZk8ktJ9g2M2wl1FAUAmDNkDVXScYbdQQEB0xSnah3muQP2GS9GauwpuPi6OMkvK8FsaubrYsQYb7IvsR5YbhfQ9RSqe1vd4of6quJe01lz/FPCbmmp8M6K9fGxzv3j1X4ObNu8X27TvQ6ObN26WePHmcgRPHhUoAUWXWYaJFyidYZpRMVJXXrl5Rq079jyPNCfCDBw833rjhl15XrlwtTGko7i+83Wraq6gUix1eZqZF+QtQWYbgB0HHp3rVqlsHDRm0qHDhfJcSM8HJORfjs1++dLnHnLmLJt+/fy+9g4MTnFHqQqOziZsj50ym6BYoWPD+xIljuyN771hy7vupv3vurk/JfuMWHn7pr0kVBGBCp4p2SxVIqoOTYIRBBYyqEQ3xb6wRbrxBUN319tZKRY8WijZnRsWPSSYWMMGo9VDawmmqN8oKagIEPIr6i2taYR75k0x5U85MbECPstVNRyr48Bw7xsRQIDZcLcKxVhiHfVCwksvG8LZR3jT96mW0/uVTz2l81//oQKe9efz476WOHz9U9+TJk01u3LhZGKmgkIapjJRWNamDhwCU0b4RRSIArMJFCv154sSv5bAhJCtsRIfX9u37qm3fsrn70ePH67969co6ffqMqtTGjm9lReoqHWrBImzGUB4PWTmW3HMHB7uIEiWLn2zd2nNNp05tVmFM/0qu8S8bdrSb9sN0r3v37mTjuLlZsjIOxwy/VRRTj4uxWfOm6728xg3/XJNiMEbLWb+cHzxr7b4f/BVb4BEJS0agSzDxJy1o4UUn5glWQUkkgPkK1N+DIUnDAODsVcopuRpUUd7ArLIDJVkj8g8IYpb5VlV1qu2IzCmhmC9e3wYZcpTykYjBR5rZ5jE55cyBIs4R5CcN1jXtfAgMAN0AHd6amY0IBWZAImXlzC5r++Z37PFv+08+GtBp/x49erLKli3bul394/dqDx48ygJVEzOuFXavrK/OmDnBRLWd6aco0Cy8yfQuk8/et1/fuTNmeA2Kb4eK6+8YR61NmzZ3OXjgQJO3b9860rFGcPA+LCyhloRWVS2mmvJzWYOOee5cYGXKlvm9VavmK1q1arENsernyRnPx/jurl0H60+Z4jXn+rX/5QJLTpgadMgRBHJ+uYG6urroBwwcNHTgwF7zPqbp8zGegdd4ajCkHvzN8m2nbj2rgqx+AARhTJKLzI4ovhpVGB5CikNFhg1NqU6g6UEkCgoJVexyZlYqdvdUgsBrEAQlwUpUv8Yri0WO6xDowRDABL5tuAp0PYFvdu/YgP7B54IFyegMljmBjtg+TQFe1xbrKxU2nhJpnc61KuHYrLBG8/JjzWFSrvNRgA4veap5c34etmvn7tZv373NTQnOSZGxZ3qog4OQAGIsB8UFScDzHE6SCBth9vn5wkWLO3h4NF2XlIcBqLOsXrm+27r1azvdu/cgO+6hpVlACc6ftGlRYcbo/KMDCFIBjjYWkeBBCZk5c5a3jRvXW9O6TaflJUvm+9/nZO9u37Kv2fiJo5fcvn0nDdV4Pg+dc8KOBOD5u7f3G6VY8RL3t2/fWPlz2KDM3+PBG75lh05edPhtmKVjcAQcsHL8sbxwquni+fBTxNbpLCPDkEjGv0mP1qMgRen2LRT7XFmVIFyPUjWSzlSuNzbrEEim2o5QLmLw/N0GHHUV6DTfPgytxaiqm4/R6IzTQkhFgP4aAQkeAaBzjDZ4Njs4DLPbW3s3LJyqTXMXzUd1LCcWH8kG+okTFytOnDBx7rVrV4tCFdcKKQ1QUcrIfwtnGySpjANzQQYFhQipTqkqwIhKHY6Otr7bd2ypXqxYsSuJeRC8FKvVqzd4zp83f9TNmzdz29raa2QJKpkFJzz6wumnloriWCi5La10cGx5i3BZvfr1tw4dOmoU6rc/wDlJLmCRmLEn9twlC5b1nzjFawb8G9aC3gmNSfDhMX88+G+G//oMHDBtysQx339uXvgxy8/MXLDpwJBIGxclCGCzgtprGrMwVd+FRBZlvFVQkwpMlV14zQl2qPKG8DDFHx/krFNZyVGhtOIHu5xhtnAIFhtS60irphpPZxmp6QQifreGyk1ARtAvZHwJCVHZo70vsu9I4MEFEfEHkYcJNtQm4D+BpLcEH8MRpmHjAll+7ptTGYh38a9RlpMMdEyKbuPGHe1mzpwx7sWzl+4yDu7oZC/UYFkJRhZYCA9TgUY12rSTChM8CHT/AF+leIlit5YtW9YkZ84sLAOVoOPKlb+KzZv904htO7a3xr10KMEsCC+8l2mtN9N2TLI8FH0CQeBNo3DFrZ69uk/o3LnDnuT6BhI06GScRO1p8ngvryXLV/ThXBLoUXMt6LhqIwqdtUXAoQun8+X9jApYMKzmMX7bwWNXHtQKMkDqku/PkBdDZgDIhweNaFWCE5TCA88cfuGMhDaI72mxYftCWDjlc1dKNqmnhLo6KAE4F7qciJlbQIWm4A1lmI32OvcIfh4VXlP9dvKIkuQxBExj3AiMSTEwJESsnvfgXbQG8OVgdTiC81A2nd3+/sWsuqb/F9X3JAEdkjrdokU/d1+ydNnI4AC9I0FOTzYPShbJbpNVWilBra1sjVxtjfj5vlILXhbsJEqh6jVqHlyyZF63hKicjx+/zLlixdKOG9ZvHPD3369SE7x07gWi9BDvy/Gw5BPvLXPc5T25qfB8tyxZHnZo135x85YN1qPeW7KaK6LBRK779+9kwv00OXJkeYaqMdQKPonzjptb715dN96+fTsvtBfhiedzisq2cAjx3+EAwPjxY8cOGtRnQjL2lY/61cNXX1X66odVh5/7W9iEIP5sYUUmGdTxWIFOUErvu0qaEc44I9iFkw1htmAIixD4Wip5tIT3PZMSDC0N2aLwALBSjRHosM0ZYbNk1qAAOwtNxAxyPrQ5MyI2aa8RObK8Mpl56r1EbB7eAQtIdSuYiu4WoUqXYuk8qqez2PRRJzQRF0s00NnUcPLkH4fPmTt7CGxwmNaWADYSEKCCyeQLSlWqM9wAuOhEUUdbexTUDNeRAKJKHbVUs1DLMEH+/r5Ku/Yd1i5aNHswvhNnc8N79+5lHfu914Jde3Y1pCOH6qpkkvHacsfnvy0sVa467X+ZOIKyUIG169Ta182zy5xy1UudSsR8fXAq/QK7du2tuW3bjn7nz50rwWVUpkzpy82bNV5dq06t/Z8qpXTWrDmjpk6ZPpnuJlbjkTkC3ES5cYbhZ+nSpc/t3bu1JuYzSYy95MxLTN8dv+a3mfM3Hofanl4JgoYnKMbCix7XYaRS0FanVOf5RomuBYi1sI3Dob0FBAQqBRrWUrLUrKj4QpSHQ6uj6q6lzY5VTiccDysAk5KejDhSZCmFTY/4AG4OmOgEG5WGS3chVXiUqRVhvFTB3kqz3K4LexRw7vex5zSh10sU0OFkcxk1avwsOLs609FGSRIJL6cKWnjOyclmZBKzhQKPQsLSi50vX54XWbO5X0eF1Qp+voHQNwFAxBvVvG1un5HwuL9T+g/ov3D48Mkj0qaNPbRGexyL/JvR30+YJOqxG+uyyzpsvCf/TXC7pnYRfgJZVBLMtvCSpUr/2rFjh6XNmzfcDwAkuTc6eQJHjuxqsn792m7nz52t6ucXoEuVylk8DsBPR2QkAH+hQ8d2P1ep0naXm9vHbfTAdFrPNk23nT57oZKdrVrPzvZrJBEAACAASURBVJTko8MGBz9J4MyZP3Zr2LD2vx7HfQvSVPcRS/dcuu9XOVhB7QHB8FPffUzS8v0CNp5HkHNtmYBdwzAc7Ha+6yBsbPbZ3JSqPToor2EvU6oKZxxUd4KPYTUBdCw5OuGELa2646Op7hLosY0pGmHGOEiVUqtqAfwezHbE76m+Ywz43QVptmVdrc70LpeuWUbNp0+1jgn8CQY6458DBgyZu33Hjp6QxFra3CL5BE42NcNLdaqRm8xdl9IcFU+D6tVvuLlhw1qbbWzsQ7//bszS27fuZSMYuTmEIolBqNN4CXSIDf5qwBwvr0mjsGBjLS7x8GFgxgH92286c+Z8ZUcHZ5VoE1WtRU0EEcDGAuDf1DCer5I/f/6bnTp3WdS2bbO9qL56L6E7YUznXbhwvcKGDWs6b9u6oxU2NFeaAYxrS4cY70kPPtlbuJdfpcoVDvTp3HN26Sqlz35ML/6KFSt6jhg+5mdZrEPWpONPaxRyoP+jfXuPFT/+OKVbcp73Y3x3562AeiPGzNr9LsLeIhAuKR3CaoKzYBLcIkjMqZCSkW5qq6v5CJTsjKujlj9qx1kifu6HNVitXxdFSeOqhDDkxZWphruFI46HJSW6GdD5eVybDf8WG1CwjYjr6uBll+fwvgzbCTIeQmwuKJqRwyIsvEmpHJ5NXDRbP8Z8JvYaCQb69Omzhy1ctGAqAKyj9KAKLvKjsX2JMA8mmeBSCycalMpVKh756qshXjVqVDlH1fHRoxcFGjZotB811LMSoFGVWEhPBNj9/HyUfv37zpo6ddJ3camaD289zNGmo+eR27ce5JDxeD60rNCqjkUvwmZcEJDiIQMHDZjet++gJcnNaSdPf9nSSd+sWLG2Bzam1Pb2jlHOMG42olyU8XnU0CHZf0HiZ+rUru/q1Kq1adKUCWMh7T9KVw/cw7pa1doXr175X2FWqeUhU1lRW1os3qJFC/6+YcOqmrFl0iV2wST1/Olbb4yat37PZD/EryNBktExqE2AMeXXZBVGmJFXpIvO3FYX2qAQoSBfIZSmA8PONzhIyd0Q3Peq5RUfvHsy5yyMTj6ZoaYlbVV4zDgOKc1jZ1rHFmYT5iHTYY1FRbTwOVCC0yyAK1gFOgt/YpwO+M8Z6cYNC+QY0yuHlvkIMbj6kjqzCftegoC+ceNODySZTLx8+Uou2sTSay0kKbJ1qJ6DRaYEoa4XCBvePXr2nN2nT7cFpk0IkZZZqHXrDntfPH+RVXZApWSXJZMDA/2Vvn17zZ4ydfLIuFTqhw99crTzbHzsj6s3s8JpJ+4ts8tkCI2fZcqcQV+qdJmtI0d+M71IkfxXkjO5eKm2K1euabt8+apv/rh6tQDbNtHZR61G1SYIKtXmlJuOSueVHVrVWDc3wVy5ct3v2q37zL59u63CZwEJe02xnzVx/LRJU6f+8B3DmcLbDk1JzAMWOUHPwhRz5sxqXaNGhYPJvVdSv3//uSHb98t3LT35vye1/EF7ZrqpDmATIU7EvEU42njx95JVQtyYkCLPEOW6GC+jLkCwg0ZNx1oISkwB8NY53JRqoMSGOtorvkh0IcVabIBqsFw44bRik4kd6HGF2Uz/RqBHCBufJBn4A4T9r8r4cNSBJtBZvdYKQLcFl6N0eqf/dSvl2hyFI//x1NV4gY70yXy9evVfceny5XJMBJEdUqiacvEyrZCLmjZ5njzuz72mTOxbv379XeaL4saNOwXbebbb//Tpsywi3xrfo0Yg4t1YlFTje3XvNmvajKlxS3QAvUnj2sfRky2LagLooqrT8CXQ61yoQKHbPXt2Hd2+k8fmpC5OIW0gMQ8d+q3imjWrB0NNb8JqJaCWooMIiBHUakBHlU4waYZIoDNZRqaSvk99tRP2Oz+vXbvmKWga42rXrk6NJ8l18M6evVS2UcMm5whqtTyVmiASgvit2lnGyjBy5LeD+/TpOjc5c5Gc7244ebvjlJ8PLH3qp4EvTC2EaWephmEx6GhAN867AA8PKfyo5IvDaKuLSANJKhHg10F70QejvhxCWSTAVGzvodii1NQ7pItaCOad+j3hb2caLH6IJBd+zBRWk4dLjG1uKtGVCGopFINqEo0e141AHj2cWKJljyWiANlQ6LJDkUzt6me225Cc+UzKd+MEOsCbZsKEaaNXr1o9iBPAzClZ1VRUQDEmoQQE+Ctwcl0dN27M19WqVToa00Ak0JF6mcXG2s74It87ZIRE79cnftUdQG/erO6JB/cfu1GKqXRHcppVZw3j4l8NGeA1btzY8ckhKKChRI3du/e02rF9R/u3b3ydGMaSvgACV6XR0h+hNppQIwicTjX5Qta+42c8V1aBpROS/gtj2eiAho3r72zatPEG+DHYtyvRJB3c37F8uYrnb9++m5/X5tyqURBVyyBrq0ePbpPGjRs1OikLJLnfwfh0E3+5MGH1tiujfEKQCagFxZiJOACGBs4Zg6S4xnKjmLzysugmHXEaZo4JwEOLgfQOCgxQUpcopJTxbKZ4ozyVFUJslLSR3AToDSfHiPF0LD2dILpE16LjdgzGwKAT5gN5tGr8TkffAYrKROhg1jL+j9ZR/Mga5KAMuFv97Kkn98hrMSE5azMp7yROoG/evLfpuLHfrXj16g3qPal11gXgAXIpPcNBOsmTN9fDiRPH96tbt+7+2AYRBfRHz4Qklju2mB1MCENwsNFnT5kyns64WMNBVN3jA/qQrwdOGzt2zFhcJ9GFGJ48eZJ78+atjbZu3dX75p8384p6JZCStrZ2Uf3XVEnDxAnVvyCSYxAvVUsZqfFs0V1GLWRmTJRRa8BpsbgF8BGtoPNOD4mUI0f2J63btGYkYGvBggVvJOZFMgrRuXPnFTu272nn6Ohi1JSobTDkBo80gOTp2WrdhAmjByJ5511irv0xzj15O6Do/E0HFv967mnZCEuQpQxILhW2sY3IN6A0Fk61WA7hrjOx29V5V80ihn20KAmNyC4SStCNEUAKDAxWrNzSK+U7tlD0jg6KNozqOtHNAhQ4j8QZbs4AON1npkBPLMijhiyur2ZDMulV4X4Nk0Ik1WhtMExwOdCYwhllp0qnc7hUr4Bdj8oOmn+sL4FYr7FNMAbt1Naj/dYD+w7XYlxcljaWdrAEOpxMPjN/mtq5UaNGH6jrptdWgd7+AFRut+QA/dEjH/dmTetBoj/KHIdEnw6JPiYxQCfjbOPGX9quW7ep752//ioENV1LFZuhK5ol5JbzmaW5QbDSfGGqKP0MZOOhOk4EPo+At99K2usEvahTD3Wf/6ZmQPMnDJ5idHkVXG2WTOK1c+fJc6t9+7Yr+vXrsxRjj5NLYDq3s2bNGjpq5Jgf06RJL8ZBR6eqRSDyAIporVpVz3p5TemRO3e2Pz8GeBNzjfVnHnvOX3lw8c1n/o4ae2dRZ48S1cpSJVCpvnH1iAloUSq72U0l0BUAHc2MsWGq5bH5vExNLdi2sZKxQH5BtaYPBTMiwmwEugAkN2kzoMf1XOZjk7/zGkxxZrqqoM0IU4B+A5XtqjUgpwOOwkicY4+xZkMXvhrZXcd1zmnnlRy/UWLeQaxAx0No9u/fX7tvv8G79GER1qK6qZF9xS/xdwIemV+GrwYPHDf0m8GTMeg4mQ8fV6LXOxkd6MZb4wVTdR/y1cAfUAOePO94ucV4Vkuo6ZXWrVs77OjRYzX8/QJsVM3F2GDBWGeev1Mic5NihCE4GFxqVJwhjZae9XLlK17o0aPT4shIS/9Vq5YNPnf2Qnkky2j5PUohkZKLl82QH8HOe3ADoTYgykSLGvaC1KOvU7f2kU7tOy6s26DWvoSo8yDstMQmusXJKZXQFMTCFoUz0AgCPosSJYvdmjRxTLeyZcueTewCSc751DbGr7w0Zf2+E1+/CYNEBbhF7X7CAlqSQWg8HzqgTUFlDnRziU6gy+KcNN/CEM4KxftIU7m0UrZuHcUXwKdKL1LXGBkxqu4aagNUCmIRdbFJd/PPVScf/Qkq0CNZ9gqqO96m8ANo0ZSC/VywzcOMCFOcw72VchnsTnYvk6Wdm0bzSSsbm767GB+Tdl/DJi0PXTh7oZyVsXOIVNslr5q7MRbk+sWLl3/t4BB/Ct6ff94t5Onhue9xHKp7/wG9GEen1z0e1d0U6OrGI+zj6EAfHZ9Ef/v0rdvw77+deOLU2bZPnz62dXR0Fqq44OfDsWVahJEOROHkMvaBE85ESHJ7B9t3Q4YMmtG5c8d5skAj5s9u2ZLVXebOmzXu6dMXadXkHaiWePH8N731spQzQUmwC00BJBduBHTspUuXLrxqtarrvv564I/xqfPnzl2q1LBBw5MsN0UCEW11wZBjEgccnXny5LoP/0mPWrWqxeg/SQ6Y4/ru9eeG/N/NWLv3wq2XOYJt4NMQkhW2OWvzAYAiV5xmoMkqjJ2ZJr3vJtKfYMXcoX+6eDeihRfqxAVDjddlTqvUaNVMCYf6jmRpJL8Yv8ckGppXTFtlPF40UYw7ji6fMSapLjZpbiIIr6nxetUU1SB2LhJbGGdDFZoQodlB6wvzVoq7WjxsWShbhypOmtOfau7Nrxsj0A8fPVepo6fHEUwIatKrxBhOCkNKZJoR7JkyZPKdM39B2xo1yiYobKMCvd3+uFR3I9DjIczQRo8B6EZ6ktEZF6fqjhfmsHLZ+uYLFi8Y99ft2+6ymIOpbU0wygYL0t6W1WhEPzgHBwOScPZ8990Yr3LlYu7meu3ag3wTJ46aeP7cxWZv3ry2YPENeu5lDXs6N1noUU3bVevTScBzQ2Gp57z58j/v2bPnBHjN2bAhRnX+/Pnz5Zs1bX2GTjjmFKhkJKi0II0Q6DlzZXvuNXkCKs9UP/BPLSze59c/XlX+7oetOx8FGlKFItASTCemBmxG2MsEuiW5+SIc9V6qxwd0ZrNJG50+EQs8YziLQFKmYg7DkJ9OckwYwFa0bk0lddECSiAuGgl/gJC8zG4zAl314EevGWc+PzFJ9mifiVg5M+JUjm04xDjXiZaZkbDNrRB2ozcgkEw5Hfn3vkouW+2bxu5uvVtn0Wz7p95HjEDv2XPA+j179nrygWRVTkovkVcOm5Kfe7bzXD5v3k+94lPZ5YMkQqLHCXRzG134TYXXXX0UE6CPw2fRKK44L/WWLfsqrVmzctDJE8erwxmkEe2QjS2apcSmZBCps8b6cbTFSQYi4OEXiCxTtuSvzZu3WdGuXfMd+E6chf+ovh46dKjmutUbB584faKq91sftP1Wi1+IWuTkQxurxtAE4BxTIkhWH3P7qZJWrFj5TLcuXefXa1jjkCk/gc9MoDdu1OIMHZxqF1oW2lRFGIsz5Muf68XkSZN6VK1aad8/tbDY83zF6stjlu06N+ydwQrpo3A8UvCFWio2OmtUYWFVW5JL3ivvAkDmSDcp1qi+Y1Wyq2uTGwQBDI87cr91rPSC+Ho4JHoINKi0+XMrBZvWVoLo8IuKzqk140RCDM0bM4JOfNLdFORC7TcSZii9yZ/XC9UdGiF9AJToAHokNUG+E6judrowJQ06tVVK67StW3HXLmmTWUkpoe/zA6CjmWHmunUbn0Ejg6yCP41dUDiUoFbSiUTJkz5DuleLFy9uWa5cwhNCEmKjJ1Sit2hR79T9u48yiRLNMQJ9ECT6aIYwouLTlxBv3rBlW8c9u3d44NlSswuLSITB80XZjQAfDxkKk6FEY6zfkDNHtuvNUIa6a9eOaxLb6BGdXjJt3Li99aaN63vcvv1XQS4R3svayl547CWjj/Mr4sskWxhLPnNxsfpOmjQuIc1btFzRtWOHDUVKFCGdVhi8J347U7Vxs2bHOB+iwYHw/DN0jJpqAHqhgvkfTpgwtkeVKlX+seIHVx4Ysv+wePOWY9efl/TXWitBFmh9DVJVWGAk+qtZK7ZAWzjAaRD5Ee8PcxKsOe5lXF1Kdb47azY5hG/GEjsHtQRGcDTs3+dip1Tqysoz7HtHvwveLTZ1fpdONAvR4y+6xz822zymDUAksFBNJ6cdoOamLSvOsgoONxMh6aG5hUOih0eGKHZwvNqE+Sr57KyftKySpWFta831hII1Oed9APTly9f08PKaOj8oKBTFLGHriER6hgnUCaJE79yl89I5c2b0TMyNPyXQCUSZKccxg5n3w7Rp4xleC0ZxyLyLF67qdvS3Q23uoOoMzyWoRBkmHCyIIWPe/K6sgiNj5QQNJbqDo0PArNnT+jZv3jRZbXZu3LhRcPv23c3R9qnvn3/eyOToAAcaNlQmCRHgvBcBy/vyc7mghS1LaiXG6OaW6XnDRo1/adKk+bqyZQtf+nXv0UZNWrXYLVpGGYEu4vkAOkNOBQrkvTth8sTuVStWPJGYd5acc3defltv6txtvzzwDncMQhZZKForiXxwjI+SzhqSlyCmlJc2Op85CtjGf5gD7wOBL4pGwvkFI1x1sKmsOT3ebyBAVaRNU8Uld3ZseFDnmb9u7NYbEkihpYbE4jricsqpQFeVEAJdhPE478aUVQoRDZh/UDDwk91nULoM6rsW/dmcsUc3KJH7+35ZlCl47tjji8l5CSbf/QDo3347bvHKlSt7RTGTqOJQPGAs9ArDexy2ctmKBjXqJE46fEqg82WoXUdDhMo7dsyYsUOG9p+5cuW6Dlu2bOlx/tz54vB+i7JSBA+fJyrLjc38jN1RxULDf6LEs7GOHDcEqve+fu8MZcqUutqyVes1np4tViYnJo3xWu/de6Tytm2b+h06+FsDhPYQToaUg9quNmtQcwb4O/9NVZ/PJpJVwLijxOLzIof+TvceXeej803q+fMWjiZZhuYAD74yVs8hQ65MmZJ/eE2e2A0FNn7/SOsmPnBYjl56YeGq7ae6h4ABF4ImCmFY4PR4kz2mhTrOogzC623GdU8M0EXuN2Pq3DSYh08eA6MYemyQ4XrFD2p0pkolldyoPKMn0BjZIG0Z4+FmIB2vMT1MQiS7BDqxolaVpRqlRoDIuKO3PxK8iUg8L30TrIZji881iBRg61PKuKXe27OEY7d/opd6NKDj4ewbNWp95OzZM2VlEUdOomCBYSJpQ5YqUerS4d/2lQEgEkXMJ9A7eHrue/joedbY4uhJUd1lkQuCgkCgRCxWtNA5WwcH/bGjR8sB1BaytJUsUGkKZtlqSdr4XAh8yaJXO2mlVO8Yo6V0hOSg+VKpQqWL3bp1nNLao/WuhPooYllMtgcPHqu6ePHCb48fO1lVVsWRDSXes+nemxRyTGIzQGgPr0Fvb2+r9/EJsHFGeE3m+fNdUQujM65hg/q/jh8/umeOHDke/kNAt285cvu+S3+9rRIA8IXSKWiUfrTIBdDhjRbyj5piHLQt0zh7TGOPoEONeenwScAIExKV5aM0cEwGkpLmllYp07COoqW2g7rvrB8o8uDZwQXnvc85U6+eEIDLcahAV6m6lgxrMpymjkBE85C/o7aXwvisGF2hiQbYiC6xAHtWW4O+V6ms1Wu7apJVEyEh7zTaFF+/da9Uh7bt97548TydatNwy1U7mXBRUW0fNmzI1HHjx4xMyMVNz0kI0AcM6D13stfEb+MLr5na6FL6ynRVGcoiEJyc0RyAoTK8WFab4UHpzHMl8YWfSYqq4K2bqPIyx1vEbqECy02BgIdDTF++QqWNQwYMmlWibOE/pL2c2Hnh+czz37BhW/v1a1b3+9+ffxZgeIwSW3XUWQkJLk0O0zJdwtY09mYjoUklM3GTUkNGOvQkY1y5e7fO8xC2/BpjTDTFNinPs+2qd6Pvpqz7xUdvZxsM8IWLLC/KWhxc6KSKIhxFCUjJF+Upi+FmcQFd1IOlL44JRXhOAl3QYyFVNUhwCeUmA99SEXjf0xbIjYYPND9J3YYZBE1CrIEYS1i9H0hcwCfQWWleVd1VWq0EOk0SPf/AKscgR7EIBnPjaV6I/Aw4t50jfJX2RXPM6JbTevinVt+jAX379r0tv/lmxFrQCG3UCQTIMSEi3oiFTimxZf2GRrUb1d6b2AWQENXdCHTG0ePIR48eXpPjlM4ssZbo6DG2GJZxf4JU2PKgnRK48nyquHCsBaHYogZ567aUiPwuJbtwbgkbUOWuE1QEnTBlcHDDSJcuw7s+fXv+1LJl69Xu7pkeJXZeTM9n88m5c38eunPHznZwvqUSpaEAYNGf3RiG47hNyDWiLr2k1FJT4nmy2g/7sllaWxlGfz9yWJ8+vWYmZ2wJ/S7WjPbrRcdXrt93uWOoFYqTMLRlXGVCzTY6r5jtxYO/mzZBlEUc5P3eA01VIE0XLIGudk3FM8MQJtCx1dHjJqR6BGzyoOAQJUup4krB+tWVd1TvEZXglajk83vm9xNjisNuN/e6MzxHPLNpgwjXGTUXIc3xb/q4whHyY1lzC2OYWggO1pND19Xy6awPDqnk1vpTe9+jAf3npav6TZ44dS7UXwYcVRICgC5isljk1ta6kFOnjxfKmjVrogs3fCqgM5Qk7VipmhMMjCFTzZYqvfSsi9a8AD1B4exs/6ZipYoHq1SsfgA7vOWhQwdqX/n99wZv375zVjuqqgfPJYuNgCL4CS41e031C/C+hYsUvdqhQ+vVDRq03Zktm8v9hAIjpvNO/Hah5qZN69ofOHywJRNq1HCcmmfPhaZ2W1VDcLTDCXyW0xZpv8zNjiqhHaHYO9qHzZ0/u2PDevX+kSozj18bMvX7ceP2K4/8ygRCajNOLtR1okuAmr+yzJIKdAFykyozpsCLDriYgc6QFsNsOoIbDjk6H0UlGtYGAPAC/AMUhyxuSrl2zZUg1pJjlIUJrgSnDZsyqu85oeA2f18RZFDiQ0s2l+DzkKSEZ6Q/goclyUFsAIksPS3CfGEMFzLJBUw6RwM2IZ1PSNsa+WvUt9N8UtZiNKBP/3Hu8Nk/zZmKhYtyyWzip6ruVIcYR8+ZM9uDg4f2FU9Ki96EEGYSItE/iKNjounskIe1NcsdBwj1SLDQVFqp+I8bF0HKMk9FixU/06ZN65/Lly9+Knv27A/4/ef3n2c7cOxIvd07dne4+sef5ZFRB36GOkXcUKRKbMqYk9clCO3sbULR+OE3JJksadSoNktVJbm5nsHX4Lp+z45W69dvaH/pwoXKKFWlYYqsqaOOkltqKCoNk4faUICbgJW1Fi2ds99fuHBVo0/ZY9508W864+3ptWDT+ifBSFRi2WNIMhFm4uomDEX0AGq7MSc8Sm03KyklKsOY8CPMqbJiv+BVQb7huTqWgmY4EdaJ6IXGODYz1gJRPBIAL9yigeKSM5sSytJSEF5hxg2TQI/L2xTnBkBAmwEduSsC5IzPc1xWcAxakD4NeyUcwpLsfp7ggOw9x4gQxSnyhVKzULbv++VN9Um579GAPnHyjKnz5swZIbyIIHGI1kksRg9O9zuftwoIFyd379le15yIYr7LxfS7CvT2YMY9+TCpBV8IDPJXkmKjywQOgj0MO6cKbumpVkMolOKSdZbZLZNPp05dJ9SuXf9AbIsfxSfzbNuyq+XSZatGAOzOIszFGKmoC69SYyWFVZBe8FJJUOGmwHtBsgbVb1DvQK9e/aaWKVPoYkLmJ7ZzyGvYuGZrk5VrV4+4dfOvbNQqqMrznpJFJ/IOUMpK9cbbCNVdFOREZdTadapvW758CVsqJ8p5mtQxj191derqvedGvGZbJGgYlGaC820sAsneZ7TXEw90IXe55aoQp8ougGb0RwDoorusqBcHe53mFtaEDtlrPqj6m71KKSU/Wjf5I66tpyZGk4zRGqPqHdPzxiflpSOOM4s6E8IMibLNcUE+twVMQGbohSGchqEA7NzkNIpdOMK8ALqdzl8p7Gp1ZVjlbHU/ZT25KKCD0OE4adK02evXb+qqFi9gM3rGHaF+wLnz1vu10pRdTjetaY1FE2+yiPnExQ50nondP5FAv3fnoUqY4c4pbGa1kL50sjE9kx/L+HPatOm9UdZqd5PGTdagCeHp+KQtIxCXLl0ttmzZir7nL5xt9Oa1j7NKK1UZc9KpJ1tKcb54LwJebjRODg5/9+zba27Hjl2WpU/vkKyWPGhMUXjZsjV9Nv/ySxfQkO0YFZGHpChzPnx90NHMGIGgCluxUqWjixatbRpXwc2kgtr8e3+8Dsk7ZcGR5Yf/eFwh0AJRECwebLsAATVD9exwqu+EKzK61EPm8au/Sb1EalIy1TfqXDrTxJ4VvWCFiF2zXqEgeQHoTJ4hRRYbQUiIj2JlFxbR2LOtzj9VRuU5ikDoXFyVYGxCNkxaMvqjoj2PSWiba8w80B1Vhx7Ppmos6jZkniTD0lLCQSgcd++99DpaDHgOLf6RXu+n9K+Qt1799JoE0cmT8r6igI6Hce07YPCcTes3txeUTGPjOwKdQyQzy7N9m7VLlszvmhQP88cC+qNHj9ybN2978t7d+5mYQmpKlqE0l9RRMsKEBIbaVrBw4Ut9enaf0rx5E4bD3hvfCZgxzIsFstsqL1669Lsb1/9XBrawI5ls0kanR1VNqlHzzKW050Kl9H/9+iXAVuF23379RrVq1fBgXI7G+IaDsWh+++1E9Rk/zhhz4sTJqkwf5sZD/4Hs6+5g7yTGxs1GdnDp3av3T5OnjGHlniRXvY1vbPz7vP1Xvlm29cL0+z6gIqNYI51hYAIIoGuMSR+RbIFEkokR6KLIo8khgR7r/UzMNCFx6SzGyfRwC1UfYBe14rnR4z9SY8MD3ygVi2S702VA/8m/PXsz77nBwuE1NDEt6h5aQLWW1WZiArqU6jEBnftNfP3UY9IKoq5J8EPCp4sMUDrmTDOmcwH7iQmZ56ScEwV0b2+D8/ffD5qzYcOWTqSHMlleEEjUfUoks7Tr0BbZanO7JCVMQ6C3a9fhwKMHjzN/EEfHHSjR+w/ohzDQuBFxhdeiAV1QPtXOJHJhS/aYpZVVRLFiJa6XLl3y2NixI8iSY05okg+8HEsUmqHNngAAIABJREFUhey9efOWztev3ygJsMPfQ7XM6MuAhJH2uvTUC28w1Gj6DMibqFGz6pHevfv9VKdOVWSaJb1eHDflSZOmDtqwflP/58+fwXRPg/ejhuDUNFW1xr4wKbDhpU2dNmjshFEjPTzazE9O3D+uySO3fcSUdWv3nX/SJNQmrRKMjC3eXwcNh42RVdYYw2lGoFOSCsv9PdBNQcGzpbZm+rn893tDRC3wyOoxIplEdHOhI44lQ1CrDfu6k1VY2OivetTrVDHDmdFXQpZcfPa64ztLFBIBeqXq/oH33egziI2yRpORR3K99no48VJj/63iHHHZs3rOxgU0mhdJXqRxfNFUolsP+ebbn9atWt+XEp3eWy2kVCR2R6rulBr16tfe/8vmtc2xWBJduUUFersDjx4C6FGlpFRtgUdCVXcCvUXz1qfu3n2YUeV2q15xkXjCWmT2NqB8FrhbslSJX1u18lxUokTej1rJg9Vsf/hhxvBr167XAGc9iyw+KMN83BxlBR41hq/msYumCvDOw5Hp06p16yXdunVenydPjqvJeakb1v7SdvbceVOuXPk9B8J8anRE1I0zqaPHVArct0iRQjfmL5jlgbn5X3LuGdt3T98LLD1mzprt1574Z9ZbpgLvC6YM67WxZzi/xJi5cbVRzRZSVFSaee8mMgd6XONUgS4UdnFahDGrTQCdDRkBRDroLELAK8/i9GjN7KFlcjlqXi1+ZBi+4+Kf0/zs0yoBcIox5CWTXMQwZWjNqLqbAj26dFZ1Dwn0uOz5aNc1eSh+x4D7O0YGKTktfF63K1ukS510mk+SeBTNGTd+/JQJaLU0mmQZpjyKNE1BFdQIqVSqZLHfjxw7UCUp6mc0oLOUVJSXWH3yxAG9FYD+AEAHIcZYEEOSXlK5pvIf9tXXo7r2arcyOVIzrkVG+33hwpW958+fP977jbeDiIvSjhMJEiqbTn4matnhb6IMNmulkZOAhVi2XNmLbdu2W9iqVaN9sPeTbL/v2HGo+eTJ42ejKk4W1VHnKHwIBJmItyNaojLsIpVevXtTY6IKnyztJqa5WXb8UafZK/asfBEYqQmEWq5DrTQZohULnfFlASI1d0In6v+rRBrTQ9rm8jM1Qy3mg551SahR9QL6AtCjnO8CtrkOPALniHdKg0pFdi0e2dqTmuJxgyH/uiOPT133CXNVnNKpCUQxHiqQYwewugXQsRbTERfwTf+mwzuyighSXLS++gZ5s3n1z+fEZKw4i7jEtTZjnSvTPyxY9PPXkydOm470TR1VE9FcAVPJiiqUFlmzuf19/MSh/EmpEU6gt2/ncfDhw6eZhOpuCnRRM45e977xMuNUiS6BDmccbD+CR2Z65XDP8XzKVK/2lSuXPpaUCUnod65evVepQwfPLa9fvkovw3di4RorysjrsIgENQ8ZxydXnWYQTY20aVOHFS1c9HTbth7L23g2Y755ojUl3ufkyYu1Bg8etPSv27eyicaLOGTdfRtb1DUxLmZq9LPn/NQKfd93JPQ5E3Kev8GQ9vufz0/bcuRCV39ISYgIxQbOQtaEE3VRGW4i0LkJ8h9kx4mGkAi3mfFfzYFubrNHAxBZZqoTSRR5pXTXAtx8BzQYCKBsDmEvR/RqOaJd9byreN49g8F57aWXv/52722pMMc0Ip7OWLzpITekuAGsAp213OWRWKnOkVOz0SCrzRq1Vkqkt73Wp1S2pvltNQ8TMu+JOSfadrRt287O33zz7WI/vyBrOpfU3liYCKhDghdsYYjcu+9wcfQNv5aYm/DcWCW6UUUi0PsPGECJQwpsrMw4c6BbwOnDCZZJHwUK5ns52Wt6u6pVS/6W2DEm5vzjx3+vMmLE11sf3HuYRvgyjP/xGlF2JGmfRlYd/y4488ZqODIawM+cnR3869Stt71Llx7zkhqO27Bhe0cUl5jx4sWrtKIwpDHHXhS5MPaf43ssX6H8xV27tlZIrFMyrrk5di+s9IQFO1dfefA6XyiIIdQsGMNmCIzhL8bOZacUtdEB67VxTyNrjjL5PVg+TEtVtSVzMPEbwhkm1HepMTAHnNdlIScLZMgFKiUy6u6PGdajW5XcjseN78Zq+V++Xvv+ejv0OXLjI7DxilJTLAMtNAx5J3VMcjxyDFE2uXHdqvXi4j/MNwH+zm8io0JselqLCCWLVejrnkVztqqZSXMi/ism7oxoozx69GStvn0Hb3n79rWzWncM0hJeSdrodHTQg7xm7YYOHh5N1yXuNgT6n7DRu6g2uqlEjwI6q8D2/2nKlLFxeoejA11tGywlOn9mdsv8Zsb0Hz2q1CjzSXOvT5++VqV//x5bX/39No10fElnXNSiMFJlzV+ytOFFv3isHG4C7CabMVMGv06duszu37/njKSQkuAs7Dn6+9GLQGHW0g8iNx8R7sOCJuhZtWbl8mUdmrZonOh3GNs7X3/6Rdfv5uxY7h0BT7u1yqYM9/VX7G1sETuGv4D8AoEb/A1EGQl00mNZndW8lFRsktFU2kdtDUYvvGhqymIWjKOLcBjYj+CSd6tbdFFfz7ojc6TSIBagHseDDVW2nv973U2fCLcAOE/CWFveBLDqeIx3MPHyi0/lnpMIoMcEcnU2cD1QnOm/4YVTRfgpHYpnn9wxpw2LpiQqOhQfHqMBnUSRDh16HEAOdw4SQUQlU8YJ6bDAQLy938DO65XoXHQOgkDv2qX7gRs3bmVm7rVUcVkRJSDQT9yrXv16u4YOHTC2ePHisTqphNe9WctTjx49zcjQEp1PMpWAQIfq/nbK1AkeiJX/Gt/DJ+fvp0//XmXgwEFbXr74Oy3NGj4Tf9IpyI2Mi1Jm1qkdVBjPhYqGECDnk85Nfkd2quFn/Du/X61alSsenu3nNW5ce2tiAM/IyZAhvZYe2L+/FdVmSlbhEKO2gfenlptWlEKFCl09tGFvFU0czSwTOjf0to/8Yf+SLSfutlVcMqBLaqDIzmLF/UiEIRVWe6WvQIhGAJ3FEpmEAonOQooq0OMNqn0gWSXo+M4FfwC9BehLsgb7jLY7q8G6Oen8x3St06t99VwbTZ/naoghz9bf32y8+NyveKCVnajnJjQtZrRBExJOVBlNifLGqQiPYuxFRdZjUvvjnj3TyAGTaoKRG29v76DYhvso5TNZnm5bKmvHorYawdb8WEc0oGMAFp6eHQ8cOPBrTRZKpCSgRJf8bjrkihYtcu/kqSPFEuvoItA7tO908PHjZ5lI6FDroFN9YTcReM2NvdIqV6lwplevnlPr16/DEFTULiwfWAL9yZPnGUkaUXdiTrZaaCFHjpz/GNAHDRq09eWLl2nUss8qd1tmuAHk+sJFi969+9etbAGBAbbckGTtOVGxx1gsg+w1bgica8l4e/XqFVtb6Xv17jGnX7+vpyeGbHPx4sWKQ74atvrmzTvuglCE+YkqaInxUftwcnIIRwZiVzRgTLZUv+RtyDpy8roTF+8FZIuwc1VCYW+ytrkNM8gAmAg45dS8bEGNET3SWGYJJF2V+y7EZ8xAF+tDUpCNktRcOhKUapRILYYZySQfSkikgRbI6vh0yleeLarltI/GTsQ1LFfcjRx26M+HXk/RHDHUQjX/yEcXar9wXuIpaGJAq1XHED/Q47PRuT5Mz5Heftazs0TVHatIfyWXi/5Ry7I5uzZKpTn6sUDO63xgYIwcPe6H9as3DEY5Y0vhOYbXXaR+IkyiqqgRhiULFndo1qbx+sQMhDZ661atDz569DCTs7OzUa2E2oTkEZnvrtqwaErn4BBevUaNnXB2raxVqzpJJlFqzMuXL3PWr9/0xB9Xr2Vyc3MT3zcFunvOHN5IyWz7T0h0Av3xw8dp1Nx9sL5YtcZY7w1UW+958xY2/OOPK+V3bd/W5+q1/+XhS+YmJ8NfBDzHz82BmwA3DG5WlPTGUtCGEd8OnzBixNBxiZnrmT/O+X7CxMkTeV0Wi2RyjzCXjLFhah51a9c+tX7TqlpJdQDK8aw+7e0xdvbyDb5KKgUGAwQ0QI21wn5jllhddLbRRo8k2I1Ap12tY3NEjoexdaNElyDgT6kimzvnoubBqFLL7DU1Tx9XhuPYBje21wZHNqxYcOW8ftX74hofuNZ/9TZU3nb6/q4bIREuQSjnJa7DlYR0UgpxtYDHe3hEjccIeBHaExsRu7RE9yOYAzrOd0caLvvPhSC9GGE2O52PUq9ojplf53Mkn+Sjqe8fAP3gwYP1vx05es3zZy9T8+FJ8RTljRCf5oMxJ712nTr7Nm5czXh6gqmw7OHWpXPPvb///rs7JVdUKMoo6eQi54KkY44vLlv2HM9bNm+2ql6tWmtKlCtxC/cz3EI3VRA/Tr78+1VmAssSVEv1UCW6e85sALrXPwb0J4+epGECkLg/HW9475SgoNz6Xv79Sl486qsDB45V3b9/T8f9+w62ePLkkQvps7IgpLAnye8w5s0zS5AHr8G/5c+f938n9/1WVeOc8IYODzFHTdu0OYM5z0CmnHQIUnUnU5A/06XP8G7Nmp9rFitW7EpiNhHTczE+u/4Ljy9ev+9cBwunDIof9jmtlTWeBzXNoZ5b0SNuTN2MgAlBbIpefYS80esu/EAmq/ADp1csgxPmPb5ngUKTIqpALQEfcmNAPR4lg3VIWB+PRsMHNs4zO6ZLXA8yZNl67vGBs+/0BfxAnmFkNJxefL5LjFsfTubc+1Za5kCPYvQZufbyHvFJdfO/q6QrMPRCAXQtywX4KKWypPptaPn0bVD3/W1S34359z4AOgZi1aBB0+PXrt0oJ+qmAYgyQUItw0T+uCbkxxmzu8IpF832iWtQCCml6927z7od23fXYhdUtiZi+xzakHx4mWdNaUPAmjqssudwf9yxY4dlgwf3nnb//rv0bds0OXn37p2somKqsczuPw30U6cuVx48uP+2F89ewxmn9n7jIWuz29pa+x09drFwzpyuj407vO2ZM1dKo3LuyG1bt9VzdHQyVrCxFBJdbTfNBaYWkGBYjKYSQnC+586fLIA5e56Ylz5unNe0uXPmDafJoKavoj0TawAa/QVk6n0/+vshvXt3mZOY65qee/2tIUuXb5dcu++jd9HC+eePjqZa2LxCHQff3IprhQXV6TAlP87IN+A1mHQiee5xOa7jI6SQqi1IM+z6gpO50Vig+GKpbHY3pw9o37you83tmJ6P6vu6uyEjt995M+6FHqoAtp9wqNCizjuz2/AeRG1BY2ku9mnjQbmvgtVovJsAPTanW1zzS/8EL20j4oMsLheqZLKODBpUK2e1avaaZCVEmd43xtiAl9ePEydPnvI9iw1GGGuqkUopmV6UNlWrVTm2fPnmZq6uGt+ELpRVq9Z3nvHjzJmPHj1w5VyxzRGlGSUiVXZZJUaqmfxdFF8QTiStgtTSs+3atVm+dOmK7/+8cSMbu7uK9SIOaaPTGTfpkzvjCPRBgwduefroWTpKJSuUKSKYOE984eAaAKDHC5tXi8XfHOAd95g9a+Z3L168zK5nfTNqTlSzYSJJ6U4NCmaKkjFj+oA/rl3KD3s7UV09EOfP07pV44uvX71zkoUn5eYpgIb13LxFi3Xz5v3YLTGamem7XnfiXt+vfti0QEmVBaYdHJHI1FIs8U5Ytx1apyWTNpChJRI7QDYV9BbWVRfMODWebkqBjWkdxV6IQj07DOC0tUaQirx2ZhBCOtrofZTONYssmN6nWv+41ubRd4Zmyy++WPuXX7g9BQ/HxrFTmhHoFlasMahy72THGEnQiU2iGzf1WG9ruhlwP9Ry7YOPb8m9A1VyaLM4hvsrrUrmndm/gOUwarEJxVdc58UI9Cs3b2b3aOZ5xcfnnQvb5sjUT/Uh1EaC2O0MkAi9e/XquiQxA1m/ZpPnsmVLR1/541p+curZk8za2laN06ttfoWpYOrJljatsYYafggHoZqfGOXIeQ90tG5GY4nEFa9MzDPwXAL9qyH9Nz95+Hd6bjYMQcokGm6EKGPle+LEmUJubqljBCgBP2zocK9du/d2Rh0zJy4A2tJM1OGGqtaD0yiO9o4BFy6fzAc++7PEjJGO1datOx7Yv/dATSa/yBZTXDdSshcrUeT6xJlTOpTMl3heBMcy+MdNG9aefuaht08HozYAYIdmY+mMFFB60smoRGgWzwH2FRYO49X4XL41FonEx/DKCFs9viMuwDOcRwefyNXHekhjFapM7F2nb9fqeRbFdd0XIPr8eCF42+nHrytRVmvhxQtnUQwW6GTOgKgrJ3FmZMJJG91YBJK59aZHYqS6mmbLKAHmCTQjGjUWGuSpRwYrpTPa7BtWOYNn6o/EYowR6FTfhw3/7seVy1cNtDZ2BZUxYpkZxUWYJ2/uW7NmzRxQpkyJRMWsaWejgkrXnTt2d0S/9OxUVynRZHKK9Eqb1luX5ZkFW4/hGrxUtZGh6nHnoXrdc7yZBhu9as2Kn5QwwzZI/foP2vri6d/p+HKjEmus1Z5q6dK5+p2/cKVg6tSxS2J8z2bkyPFTFy9aNJjXEOE2Vik1Em3oAIVWFXD+wolEA53zMX/+4iHfDPt2JotGUusQNjo2JDmvGTOn9xkzZnSvFi0aJbqP/D0/Q55uw346eyckletb5MRZalFFhR5qSHS0KhetkS0QZrOA04154QqaOFCisz+62J6N+rpwaMuYdAzEGOmMiy15RMwVJCE7qvLfXBt50tv/uXNWmxrpNfG3Cpt73zBs343nP/jAJg9n/XXkeKgqO91PvCiAz/QbI95FP3WWjZZRABOHXUz2eXw2u0qZJrEK0QpcMxz9o5y0aD6hexfRq17xOg1cNB9lHcdK6/nrrwfF6jVseCQ4MNBVxIPxsCLMBnWaIRsubJRAVlo0a7p7yvTlXd3cEu84OHz4cMPNG7d13n9wXyN//yBbquyqdETdNix4tca6SnEVvb6NBBRZw068WMTS1QVMNSscDrzMr6ZPm+5ZteqnBTolOto8b37198v0ojSSMRbLn6xikyqVs//5C5cLxAN0i3HjJk6ePWv+cBF7F9JB3bj4bKwegzAbgH45f1zXiU1qkQDVzrPjIcSGqSQa02hVM4j2rJ2dTfjQYd8MRbunufFJVPO//7TvwVfz1u3/6R1IMmEIDQn7EgclnBoyE1uvqGeggkQtFCHOicZfN7F3xVnRj6jwmhlx5f1ZLB4F0wchNlGyCXH81rWKrVzar0IPfDdezvhBf0ONxQf+PPJY54AmE/aizTKsMGErR4h68ewVh6gI4v8caTCqQLKJoqUxD503iFG3joOjb+pwtGKLLiSOGVDIM5zVYjEOTWig4moRrDQqmnnCV/ntxyb23cR0fqxAp0d14OCvf1qxfGUv2JlKKMrkCnsZ0letM87fYSOFBynDv/lmwsjvvmEpnERzteFwSg/b3WPXrl3tLl+6VBI2q462O8NO3EwYulIrn6oSXAKKC1Ut9gjPu3BmqV7qvPlyvvCa7NW+WrVKHzUOaT55lOiDBn+9+fHDRxn4NzoVpXebm2EqV2cA9GKcAMV4rQF0r9mz5n5tY40XLMSbkXoJdCQX6GwW0aZNu19fvXybgVRhFWRGjQHAZArtwAEDJn07atjoxCwmjFvX5+cLW7Yf+7MZK5Qzc+xDAMd9xfdgl0CXmpnqlRe5ECwkyc3P2PZI7Wn2/jyVpc6S1jB18C97K43ioPhHju7p0alX1bQJ4gg8MhhSLTrx9OCxN6Glg2xdUXoKjRDZst3AIqKqycFCltbh1qIWXBAKuLNclRWr12CYKoU3+sFniw1YppucKIFFHwCpt9YEPISbxlYUzbBGH/nyWRwPjauc1tM5ES20Y5v1WIHOLxw/frrK0GFD196//zCLPWxHEY+Fd5ULWlYbNTZ2MAwaONBr9NiR3ydmwZieC1Ze1i2/7G67YeOa/nfu3MvG1sKiqaNfoNhYZAmnqIojJFuwpBMmiqoWPfCo4kqgP5k9a3aHEiWKfHS+sOl4L1y4UAGq+6anj1+4xQR0ZxfnwIuXLuaLR6JbjR87wWvW7HlDPwXQve95Z23bp8PWy5eulLK1cYxixnG8NAsI+k4dOqyfMWs6pV+Ci1JcehhW4qufth6//jwIlT8IgOjLKH519f1MqsKePejUnxT7KnRUkopGxNjf/65aaervJOZoka0m/HoQAvbgixdzc7q4xKtt/YSGpujLWH07eMr6q3eH+dmmhn9IrekfDqAzghIJQo0uAmDXs4caKv9aIu+D/gdjrN8U0qbPbQ6smOZEsOxIDuS1bAF0NJ1gP3XyD3Rh/koOu7CwPpXyesIGSXYzxjiBThty7qKf+08YM34awmzIqFPJ/6r3XS2LzMw2xmYBtvCBgwZM+eabwROTGuhnyOPKlb8KzJs3++tDB/e18fVFUwKQa2SbYUo8kTDB1saQSCIGCYcenXecLJoWsHdCunXrMh188aWJ7Y+W0E3KF4UfZk2a+tWK5StGhKB1VSxADwLQ88YHdEj0KZ9KojOkOWDAV0u2b9vVhK2f1DJbqsbA6AC1oMYNGh6cv3hOR/gHXif0+ZcfvdNjwtJDSwI0qURVU9OwWWzXiA38MUlDgX3jhcwJM/I6qjnADiisEYecAdJ8A14pvZpVXjCtW5Wv8HuCa9if8zZUWnDszyNPI6ysAiIR+WCjSsS0WcFWi/Atq+OQ0UfTIxTF4UjdFV1hxBiIiQ9hJD+Ja9OjCWwBTTCUPgZoI3pRIRZFTcFd0YE8k9bgp7QolGFSjyKpE6VxxfQO4gQ6v8DFMnDg0AUHDxxqDqBr2emCgKJEp23MsFJQsFp1lftAx47tFoz49pvJiY37mg6Ou+zhw6fr/DhtyncXLl2oQK+87JMlHUkyHhwG5wnHwnuL/HnWCbPUGnLmzPVw3NjRvaDCX8BL/yj51+R13zt/vuC0aXOm/vXX7YpopYRy4qptaq66O7s4Bl+8dDnPvwl0b29v50njp81YsmxZdwJd7S1npJtCKgUHBig1a9Q8s2jpvDYJ9erTpBuy/Mz8dQeudtHbpMbiNGaPxWGTmr1bs3UYO/1VhdGHSzQKPEKlDwPhhOWjwxVnbYDv/OGd69cvkjpRpZNxPadJZ16uOfPQu4mvzhFlsFCDHeuaAsQK4S9hLkBvN4g2S3he9HSTDmDRRNEU6PHY5qZORRoeFqDfhjCMLOJruGo4jBUsZnBRFWclUCnsbLg6qH7ueu4JcCzGtVHHC3R++cKF6xWmTPGadvrUqYpIQgGFWZXoasqlWpCR4Pfz9xGfVahY7ly3br2ntqrW4LfkJE74+BhSrV49v+PBA792OnPmXBEMxVImj/CedGBRdWexBart0n7n5iMokVY6fc1q1XegOOPsatXK3gTgk8Q0wkJwPHv2Yok16zZ0v/7HH/UfP36aBiAX5gJb7wrVy8xGR3gt+NLl3+MF+qdU3TEuB3j1Jy1csGCwnS1DbO+JPYyjByERpHrVaheWzlrc2tVI7IlPqh+6F17zhyX7Vl+49zKTHn3VknqYSzrRntvY3EH+lLZ5bD9F2TBWwEVZayXUV6laMOuJ2WObNM0RQ45EfOPccC9syObzd2Y+p5UP5yLXFsOk7LhqWrYKJXOEM072dEcfVdXskBqI2Y3Mn9Mc6BrkAnAta7B5yFbakUwxxlzYI2LhZhXu27FannaNk1l5JkFA59j37TvWGBJy1quXb9zJ2KKU5UPQ8URKJ6UFiywIxxhip+nTp/Vu1bLFkg6dOm1Mbsmkh9cf5l+1bUPHnTt3dr5/714m2uxq8wTkWkPNYjUcvhiGKWT+NXdj9CQTUt7d3f1hxUrlNzdt2nxTiRKFryeGIHL9+q1SRw7/2mDjps09Hz9+7Mbr8xlVDzmVR9Wxy9+lM44LhBL9YwEdzLgkhdcMrw2Ow6d+N/nnJUsRJrU3dqdRK7DQ3Ar091PqVK9xbsHyBW0SaubM3vuw/5JdZ356EhhpGY66cCzEmJzD6MYTAtJACit548af0Wxzo80ubXf+JEfeQDVbD99R2FulS6Pyc2Z0LUuSSYLVdjn2MyGGXCsPPjlxPUjJ6KOzEyQusYEzOYfOMqE9qIUuDQh/yV5y9Mir9fBiPqI87DFsAJTokuevILwmNFI6AoyxAktoKZnstfp6Bd1G9c+rzMBzxU84iGUcCQY6vz9o0PAlG1EOGiDTEVzcgcRix0REAcBYOombgb2DLarSZLndq2uPZQ2aNtmYOXPqJ0ldFLiH5tKlSxXWrNnYad/efe1evHiB/cUBkhQv2hiCU+Pr8AMzk4w1to1hN36Gcw05c+W6Vbp0md+G9h8wLXU8Y0F7pIwHDhz13LZ1Sw9k3uVlN1aZ904gs0ebrAX3uQIdWkeqcaMnzly+cnUX5gTQuSmjE1aI9wf4+Sr16tQ8tvTHqe3ss2ePtyjhU4Mh9dh5Z5fuPH27GUpRKpHc8NjgUPDME7WUTCQgwa3+mhgnnjifxTwgfXX6YKVgGs2zr7o07tqutMvhpKwx3Nt+9Kk3W079HVLPGyEu0ufFho5SXNxwhJYBdZr12+kEZMslZuSxkIZ5WbSYnsV0K5DPKYFuwTg6QrKMLeuY4GIshMFN1B73LJ/Z8UyHCq5di9lo/krKs6nrMxFH2zad9p48cbqBiBWzHZBIzVQ7oHDw7+1nozqLORDFFbDDVq5S+UTXrl1nNWhQ81f8nuQOJiCjpNm//1iNjRvXDPztyNFKiKCKcXARyyozsv851VPRQQVmBTci/huAjyxfvvzJRo0br/D0bL7GfJfEc1gfPny8wa7t2z1PnT1d+/UrbxfJ2hPaAiQID9U/ARKIMX78OUp06YzbuWNPE0p04cREbFikdpLY4/NOadOmxe4ly5d0wTx4x7cU/ngcWmjwvIP7Lj32y0KQs0SUlmw4ky+ag1VIRcbtjSQg4TSTnHeWZWbkXeRPqBVeVM7E++8Y2ZCxiEvY5ggbRsIJV79EprOe19YSAAAgAElEQVTDOjTrUjZn0sBAQbL6tjJ8ze+3pvpauyoBKBFrZweYIa9d0KvZ7hgbEtsj83d2ZGHhDI3svWQ2wtgkuelpRra/yJ9nEpBKs1Wz/OBmFPezgLM7XyrN8y5l0vWqndEm0T0P5f0SDHQumho16l96/ux5FpW2Cu+kMcymMtRUZpJIOQUI6I3ny6N3l0AUGXB2NmE1a9Xe361bj2mwmRPlMDF/08hLT/X771cbjh/nNenOnTvZeC9HB+co9Vm8DmM2mawAQ5ua4+B4s2TO/KpYyVLHhw4d9EOePO6ib/idOw8LT548yet/12+W+/vv52hyqD6LZOLxHNri3Dh4HZE9BxVY3TE/P9WdWWw9+vfdef78xcL2ds5Rzko1WoF3Amdc7z5d5yOxYVBC1ML1Z5+2GfPzb5tehtsqIWySAIqoOdA5F6ZgNwe6XCfq+yHt871EN/2uqYYg6sCrkbdoP8X7APBcdUFKvyZlxwz3KDotMWaZ+ZoC973Yxisv19z0Di3kH0reO4QIpS3uK0thWRmBHSZsdUkGin4l0+ePXalXvxPBTQ0/CXQCXswBJHqEse69Jf6dDt1cmuS2n9OnZMYkmSXq+kzgsX//8SbdunbcgcWvoTQnJ1s2S+Ci56F2KFV3ZGskGog4NyUfpIcsY0TQpEmTzqd5sxaLe/YetEBmdyVwGB+cdg+x4p9/nj1w965tfV69UiuyyjCg2GhIQjBuPgS4/F2yw1Kndn5WuUq1w5ZardXe/QdrIVMvHZ9HsPJY2ND4fV5XtndSO7a8b9jwuTrj2N2lSePWJ9DWyUU64yiN5DthbYFRI78Z1X9g/6nxzf9zP0OamRtPzV126IZHqG1ahJ5USYfAU7zkEAlaCQAp0cW8IS2XP03/Zvp3sSEQ0DH8ZCzbEhI3f2rrd+P7tGhdp6htoqjY5s98Cc+48+arJSduPWumt0Q/dRakQNIR7fEw2s/kh6KvO2ETIerTU8q/N5sTA3B5bxXooAqzyQU2M9EkUqjuKkuSc2EX5qNUyqhc6VYvX+O8Gk2ich7kfRIM9PlzFw4fP2HSVHjbcW98zRhPFymVLGqAgwuIFFZVVVPtdgJCJMUYyw7zu8w356aQw9391oABg7y6dPHYmxDVMa7FiG4qVRYsWDD63NnzVVC9xkqE35CiKVJt2d9dOtFwf5kSynFSIvv4eAsPukyuEc8EYpCozIJxyp7k0omlaicMMaosMx5JDa8lxOueVGfc4QOHm3q067iDjiXa6LIKi1roE5xqJ6fg8RNGDfLw8FgaH9AvPDIUHP7T+j3XXkVkD1SQPw1PN30fcQHd/Jrmaj0ZYawYKwgvVOfxk+E0KSmlZ1tex4Q2IzYXC2gE1uGhhmJZXW5MHtCsSdX/a+8qwKLauvYMApKCWCg2FiJ67e66didY2N1e7O5CxFYUFezOa14b49rd3YXSNf/77nOOjkgMer/vv3yeeR5EZs6cs/fa+92r18r+8+WXVjzTtdoccNv/PXhXJPYPwcd+cRGQ7qTmkMiUIyCF+VwKzY7rpXDyxOwOzN7jraj7S1KLXKBSBjpxZoJsPCfrqMdu1Z2b1LDVnktsreL63GCge3iM8Vy1ckVvSsNClJVj0Wl1ljt8wjai1bLQAReNXE+/ZbEwZEmBNQI4ISFBCgijK1Wu+GejRg39UNqILZOCfmQi/A4NKnv37qu3dIlPl2PHAsphEUwIQBHpBH87DyLlUJKeAV8ySljRqCc8CajGojRPZOcTjl8x6Cl+U4al4v1whFHHoAqPuVR04t8J9KFDx8z0nD1rgI0NklqYHyXHPXAtaFtwzJvz6bjxU9yrVSqVoAGL+qv3/ld9pvps9gxDF5bPiAc3M5PUmthiemJrp389S0xFsXAIqroI9U8uVEGACwOdXMo5PqCzeiqNVXkz2NzpUL/CkIzpNc9Qm9IoGPkhVhYao1CcQ8JBQiYk3wS3ZN4zw0y1kM6pbGojg6J0pibGRpH4uRWhyXPhwYspLwPDLELAZSm6c5wEegyTdtjumXHuwrDPPnLfCucJ1aHnEPQNjzzQ2DZaAJ219Hg/uQqQOPJEJh3UI4SZ20J8r1ck95Q++c1H/YhXwSCgY3FSdO3ce+X2Hdta038uklwAIOH3gw5Ozlfot0I3gPnwCxcv/cbFJHi+hKtyzeS8cm4wKaRVyqLiNTwU7O0zvWvQsL5fo0Z11pUoUeJkYhsmoc9ZzWbjxq2NVq7073Tvzv2cfF6aNOnEc0QdPDmJXVExeFjRrUFOTT+9aICAhVXSY2noYwVczjdHzmyPWrVuvfzGjWsue3bvbgyLv6DhD3L0RGPdkb0WfObssbyGBrR8AYVOZ16+XOVjFy5cLMr6fwS6JN1IkY2UsKpWq3R08uzpbXNmyvQoQXrqdLYjPE/47zl1q1Z0SkCL3IZiKw1scQSI6INZXwzXF+H5/ygW90RtdQ0OWKaGKgY7fTH+y3zi2Km0gmvDwxD6GqXJ42D33ipFdAgyy8zDqHqhKGU0QkotkX3C6ygOw6oAndgY00fWOfLkjUQTdWNddHgEIBymDY6OigwytzayccieOcoMLmP2NmfPdTxbfJeZbIyUIzBZCovMhZZ/vYCZxHRyUWZHfklfkxQTSSVgR2U5AIuVeBS7BMJ8zZBGUjKz9f6BpTK1z2qpTVIREnHAGAIo6K0Z3Vw7rjt+/Gh5ircEDK3PTCyhLv7g4QPNuHHjJzRtUH+dz0q/7lu3bnZ7/ep9Kqk+mtSDixtMSALYYEpDAaUpocjjxtEbFhaiyZLF4VnTZk1WtmvXZm52A1w+8Y0fzzS6detpgYP79/8+d+7cIQhysQNgtQS9WCB5gzJZRjIYSUE2ijjOGGspMMhIw2KN9vbpwt3atlnSpEmzxahrf338+KmjZs6YMYox+T8BdNPEQmB/FOgHDx6s4dq63a5oWHUodRDo0pzlWmdYu/Zdu3hOGjN0YGKGuJM3wl16zN146nFQSstw6KyMK2dtNmHFpxYXzyLwed/o43L2ofJ+FFyURqkzQURG9JlimZfvpv9dAYc4diqfK+wuGEtKJqrRtSqtBiJJUyJiDodbKCoMs2IRLeVwxYZpYaVnGYzIYBFNx8DGFPiuSVSQJgTvRUDizFukiMbcLh3Ce/E9UbaNEXFS91ZGwvF+pqgfzyGxfrw+V08I6GJOesT6opqIjq4K0CVVgMU6hM6OMZARGUPVym4Z9aFf8SxuFbOYJbltk0FAR/nnvJ3de6y5cu1KYaVdL/PuOQAOJBjW26nTpvVAf/MFmEyqHTv2lV3gPW/4yYCA0mwuRX2WL4JcyTsXhSBFdRmpLhcXmmIxDw4eBCWKFQ/o3r3b7HoNa29MbCMmdFjt2nW47uBBgxYj0CcjpQwm5vAlifMSyEWEHVZcOXAU1YNzo0hfsXzF0wOG9BtTqlSl07a22g/8Pko1TZ7n7e3BgyyuNFXE6BsaAos01bmD4ktq+VGgu7t39t+4YVMra2tbkXEohQdL7iu6Ha2sLCNGjBzVvV27Fj6JHfbeu68NG+1zZGKkpQMAzrxzqSgiDUlfuVL8d1EkKCXNWLkyCmWnjOyyoNyypAvLJ6b4JbLsuNnljD5miQlk8UcEskjNFaVS0biQoj8Mc8Y4mLU4tCNDYCwkoxGFL+QsN+abo4ClMCRFMf8b3JpNOgFmHVorUxyPQtBXZmcnjZ1DZpFTrwPnptHtq8mNDRfgnsQhwYwUlowQDSCU4cu/Y0slX/6OFTMgDg9R614CeiQRTiMnbV2i1DqGymfBv54q/K2mdf60PrVLZ+6ZI4kuaoOAfv78rUIDBvRefevmzQJS1prctRNjYzTau3dvNQsXLWrTrl3r1cqEAwN1duvWrWju5eU57MXzV1kkq7XkkhOcE2F+gtPIxizJXyqJg4ruBxdQeIOG9Ta4ubnNLV262DlDAU+d8syZq0Xnec0Zeuz48eroPGMtpbxKeiqfrxjojKEf8hUOEVB6H3W2obfzelRyfdC9e4/Z9erV2Org4PBNsM+YMRMme89d4CH51ZV8dOnezEf/J4F+9txxZMHFXakmLnidOnWuZPNmzQ/CLmGpxXi4r/W5OevRpbdP/3DrpvXVs2TJcjchoON7xu1m7Ni459qnBp9iLDRW2IGoUaAxNscBwhRLctJYAVtCQpI3tLK+sZ9BEIeR9umyQlxFLj7FVFnKMhJVJFBDjx4PcDsWloxi/X78lsJhof4BqNRpI2hwFclW5ID0QEsvpfuLKETJaDYecuKgEDmoLPMqIt1E+SaGojGqk2cFip9a2llrCvxWSIjRUZgfWzJDuZMKa8jmRxExh/uKI0QPRfrzkA6sb+Wdbzm+vsVeav/MirkC6HJxCyMa5zBwHmgpUWKqQlaboz2rZ2ye1Nh3g4B+8eK1wmhWsPrunTv5uWmEyMb1xWqyKmxYWKhm+Qof11atmn9XAhoRZjlmzpw1bPu2Xa0DAz9ZkANSpJdcV9ICKAEpih7PzaFEubFai0Nm+89urq0WtuvQ2zsxdxwSObIuWLCsg8+yZb2eP3udljq3oj6Q8AS4wtkknVAagynqg5FTMV6fRSPQn2w16qp7586d+3pcQBiLPPLZs72HkhOTzaBgpuQX/gJ0JrVcSDTWPTHRHQcG0l2PG6yj054ycKDHokULl3SkbYHcjS9KSiJJA65Oql5NGjdZt3ChFxsPxid5i+8dvvu5wJhFW4+ff6m1CYlGmSMUSGCt/yhyRnCZGHKbOCIzlb7hCQE9HPsoysxGo0HtPzPEzTMcNEK4bQAqgIwjZ7422z1EQhSHIi9zdIjq4NTs8sYwXH2O+nVDKyCSWy1JqPu6lOL0I9ilNsvMAddB9IfCLoQD54L5NOY2lhDNOVda2WVAQ8QmxYzocxMvSbJQXrGpmTDQ+XVJVJcMc8yd4awVoEsHlyj0AlefUehnTc5UmtDm5R1bNXPQbotrX8b3nkFAv3D79m+923X2u//woQC64l6T2gnpNB8+fNDM9Z7frmNH15VxPYj6MtxfFdeuXd/ryF9Hq0LntREGO1jolRf/ln6kyClKCtLawAWD3GkeKPnyOd3r2KndnFq1mu/Kls32vv6znj9/nm3nzj/r+/v5db548ZILuSx9/cpGo39fMUYpRh+e0AQmxXPq6vYZ7QOrVCq3vUXrliuqVq14KCFCjh07cZLXnHlDGQobN0c3DOiJuddw6KCAxXGDY93X+m12HTbSY15IcDjqFUh9zaTDNFIcsMxDwJzD0Vu9XqVErO2c/5RtV8cv3XpsxJsY5FJFGWvMhHEcmV3wYojSyKJy6fch2HGVfopNT27sMADJFOtkYpYa+hSiGwlcIcXC0EYRWWATXhxWsSG3E9wbABAlpRlzTgBKhivp9f1YvoBNH+j8v3CN4TdoYkq3K9piGUF0jkE2poNjdk2WXFArsPdiaMCUga5DwIwIEqKxTEijFOu/HiAJH5tSPEBs8CtjluwdtO5LQNcK/VgqB27CyEZUz7FBN5c6hbLOG1A6jUFBTgpVDAI6e4J3aN/e/9atW4WUYnlcbAFELNSHD+8002dMR+2JbgmWJGJ03caN2xps27a19ZnTZ8uEhISZUj8W4Y+YpQRwyRqv1IRTotJYBIDGOnIgNB/Y1bFLx4Vo7vAXhhC+f//RGsuXL+l6+NCR2tDBjUVDBdmtpojqipTA36KiLSUS4dMX7rWYIkULn2rZtNkqtw4tGBYrKfIJvCaMmzJ5tqeXx3dAxyYlxwQnRj7634bkoyeoo7OUlKF+dAYP9evb0e/o0WPlvnTawcEpRfIFS8E/oGPZMuUObdrkXwvzTLAuPzZkStdZB7btP3+/ZpQpep6zfZJYJ3YzkaQXIYp+cQl9JZghQEcgOSCMtWAF1hQ2Gh24u84ilSaaRjQaoWBkY6klwiOSRl1Rl0oOnREBJl+56bcA+xbs3wFLgFwGOjcCG04Q6Ey3xlyigwM15mlTa34r+psmFEY3HjwC6MKYxvx0ETojewlo0f867/iA/kUtSWBPKSGxQoWlUiCrIqJNFAyW5jiYLAH0Ypmtj/Wpk6M59PSXie3TJAGd8eUd2ndeHxBwurIibks9z+hSjBKup2HDPaaNHz/mD0Me/O7duyzbtu2uvXjx0r4Xzv/txOIStHpLhRHg9waXVKyuBI3SyogSBN/npoU7LrBUiWIHzCwtIg4fOPz7c4SspkqFaCZayuWmEGxPTL1cse6Tm/H7UsVWqepqkSLFLjdt1tindeMmmxNLdNGf25jR4yZ7eS3wYHtiiaPTxiMZuv5ZoNt8Djh93Ckx9xrmlQbSwchFi5f1ZgIOASli2s1QAUZU2JXUoXfv32gOHthTCvH+pxNbqz1XPlcasWz3/luvw7G7cbBjXWDugnGITQfwt+A43waMfM+tpKfEBXyC3BRFJVlPPRwecQJda2WLIudwjRE8SJihd5n0pR9bnCpChxXmaNn9FJed+yvQv+rMsTi9cLHSKEcdnTHrOLh4uGCPxIBzstrkbyUKa4wtkUbKCrOypEDvBefyNWNNDluNw83IeccHcOV9xWJPrwDvJBkXvwU61VyUzIdnQaOxjgrWZDaL0LlVce5aL4uxwRWYDeLoFL3RA8xn+7YtbSECIyYAAgaMUPzNmGmIzZomjRpsWbN+dePENo/yOb6rPXHiTNENGza027VzR9vnz1+mYmMHgp3pp6JQpMx1CVZyXj5P5KPD2BWCqAgraySroLYcOTSDXRRLOp+hhLsKcV1IA4xyk4Jn6C7LlClzcKPGjZZ16tRmiZOTE7vAJCnfEsa4qRDdh8QNdBrjUhvI0ceyOGS8Vnc7u8SBTlp6zvLq7zlnwfjAwA8WpB3HJZJwYHsg7Qh0RsOVKVd22+YNa5pgvnGHdOkt4Jz993vPWHPK6210SgEEiuqwYQtgWkDXFxb4eBb8O900DksA/dvYwsJOIkJfEDwTjXXU4XAyAdhT0HiL6qwEA6PTxMOESkfRXQGuVPnl+5f0uX6AyjdivcLVmVhDiQTGWFPsk4iQz9LhFRGiccjjqHHIgZr1rMaD9yRQCl4uFGqJGSVo4vgG6N9LFkxTlQZvxPEI6z4lByXBBeNiN2N4J8KjpFYVFuj5ngqRcrULZ5vbr1S6vonZWBS6GAR0Xjx27NQZixct6AegCw2KQBfZahgcOZiTU74bJ0/95WLIBtJfFBqPzp+4XGba3KmDd+7YVRtidAozLHJQEGqcQ+Ska0gQQvbBKtlN0vFOvRsMALXgmTbLFEylEg2vE00LoVpI4rkFOHiwsCfUrVf34LBhQ0YVL178dFLHq4x9HNxrnnPmxsPR/zmg0zBI0T2+ij0E+YYNO5sMG+qx6s3rd2boviqMbqSXCIzBRpaq66Jiia3luz/37q+QLVvGOA2M+uvy4IPOduKagGXbzj5rHATfszGCNvgKZUowaG/MpJYvcd7fc9VvARbPaSDq/rFDDaHDZoy0rgNn7LGOtTcxt4YLD+/ThSX0c2GXxp6DCiJKSDNqTU7rjOcR0tv4nhyoIqzYsj2I4ruIVacKgAqyzLqOhvWdZaJiwiDG25gL8Z0Wd6E/C8uYIsJL3Frf2BiXNJNgpBzDyPWALtzV8r5WGkboIHEYwRAZgxgAUtkYUXJWaMZYNKP1rS71c9TMr9U+SnDq8ocGA93L03vwlKnTJ5FB8rsUjwl0cglOkN1DT5w8VjpfPscfisXFPSzXrt3QbNlSnx7oz1YEnTNScAOQMytFHvjcr40IsMhy0wfBueRacqJbB4jHH3J+vs+YbBrYEb13rk2btsvgBlyLz3+4vBTGajZw4LDpq1au6gE6cAfGEt0JdFtw9PMG6OgJc3Rb21QoG308TqBTh0bXl/Yjho/0DA2JMBPGNtBCacEk3KDYxAQ5agOEDejfvz9iHZZj7olW69147kPD2WsOr7zyVmONGhMaK5Q6CgcHj4KxzBRSXBjyFVJCBfrazfbb7WYI0BVLMxNdhe5L4yEOEJZrMkLgitbUWmOUEiWwwFQE0Gn0Y+gpbi4wT+4n3FuJxqN9sW5/A3TegfQhwwLXFpl02D8xSNjRRTLYPVzjUrYUAoRo8Jc6uQiVSA7RVYy6sYGmD/iERiaBWoIgO89Kdyb4OTNJtWArvghINVpIO1p8EA2gp2LbJpOo8KYV8rV3zWVsUFs0g4G+Z8+emj17DNgMcFvQSk2LuRJwwhh2cpGBAwYOGjp8wExDTpj4rnn69F3mRfPm9t2xe3trtkYGMRGIJQWlMKoN8eVCZxcGITngRdLh2dpIDjBg8AvdPiQc3suWLfPjenXrru/SrbNXbH94Usd6586j/H6rfV137NjdhSWlqDKwBTTVAr54uPCwSZ3aLuTM2eN5EtKtMTZExklAZ9IJuTCbL/IAY5ov7R/Irvt84uTR73R0GjYXLFjSBf3Vhn8KDDFTkmwUewQlG9HSCjuF961ao/Km+XM9e0D1eW3InGfsfjps2d5z458E6ozowqKFm5xUsnJLVmHxEtVVvm7n+HT0uCRcAj1SKbLA6DBhfEIQE/3XzBDTptSY2zogJRZRi+aw21BiDnqnsciQHiobY14gDYhkdorPNOiKgAERTkvw69jdVo6XV7LMBJh4jTx+0YiF7jUG4NA9ypZaNNYCUBpIiGmyO2jyOjlpQhBbIcYr6hMi0USvX15c9FQook+P2LQRQJcDZaAQSZKGTEsF7BynMIDCvRYOT4cZDhwTVKNJaxqlq10o29g+BY0nGqJ2Ggz09+91Nr/XLHf6wYNHebmpWCRSP2SUBSIrV6kQsG3bpkqGcIzENhtLTe/ZsbPZtp17Wr59+zot3WNUF6REE0ldYKQbAc/IPGEBlqlLsBHkGTNmelujWpXNdRvU94W77Kfi5xEdmG3Hjj3NNm/e6n750iUnjkHplWZnl1aDMYqKOpRAWFLLFuWeTx46mi9NPC2ZJOlEAvpcrwWDCHApwk7x80ueh/QZbIPOnzzrZCF3fMF3TLZv311prd/aAQcOHayOQyZF+nT2wu5A2ojafYg9UKrsROLQc3HJf27atFl9S5RwMYgG99DzfKTP0bV/XnpWOtSIhjG4ISVTkaDrN+60WECX5/Xd8sYHdDmyG7cEmOk/Fn3TJbcZpYfoCNRvS58JfddRlBTqF11PoR8+ajQ2aAMFS7QGVnFyYr6EdK4YxciGeQjIfuqEgC4MdgA5ubqWPzjUYsDNqaeb2qbSuBR0FkZA6upsq8z+6QpoFdH9O5tELArEeQCK5pNSRByBTtuAkFBkrk7rvgncfSIsGwU2wiKkCEdG+1npQjUlc9peci2VsVNJAzLaDAY6B+Past3ug4f/qqWI07RaszAjF1/K6koZstp3bY0KVYqfSAzIhnwO4livX7O17qYtm1yPHj1SFZtaiKc8ZJQe4jzE06RJjVTTj3LsPVJiI8Ojylcod7hlyxaLq1evcgAND7EzfuxFMX337gM1ly3z6Rlw6mRFSBQQIKTYbKWjjGI3YDAK/8+01wwZ0n+8fOV83oQ4qAD6KADde8Eg9qGT3KYSB+YGonfBOpU52i8HiG6qbMiwfv2Gtnv3HGgKV2dOHg48/JRMQa4L7RHClYj9Q+6ewT79y4GortG6ddPNhtojjt78VNbD5/CeK68irKENi8QN6UUhW4KmqL8QB8gVoBviXpNiwZgBRwVYykFg6gn3U7SouMo2TgikgUHK3BYl5CE5atGiVYeElc8ofiFqOYG7UY4X6prIV4Cezzp2FIXl4CjeVzpoZPFYcHRpRkrvMwF0OVoOsoRw7SFMTnwnV4G82GOo+c4cD9qDRGEVqK3C8/AthJRAofh2m/7VpKZkfINxm1F6NAoS5KCHpLsjkAvvCW8U5hwpniVVvDVB+aw8tpr3rUo49mxsgPieJKCvXr6uW69+feZjQ2nNzaRkDnI2SbeCIQEnYQf3tp5Tp07s/2OwivtbIESajRu3VJk+beaoK1euFGAnF4JNtGGCj1GpD/fu3RtNkaLFbvTq1XNsgwbNDllbaw2uVR7Xk2ErKDR58vTRly5ero2Iu5QEo1IuiyASkWawbisVdj4GEuDphMHP2dn52tFjB0uCNvDVxDsv0+HDx02aP2/uQHMEjQiQMPJKjiegpyBzZvvA8RNHtzl35kylDRs3ucI7kcHCQir6oTxbsVEoXIMgl3LtjQL79es/AvENCw0R75RRLjnwsOeUDQHeL8OlOgPcfoSI0GFFJhjfix2o8u0cRXOCeFxOypWS1V1qq4zzVETGaeWCFuTcNLRptdI+i0ZDA3MziPdodMDgmRizjCI6j9FxtHyLKkKYOF2zFMdFGW7hd5d1YBnYwvcu54ArQJcmKXF0ERaLfUwvgw5htgyNTZs1s8bRMQdcXBCvxdylWvZUG/S9i5JKkPDOF/CV6aIAnXxd5Nbhu5LKIhW54DFgjNOfAWO0vAvq43BjhHAK2EvSGoVoquZLt2xo2bQMnkkw9iNJQP/8WZfOxSXfbV2MzjY4KFQ2+kheGhp86MZC9tmtud6zOpQs+XOlouIiF7Poxo+dOnCZz9LuAJOFCKUFUYIQ0YTkD12Xrt1ndO7cZqmjo+MPF9ETYIORa8YMzwHr123sdf/+vUxfSltjW/KAkeYriVFK00nOnVb+9+/faj6gFtvo0cMnjR07ZnhCy47nmHt4jJi0YP6CfhYIAxVcSc4yE4E92LzU91PZpILA8t5WiSegzqaU8lIKavCQFS2qcDjQGAfpJ3LkiCHD+vTr5Y17GVyj72aoLsd0n2Mrtp15VOETQKafiKLotlIEFzumSpzy+6ZE3886bj86iy1yaNzm4NC4p8LRRV42pAla3fEvWhRBYjQJD6pbq+q2B09fF7z2+L3LJx2+A4YTJZfajoLLjWCXwn7lOnWyWK+oDgLoBKSQJuQDS1jfcVCA1gLkhJtIuoL4DqCnsEypKViwgMYkpfJGDhEAACAASURBVCl0dYwXSEMpceFmFDnjscAd+4Dj33ECDQSUovoYHCNV7KEUw843bN/M99llleMS7ZVpwWCXVx7i+Mw8OlDjkt78eofKuZqXS6O9ltBeSxLQMWBtr16Dlq7x93fnySkCMig+ypZtnjzcnA0bNVi1dOn8LknZYAmfg99++hC10OYtWzz4+LEjlRlwXbxE8b+6du3m6eycO8HJJvYMzC+Vn9+a+l5e80ei/3oeFqugu0qpOMMFo7pCwPGHRknOXZSqwtyFOIfQKrc2bbxnzpw8DvNPsI487mfXu/egGSt9l3ewhHFTal7JZpGSDqiAHSrRl97rUqCSnPILkY5GQElsRa821iHHWEzByYcNHzG4c+f2tLAnKT7g8ANdqRELt2269io0U7ixXFOA2WryZpYMRpJbiy8a6X4c6BIn41ERDdDy3oLDy0OWHDxIeAFnNYt6r6laxnl/u4Zlutln1bzzWnHF98zNFw2eRphpQmC0E2nTbHsMMZ+SAZtvUiVQfOzxA12KLaeor6MLkfMBV9dRL8bfOuRx8PO8BfJrUqe3E0DXwZevhZEzHNlypmi1oP+KC+T8PDbQ9Lm6KAUpgA6ODqBHUcLh3HHYCTcmbQMAdzTAT28z15u+HjO0qk4DgbFp2UK9OhcwnfePAZ03OnDgePk2bq33ov0jElRoeOJmwymEU4eWbm72tGltPk2eMtutadPaOxID1898Tv2ZNMTL4L5hcT2PBq7Tpy8XXbZsQS+/1etcOYf06dMLMZDAlg4ySXJRUlrJSclVaR3ni8Jj1qzZr3fs5La4W7cuSw055NhvbsSIcXN37the39YWjSxRdFOqJy5JDJQ6JbBLEYNc7ODgUPFcZt1JRTS+0h22CLj1LJ/2HzBwYvv2rhxDkkDOeUw58GyI95oDU8ktI2EAihZ6ITmOJJbyhoLTyi4ttkQSseeJiKxxcXTFNy34HTg3XWZIvcH/ATAhIvNQAyOBmJreLCS6SbXCY6e1KjCe47yn09ms2vm0/87bn7tefxNqHwGAm0K1Yv8yanMM7omm1V3OTowP6ASPVBuKP1hLYSjB9xhIw1oFNMqBs6fPnEmTJXs24fqLxs2i6IVgX3ZUholnT33z9hcrR2x1hrkdoKgJ5iwVuMBBz4QvHKTCVIcxUaIR44O0EkWxHt9JwVoQGJdZ5DtN+Vz2m3vXzNYloX5zSeLoHPkHBFL069dl/o7tO1uJskyidhx1dcl/y1OINeHKlC1zEsUZehQpkvfSz4D5P/3d06dPl96yZW+jrVs2uj979iINLfki3h5Hp5JSq2S8SUUppJLJDKGlbkhOnjt33qsd2rf2aVi7/paMOTI+NHTMMK4VHjRo6LJjR48VRsFMTdDnEJHKixgCOUdfilGQ7AHB4kClsYl/f4DlGTXfQHdYnbFXYfQLLuBS4OiQIX0nIBAoACD/PrsjkYG9QcOH3mtP7dp5+l55HTq7IOhQWJuFDsloLZEyKomVCkcn0Gm80q+cEtdj4gQ6tzgxziIfADqoDg4GUVlEoRHoNG6aaiwQkp/DPDBwdJ8WLRs4W+1V7s8DevyJyK47z9wZeOfp2+yRcFGGIoIsmi2VEHQVJcJb5Sq9ImxViZaTvQf4lC2XxYlKZVsY5Oii42/+EPj4wf/Nrcw0OXLl0JhbWiAkFs1KwM1TWsAjgZJqcdV1j00Dfd38m89koFMy4lpHw9NAiYQHKQ8nSjiMiCO+hArJnHoeQviM3N4cWlmuVNoHvesWaFHWRns2viVOMtB5oz///KuWe0f3dZGREdbUUYQBRC6UqNRYoxW8vXs7H2/vGT0N4W6GguOfui7oQZD98p2rm0FU7/T44dMC8EsbUedX/NB8jqKHKy2nCGrWyhOtgHAQ2NpZf6xbt9aW5s1b+FaoUOZIUse2b9+hqog98Hv6+HkGei9Eiiu4Ol9m2EQUxSU7gORjVfrNSfEDiCUT8QMxALzV6yYtGvi4tW7j7+TkeCWp41CuD3ihy9/fc/fBa29j7EMAPCZoGyG2WhKv8ZKt7BSwwT/FW4Kjyy4sPQB+GUJ87idJTxaatOSfljPBuHlFnXOWvhLQT6GxRRnBkhlDrs4Y6P57XjRq0J8f++H5Hnjefue5h0NvvYvJ+A5NEiPgc8aJKcvLTFqh6gEuKBsIGUUrah1SJ2c4nCLfi2g7YcmT5kTjHMEezeCZME0eiO/WtgjBZjELhBaLM0GOA4g990SB9aWklHSlCIHlnhMHqRQXwJfkmdAXl772muV3+G1rcHX3ink9OhW0mhrf2ic6nri+SN1yiMfQEcuWLu9viTBFbk6p1DMtoFL2mWQYCtH06tVj2rgJw4f+CIf50Q2b0PcwdqN167Y39/VZ2vfy1SslGGFIiYQWfAKNYbRCB8Lf3IyiOoqcncX3KcrjuohaNWsdaNO+jVexYi4n4fpCgHTSX6tWreo0eMDwReDSRkqjAlrSxTMhFtIfz2dKIaxS7IB+0QwcBLr69epvc+/cY1bVqkX+TszymtgIPXffGDt93elRbzSpRYJJJGhhlgKiK3VWaTtKIjo4egzCYsU7iQBd0UUVwCtjEC5Afh/z4laOZBFG8nBwNsZC0q9Ofsbr4EXStK9k7zmxfc04vTl4humC00GdV/55fuCj0JQ5Phixgi8Aao00aJFzznxzRtN9DX8VMeqwmjNyUEaYBHJJbwK45QMMfnrhZgPgM2S212TOlllwcwKdfd804MD6ry/zTYDYwv7yBbvfQjAxT4Vy2y/XIZjIKuqDpkae1Jsm1HBoG98e+CGg82FHz54t26dLN7+H9x9nYx05KUIMIZKwRBL0SuAILo3q06/nhBEjhtA4lYgml9hW/LnP0dKp5LJFPp33HTzUHO4ya8EVASz+ZkabkhIruI0k8QnAS0khEKJQWrhQoUJXunbrPKtMmbr7sme3TLSNUXwjpmUfxTzm+vr4d2aVViVLjxtblMmWjXx8fuCnD2LDM3aABw04elTF8uUDmrZwnVe6dPFTOXMmXNzREKpxPJ1m7Vu7/cKzhsEpMyASLZUmCJV6zWTRXIjYCqdhuqoUCc0Ci99xdL6f0IZVQK8P9CiGl1KKpjAtDhNG44H+KOWU1To8eFyn390aFU67NSF6Ljz1tv3Kw7dHXngZ4hBhbifaHwvurJjCQENTPIc6vDhLRa8z2lh4AIhBy7o6c8HJrskFoKaF00MahUQbUxSkcKFtnDGxkptNHlBcAFcMqt+BkyOKBfQkA1y+KVUiJrrkMAt51a9j0XJltNo4Kwb9MNAxMO30mXNGes6cPRwcyZTuNqab8tSXAC/5N8mJECKra9+h/bxJk0YPxyL/cIy5IRs2rmuYFrtw4dL2PstW9H/79k1qAkbZtFI6J78lB13IFmxhXcaPVNM9ku67Tx06tJ3Xf0DfWdCN3/7oWJTvoamCQ40aNf96eO9ZLnouuPlpZJMlBqE30pLOv6mLYyw6lFh+V6x4yYDGjRv7VqtWYT88AoE/Ow7l+3/dCy4+2nvjvpuBJrYfY2BtpyEO3NUE4ahCB5dgLSzuUoCLVJ5Y1I+TXVaGjEV/QxPobMIgupqJwg78H5/F0FCkFwNkZsjUqpg/45nNw2pUAY3ijUlQnj3/XFC79Ueujzz/LMgxEk0YwulUh0FOiMNUf2iupq1B7rjCkFv2UiNjF2ZHGkHFD+clAT0SwSnC9QbDXB6UmLKwsYbRj3UOuWu+NYXEq4vHIs5XL0b8VEsM/IrobqYL05iHQ1WuWap/x/xaz7ju+MNA583gXsoweuSEcWvXrXcHsI2Vgo/UdZWEExKOPl5u2Hr1625yd28/h+GoWLRE0yQN2TgJXXP//vNsR44cqbxqle+gUydPOkshopLLSGR2Qd9WylJT71UaGyicnWJ8+gz2byqWK7O/Y5cuXqhbl2gOt6FjXrXKv3nfPv3WmVKfxFYj55ayzSJEKCvphdDa0IwZMzzMlj3rFXDu09Wr19qRM2fmBz9iTU9sXBN33Ji0ZMPRocEmaTUfIgA6iDSm5lAZRG02if0oAR4cr6hhKJvM9O+d2OYU95H1UW52UxEFJunoCkeX/mOiSQmxOa3uvaZr88pDPeo4JtpNRhmH/82g31fvuTnt7KPPLkEAuw6Va6KRCBIpxHiWqsYP/dSgN/3Xkh4sjUtEtvHgYvNI+hhgBKNfPQJqFAPs7XM5auwzI/4+AhVucGhIDRwkXdmQuX9vtPwKQYO+r/ccyRMCtZlRDbAnFM9iu3Veg8yt4/JC/RTQSZyLZy8WHjpq1KKLFy4XF/5kGKmUhArJp2uKIJL3GtvUqUQMdsFCLndatGg5p23bFhsBsleJbcAf+RwEs0a541Irlq3qte/AgboQvY1YcUWJA6edhcEtit5LsVwkyogaeKHCwg33WlievLnPtmvXlpVsdvyoHh7X+DE+qwYNGm4/dPBIZRvr1EKiUHzmzAyT4/hD27ZrMxvZdr45czrc+U+qPRiPRfv5p3x3nbnbVIOSTiG0RWHrMsRT8ulL4jTxJ6LVRAKKVOpJsWPFt05KBdi4dHRhORYFJtkNhaIwQSNJVpQYLGKCNIXT6u55dGvUsGaulFeTshfWX9fV8d13acLpBx9/+4BgHHRoYM8wyf7B0FmI9VIiCzm6oqeTi1N854FAlyGLR0KNgt+PteJpnEtpY4vGF3mkyDXRnYnW8q9FKZUx6tsm9AEcW3mN7W2Lb45xHQKCo0PaSAGDoLFpSk36mM/h45sULF08vfZC7Pv8NNB5wyMHT1ToO6D/kmfPnuahH5g6ra2N3ZdiEUqnUyV33draUudcwPlYhw6dVtarV30XAG9wSZyEFpsbdt++IxXXrVvbJuDUiZrPnr2yI4CV5BPReALyFm0KfNHYRe7JMtQEuNLJJW/e3BdbtGyxyNW1+W6Ix4+TssEMuXad/8YmPXv32siCCywuqagOXEwW8uCBWL5CmVMoj9UsscoyhjwvsWu2XP7UcPra4yuvvAqzjmFVVYIaHI2GqhQmjMgiD+ffUqCM6CxiINDj2qAK6LnpaSDji0AX/9PzClpBbG9dPMuWuT0rtsR3Eix7Fdcc993UlZ23/8qMM0+CSr2AlKKxRPUaUQyShwn4oCC8bBOQb0Cgs8Irr+NvpqsaofJtZDj83LTAgyY58jtprFjNSOj2skdC/n7s+SYGsPi4uCHcXQBd5PNDGkJYsBV6tLmXzzaoa5HU32WQJjaOxPbIl8/Xr9/RonevnqsgApsQ2PoFI5QWwwJoOAWVeHELC9OwosWKnaxQofKWGjWq/wXX0LUf4VxM2dy791DFffv2NLhw7kLFB4+eZOYzyMGVhBPmtCttnjkOKapPimgjUclFEVf+ql7dxr5NmzffVLy48xmDJ5+ECyltNGzQdOe+ffsrMOuNFXKUXHolfx6GwejWrq5eU6aMG5CEW//wpTO23xvl/eelsW+i4SNWUn+FD4rAlhIvpFJHFGYlK6UpQlcp0scT3BnnWL4DAQ3fPFSoJVNHl4EulW3WaWyj3mqGtigxsG+dgrN+dHKb7+nKrdx3fdLhW6/Lh6QEOPEQ+s5FQI1wC+pljHMAQjdn2ioz2Si6MztOCoeNYgBOaIjGHhw9E8R3RBkLu4L+y1CgJwRkQ0AukYpl0ySVIRydXmxTRGiqOlrumlLTgRWEvqk58I8BHQ8z2rx5V60eXbttjtZFmyo13Bmy+Y0BRs4lFTHiohmAlBCTOnWaj4VcCpwuV7HcsXLlSv2VL1++O+D07+PSR5kye+PG2Txol1z4r7+OVbh961apu3fv5gCAjci9CWo+Uz9OWxgFmQQjcr0lcPE302tRoSa6edOmq7t16eFVsKjT5f+EDqxshulTZw+fPGXKBMUAxwNR6edObs4Dx9nZ6dqMmV6t0RHm8o9ucEO/90KnS9dn8j6/ky+iq78MR5tgWr+hlxvLiSJg6QLgooa5SB2l8wtZVTLQWaxR5H7ryaDxbVR98Z3/F+oAXVUM6xWdehjCS886vfQRmtI5ba/N6F69lksa7Tc19Q2dm3LduVc6xyHLT6yDxFI03MRG84kNLeiy5EFFNx4CbIRYJXQoObVVAJzvsb48stYgvofDXUyDHjvVFCleDFlsUrsm/bZUyhxJA7EHxf6O39kkFe5I/BXnPXjIyN1+o+BKYGBRdouY923qOTVunE77TVyHYU9JfBxfrti4cXuT6dOnj3v08HF+0SRBhFdJOih/FEMYQccNzmYJyvsEnsz9dba2doG2qW3eIRjkY0pTUyG2hYRGpAgNCbZFA0Q7cHFbJLMYK0Ejin9ZaXXM65WsMnJwShn6defE/7GhICIfadWqpXezZo33GGLVTQIpvrsUJa9r9OrZ0//Tp6A0qIArlbqSF1oE4YgmkKYaqA3zpk2b2PtHpJukjm/ThbA6M/y2b7z83sQsGMEm9A+Tm6WkvQocj9XLlMgvckIF6Caw9H7l6AZUeIljYEJHp7sLLlmKekoRS1O49HRBrzU1imQ/vHFwjYb/hKfmTIguy+SFARvPPPlcIhScPYwxEbTIw7sg5bVTXOdGFfm3UtFISHuM0tOwTxtDjXEAxvB9HAh58ueH+I4YElybENATA1hiQE+Mu4ugLhCSa4XkPo2duVFYg0KZR/QrZvaN+J7YOJK6b8T1AZculRo7dOQMNPgrA+CJYpIEs5RnLS2osNBjkCmpA9IoQtcHy0aJ2G5p0/N9pVe5KAkt30dUisVBweuZBy9EX3AF5Z5SEQope4nfEVF7cgwmDwamkWayt3/UuUvXhe6dXBf8k26q+AjGbjfDhw/2PnkioBzHZZMqtZibUtCS4+N8YDN4dXDb7srZXbLf+CHiJ/FLnode9Vi26/TsR0EmpgiyBd1Af2xoVmrj5jGC9ftr1RNwdEbHYWOxqKMUzcUt9GNAFwwAYrooKiJ37dHB721jGq1Jaxwc1LNV1f49ytkvTeKU4r2c0svU7c+GHbn8wu3Oh09po2AfCUeZLJ1kVRPl6ET3BhF7z7huBgsR6AhcYgYZwY6oOFaesbO31+R0dEQJbBa2/PrSB1RCIP2at/497RIDt/I0tsQinuj6g3wqpDHet6iD2YkRjbPWzaHVfqnD8B8BOgdy/frdAp5zPYfu3rm7IcRTCyXyi7Ha+iIcLYZf9Gg9rq9MVvRWl11f/J7Cpfm5iEWXc6+V8sbKNcJVJbK7JKlBAT/08sDqNWrs7dmzz+xixZz/MXdZQpuRNoQePfrN2b1rV0sll1wJGxabnfNCNhQjCbt07TZn4sRR/f8b3PwKRNo5Wy7O3H3hYYOP2PARyO9mXbQYbBwTuRKpZCWWsqkowkvuZ5aSkgqDso7Zz7wk9xSs+MKaz4A09J6P+aQpnsPqztCuTZpXzqy9+DP3j/3dd8hQnLrj9bDjd190uPkyMD0z30Q0OVNdCXBa5L8gSa46w0MP42IzxhhUL2JJaBMwKOdCBRFXzzBdPZehvJ5xgfUbFfaLNC89z1Bwx75OFMSGQdCExkMQEDk9muzW0W/G1nNqWCKD9ktFoZ9bpURWAIOyXLRoRZs9e3a1P37iREmCz9oKoZUAIMVpIXbL+bWKPq1wZaVXGnVWRd9WQK4cGgSI0uhBkQaUA0ABkFKUwsLM4nPZCmX2tmzZbF29erW34LtJTvr4kQ2HFs7ZZ8/0Grpm7Tqk7SL6Tm43zSq3DIQRVWQQwPP+w1tN0WKFz2/fvqkuRPofjrhLyhj3wt88cdXxlRefhaSj1Tsa+nik3MKJ0ey0gxuJHG2hlX/pKCr853Ji3Pfuovj10bjGJrr90MCHfcBgUpZcThn6UtOsbNYdfZtV6eVop/3HvR6PdLrUS/e/7Lz79L2Bj4Oi0n9my2JKFMYoq0x3H4vKy73a2bhRC4uhDmWlWBRDK2LfIW2iPLQjrO8WtjbMGBe6uyJxKvOMC7zf567HDUFDgS8KUeAWIp1VJFnpNJksYnQti2Ts36mYzRxlLP9RoCsPCQgIKLV2/ZYWBw/sc33y+EU6RfQWUUgi+03CnBJvzkkqfcyVQg+KcSM2kBkHrhwOgtfIwTDKQRGMOt2ZM2V8697ZfbqbW8s1KAn0U4adpACJfecmTpw+fuuWzQhi4HJw/0g14WiM4xwJGhqhEGcQOmv2jM6NG9fzS8ozfubaRXvu9vHef2vKw6AU5sbYgZEYVzALXwB6FMuZsGLKSi14MauK0Bdx/+KHQS0MOPkazqlszsQ2qb5ExzpsxuCKRmiHkgJrZ46CDhlTBn0Y1KzIoLblcq78TxlGWc565dkXQ7acedjx/vuw9OE4aLTs/Q4Oz/7vWhqRuS+pkzN/FhydIKcIz9DYGBzQaWF5z5gNdd+FUc8wvvF9qamvEkRidIvrAKEkS/qJscmHTRrjcE2pbGY7u9TL1TGXViuKgf5XgC6LJmYBAX8X2rFrZz1s/E4P7j/JQLHcBlxN0dkVwHIjKIeB4u7R1+P1WwArIjufoRSBIMGUjqys/IL3g7r36DLrjz8GTvtPG9yUxdi3b1/V0aPHz75x/Qb6wDFAR5onuZeUasqmhyxiAYMlpJs+/XqP7tp14Ox06bQ/lCCTVMAz3XjmpmMLFx9/1eKjUSp0AQkVRqVgJIQgZllUSWV1ExOWyqZtijYQpk7S8EMJFw/kb1EN9ksmVsKjiHMjy913UgJg0czWg5W7ZC67p8NaFW5dLa/dsaTOKynXYzxWHgcCex248dLj/oPnNuEI0mF5KnZ31dHboFjiqabIVngdAlQIfjZjtLKx0uTIm/sL0GNzdP2xxFdLToQTG/iKk36scENbFLOzRKEKpNQi0Mg5veWl9g3zt65grRU1/A1/ioGDSewyivNXrz6x339wa8MD+/9qdPnihSIoCW+uGOMU8VzhzHxfKbqgvCcGLlvwxfUifVLi5spLMcRR9/38ORBBMqaa+g3qbXB37zS9bNkS8ebtJjb+xD5nWPDcufM6rVy+uvfb928zUJcjwGlsogeCEojUbAJVTeHnZ835KtUq7pw40bNnYp1iE3t2Uj7/+FGXeuzy3Qv9z39sHmyWFoJ5GDhZjOYzCj2gZpKwLDMHPSU4BalLhxf1c6az8LfSTJQBL0qed1zPV9ZB+Ux/s4o6dCzqAYBb4uBjGWOrFFGaJpUKLPRo7TQKtb5/quafIfTAeCyGHAjscyjgcp+XH8MzBukgvkOEZx910WeQkgtrS7NUFz1vKAMdgyQXEziwU6L9dI58BDoNl5JBWdmbsecbXy05Q4EeH8jJOsRnbNQBKKCyv8Yk7L2mcM50l1v+nqfV/xvQ9YmPARrfuvUoy969210PHz5e8emzR3lfvnydHnq5Cbi9ltwcursk8sqWdIBGJyXMaHW4JtrYyCQCue9sQySuI4eXQnARi8z2znIrY4qZzJHPnNkhqF//PhNbVGuyKm3etN/kNhuyMeK7hvntm4/trLTOf13/4ydPlKC3hkk+SpNHKZsv/IuVnYcX9dOixX4LGDZs2OBSpYod/5nnJ/W7oH2KZbuuDJq+5e8pH4zQJAEgD0bsv5Z58chEpPvPGP5lI7ZiEuen1DZYquWGfSVLnNTjE8pJTEgclQJl4M+GgSu1Ceq9RgVq7C0jPnq4N+rQtHCqeDPVkjrXxK4nLeaf+9x+y6HzE84//GgfaZFBE2mRBioVLe6YNBunh1HQApjY3usTKoSBLhkc0mvSZbJHxKCkn8fa24ka2EhCJZ4gvjHqM6/Y1zBKMQzjEyniKHllaRSpsYoO1tghb6xa4ey+jSpl6euo1YrEp/86R0+I6CBWqjNnrjjfuHc93/uXb7N8CHxrHRocaYEAHJYawQY0DrVESWnbNOk/5cqZ4356+0z3Mtilezd3rtdAv9V+vQgqpstKBRKlqDipDBSsklgs/h9ZY1ILKed8T5s3b766fPnS+7Nlc3iQPXv2B4ltiNifk3tfvXo1x4kTp8qgiETbixcuFQz8+FnLRBla18m1+ZKaR8KyLFw3+BtiILn5b4Vdjg4f/sfQEiVKGFRvPanjS+z6U9felvTcc3nR0euvCoUxVRcgDwxFOTB6P9iPnEFGojSEnh5OLxS9T2LnyO19E7C/JQh0BuAgS43av1nEB+RVv9MUyZn6wSB310blc2r/65WJlgYEttly+ubQ0/ffOQXqUBjTKi0iziBRMtAKblwa5Gj0IqgsLMxYCFV0rYmhQVEEFMlVqYT5gpERtHOI3DipWpXe5184fCJqT8IHJTwkUKnIBKlCpUS6asqQ15r8mSxftqrwW7uqOU32KXvgXwX0xDZmfJ9THejUoesC/7Vr2yDQRjJ2Ic+cfmqKX1KsPRYK7xNgBByt3DwIcubMFuiU1+lc0RLFDzrlyXPX3iHji3Q2qd9b2Vl9hmQQCos4y5Sahr4PtXgT9CbVmzdv7D68/ZDm2s27WW7dulHi3LnzZR89fJST8ekEuFlKi2+Mg1LDCSkSj0E6DLllbbe8+fJc8PAYMqhixbKHfnTeP/s90MNszuEP7iv3nhj34NmrNCZW1pqgCGxabOyUZlbI52AYKHzmlGCVDC+ZmyteNVTM+AkvOu5LtQbWbFtEbDpnTX27SrF83r3q5GPl2qSZ73+WGPL3fc5HNd179vrQS49eFniHMjvhIgEGcgt0YBG6DUBxLW1T22ky2meAeYLbQ0qGoeCDPmLit/K3UHsYISeORSniQPnNRwq9/gcPSj6JqpQovQUjIbP9MloZh5YvkHVVrQoOQxRuzuf8TwBdJliqsWMnjvZbubbrh8APlgygoQivVLwR5agZqafEuaPZAolM7s49RfBDFdBB3A5CQ4hAC0vrYBMjoxC0Yg4JCg1KGRQUbAGgWgR9DrSBWGuF/5tIzQwRrIPvClGcRhEgQFEzOC5ewwOALZzNLRCei2uKlyhy8I8/PIYg7fX8P7Q/f/g2oEHKJeei6wacPdvt5afAXBClU9AARFGgQwAAH2BJREFUHRUZrY1iQJPWWMf2emIzMlNL3qhKKofwsMexUelQUcLX9QfH96WNJ7k3Ge+BUu3R+RzSnK1UvoBnrewmZ0Gj/3gKc0IE2xuoy3Xm7PM2N24/aRgao7OIQYVMJPkYIbAGtSpS6EytrEIsrWwizM2NUbcygp5akfcaE2OkNQLSEYMeRY8kkpZQwUo2IMkPZOgBi7zq/449Fn5O2U+UoBe5ABJQld8oNyVFNzAULTxEZwlbQVh4WJStmUlwwVyZ/Sq4WPln0Wrf69/3fwboMtjTLFjg03Klr8/IR4+eZVCs3IqhT4muU2qvffr8UXB4JRJP8c8rBFL0IyUpRwm3lYxrUnQe/y9yybE1KaIrHgO+LyrFQrTj86lOUH1o2rTxys5des8uXDjPPxoI8sNIl79444Uu+8uwj7ZmWlujUG0k7CPwFFiYYH/oZWfR0yYXPdXP2TKF50mAFq7o7zYtcob034Ok/uXvSNwrItJEZ4rEuIxWmtf50mmf/+w8/qnvY83MT73ROKSE4yFFZBArZmkjrUy1JhERuigbqzDkwWmDYKdE78mYz6gbwrgt5dkpwqRKHbAuifcicb7THf8N8PCemf571PJYhg+/w6y+0sgEYSTKRyjj94V2fJ/3o+UAYRgwpeJwCNGEFYsn7uB/Cugy2I32799fedZM71mnTgUUpCitBNNIurrUBVYBpKjDJtp0cQfSeipVdqG/mxZ7UY1EdPBgpVLE4iMhQoSrytcrVmUCXclCU6QGM5y0PCyoNqAU9IfWri2md+rUfsHPtIj6pzayep9fiwL/c0BXlo+GskmTZo7cvn1XS3RPScP3RQslBKoonF2I2NQ+hWuEpJB+MyxT+Zuiv1QMgRlx0vtSfTmpHbOI12d9d+je+u2bFWkAbr3wIkWKnurTs+fYStXKHf1vReT9WttYnW1iFPifBboy8WOnzlaaN2fe0MuXr5b69OljKqURA0EujGR6abTC1UG/qd5LSbJRkmSUwB3psJBUSYrmlAakfPcvenl01syZbtdv0Ni3Y+feC+3sJDeH+lIp8P9Bgf95oMtAtNi//2ilP//c63b06PFqjx49Sie5vCCey7HnSnSeYkhT3BoicUbOhOO9YgfliDBeiPJKJJ6tbaqwAi7Op+rUqrO/avXqGx0ds9z5/1hY9ZkqBb5hWL8SOR4gqOX27YBSp06dL4v4+7ooXJHt7es35gSy0p2VACfohW9STptVsudEczthyZeSaSKQxcRrYdCLQY25R78VLHCuYpUKx8oVKnMwd5HcIvRQfakU+DdQ4Jfg6LEJTZcSAnOKPHv5ONvlC5cLnz9/qezVq9dyIU89NSq/ihYkoqkdQKxY6PmeVPo5mtlmYWiP/An13B7nzet0uUBh5zOliha/6+iY7fZ/M2nm37CB1DEkDwr8kkDXXxqG4cInnubduyjLsLBX1hcv3sp//+GdPB/fv7P5HBKCSjAhljGRMVEwqgUhfPZlnjz5bzk55biaOnX2QAuLyDCA/TM4/H8lESV5bCl1lP9GCvzyQI9rUQh+vE/a0OQu1xaSQrz5o1rO/41bWR1TQhRQga7uD5UCvwAFVKD/AousTlGlgAp0dQ+oFPgFKKAC/RdYZHWKKgVUoKt7QKXAL0ABFei/wCKrU1QpoAJd3QMqBX4BCqhA/wUWWZ2iSgEV6OoeUCnwC1BABfovsMjqFFUKqEBX94BKgV+AAirQf4FFVqeoUkAFuroHVAr8AhRQgf4LLLI6RZUCKtDVPaBS4BeggAr0X2CR1SmqFFCBru4BlQK/AAVUoP8Ci6xOUaWACnR1D6gU+AUooAL9F1hkdYoqBVSgq3tApcAvQAEV6FhkVn1Fr7bUqOVujGYMLN8c9AusvZji+/fvbdivHXNO9i2j2AEVU7JAr3q2v/6mbbD+euI67cePH21sbW0//SoVfX95oHOjr1q1yu3PfQdbhYaEGufPn+eat7d3T2wAdrj/n3thkxv5rl7d6mzAmWqfPn22/Pjxffrw8MjoTJkyv7CxsQhs2LDhmsqVKx9PbhNfvXp1683btrX4GPgxTbq0dkHNGjfzatq06e7Y80Cf+nTjJkwYf/P69Xz2DvYPRgwdMT5btmz3k9t8kzreXx7ou3btqv6Hx7DlV69ccTAxNdVYWVlFzJwxu6e7e5ulSSXmv/16cLq07u4dlx89eqwS5mpsbm72DqXr0YLOSIfecZb379+3zpYjx/M27dotHjdy+Nh/+3yU8eHwStG1a9fly31XtIlENx1z9Lxv0az5hhUrVjSPPYdbb986dGjcaM/JY8dc8ubL99J/tV/dokWL/p1c5vqj4/zlge7nt9a1S9cuqyDGBaPlkhlEeOPCRYucOXH0SBlwdald6v/Ai2Bo6eq6bsumLU0yZMjwqWevXlO7dHKfB3WFDSo0z549y9SlS9fV167fKIj+cp8nTZzaq3PndquTw9RPnjxZokuXLv537t11zJoly5u79+6ly5c//4Ply5e2LVWs1DfSyVsAvV69entOBZxycSlY8NnyZT71ixUrdj45zPNnxvhLA50crmOnrgv27fuz6ZTJk7udPnemqN8qv85omBi4c8eBSoUL57moT9x7995nffbsahYzMzN2bdGEsCMjeq6jP3qMg4PD26xZs96jnnj+/PncEBEtK1aseAuHxRdd8elTXZrnz8/mBPfUli5d+ho+C5ZBluX27ScOJUq4PIKN4A0aQBYNDw83wga8DwnjlR7nsjt58qxjZGQIuLG5JgSdHov/9tsT/Wvi2wxz5s/vNHHs+FnoL2fdq2/f2bOnTx3AaynK8xfGomMTyrp1Sx27fedurkZNGm2fMnHikJw5c96iDQPPLWxsrDPOmDPnoyxp0754/PhxDhwOaXlQmJunCipY0Ok+7hES+/n4bqqLFy/mxCEK/dkcveuCou3s7N7ky5fvgd68tJAmcj9+88bOMVOmN6TjxYv38oSHv02D7+tSmJmFFytU6LZCL/1ncPxQtboM8fhjQdkyZQNq1a69YfToUTN5zaABA6eNGTPmD/3rCfT6DRvsPXniRIE8ufM88/f3V4H+MydIcvguAFmoYqUqF+3sbD8uW7qisY2NZUSVqtWPoRWytl///pMmjh87XH8zTp48deDS5cuHxkRGoFGyVgecpcS1KQDO8MbNms2bMWXSsGvXrjn37NVvxeOnj51GjhzepX2bNmsIIt5n8+ZtjT2GenihUaPxsqWLG1WqVOkU3589e84g73nzRjVq2HChk1P+q2PHjfXUxcSYjR49rlenTu18eM3lyw/yrfZf1n7rlk2dP378lMLOLlUUOjZH1Pi9xramjZr5V6pU7lh8NKcdYsDgwXNX+a5qY2lpGRH48b0FpRW59RS/hj+1kfjbsn37jvN9fVe0TW1nF7Nk8ZLmTZs22vTmzZtMNWvWOvLs+XP7Ht27zyxZsnjA/EWL+pw/d740DiTzXLny3G/dqtmiDh06rNU/dGDwSu09f2HPzZu2tHvz5lVadKyNCgsN1ZYpWy6gZ49+EytWLHEWz43Cc0179uw3f+uOrc0qVaqwu1XzVv4rV67ocfrM38XQ9NLMxiZ1YPdunaa4urr6pkuX7ps+dzhE8kyZPmXmWv+1dadMnTLarbXbvCLFij7FnM2aNWm6EUB2xTMiFNrcunXLoX2HDnsDTgcUcHZ2frZ65ap6v/3224XksF9/Zoy/LEfH5jLz9PLqNWjg4OktWrXYtHDevG7okhqcz8nlzr17dxwaN228ZZ2/f3NuRIXAx4+fLnbu/PlSRiYaTUojY6NlPiu6XLlyyRlKbtT6dWua1KpVa/vff/9dsHuPPlsuXjyfc8zYsYOH/jF4pgL05X5r2gzs02cZOLrJiuWr6zVuXGcn7z1lypQh4ydMmgqQkCMaAYzhODyCuvfuPalnl07zCZiOHbuu3rlrR+2yZUqfrF27/jaI18Hbd2x2PXPmXCmnfPmv79q1rQZA8DyuzXD48OFSo8eM8Tp65Fjx/PnzP7p+/Wr2uK4j8OfNW9y5/4C+8wHKaN8Vvi0UoFesVO3krVs3suV3crr/KTg4VaXyFQ7Z2qV5tn7duo6vX79MhTFHz583v62bWyt/3vvzZ126wYN7jV+/YX1XB4csN5s0rr8xXbpML/6+8HexFct9OhQsWODO5EmTeoNmfxLoXXv0mLdyxcpOUKHCMmfN+rRsqTL78uZ1vH7o8NHq27dvawB1I3jCpAkd27m5rdMf+549e2p2793Dzzlv/lsDBgwYXKVKlVN169Y9uGv3rsoFCri8mj5nWrtaVcQzeJjpbr295dC1ade9fx35qwCkiuerV62up4ruP3OE/Mu/i4VPU7Jk2SNXrl527t+v3/iJE8ePwZBNevTovWjxksXtnPPnfzp16uRO3IjxgCJljRq1dh08dLCqi4vztcOHDpWFSBp47tw5l06du2xmG+bZs2b069Wrl5cC9FWr/FwHDhq0LCwszHT1Kt869evX38N7T5/uOXjIH4OmAdwacMfbw0Z4DEubOvVnAPdxwYIFbw4Z4jHBZ/lyjxyOOS95z1nctWRJl3P8Hg+eXn17rbt982aWGdNn9e/Ro/O8uMa6e/efDXv36TvnwYN7WYsVLXLxzJnTheNbnlWr/Fu1aePmD46umTl7Znv3du18Hz4MzkiRHnNypMGyXoN626dPmdIbYv3zpb6+bbp27OxDLaZH9x4+48aNHo3W0U8PHTpUsVHjpoegMz8cNmz4mJYtm60HHcIhomcbM2b8pNV+q1uPHjVi8ujRo4fhuyZ9BwzwXrRgURd0p43o07v3hBYtmi3Nnj37i0uXrhdo3qLp0Vs3b6YeOXrUtHFjRg9VXGIU2z09Pfv5rlzZber0KUNqVK2xm9x79ZrVrbt07urHHvazvWb16NW11wIF6BTda9Wru+dsQICLU/78z1f5rlSB/i/H6k8N7/LlyznLlC1/z9nZ6cbEKVP6Vq1Y8QABefHiNefyFcpehk5pNGz48MmjRw4fxgdxo1DElX90ixYt6TJq9GhvtFXW/H3uTOm8efOe5XU3b94s6OrWdvPf5845zpzt1X9Av55zFKCvXu3vNuSPP5ZBrDSFBFBbAfrkqdMHT5o4cVratHavdu7YURUi5TWqpnwsN3WV6jUCjhz+q2TVKpWPLtq8qUWq8HBj6q7g6qElSpY9d+vm9Ry9e/fzmjt3Vt+4iLJ+/fqmw4aPnAOQZSpVqszZkyeOlIiPeKtXr2nRwb3DWgJ3lpdntz7duy8i0Bs3rngUqk6uipUqH5s2ddKAkiVLisPm6dOnaRo1bnzk7Jlzzo65cj3z99vYDLaG00OGDJk6ffrMQb//XvvPiRPH9i9SpMhjSCYm4NhRAwcPGQ3uP6h+w/pbli1e3BWSzMfOnTvPX+qzrFOFShXOLFm/qXGeNGmek24Ec/0GDbaBQ9d1c3Nd5eXp1Rf3+MBn3/18N32rqq2OPn7yJNtc73ltmjdpslFeqzTp7TPcxdrYQlLwHOkxdCxiBT7ys3fv3mWuU7fu7gAY4/K7OD9f6eOrAv2nkPQv/7KHx7AZM2bOHNi5U6cF8+d7D8RwKaLTMGWV37nA+Vu3bmet9XvtA4sXz3eHoe2JDHQxqy27d9cZ+cfw2RDxc40ZPXroH38MnqqAmXq/e8dOG2/evJVr4oQJ/QcM6PcF6PBfuw0ZNGQZDhHTtWv8atesWVNw9ImTJw8ePWrMtJw5cz25dfNqPrwVih+2bqbVX1eidJlLZwNOu5Cb2ttnCoqMDDeGDUwHo2DkkydPUsEYqOncpduc2TOn9ouL7Js376o7bvxI74sXLmYr4FLo7tUrF3LHD3R/N7xWWVlbR/ssW9KyefPmGx8+fJixdu06R65fv5G7XsMG+yaNH9fPxcXlhkyTlO7unRcuX+7TLk3atKH+fqvq1qhR42jtOvV37d+/rwYCVzRp06Z/CpNAioiIKHNbW7u3T548yv7m9Wtj6P0nlyxZ0DZLliyP+g7su2C+9wIAvdLpZYsWNwQ3pxFSqJaNmzXetmP7zrpubV395ixZ3sdGNnBiXDmKlyxxEQeekZfnnPZNmjTZIc/LtJVbq/nQ29tkcnAImj51mjv0+w0K0GvWqb3r77NnC+YvUOC57zIfFej/cqz+1PAKFylx+8L5c7mrVqtytnat+qthUTaFMTwF9OeoJT5LBt29fduelu35S5a07eDaapXyMFqRu3fvM2P5imWdoa/e2bp18+8MuFBEw2MAukfvvptOnDzpOHPGNAB9gBfByoOAonufvn19CPQ1/hvA0SWgT5kybdD4CROmOzk5Pz575iSBzmAdAj2K3yteosyZy5cvFgcg3uXInvMq9GctDHr4iYiJ0WljLMzNY6pWr7m1X5/u3nER5ezZayX69O0+99TJ4yWw8T8+f/YkNa9Txqz322T8+IlDoc+PheU7GFzXtU6d37eRozdqVP7IxUuXc9eu9fuB8eNn9y1SJPd1+R5m7du3n+/nv7ZDpkyZPq30XdWwYsWyx6pX/33H4b8O/w67RyjmdSNNGpsQLXD7+XOIJlUqS21QUKi2devm6zt27Dif9+nctev8pUuXdKpaucqZbdu21VeMeuTojZo22rF189baHTp28B+/xKdPZq32HQUaiO29hw4fNjNFihTR5WAzsDI3DxOCjpnJ59cv3+Q/fPiQs7GJicbDY+jU8WPHjqNXAJ6CLE2aNtl59ty5glQ91vj5q0D/KST9C7+sbGj6XZs0bX4IoqRl6jRpPhkbGUekSAGQR0YK67hRChPdo0cP0oBTaGAln+bevu/kHDlSf+Qm8vVd3bz/gP4rwU0jVq1cUb9atWr79UEDUaBQ2ybNNt24edNxytQZHoMH9pmqkGLhwoXdho8YNS80NNRo3Vr/OvDnisgt6ujDRwyd5uCQ8fH9e/fyMipPEd2Jx5Jlyl6+eP5CgWYtmvn7rVzpmlTS4l4p+/cfPHvhogXdIfaG79yxrUxcBqgrV644tnRtc+Da5cvZGzRouGv0jKlDiuTOfZ0cvV7DxkevXLyYq2TJ0n97ey/uUby48xmOgy7D32sVCbh27UquQoVcLq309e0Ibn+lS/fuPksWLnZ1c2uz3tNz5gDo3s/iGzeNcf369Zs/Z65XRxy8Z7Zu2loPB8Rrma4pwJ13rF2zrpZbG9c1UyZO6Z05c+Z3NFA6uxS4/ezp07R2adJEI473I61tYSEhWlMz0xi4TjWR4ZG2wcHBKQoULHhv26bN1XLkyPGQQG/ZquXOY8ePw/xR8JnP0mWqey2pGyq5XN+rV59FS5Yu7cKF/2PI0EkRmphgU1OTFNrIGETIRGrCQ8JNV63y7XPqVAD2rMt9P79VbtgUp27deuswcEin9Xt37ynTHkaqMWMWDcycWYvosq8v6oCNm7TYfPbs6eI1a9TcvHnzhlY0ENEvPHv2xCkrV61sBG6l2bRxW50aNSoKoE+Fjj523LhpGM/jq1cu5eb1iqpAjg7R2H/N2jWtSpcue8l77mw3Jyena/yerMNq4RtPBR00VN+NFHstGCI6eIjH4hfPn1u2dG21Z+SwYYNpC1CuQ6BQhnGTJo/ymu3ZA5JMxBzPWT3atm27jJ/jM/sSJUseu3PnXi64EzWY+wrPpYuHWGu1bzZs2ADPYotNVCu6duu+eMyo4eNgjHu5adPWhtD116dLl+btrJme/Rs0qLuBLjzleZifFcBqjIOHMfYmPfv1nT/fy6tjtZrVz27ZsLmuPtCbtWq+Y+O6DbXadWi3ZsWyFb1xn3d8bnv3DpugGgTVr19vZcXyFQNoV9HBeoHbCX/hsSOHKvqt9u/AmKCAk6eKYy3PvQsJyVy7cuWdp8+cLlSwUCEV6MkFtEkdJ4NeWrWufeDChYu5m8LPumbN6mZx3WPBggW9evfpN5eW8IULFrZo1ar5hlGjxkyZ4+U1BBtKA6PRkTyOuW9FRsaYmJmlhLU895nevbst5L06denuBxdSa1s7u4gGdev6W1hYRT548CA3jEb2cEVlB3DM1qxbU79e7dpCp5w8efIf48ZPnOLomPPplcuX8mCPUkf/8rp+/XqB1q1d916/cdOhYoVKAXCR3fj48QPDdeFuj0nx9u271O3auS6GW2lXAlzTasKESYMw/mEI5jEpWaL4+QIFCsF/TNOEsQbjy75v/59VwXlD3VxdfTw8hkzC/1/wMBE6ep06R69fv5mLUg60G03VKtVO2djZvL3w98Xijx8/tMfro+dszw5NmjTknGJu376dady4ifPWrV/XAJ6EZ3jeCVvb1MEh4cFauCO14LRmtWrU2g66+lPi6NGnh/cKH99OJUuU/BsGyToU3eXDzrhZ82abN27cWLeje8cNENd74hB4U79xgz17du35vVrVaofWrV3bIlWqVG9jz3337t012nVovzUwMNC8Y0fYYry9B8Igma61q+vev8//7ZQrV67n9KOr7rWkoigZXA8/cd+hw/6Yyg3tOdu7db16NWK7z2iQi9m+/c8avft034hgEct2bdutWLDAe2DVGjX3nT4VUJRcDQYwYbzDpjfC5o9q2bK5L6x6nUgCAnPwYI95CLMsR6MZdOpPzZs1W9+wYWO/qdOmjr906aKLz7LlTX//vdphXj9z9uwB48dNmJYje/b758+fK0gJNDYp9+49UHnFiuV9L12+VCo46LNpcEioNYAQaW1t8yF3rlyvZsyZ2eY3PQ4d11J81unSHdl1sNDoMcMWvnv7Ns2nz5+toOsbIew9xNLSOjR9ugyvPUYP96hQsuQFcGX65MkYYwDKjCVKlDp67fr1XOXLVzhRpUrFg1u37Gj84uXLvCEhQZq8TvnudACNXF1bLWFGmPxs7dWrV/PMX7Bg4L4/99eLQHAR3IqWcHlpofaE5s6d60mH9u2muru7+1J079Chk+/WbVtblilX9tBav9UCuDLQTSpUrnrm3Jkzhdq7t188cdy4IRDLLdzatd9+9/Yd5xatWy2fM3NGT1xLmwZfQv3i75s3H2YdPnyI994/99ZBDP+D/Xt3F4fkY9qwSRP/gJMBlbJly/p0jf/6Ri4u+YQH4X/59csFzGBD2CGoJbeJid3HggVz3CWoucCK1VzsEMmVZgoXXPbQ0Mh0adNmeOnomPkeOGGae/deZo6KijSNjAzUkLtpwPHDPwTFZM6c4Rn9vspmwQFh/elTitRv3txO5+jo+AIHy3sCmH5kbHhriN838bcIxnkKn/6jkydzpkqV5b2LS9Z78W04jMsCn5ndvv3OPCTkSTorK7uIDBlSv0Z0WnjsiLGENi1EfVvIzCYv795N9/ZtoDXG/g4i8EdwygiMSQHqF2MduL193XqNjl27ejlXnz695iGsdHh0dOqYwMCnGYyMIlNotalfZc9uG0zRnMYzklChJ7k1OKoFAG5+8969jFqYF/PmzfkcXD2E+QWKOP8AY3p//1XWjBlTBcKo90h//I8ePcr54sXH9M7OOe9TpOf6/H3lSt6U+HKBAgWe4FreRwH4N1On3/zRo+f2IHVU4cKFr+K6aM4nNDQ6rZWVzfssWdK+5GH2vwxysb//1ycY1/wUo5whc5dBLzibcr28mb/8Ges+pKnYdLIOLTZ+LFp/2ZTxbdDYY9PX2fUOo28OKEPmE9d99UApElxib/wH0NHrl6twjMY4ZIktRiCRB33ZCqiVe8Y1F31a/+wcYn//R+b7q37nlwT6jyy2ssn0v2soSH/keYl957+56eleq1a98PEHDx7m7NGrx6LxY8YMhQRAIxoPwP+ZDL/EaJ6cP1eBnpxX7780dia1VK5S7Tii4LK2bevmNcfTc4y+iP9fGob6mJ+ggAr0nyDer/JVSA+WyNuvC+3FGKG+N1Co4bJiX/hVaJDc56kCPbmvoDp+lQIGUEAFugFEUi9RKZDcKaACPbmvoDp+lQIGUEAFugFEUi9RKZDcKaACPbmvoDp+lQIGUEAFugFEUi9RKZDcKaACPbmvoDp+lQIGUEAFugFEUi9RKZDcKaACPbmvoDp+lQIGUEAFugFEUi9RKZDcKaACPbmvoDp+lQIGUEAFugFEUi9RKZDcKaACPbmvoDp+lQIGUEAFugFEUi9RKZDcKaACPbmvoDp+lQIGUEAFugFEUi9RKZDcKaACPbmvoDp+lQIGUEAFugFEUi9RKZDcKaACPbmvoDp+lQIGUEAFugFEUi9RKZDcKaACPbmvoDp+lQIGUEAFugFEUi9RKZDcKaACPbmvoDp+lQIGUEAFugFEUi9RKZDcKaACPbmvoDp+lQIGUEAFugFEUi9RKZDcKaACPbmvoDp+lQIGUEAFugFEUi9RKZDcKaACPbmvoDp+lQIGUEAFugFEUi9RKZDcKaACPbmvoDp+lQIGUEAFugFEUi9RKZDcKaACPbmvoDp+lQIGUEAFugFEUi9RKZDcKaACPbmvoDp+lQIGUEAFugFEUi9RKZDcKaACPbmvoDp+lQIGUEAFugFEUi9RKZDcKaACPbmvoDp+lQIGUEAFugFEUi9RKZDcKaACPbmvoDp+lQIGUEAFugFEUi9RKZDcKaACPbmvoDp+lQIGUEAFugFEUi9RKZDcKaACPbmvoDp+lQIGUEAFugFEUi9RKZDcKaACPbmvoDp+lQIGUEAFugFEUi9RKZDcKaACPbmvoDp+lQIGUEAFugFEUi9RKZDcKaACPbmvoDp+lQIGUEAFugFEUi9RKZDcKfB/piZv9Q2pReEAAAAASUVORK5CYII=;" parent="1" vertex="1">
                    <mxGeometry x="-2235.99" y="442" width="100" height="100" as="geometry"/>
                </mxCell>
                <mxCell id="8" value="" style="shape=image;verticalLabelPosition=bottom;labelBackgroundColor=default;verticalAlign=top;aspect=fixed;imageAspect=0;image=data:image/png,iVBORw0KGgoAAAANSUhEUgAAAfUAAAH8CAYAAADIRzbZAABRUElEQVR4Xu29f8g9133nNxRTCoaW/mHYP/rH+aN/tBRtN1vYlXFgm6UsxGHpBprGsUM3UBp2i70toeSvRckSstRNSHFM1z+KSZMmponcJP6pOLLrOCsZ2Y5tyYp/yLLllS2kyHKkKJYl27L3Vu/n+Z7nnucz53zOmTv3PHfmzusFL2x9nzMzZ2bOnPecM3PvHQYAOBq73e4VLxmMt73kawu+6SXf6fjAbvk8sRvX22r3O/qq3fh4BXtcAQAAJvFSmLzMhIsCxwvgNQTuuZC7cUjPzat318/dy+35BQCAFbO7PmpWp58LZ4UFnD+lmwFmBwAATknSEacjaUbPcCzSWYHX78YzAS+zbRIAADIkHWccWcdRNWENSyMNfzvyJ/gB4PxJOj07wgY4R+7eXR/x66VJQh8A1oE6q1udVpwajyNtnl0DjElH+nGKn5f8AOBm2V2+hBY/qnXHrY4JAI6HRvm6KdY1dvHRP3sdAgBMYncZ3umoWx0NAJwOvV9ybXRvr1sA2DgvdQwvV+dwq6MgvAHWRxr2mkV7hb3OAeAM0cW+uxx96+UdnncDnDe6xvWIjFE9wNrZjQMcAEAzcQQ9wJLZXb55Hl9eI8ABYAoKet38axDAG/gAN83uchSuO23dcfPlLABwTPRYLr59H2z/AwAz0YW1uwxxXWg8B185z3z7S7snnv141q9+8/27+776zyd51+d+bPfeB//e0bTrr/mFv/it0X6kwlkQX8TjC3QAprLbj8QV4nBivvf9F6rBa4Pxws/+57s/+vO/jQVHx+slP/rwP3VvGJ7/3lP29MBp0JQ9I3mAHLvLj5XpeRYj8c48+8LXrgLigcf+1VV43P3Fn7oWLjaAcJm++4G/c3XONGMRz+fH/80vXZ3nJ791v20GcHw0ktdAhI/TwTbZXb7YppdTeCY+k3Qk/Zmv/9pFp64RX+zs3/3AD43CALepZk9iu9CNXLwJYCbgqGhgovd9NFBhqh7Ok9310Tg0kga2ner+g/tvG3XaiMfwPQ/cNnokoMcuBP9BaKqeUTysn91lkKsx8y1tDulz6jjC1rSq7WgRl6RmgNIRf3z+rxtRKKKZSc1QEvCwDnYEeRZ1dg994/cuOr8PfO4fXXSGGg3ZjhLxXPyDB27fvefBv3/R5vX+BoE/goCHZbIjyC+IU+V6rh1H3EyRI143Tu3HET5T+hcQ8HBadpff4qZn5Jv8Brf49vjVC2l8fAtxtjHs49v7Gx3ZK+A1SOLb7aA/u8svX9CbnZv46Fkcfcdp89+//2+NOiJE7Kdmu+I0vt492dioXi8Wv8r2wwCz2F2OynXnePYfP9NnejV9ToAjLtc06HXT/f0fvGgv5XNDgyhNzzN6h8NRA9qd8aj8hRf/6uLOX1PoeqnHdhyIuB51E66pe72Fry9ZOmM0eg+2vwYoogazO8Nn5Zq20wWvC59ROOJ5q9G8vmVPM2/6vYEzRDOnTM1Dmd3lt7ydTZjrebg+RvahL/5jQhxx4yrk9VhNL7ie2XP5i3Df8e11ELnVIM7iebnuyPXmLNPpiOipG309env06Q/bbmSt6DGpfmSGcN8qu8tp9tV/tlwXpUbjfCYcEQ9Rn53XKF4ze2fwMTqFO9PyW2J3+dOmq55m18V38ctifD4cEY+snsVrmn7lAa/Z19ts/w9nxO7yo2n6WMQqeeyZexiRI+KNmY7gV/yxOQ3g+CjcubG7fAludR9N08fO9Iycnw9FxFOqWUENKlb8cbnX2lyAFbK7HJ2v7udOn3ruCxd3yPzoCSIuzd+//5W7h596t+221oDeoeL75dfK7vJFuFWNznWh8OY6Iq5BzSB+8tH/bY1T86+2eQELZ3f50YbVoDB/12f4LDkirk+957PCcNcMLh9/Wzo6SbdO1irQd60T5oh4DircH3z8HbabWzJMxy+Z3WWgr+Jz53oB7gOf+29GFwUi4trVI0S9F7QS9IiWYF8auxUFuqba+Xw5Ip67//orP2+7v6VCsC+J3UoCXc+bPvTQ/zBq+IiI56relNfM5Aog2JfAbiWBrm9metdnXjVq8IiI5+67Pv2freXz7QT7qdld/t75otEI/d0P/J1RQ0dE3Ip65LiSYNcgkbfiT8Hu8lviFo++hck2cETEranBzUo+9vZ6mzfQmd3ltPviv1hGL8XZho2IuFX1XtFKCDZ3oCO7FXy5jF4O4S13RMTrruQ33N9pcwc6sVvJKF0/XWgbMyLi1tXvWqyEYPMHOvDSgX6VPfJLRA3XNmZExK2rb55bCXfY/IEO7FbyNbD87jkiYt6VvAn/hM0f6IA96kvFNmJERLz0iWc/brvMpRJsBsER2V0+T18F73/wlaOGjIiIf3v34g+et13mUrnN5hAckd3lb6Svgnu+8vpRQ0ZE3Loa8KyI19ocgiPy2595dBUvyYkvP/WuUWNGRNy6f/Kl/952l4vlQ488/X/YHIIj8j++71P/qT3oS+auz/2DUYNGRNyq7/vsD138FsZa+L8/9+Qv2hyCI3L7Wz6ymul38d0X/3rUqBERt+rjf/UR200umv/1vkf/J5tDcEQU6p/4+jP2uC8aNWLbsBERt+Z9X/1fbPe4eP67u7740zaH4Igo1O/48JfscV88X/iL3xo1cETErXj3F3/KdouL597Hnt295r1f4EW5nijUf/Q3P2GP/Sp49OkPjBo6np/veeC23W9/Ioz8Pz/2N3Zv/tf/YdZf/ZOX7/7lh//dJn/hj4cb9Zc+9LJRHXK+8f/790b7FX3Lva8YHQ/5/37mPxkdPzw/1zhCF2/8+GOEem8U6q9828d2H3z4KXv8V8G3vvMYv62+cL0gzoWvDUGcp72JsDcL9gZBN1H2HOIy1A9aPfZXf2K7wVXwzAsv7l73/ocI9d7EUF/raD1y31f/+egCwOObjprTgE7DWSFigwXX6b+4+9/J3gykNwLMDtyMd33ux1b1lrtFo/Sfeh+h3p0Y6vJX73nEnodVoVH7ex/8e6OLAeumYZ0LatvZI+aMswLpDcBv3PcfEf4zfPcDP7Ta0Xnks089dxHohPoNkIb6D7/9Y7u1vQmfQxeALgR7cWzZGNgaYamjVaerzlcjMdsxI/Y23izG4Gfqf6ym2j/1tX9pu7fVoWn3n/3jLxPqN0Ua6nEa/pvf/q49L6tEb8hvJdzjSDtOicfQtp0p4hpMQz9O9W9lpK8w1+PENU+1p/zCvY9eBTqhfgPYUJc//jufsudl1Wjkfi7T8gQ3bt04xZ8G/jmM8DUA0UDkB//2RduFrZY3f/rxa4FOqN8AuVCXP/uHD9rzs3qe+faXLj7bqTthe0EtzThV/r9/9N8nuBEb1bWid0HilP4awl4vwH31m++33dXqufOhp0aBTqjfAKVQP9dgF5rW0h3xHzxw++gCu2k1pagXidQJ8YwbsY+6tnSDrFmu/+dT//HoOrxpNSr/+L/5pd3z31vnR4lrlAKdUL8BvFCX5/SMPYcuqs98/dd2v3//3xpdeMdWAR6nzhl9I57WGPSaEbuJoP+D+2/bffThf3oxY3jO2GfoVkK9M7VQj8F+Dm/F13j2ha9dBPwxvswmvrhGgCOuxxj0mj07xot5GpEryJ/81v22uzk79Jb7z3/0q6MQtxLqnWkJdamPu739k1+z5/FsiSP49zz490cXas44CleHwJevIJ6HehymZ/RTRvMaFPzpl//nsx+Rp+hz6D9z15dGAZ6TUO9Ma6hH9Zz9nKfjc+gZvF5k+dAX//HVR+Q0EleI64LnOTjidtSnThTycSSvF28/8Ll/dPGezrk+I/f4jQefHAW3J6HemamhLn/kHfftfvfBx+253QwvvPhXu0efuWf3gS/8s92v/MnfGF30iHje3vnZn9o99I337771nSds97AZNDp/w4e/MgrtmoR6Zw4J9ejr7rx/c6P2HM999xsXIf+RL/+L3b/62N8cdQCIuF51464beIX4089/1V7+myT3+fNWCfXOzAl1qWfta/w99p589/vP7f7irz+7u+/RN1/c0dtOAhGX62/+2X91cYOuG3XdsMOeux55uvnZeUlCvTNzQz2qKfktvUg3FXUOutNXZ6FOw3YkiHjzamZNo/AHHv8dRuEO9z727EFT7TkJ9c4cK9Sj+vjbWn+b/aZRJ6LRACN6xP7GEXicRv/+D87n61h78eiz32n6mNoUCfXOHDvUo/r+eEbu09HUvTocjRzUARH2iNNUeMfRtx6DMYU+HY3Ma18ic6iEemd6hXqUafnjkAt73rzHLatrgPA+LsecZi9JqHemd6hHFe56oY635Y+Pwl6dGoGP52Ya3HpUxbR5H/Rd7elvnveUUO/MTYV6qr7AZgtfO7sENHpRR6jniOoY1UGqo+Sjd3hqdeOptijVNuPLarywdjPoebk+mva69z80Ct6eEuqdOUWoR/VSnabmGb2fjjitH0f6BD8ew1xgx5E20+SnRR9LO/bLb1Mk1DtzylCP6rPuGr3z1vxyiSP+NPzjW/vcAGzDNKj1mMeGNSPs5aJR+Rs//tjsz5gfQ0K9M0sI9VQ9e/+5D3x+9/A3n7PtElaCnnnGTj6d+rc3ApLP7N+8ugFLz0Ea0OkUuNRMDqwT/Wqavpf9pp6Vt0qod2ZpoZ6q6flfvecRAn5jpKFiZwdS40uBOc9h5iAdGVvjy2PWdNQc5cWy7aAg10tvp5xer0mod2bJoZ5KwEMvbAj2lpCFY7KGIE8l1DuzllBPjVP0vEEPAFtEz8iXOLXeIqHemTWGemp8yY636AHgnNFb60t52W2OhHpn1h7qVk3T60tuGMUDwJqJo/G1TKu3Sqh35txCPVWjeP3mu57FE/IAsGQU4no2ru9cX/to3JNQ78w5h7o1naon5AHglCjEz2VKfYqEeme2FOrWdCTPF98AQE8++9RzmxiJ1yTUO7PlUM+pn4zVM/nfffBxXrwDgIPRL57pu9X1TPymv199yRLqnSHUffXxOY3mFfSM5gEgh0bheqlNo/A1fszsJiXUO0OoT1dv2OvZfJy2Z0QPsB00Atc0up6F9/7t8XOUUO8MoX4c0xG9pu755juAdaNvaotT6IzAjyeh3hlCva96Rq9RfZy+Z1QPsDwU3po+j6NvnoH3k1DvDKF+Gm3Y8xE7gL7oI2SE9+kl1DtDqC9LPa+Pb+DHZ/ZM5QO0EafM9cw7vnnOc+9lSah3hlBfj2ngxxE+b+TD1tCb5nHETXCvT0K9M4T6+ajAz4U+z/FhTSiwc6HNVPl5SKh3hlDfjnpDX6Ef39KPb+ozxQ83QZwaj2+Ux7fKFdi8Wb4dCfXOEOpojdP8afjH5/u81Acp8eWz9Dl2GtZMi6OVUO8MoY5z1Pfnx2n/dOpf6odz4o0AjwGWTwxnqR8aiQGdToHLLX9vOc6XUO8MoY6nMs4IRNOZgdT0xoDZgj3pKDk1PotOTUfOjKDxlBLqnSHU8RxNbxY8SzcSJX/lvkdHgTnVXMCW5OUwPDcJ9c4Q6ojt/sPf++yok0LEdgn1zhDqiO0S6ojzJNQ7Q6gjtkuoI86TUO8MoY7YLqGOOE9CvTOEOmK7hDriPAn1zhDqiO0S6ojzJNQ7Q6gjtkuoI86TUO8MoY7YLqGOOE9CvTOEOmK7hDriPAn1zhDqiO0S6ojzJNQ7Q6gjtkuoI86TUO8MoY7YLqGOOE9CvTOEOmK7hDriPAn1zhDqiO0S6ojzJNQ7Q6gjtkuoI86TUO8MoY7YLqGOOE9CvTOEOmK7hDriPAn1zhDqiO0S6ojzJNQ7Q6gjtkuoI86TUO8MoY7YLqGOOE9CvTOEOmK7hDriPAn1zhDqiO0S6ojzJNQ7Q6gjtkuoI86TUO8MoY7YLqGOOE9CvTOEOmK7hDriPAn1zhDqiO0S6ojzJNQ7Q6gjtkuoI86TUO8MoY7YLqGOOE9CvTOEOmK7hDriPAn1zhDqiO0S6ojzJNQ7Q6gjtkuoI86TUO8MoY7YLqGOOE9CvTOEOmK7hDriPAn1zhDqiO0S6ojzJNQ7Q6gjtkuoI86TUO8MoY7YLqGOOE9CvTOEOmK7hDriPAn1zhDqiO0S6ojzJNQ7Q6gjtkuoI86TUO8MoY7YLqGOOE9CvTOEOmK7hDriPAn1zhDqiO0S6ojzJNQ7Q6gjtkuoI86TUO8MoY7YLqGOOE9CvTOEOmK7hDriPAn1zhDqiO0S6ojzJNQ7Q6gjtkuoI86TUO8MoY7YLqGOOE9CvTOEOmK7hDriPAn1zhDqiO0S6ojzJNQ7Q6gjtkuoI86TUO8MoY7YLqGOOE9CvTOEOmK7hDriPAn1zhDqiO0S6ojzJNQ7Q6gjtkuoI86TUO8MoY7YLqGOOE9CvTOEOmK7hDriPAn1zhDqiO0S6ojzJNQ7Q6gjtkuoI86TUO8MoY7YLqGOOE9CvTOEOmK7hDriPAn1zhDqiO0S6ojzJNQ7s4VQ//Hf+RQW/NHf/MToeGHZmwr1N3z4K+hojxeuR0K9M1sIdZjGw998bvfBh5+68HcffHx3x4e/dOHP/uGDVzcD9hhvxZsKdWjnmRde3N372LMX3vXI07s3f/rxC3/+o1+9uAF43fvHxxdPJ6HeGUId5vCJrz9zEf4x+BX4P/KO+0bn4Fwk1NdLGvqE/ekk1DtDqEMvFPZv/+TXrsL+h98+Pjdrk1A/L+IoPwa9PQ94fAn1zhDqcJNoal9T+j/3gc+v8nk+oX7+xJD/2T/+8ui84HwJ9c4Q6nBqNKJfS8gT6tvi0We/s/uNB58k4I8ood4ZQh2WxDe//d2LKfvX3Xn/IqfrCfXtooDXCJ5n8fMk1DtDqMOS0VS93rpfSsAT6iDufOgpRu8HSqh3hlCHtRBH8Pb83qSEOqTo+TvhPk1CvTOEOqwNvWynN+pP8dE5Qh1yaOT+M3d9aXQecSyh3hlCHdaMRu83Ge6EOpTQx+Pe+PHHRucSr0uod4ZQh3NAb9DfxDfdEepQQ1PyvExXllDvDKEO54TCvefInVCHFjRq51l7XkK9M4Q6nCOalu/xxjyhDq0o2PX98/bcbl1CvTOEOpwr+sy7vtTGtoc5EuowFYL9uoR6Zwh1OHeOOSVPqMNUmIq/LqHeGUIdtsCxRu2EOhyCgp2X5y4l1DtDqMOW0DfUzXnWTqjDoeiz7PY8b1FCvTOEOmwNfXnNoT8eQ6jDHPh5V0K9O4Q6bBFNxx/ylbNbD/VvfPt7R/OFF39gV3/2fPap50bnemsS6p0h1GHL6MdibHvx3Hqo23oe01++7+u7X//047t3PfTN3T2PPXsR/N//wb+1VVg9Wx+tE+qdIdRPx+N//UI3oZ0pwU6oj+vaW30k7P/68yd3n37yW2cxut/6s3VCvTOE+umw9ezpj/3WJ3d3fOihC3/t3kd2H3z4G7t7H3364gbg+e9931Ztc7QGO6E+rutNq4D/4l8+v9pRvN6Et/u0JQn1zhDqp8PW89S+4X2f273jz752FfZboyXYCfVxXU/lP7n7yxfhvka2/Ll1Qr0zhPrpsPVcogr6Ox98fDMhX/tRGEJ9XNdTq+fwz37nRVvVRfML9z462o+tSKh3hlA/HbaeS1dT+Jq6f+CJZ3cvrnTqs4beive+fY5QH9d1CWrUvqZgf/NLNyJ2H7Yiod4ZQv102HquTU3Vn+MI/hNff6b4BTWE+riuS3FNwU6oQzcI9dNh67lWf/rO+y9G7+fEr97zyGg/JaE+ruuS1Jvya0C/uW7rvhUJ9c4Q6qfD1nPtanpeb9Wfy9R87vk6oT6u69Jcw8tzW/5YG6HeGUL9dNh6nosK93MYuev5up2GJ9THdV2aaxitM/0O3SDUT4et57mpz8Sv/TPwdhqeUB/XdYkunS3/xjqh3hlC/XTYep6rmpJfM+nb8IT6uK5LVF8xu2S2/FWxhHpnCPXTYet5zmrUvtZn7R98+Kmr/SDUx3Vdoo8++x1b9UVh67slCfXOEOqnw9bz3NVb8k8/v+wRVIn4U62E+riuS3TJI/Utv/kuCfXOEOqnw9ZzC+olujUG+9s/+bWL+hPq47ou0SV/Xn3LU++SUO8MoX46bD23ooL9y3/5nD0ci0fP1gn1cV2X6FLh99QJ9e4Q6qfD1nNrri3Y9SY8oT6u69LUd8EvlS1/53uUUO8MoX46bD235tqm4vW5dUJ9XNeludTn6YzSLyXUO0Oonw5bzy2qX4Fb01vxr//gQ6NOqodLxdZzaS71i2f0G+pb/rnVVEK9M4T66bD13Kr65be18Nt//hejTqqHS8XWc0ku+QddmHbfS6h3hlA/HbaeW3Ytz9effuF7o06qh0vF1nNJLnXafctfCZuTUO8MoX46bD23rJ6vr2Ua/iY+krRUbD2XoEboS/0Rly3/cEtJQr0zhPrpsPXcunc+uNy3llNuYuS1VGw9T+0v3/f1xU6530Q7WaOEemcI9dNh64kfW8Vo/Sa+EWyp2Hqe0j/66tO2eouBZ+hlCfXOEOqnw9YT1/PjL7ajOrZLxdbzptVUu8L8hRd/YKu2CHjLvS6h3hlC/XTYeuLls/U10LvjXiq2njelvlDm009+a/f9Bc/k3PXI07vXvX9cd7wuod4ZQv102HripWt4E7739OpSsfXsoT5rrhDXiFy/trbkIBeq4028PHkuEuqdIdRPh60nXvqOP/uaPVSLo/dLUEvlnseePboagevjaEv9SJpH73ZwjhLqnSHUT4etJ166hil4TbXazuqYwrLRR9V+5q4vjc4b1iXUO0Oonw5bT9y79O+E7/0GPCwTwny+hHpnCPXTYeuJe+99dLkfV4rYzuqYwnLQM/M3fvwxXoI7koR6Zwj102HriXvX8EU0trM6pnBaFOQalff+lMMWJdQ7Q6ifDltP3HvHh5YfbLazOqZw8+inUX/jwScJ8s4S6p0h1E+HrSfuXcPLcj0/xgT90XsRentdH6Fjav3mJNQ7Q6ifDltPvO7SIdTXib71LQZ6DHWdS4L9ZiTUO0Oonw5bT7zu0iHUz48Y+JqG1xcM8ab78SXUO0Oonw5bT7zu0iHUt4GCXt9LQMgfR0K9M4T66bD1xOsu/RfbCPVtohfqNG1PwB8mod4ZQv102HridZcOoQ4K+N6/A3BuEuqdIdRPh60nXnfpEOoQ0RS9Ru+8bFeXUO8MoX46bD3xukuHUIcchLsvod4ZQv102HridZeO7ayOKaybOHK35xUJ9e4Q6qfD1hP38o1ycA7omTvfUHddQr0zhPrpsPXEvb927yP2cC0KjcRsZ3VM4bxg1L6XUO8MoX46bD1x7wcf/oY9XIuCn16FqajN8KydUO8OoX46bD1x75f/8jl7uBaFfsHLdlbHFM4T/frb1qfjCfXOEOqnw9YT9z7/ve/bw7Uoek+nLpVvfPt7N+a5okc3Ww52Qr0zhPrpsPXES9/wvs/ZQ7U49CMgtrM6pkvF1vMm/OX7vr779Zduou557NmLke4LL/7AVmt1bDnYCfXOEOqnw9YTL73zwcftoVocvZ+NLhVbz1OpoP+jrz59EfLfX/jXCZdQ3Xu3oyVKqHeGUD8dtp546dPPL3vqVZ2x7aiO7VKx9VyK73rom6scwesjb3Zfzl1CvTOE+umw9cSP7X76zvvtYVocvV+Sk0vF1nNpapp+bc/je7+fsTQJ9c4Q6qfD1hM/tnvgiWftYVocN/EDHkvF1nOpKtzXNHLf0vN1Qr0zhPrpsPXcuj/2W59c/M+tipt4DrpUbD2X7D+5+8sXL9etgd7fe7AkCfXOEOqnw9Zz6y79C2fEnzz6zKiT6uFSsfVcg3revga28vvshHpnCPXTYeu5ZdcySv/5D9/MNOlSsfVci2sI9pt4V2MJEuqdIdRPh63nll3Ds3TxX9/52VEn1cOlYuu5Jr/4l8/b3VkU+uz6TTzaObWEemcI9dNh67lV1/BlM+Ltn/za7h/+HqG+VvWFQUvnjR9/bFTvc5NQ7wyhfjpsPbeopt2X/pWwkR/9zU8Q6pm6rsmlj9bveuTpUZ3PTUK9M4T66bD13KJL/+GWyAcffuqivoT6uK5rUh91WzJbeAueUO8MoX46bD235hq+Djby47/zqYs6E+rjuq5Jfcxt6dg6n5uEemcI9dNh67kl3/FnX7OHY7HEUbok1Md1XZtLx9b33CTUO0Oonw5bz624pkAXcZQuCfVxXdfm0n8A5g0f/sqozuckod4ZQv102HpuwbUFut54T+tPqI/rujaXDqEOsyDUT4et57m7hm+MS/nmt7+7++G3X98HQn1c1zW5ho+1nfv3wBPqnSHUT4et5zm7li+XSXndnfeP9oNQH9d1TS797Xdh63xuEuqdIdRPh63nOaovlln676Pn+N0HHx/tiyTUx3Vdk2v4gRdb53OTUO8MoX46bD3PzbVNt0ce/uZzo2n3KKE+ruuaXPpLco8++51Rnc9NQr0zhPrpsPU8F+/40EOr+ZY4i56j65vj7D5FCfVxXdciP+qyDAn1zhDqp8PWc+0qzB//6xfsbq6Kn/3DB0f7lUqoj+u6BvWlMy+8+AO7O4uD736H2RDqp8PWc62eQ5iLX73nkdG+WQn1cV2XrgL92e+8aHdlkZz7m++SUO8MoX46bD3XpH6IRV/zutZpdov9PHpJQn1c16Wr59RrYAvP0yWh3hlC/XTYeq7BX7v3kVV+PM2jNdAloT6u61LVZ9LXMkIXW5h6l4R6Zwj102HruUQ1Ite3wOnX1F5c+JvDhzAl0CWhPq7rEtVLcUt/093yuveP9+McJdQ7Q6ifDlvPJajPlSvENRpf4+fLpzA10CWhPq7rktSXy3zj2+trt1t46z1KqHeGUD8dtp43qcJbL7jps+QKcL3odo4j8RItL8XlJNTHdV2CGpmvaao95ZkXXtzMKF0S6p0h1E+HArW39z769EVgy3MfebdS+9iaJ6E+rusp1BvtCvIv/uXzq/iomsebP/34aP/OWUK9M4Q6bAV9sUz6M6qHSKiP63oTalpdIf7pJ7+12hF5js8+9dymRumSUO8MoQ5b4IMPP1X86tcpbj3U9d3pPdXz8Og5hXcOTbtv4XPpVkK9M4Q6nDt3fPhLozZxqFsPdTgev3Dvo6PzvgUJ9c4Q6nCu6IdZvO9xP0RCHY7Bbzz45Oicb0VCvTOEOpwjerv9GNPtVkId5rKlj6/lJNQ7Q6jDOfGJrz9z9NF5KqEOc9h6oEtCvTOEOpwDerP95z7w+dG5P7aEOhzK1j66VpJQ7wyhDmun11R7TkIdpqK33PU99PYcb1VCvTOEOqwVfc3rj7zjvtH57imhDlPQ59C3+LE1T0K9M4Q6rA195rznc3NPQh1a0RvuW/timRYJ9c4Q6rAWTjEytxLqUEO/i/6GD39ldE7xUkK9M4Q6LBm9AKcvjzl1mEcJdSihZ+d6GY7RuS+h3hlCHZaIptjn/PBKLwl1sBDm0yTUO0Oow1LQN8AtaVSek1CHCGF+mIR6Zwh1OCUKcn0k7VQvvk2VUAe90a7vbSfMD5NQ7wyhDjeNptb1RTFrCfJUQn2b6OU3fRscH0+bL6HeGUIdeqOvbtVo/HV33n9jXxLTS0J9OyjI9bE0gvy4EuqdIdThmOhtdY3E9Wz8x3/nU6sPcSuhfr7E0fgbP/4YQd5RQr0zhDocisJbnx2PAb7kF9yOJaF+Ptz72LMXI3E9H/+Zu740OgfYR0K9M4Q6lNC0eRrc+ojZVsK7JKG+LhTcUm+pawSuL4UhwE8rod6ZLYS6ggkvVThbFdTRLQd2izcV6jGMcOxdjzx9EdKpGm0rsAnt5Uuod2YLoY54LG8q1BHPVUK9M4Q6YruEOuI8CfXOEOqI7RLqiPMk1DtDqCO2S6gjzpNQ7wyhjtguoY44T0K9M4Q6YruEOuI8CfXOEOqI7RLqiPMk1DtDqCO2S6gjzpNQ7wyhjtguoY44T0K9M4Q6YruEOuI8CfXOEOqI7RLqiPMk1DtDqCO2S6gjzpNQ7wyhjtguoY44T0K9M4Q6YruEOuI8CfXOEOqI7RLqiPMk1DtDqCO2S6gjzpNQ7wyhjtguoY44T0K9M4Q6YruEOuI8CfXOEOqI7RLqiPMk1DtDqCO2S6gjzpNQ7wyhjtguoY44T0K9M4Q6YruEOuI8CfXOEOqI7RLqiPMk1DtDqCO2S6gjzpNQ7wyhjtguoY44T0K9M4Q6YruEOuI8CfXOEOqI7RLqiPMk1DtDqCO2S6gjzpNQ7wyhjtguoY44T0K9M4Q6YruEOuI8CfXOEOqI7RLqiPMk1DtDqCO2S6gjzpNQ7wyhjtguoY44T0K9M4Q6YruEOuI8CfXOEOqI7RLqiPMk1DtDqCO2S6gjzpNQ7wyhjtguoY44T0K9M4Q6YruEOuI8CfXOEOqI7RLqiPMk1DtDqCO2S6gjzpNQ7wyhjtguoY44T0K9M4Q6YruEOuI8CfXOEOqI7RLqiPMk1Hvzix95me24EDEvoY44z5/4wy/cZmMIjoztuBAxL6GOOM/X/MEXgs0gODK3v+3eN9nOCxHHEuqIh/ua933xCZs/0IHb3/Knr7KdFyKOJdQRD/cn3/PQHTZ/oAe/+JGX3f7Wjz1hOzBEvC6hjni4TL3fIK982z2vtR0YIl6XUEc8zNe876F32tyBnjBaR6xKqCMeJqP0E/DKt330NtuJIeJeQh1xuj/53i+83uYN3BCvfMs9r7cdGSJeSqgjTvZumzNww9z+to/dbTszRCTUEaeoj7D9g9964OU2Y+Cm0fN1gh1xJKGO2KYC/Sd+79OvsPECp4JgRxxJqCPWJdCXCsGOeE1CHdGXQF8Br3zrPXfYzg1xixLqiK53/5cvDQZthsAC+btvvefVtoND3JqEOmJefQUsgb4yfujX//QVt7/tYw/Yjg5xKxLqiNfVdPt/++4vvsrmBawF/f46n2XHjUqoI+7VV7/ykbUz4fa3fCQwasetSagj3hqdv/fzr7a5AGcAPwSDW5JQx637mvd+8U08Oz9z/uavfPDlvCGPW5BQx62qqXZ+lGVj6EW6V7713nfajhDxXCTUcWu+NDJ/4Cf+8Au32f4eNoSetxPueI4S6rgVFea81Q7XINzx3CTU8dwlzKHK5bQ8z9xx/RLqeK7qmTnT7DANfcb9bfe8lo/C4Vol1PHc1DfB8VlzmM3tb/nTVzE1j2uTUMdz8GKK/b2ffzUfTYOjc/FxuLfc8/rb3/qxJ2wHirg0CXVcsxqV87E0uDFe+baP3nb72+59k+1IEZcioY4r9G69+MaoHE6Hfsf9LX/6KgIelyahjivxbk2v86wclgcBjwuSUMcFe/dPvvcLryfIYT0Q8HhiCXVcmIzI4Uy4+HjcR2/T5995yQ5vSkIdT61+UEXPyAlyOGsuvuDm8jPwd9uOGPFYEup40+rjZ5pW54thYLuko3i+6AaPKKGOvdVvlTMaB3DQZ+Evv+yGkMd5EurYw4sQf+/nX/0Tv/fpV9j+CwAqEPJ4qIQ6zvVqJP5SiPNFMAAduPhWO03X65vteCaPjoQ6TvXimfh7HrqDkTjACbn42diLF+/ufROjeYwS6lhTv3b2mvd+4bV6sY1vcQNYKFej+ZeCXj9Ew8fotimhjqkKcL2ZrpfaGIUDrJw06BnRb0NCfZtePAcnwAE2yMW33n0k/N233vNqvYjHz8uel4T6JrxbL7JpCl0vsvGxMgAYcfnG/eVzesJ+vRLqZ+VVeDP6BoCjEMP+YmT/lntef/G8nmn8xUqor8+LaXP9jvitl9cIbwA4CZcj+1sv5xH4i5BQX6aXb5zvR92aNufNcwBYDfqu+6sR/q0X9Xgrv7+E+sm8O76oFp9188UtALAZYuhffHNe8hyfL9eZJ6F+fPXlLOlIm9AGADiAGPxXU/zpiJ/wz0qot3sV1skIO341KtPjAAAnIr7Ml073X3uLf0PP+rcc6vGz2lfGUXUysuYlNACAMyTeBFx7BJC5GVjbrMDaQ30UzCac05E0n9EGAICjkM4ORNPHBNb42KDksW4ceoZ6NnCt6eg4DeNbb3xb7XEFAACAW2h6OQbmf/G2P/sP7N8BAAAAAAAAAAAAAAAAAAAAAAAAAAAAAAAAAAAAAAAAAAAAAAAAAAAAAAAAAAAAAAAAAAAAAAAAAAAAAAAAAAAAAAAAAAAAAAAAAAAAAABWxKte8rUFw74YAAAALJ13vuSuoIIdAI7MbcPlhVfy1fuiB/OyYbze1NfviwIUUTuxbadmOip8xQA3jc6BDXNCHaAjLx/GF1vqA/uiB6MbB7veVEIdWvACYop3D5c3q4R8f7xzRqgDdMK78OTczu+OYbzOVN1YbAkFih1Rzj3GW6DWTg9RN60KF80mrYm1tCHvnBHqAJ3Qyyz2gkudOwX/xDBeZ1Sjpq2hILHHIaQFIIsXEHNVG9V1sBbW0oa8c0aoA3RCo5RewVubel9TR3oMNJqyx0CGpAzk8QLiWKqtL3HEm7KmNuSdM0IdoCO9pshr613btOdc9P6APQYyJGUgjxcQx1Q3uEsO9jW1Ie+cEeoAHQnD+KJLPXRE7c0AvCkptxVy06YyJGUgjxcQGmGHYR/GulnUf0u1Xd1cqoxdrqTKLvWGc01tyDtnhDpAZ0qdhTwkgEvThFFNzW8J73iEfTEo4AWE/taCZpxqs0fRJQb72tqQd862GOpqT0ueBYIzozStF53awXnr0wi+BQV//HyyXYfUv6uTPvYNgtan9cY3i6O6udHIr+VxhMqk36BV2gepbaVlZcs2hMrpZUbVrXRjpoDSNlT3qefR7keqncGJ33ugbeoc6//bMofiHb/WUI+oY/VmkaJT665jG8+1tNuIbaj1/Npj7x2DQ9tQvNHRuu1sRjyHugbVxqa2Ha++ql9KWg9bVv92yPYtap86/lqfvVa07/p31SvcKj8H1TV+SsEe13S/VJ9j9V9pX2DbntQ+xz5s7rGEFVD7zPrUDs5eNKm6eD1Ul9zF7Tl3ZBWGy3rlLoac2p53MYZhvMwUw+CjffVunEpq/6Z8oiEM43VE0zAtnS/beR9Kaf22Hq3UXuKUasMtxEBqbTtRLeO12TCMl5liGMqEwT+mOXU8pvQD3vpju9D+K2js33Me8r6D1q86e/1RTtU9DNNRW9B1ObUtqLyW89qDh46nXWfNKecSVkrpjlLWgjjFmyaU3oWpwJl6QUQPuejFIeEYLR2XMIzLTjEMZcIwvZOyqtNqGcmFYbxsug7hHb+lhrpQp2bXZQ2xcIHWUX9JLVu6OQzDuPwUw5CnZb891fZawsc7Z2oXWofX5+Sceo17dWixdH3nmNsW5NT90zU89RimHuv6hIXiXexqbK14nbw3+pl7AUrVMwxtqFM5xjZzI64wjMtNMQx5vGM7VR2r2t16GMbLReNoxv576rE6De88HRrqonY8NYoscYxOXGodtv2IMIzLTjEMY7xrfIrecYl450ztonWEbm0Nvtb3J2qWbrpSdP6O0RZky3UpVK9jbHPKjQusDDVMe8JTWxq38EaRpanfY3U20dooVJ2CV8+p2mAJt/79UMMw5pAptha9DjIM4/JRjRBqHefSQ73W5mWJlg5VbcyrezS3D2EYl5tiGK6j/7Zlcuq8toz+asHj7bf3txa9wYGo3axFVY/aedTfa/1Jy/GKbaGlrMzd6EX0tyn9V20f+bruM8brpFvu6GpT77mLo6WB2uCpTdPnOsmUWqeifdVNjOqmbbc8M007OS0XEm3ZVO1LWlbaC1r/ZpezauSjOsRjpf/VumudiDedGoZx+dTaMVl6qIvaiDHXZmvP5LVOexPsXVsyXJW85NhtqLZ9dezpvtamx2uzd945S9U24gtqsc22LKvyJbx2qfau6yQ9Pi3ns0TtfaTcNaBlVAfv+OaWi9Ru8G1f3TJNn2vncAZ4jbt2dyy8O+RS51troKURQa2h2huBSBjGZVPtBZHidTZeJ2fLpoZ9sSLedqVX51rnLEvHOAzjsiVVR5UXOvb6/8fqKLz9L7WrVrTvdp2p4arknkNuBIS3H14nLmz51LAvlqU2Paz2kaMWWKVrTHj7GvXabe0mpLSs14fJ0myh/t2WjZaOj/C2590MiDCMl4mW+ttDz6Xw+trS8YQzwGsw3kUsvBF3LjhqDbQ2LeTNDJSW9erojVrFIQEgbLmWZSLePspaxyFqsyGlDiQM47I57aj02HgBMTfUwzBeZ6r+nqJjacukeufDCw5vOWHLp4Z9sSy1dpu7NiPesffOu7ecVPh415rw1qF+I7d87YYrt4yondcS3kAm7IsViTcv2lep9Sl8S+fEu9kpHZOU0jH1BiWwcrxGWgpKUQufXGPz7nJlC6WbglxQ1To3b/8iXjiWlrflUsO+WBbv7lrWbrQi3nktrScM43LWuaHaQqkjOsb2wzBeZ6odQasdh4xqyyqbO44R7xrJtdcUWz417Itl0Yg7ZNT1oDrnrs2I1/7ssUnxzpkshVZK7XoNVyX3xFkiq26oatvUjYbdhrct4d1E1AYJh+D1P975iHjn07tJgxXjdTzHntrxgsbbVop3UdkLyisrw1XJMmG47Bz0v9ZSh263M2WbXudYC4IU77zKXIcXhnE5a2mq+Zh4x2BuqNemmFs6yinY9ad62LKpYV/s6HjXtXfsvXMm7bWZozZ6Pva58epcmrb3jo/UOkMsPJNaWw1XJcuEYbxc9NjHExaEd8da6sS9ZUp3gN5FpPWFBr3pKP09xbvLlb2w2/HqaLHlU0szAyXs8qm5G68wjMulep36MfHaydw6hGG8ztTczc4c7PpTPWzZ1LAvdnS80PKO/bHOmdev5NrsHLw6lwIvDOOyObUfWofKH0oYxutNVT+rMjXtctHaIyBYMd6zv9wdq3cH6Y0mvYvoGNq62r+nevWci91WatgXG3HskYp3U5PraMMwLjdn+4fitZNcvacQhvE6U/X3GmG4vMFSXbwQqulhy6aGfbEm1K50s6JQVJ29duHpHXvvnE0JD2893vYj8Y16bVPlS4/ranpt/ZBzrmV0/HUeSgMli9cvH8PW2VFYIV6Y5E6819i80eShF1ir9kK0f09t6SAOxW4rNeyLjQjDuHzq1FHk1A4yDONyqfb49mJqvadQe68jXJUcE4bjtmEPWzY17ItV8UbeU/WOvXfOprQbbz3e9tWH1R63TdGrcxjG5aeqG6va9XzMc1cSzhjvgrDPw7yypefMwpY9tvZCtH9PPfZUXordVmrYFxsRhnH51mVzTO0gwzAuN2f7hzK13lPwHt/I0iiqRwfrYcumhn2xIrpmveN4iN6x97Zlr0sP7/yUth+G495syVqd1U68fW5V4V7qM3u0OSucMd4Ixt5R2r9Hc6P6FFv+2Nqg9i50b0ZhLnZbqWFfbEQYxuVbl83hdTq5DjIM43Jztn8oU+s9BW/qOfdIRuF4yHRrix62bGrYF8uikPDa/qF6x947Z7WATPHWk9u+N2s4x9Y6a/tzj3Xpo2mEOsym1DjTZ2Je+Ntn2havc9Q2wkztHe/UDuJY2G2lhn2xEWEYl0+tHV/L1P0Pw7hcqv5+E0ytdythGK8vNffstyU0dDMZbpnivXsiPWzZ1LAvlsU7flLXufYrDOOZCS9IvGPvbbM1IIW3Hrv92vGV6nPiC2U2OL1tTalz+s6Cd9PoafdNeOdChiMIZ4439RXxPpZmOwiLdxHlGvVcvP3psb2I3VZq2Bcb4b3bIKd0NKJ0kyZz+1/rJMNVyb70aifeTaXM3TR5nbQ3dSrCMF4mVX8vYcu2Llf7KKNuXGy4pXhB4h1775zZGTQPbz12+15fJHPnM8U7t1OvtZT0ZT3vGrTa/tMbQOXKA4zwOoT4MbXShZAb5Vi8Z/H2gj0G3igrN9WaQx3g1IvHbis17ItlseVTp3SOtRuE0uMHWy417It1ZUrH3orXFqL2PB96DCNhGC+Tqr+XsGVbl/NCubasOPQaPdY5K/Uv0gatt82Wb0yzy3jbmkMM+VrA248Ch1v/XlJ/B6hSuqgUKN5Izj53z+F1OC0X4VS8+kpvlBXJjQZUV3UopRsZWz417ItlmdtRRXQ+7PKptgOJ2HKpYV+sK94xmBIQkdqxkLkbpjCMy6WWjmHEmymS4arkGFu2dbm511jp+pfesffOmfRmByLeoELaPsabecmdz5QwjJdJPWaoR9QfeXXObdOWSbXHAyBLaUSjDqHUObZ0FiIM42VTa52k0IXREsYRr5OqjbSEt3yp47DlUsO+WBavU5Ytx0h4Iy5Z6mRtudSwL9YVLyC8YLFoH3M3ZTntKF2EYVwuVX8voW3XRmYhFs5gy7Yu5+1v7TotXd9R79h750y2tFuv7tJe9/bvqaVrM1K74coFrEX10X5NCVfvxiU3SPBuArzzkRLsP8C28Ea3pYCrXUAp3sWfa9Qp6ihtHfTfWqfMdcylm5RouCo5Jgzj8qmljsqWS611AN7xl7rIS4Ec8ToO6XUGtmxq2BfritdGvLpHtP/qlGuhGi213zCMy6Z6N4W1gJIhFs5gy6Z6gVO7KbTBGGl5y9879t45qy0rctd2qupm8errPV6rXR8yd4x1vWs/ctst9QWWMIyXjebeAajdaJXOZyTXHmJ/mdtHOFNqozxruFiqjTCMl08tdbDCq5fXaXidhTr+3IWhf/NCwRv1eMu1hHJtFOHta63eMsTCGWzZ1uWOiRcQOpfqjHKqfdT23Vo7H7Z8y7K18xf1OtVam81tV9RCIHd9tQR6NHfjLLxzFs1tW7RsP3czXNtmuCq5JwxtbSR3U+AdW62zdGwi2k+vD8v1Q6LWFkrLhWFcvmV7cIZ4jdeaa/w1ahejLnB1eGG4vAOOX8lpy6V6F1TL/qjDicFQ62Ck1yHX6hqDSfsW9zOlZSShOuq4xI/rtL5t690QCFs+NeyLdaV2/I6l1yFGvA41rkNtR21M56Ol7aTLltpt7RioXtpeGK63If2vLWvVsmovsc3U9jFV5XPU6hvNXdu17ZduYnKjUKvqpXOjsrk6etdLbuTs1TUeV9umVHftq9c2vEFCGMbl7bKxDapsS19QusGCM6XleWDUC7cSYRivZ47eNGgkd0Efaqlji7SO1KK5Y1h7bHCI6nRynWOKXSY17It15ZjnqqQ6WNv55ph6LlPjTYP995z2ZqslsFLTNuQFT00dl5abYBmGPd4588KsxVIAhWFcdoq6xlrPb2TqeWlVx9zDO75TLd0kwZnT2thLI40aunNtvXHwLF3wFnWuczsXqXXULojac3FrLtTFMTuQ1hCzy6WGfbGuHLMDy6n1185hZMoNbmo6C6CbQPt3qw31qdtN25CuLfv3FmPblvZvOcOwxztnYTj8JlXHzjtXLcc2Z+w3Wm9gUo55XcqWQYn6FO8Yt9oyOwVnShjGDcKqTmAOcxtqa6BH1Dm0vMBUckoYTLlpKYW6mHuMVAdv/Ra7fGrYF+vKnP311HrDMJ2pIWk7zpbgsKEuwnB4G2q9KY/am9WWsAyx8OCfs3CrzNQ6tVzfU29+7Hp1fbUsb5lyfXu27GPKoTdHsvXGHs6Y2jRebcqoFXVIUy4QXQhzGufUC/LQMGgNZNsh52j58gqrtj11JsWuIzXsi3Wl5Zi1qnDKPeecipZvqVeprYTBv55yoS4UWi3bzbUhXZ8tbUbXU+5mtdbmwlVJv45hX6z5prpl9BppvVkv3eBq+dpNTA5dWzpG3nnNqXromE+9NiNTZx1Vv2P11bBy1HiCY64jmEMYLi86dRBSjT/+f/27PPRCyJG+hCfV+PW/usC1LV0Ic8NAhGFf/7it+JLb1P0Jw/X16OKO9ZbqLFTvqeuNBMdjn+8StXbXYq+6xpcb1UZ07GV6Pj1UpzDsX9yKbUz/VqtvGA5rQ1pv3F5sL2kb95YV+nsYLsMrbl/btNeFd87svmmd6X6k1522Y8u3EterayBdr/67Zb1xH+J+Sv137RgJLRvbRTzOMVTT89VSj1biTUXc37Q96t9i+wIAAAAAAAAAAAAAAAAAAAAAAAAAAAAAAAAAAAAAAAAAAAAAAAAAAAAAAAAAAAAAAAAAAAAAAAAAAAAAAAAAAAAAAAAAAAAAAAAAAAAAAAAAAAAAAAAAAAAAgPPntS+5K/hAUg5gKrY9pYZ9MYCzx+tn35mUOwe0P3YfozoOW+T1w/hYRI+asy9/ySeG8Uai4arkJfrvnDpRt2X+XcJ2se3Ja1trRtdRcJxDbd0Slg+hfulWQ/1lw2V42+MRffW+6DzeNIxXHtXfLLZMq7px0InWOnVSXzHAFrDtIDXsi60er8OWh6LrxLvplndclYYl47URQn0baOBrj0dU17mCfxZhGK+4tgFbbo7ahjok7WhuW7B+7DlPDftiq8frsOUhEOjnhddGCPXt4B2b2dfzIVMBttyxVF1eNcC5Yc9zatgXWz1ehy2nQqCfH14bIdS3w9RH3s0oQO3Kot5De1v22KoxhAHOBV3AJdW4zwWvw5ZTINDPE6+NEOrboktb8Ebp3ojZlu2lVweApeFdpLIVAv188drIwR35QiHUffS42bvOw1XJRg4dpQtb3i6rk6lX93Xi9L/6b+ndRJQk2GEteB22bIFAP2+8NkKobw/vI265l9RdvANeepYeseVTaydL060Kam/71qAFARaO12HLGgT6+eO1EUJ9eygP7bFJbX48WVtR7S10Wz51yskKL3n3MF6HtfQWfivxRkJ1s+oG5iY/Wqf9CMPldlUn/f/WE6d66lMCad1DWmAmWn8YLtebHqP43QNLJ9Y/rbv+e07bmYLXYUuPpQR6qY0d+xgu6Zq8Sbw2cmio69yUjmW49fdjYduH1LZz5+uYoR77zd775xGG8fa9/W/lKMdJF41dONoy5LfLHFSJW+iEtAR7bfbAovVqaqN1yj9+tG5qA7HridoLNNz6N1suqm2XGoY6QG9ZqX09hNghtB4n1SNowQnYdaSGfbFrhGFcNq1DSrj1b7ZcqtpY6fgeC7V9u93UEr0CPQzj9UTtdRqGmzmG2m5rW9MxUX9Uu+n1Pvfb0m94U6Cy5RGgd+7DvphbzrbrGtrvlr5T6jiGi6UOo2Vbtm/w2pNtfyXUP6nt2+VTc323d5zDvlgVtXcdO7uOnGrXrfuVovZl15Wuswnv5LQ0YLtM6iE7VXu9Xzbv3HDZAFs7Dqvq0XIMInb5aFrfWqNMtdtWo7JlSuoimnJTom3VjntJbavW2UbssqlhX+waYRiXTbcd8S4I69RzOxWvI5E5egW6CMN4XdH0GE5pn4cewzDMuya9fkVt3i4TbTl2tXq1rMPr+FO8NtIa6tpfb3ueh5w7r8451f8K72bJO58RXRu1c5OqXIv9n7ftcKtMDd0Q1q7NnPYGo4bXfmW1n62toKUydpnUlpOVo6VzC7FwgTmN3doaWna5VDGlw4zGi6LlmFhbO4YpYVhSF9zc9hL2xa4RhnHZaNzHQ/chDH2odX6WlvPbEiglwjBeXzQeQ6/z8wxDG3HGzC5/iOq0SzMFpYFKbTBQexTZsg5ROo/2evTaiC2bQ31DaVutTpnVO6T/Uv10nrx9reVEy7WRMwa7N0sQBp+WmdGa6Q1GC972qrNN3lSVKtKCXS61drI8ap20AruEDuCUu7oW1ahqwW6XSfWOtWe8uEsdVc0w+IRhvMyheuckYpdJDfti1wjDuGw0du7231ttbedT8ToxmdLSac0JdBGG8TqjamPe32u2BJA4tA175oLdu3HwOtdanxP1+gHvxsB2yF4bqR3TMIyXOdSWtuUd05pq294Ay8uJlplbT7U5r92FwedYOaL1eO0mxWsX1T7WW7j1Ds4ul+qdrBq1WQTvjtlrQNHY0FRHNeqWk1cLAFveLmv/rdU5F1Ttgq3tt/6uYxSGy06pth9xZqGELZ8a9sWuEYZx2VTvzrZFdebHxru2ZOQmAl2EYbzeqLY/9xiGwaelDcd6xGuy1tZkbhTk3UCHfbERrSNRr714Nwb2BsRrI7VQr50v7YvWL1WnWhsLQ5laXxzVuZjSn0a9nPCOUWpsN+rTa/uaGoYy3vtmMu6vVNmWc9JCGMbLRrVvLl4l7F1lCbtcqneyWqiFcw7vooqWLsqWDra0rLBlc2r9Oi66UGTLBZeqcxbr0PriRonaCDfXCFVnr7Ot3Una8qlhX+waYRiXzanjqA493hHHt6prx7dW50OodUaipb3lzsEhhGG87pw6tzqGMShbj6FXzzCMy1tL11XLMbL9jBdCtmxKbTtRb19LNy+5zthrI16o1/q4XP1qjyO9QVJLuNkbK9Fy7qR3Tmo3B7l9FbVjFA23ylu0P17d9bfcPteevdsbuxxe+5XuiN8WTg37Yi52uVTvZLXgNfpSHb0bldjpe9Qaotf4bdmcuZPqjSxSSxePF7IyXJW8TqkDiubqKsIwLhv1jo+w5VPDvtg1wjAua9U5K9V3zjk9lFrbrdVJHvNmIwzj9VtL7UuEYVzeLluiNgIuBXqkdqxygVm6JkphWbrBzV0jXnspbTd3Lr02Uqqn8ILOO4fCC+jS9eNtz7vuRO3cyVJO1ILZa3PC29doiIUN3rlp2We7TLR0E2IptSMZ9sXG2MKprdjlUksnqxXvwMpwVfIS72DK1gOau5BTSyfUlrN6sx/ezYhUQyrdodX2u9RpqqPRdq26iGsXjN1Gqtep2LKpYV/sGmEYl7XWbtZq59Sr8yHU2m6to4tlSud8KmEYr99aateR2jHM4T1jlrmwy1HroG0bLx3/3A2AKK2/NGoqnRdbLpq79kt1lKVQrwVdrR17fUXukWsYxuVSc/tlqbWbUk54MwuydA5SvBsSGa5KXseWS23Z51IoezeEKV4elI5X9WS1Ypdr2ngjtRFsuCp5SenCjNY6rYjX8GVpv2w5q3fBeRe4rHV+XkiU6jsHr9GFfbERtmzLcmEYl01tuVBq5zRclTwOtfPZam3k1UoYxutObTmGYRgvl6q/W2ohZMO4RClcozaQwq1/z5nrB3LtOV5zuQ4617GHYVwumgsgr42UQt0LyNqNeKTUV+TagFdHmTuWltq1V+qfSvWUubrm8I6XDFcl94RhXC61ZZ+97c5dvnS83Iq3Ng5hl23aeCNhGK8zVX9P8e7sWhtBxLvDKwWsLdeyTCQM42VSa51frlOKts5QTMHbXtgXG2HLtiwXhnHZVNuhl/DOaW2kP5VaZzjFY5y/MIzXm9p6rXodbdgXu8LrnEqj5hJem8v1WbZMNHct2TIyBnduH3LXc+mcl/qeUnlZCnXvGLS2E6+ftHhlS/uVw7v2Sm3PlkttvebDMF42VX+31AaHLXgD0lz7s3htI9f2LgjDuHC01KBy2GVTSyerFW/HpL379TqcKfskvIsn14EIWy61dizCMF4mtTZa855bTt33cEvVuaR3kWrZErZsy3JhGJdNbblIhHdOa+dnKrW2O9XcyHAKYRivM1V/b8E7hrkbI6/81HaZC9dUS2nbNvzCrX+3xhFVroPO3ZCUAtBuL+K1kdKxseVSdU1quZpTrt3SMZSlOubw1pO79sIwLpfaes3XHv+Eq5J7vPOi826PZ87c7E40t78Wrw7F4+7djRQXymCXTW2pvIe3Y9Ji/55aurBKlC7Q0raFLZNaa4RhGC9T216Kd6xazmcYLvfZuzFqNQxlbNmW5cIwLtuynGVqxzIH73xYVbY2TS3DcDhhGK/vkHVPPYZe+ZZ2mVI7ppZSeXtTniuXhnZp6t9Oo5bCsnTt57YbLR0bW+7YhuE6XjhN6VO9dpBrN2EYl0vV31uxy9bWU+v751o6tylhGC9XXf6QBpXDLpuaO1lT8Eaf0mL/Pqcu3vHJbVvYMqlhXyxLGMbLRHOjAotX39r5rI2ApuqNKm3Z1LAvdo3a3badsSnh7efU9lHDOx9Rndd0dFtr73NenAvDeH2prUztnG2Z1OI0YoHaMbWzWeHWv+dMy+b2ydYtF25pO/faaOmceftTumZtuWNrz6H9u1fWwwvK3HrCMC6Xqr+3YpetrSfXHo5p6dymhGG8XHX5QxpUDrtsau5kTcEbNdq7bWHLzKmLd3xkDlsmNeyLZQnDeJloy/nw6ltaXp1NrrOaq3esbdnUsC82wpZNbcU7Rl6dD8HbltRxt529gqZ2PvR3G14thGG8rtRWvA4vdwxtmVp5j9oxDVcl99gyubL2b9LemOZuCNPgz03Ry1w/FfH2p3TN2nLH1p4T+3evrId3w5pbTxjG5VL191bssrX1eG38GJbObUoYxstVlz+kQeWwy6bmTlYrYRivLzX3ooQtM6cu3vGROWyZ1LAvliUM42WiLefDq29pee+mKapOScvreGsb0dJUo/SOtS2bGvbFRtiyqa3kOuaoV+dD8M6HLAWzgr52XqZMe0bCMF5Paiteh5c7hrZMaqldlqgd0xylEWKsa8j8Tdqp9VxopzNopbaV66ci3v6Ujo0tl9r6TN3TPirw2mLufJfQuu3y3nrCMC6Xqr+3Ypetrcera+szdc+W6zcM421HtY4shzSoHHbZ1NzJakV1sOtLzb2UY8ukthzIlNr2c9gyqWFfLEsYxstEW87H1PNZe4arDiLEwhkOvdht2dSwLzbClk1txTunXp0PwTsftTrnAsRqR5I1wjBeR2t9UqYeQ698rl16HHJMS+8OxW3n1pl73FV7rl7az1w/FcltO1o6NrZcau74z6W0X9I+ovDw1pOrdxjG5VL19xa8xyKl9ZRu0KT6xZsgDONtR0ttw+04igtlsMum5k5WC17dormRjjd6nLJPwmuEpXXZcqlhXyxLGMbL1LaXMrWD8PZP1rDlU73zbsumhn2xEbZsaivePnt1PgTvfLTU2etYoiEWbiAM4+Wn1Ccy9Rh65XPt0sObwpU5Sp+RjsGdq19pAJB7NBJvruy/R3P9VMRrI6Vj4/Vx3qzAoeSOT62OObx659pN6SYq2npTG4bxsqn6u8U7L/ImCMN4u9HicQ/DuHB1oQx22dTcyaqhi9AbBcrSRVeaapO5u+8SalBeHUrbt+VSw75YljCMl4m21N1riLk76lwH5ZVPqd39eufdlk0N+2IjbNlUr+NM8Toor86H4J0P2YJXXznlxbkwjJefWh/h1Sl3DGs3J631F14weH1W6Vou9TV2CjqS2xddKyHz79J7ni68NlLaH6+PKy0zh9w+R1tHrbX+4pD+tNZHRbz6y3BVck9tUNna38yhNMMki+c5DOPCqa3Y5VJzF7lH6SKzhlvlLd6BkN5UWEptarp00dtyqWFfLEsYxsuk1vA6iNx5sGVq5VO8bdWWt2VTw77YCFu2dbmUqYE0h9oxaqF2cylbX5wLw3jZqfURU49hrYNsHXGVRtzetiOlICydo9KNRm5fdH5K/Y5XJ1Havix13N4ysqUtTKG2vXBVskzp+ERL++q1Ndmyr96NoAxXJffUbkJK/f8x8Y57cUamNr3Ril0utdaoIzqItam1aKkBiNrJaL27qzWm0kVvy6XWOq8wjJdJreE1gtx5sGVSa8epFjS57UVs2dSwLzbClm1dLsU7r16dD8E7H7KVWpjJ2vkSYRgvl2pfDCthl0vN3TTX+pnaaDZS6x+8+pdCJdfhe6PP0r7k1iPDxVJlvDZS6udqfVxL4OhYqs1o+1LLhFtaatsrjbJTvFlBWdrX2uCqtu3a8jLEwobSOZUt15u2rf2Kx1iGW5byI8Vr725fZQunhn0xF7tcy8Z1cYTh8u9eR2ttmW6sra/W6L2DKb2GZMumlo5FJAzjZVJreB1EbtvehVaa7td5K416Uot3ksO4bGrYFxthy7Yul+LdjOSO0Ry88yGnUAqlKfUPw3iZVP29BbtcyzrmXFOi1jmXQiHScmMUrdXFu26sNbw24u2TdzzVxg+5wZGlGxpvn2vbq01/y9K+lm6iUkuDpVqbiYZb5S1hGJdN9XKk9gmWcFWyjJdjuZvnK7yT5VU6xS7XU3dnbhGG8XJWNQR7c9A6WxBulc9hy6bO7XRreB1Ebtu1cNbfQyx86/977SVVDbo0NWbLpoZ9sRG2bOtyKXa51Ja2NQXvfMip1M5XbR/CMC6fqr+3YJdrWUdttCd17eWuSS+Eot5+R7xONrXW77WElCwFVYrXRrzla8dT+2qPia7H3OODVLtMpHYOtL0QC9+i9dxJb19b+mTdjKicjqf+1xtlW8NQxgtWqf2z/VwY/H6ydtMY8dqrdxPlHjBvtJVil+tl7WJLab3wdPJ14rwDmFo7JrZ8ai5YU8IwXia1htdB5LbtlU8tXSBquF7j1d+0DbttWy417IuNsGVbl0uxyx2yjlZqx3cq6jy84y29UVMtCMJVSR+7XOs6ascjGq/JUruztnaSXl+Xam8sLLVgjJZGkCneMfGCTrTuj9ZTazexXImWEXO6ntZzly5TovV4l6ztexjKhGFcPqe2UbsBkC0zzaJ2rbp4d1LegU6xyx3b3F1gC7WTOdWW42GXSbXhZgnDeJnUGl4Hkdt2y0tYJXVstXzrzVOK/Vtq2BcbYcu2Lpdil0stjVIOxTsf8hBaXiSN5yaHLZsa9sVc7HJT1tEaRK16+2rRoMAuby1NP6e0Blzp5irFayO1/kb1mBqeJVuOY+u1nlP19Jav7auXU55xv+y/p4bB55httnVg6rXV2rGqPmuqnWhhlzmmuSm5KXgXTavqRFvuuoVdNjUXrClhGC+TWsPb19K2vcZTUhdobBetd9Ep9m+pYV9shC3bulyKXS61dIwOxTsf8lBazpmm6nPYcqlhX8zFLjd1HbqWajcmLU49X7XRj6zNxEVqozLtXwteG6l23sPldTg3dFoCPXLItuKgbO6+trT71HRUbP+WGm6V8ThGm20NdOEd56Y26t3ttYxe7DJzjc9H5oR5im5cahdhSXWOU+phl0+tdUJhGC+TWsO7aLxte8tZdW7sCKRl+RT7t9SwLzbClm1dLsW7ML1jdAi14zIHb9Tj7Y8tkxr2xVzscoesQ9fUodeklptyTaZ4fZ1s6e9E7dyWbqos3npagi6ienttu6T62dZAj3iBY00fBx1jXxWMLfup9aX9lP17atgXc1GbO2T2V3VpbVcRbx/DvlgZr4NoeV6lSs9RF4BOeO7ltWOiBqFteQdM6u8qN/VECLtvqbU7tXjzUbKG1m+Xad22jrv22R6L9Jh4sxWqu5bXttJl9N+2Ddm6pdobhhRbtnW5FLV1u2y0doym4p0POZd4vD3t9WT/ntp6DO1yh6wjomtsyjU59xypn7F1Tm0NuNq12lpPr400jcgSdK61f7Xg0bGcO2hSvb3t6ObJvkTmHbMp+6p1avv2WtY+af9z+2Xrlxr2xZpozRHVKVwuMokwjNcV1TabCMN44XQlrQ19TYREdSzx/0/tlM4RXRRhuGy8+t9zPP+wPHTthVvGtie5Jg8j3DIeyx7HMfYVaR+aC9VTov22uZY6h9z+z+0vvZkQO0By8aalWu86AQAAloTyy2Za6pKovdQ36cbMe7tQ0ywAAACnIJ091BS7Rqya3m6ZFfBGvnJJeDmsgfckdIfgPSMIVyUBAAD6o9C2WZSqYPeofTqntvxNc/QZ82O8nQgAAHAsvBd4Ze5THkI3BN5AVbaM9G8K7zHB5FF6pHYQwlVJAACA/tRG2zK+0a/pa70V772ZH5300llnal8kdNAoPeKN1g++WwAAADiQ2mh9qgr9uW+pHxMvd4/yTpt3x1Ca6gAAAOiF930qUzzkC3d6UntvIFyVnEEYxitOXdJzCAAA2AaahvYGnZ61L9A6FXpfzdY1etRHBN50By/NAQDAqYjfRGizKecxvomwF977AroJOeoAWtMTwREAAODUhFvq0XA0/tuSptlzpN+iaJ30RTMAAAAAAAAAAAAAAAAAAABwyf8PgBnN4+z7xcgAAAAASUVORK5CYII=;" parent="1" vertex="1">
                    <mxGeometry x="-2245.17" y="30" width="118.35" height="120" as="geometry"/>
                </mxCell>
                <mxCell id="9" value="" style="shape=image;verticalLabelPosition=bottom;labelBackgroundColor=default;verticalAlign=top;aspect=fixed;imageAspect=0;image=data:image/png,iVBORw0KGgoAAAANSUhEUgAAAEAAAABACAYAAACqaXHeAAAABHNCSVQICAgIfAhkiAAAAAlwSFlzAAAB2AAAAdgB+lymcgAAABl0RVh0U29mdHdhcmUAd3d3Lmlua3NjYXBlLm9yZ5vuPBoAAARiSURBVHic7ZtdaBxVFMd/JxRESWujEUXEDwTBKigVRMSiUsGILwpFqvXJt1CsxUIUVPoi4seLzTZVrOCTFilIodTWlyIUNAYEP1B8SINNW6GmpbGtNCTWvw/3Lruks7szs2dnN05+MMzce+fMvfvfe8+ZmXsHSaTdgEHgKKAubJeAHYBlaXPL35RRgMe79OPrt12eIqwgGxb3J4GHMtq2wybgzXg8DGBmmxX/lXbIKkCVfyT93m7laTGzM/HwHLAKRxESBTCztcAbwJWLigbjvm3lc/ItcBB4HycRGvWAl4CnmthZk7KOImmHmYGTCI0EuCLu9wFf1eWvAV7MU5EnUQQRokJbIrTyAd9J+rCaMLMhekAAAEmjUYRR2hChrxONKwpJFWBLTA4DYxbHR1ryRoHLMLObgSGS/cMcsE/SX171VZFUiT2hQo6e4CYAsBe4v0n5KMG5uiNpZ/zjM4vgKcD1cf89cLou/zbgjrryjhBFELCTDCJ0wge8LmmougGfdKCORCSNAZtjMpVPWNJOMAlJuwgiiBQieA6BIlhhZqtTnPcZcDXwFi2Gw1ITYD1wNofdMHAMeGdxQScEOJgxFKdhHDgPrGzjGvcmZXoKMA7c0qI8F5J+MLNB4Koc5luB7TR4fnETQNJGMxsh2bFelHSqzevPA/NZ7cxsrlm56xCQNO15vSLwvBXeALxA6AGngJclnTGzG4H3gGu96mrCUWCrpIW0Bp49YAuwri79OfAl8AjwnGM9rRgDfk17sqcAz1N7GPqT2nuEvcACBfUASal/PPg6wWngo4T8BYIIPcn/7lY4K6UXwDMKXAc8Ss0HfC1JZtZHuIUtwgdMSZrIYuD9QuThuvQTwCHgGWCPYz1NMbM7Jf2W9nxPAT4lTFpU7wN+jPkTwGGKuw84lsXAMwrsBnYn5E8RhkBPUnonuCxAtxvQbTzD4HbCa++qE3xS0qSZ3QN8QXFOcL2k2bQGnlHgPmAgHq8EbgAmgZsIr8aLmFC9G1gNdEWAp4G7CD1gRtJJAEkHzOxW4BrHuhpxQtLp1qfV8AyDl4CfGpRNAz35sqT0TrD0AnhGgbXABmpR4ANJc2bWT3gvX1QU+DjLGgFPJ1gBHqxLTwL7Cc7xXcd6WjEO/Jz2ZE8BXgWepdYDDsf8/YQpqqJ6wC9ZDDyjwBHgSEL+LPCaVz3elN4Jll4A15mhuE6oDzhbvx7IzAYI09WdZkbS31kMPMPgHmBjTM6b2TpJE2b2GGF1ZxFT8efNbI2kE2kNPIfAH9SW0M4CF+LxubgVwQxhRVpqPKPANmBbQv4ExYTAXJTeCS4L0O0GdJtlAbrdgG5TegHyhsEBM3vbtSWd44FmhVkFqN7crAJeydWc7nEhKTOrAN8AI8DtbTfHn01AP2Fd0vFFZRcJq8gvI5MAkv4lrPjqOeLnPP1ARdKhtHald4KlF6DVEBiIszpLgVwRrZFR9bF2JG5LCZfP5g6Q8bm6R5gifLOUmv8Adw1cZSeuKPgAAAAASUVORK5CYII=;" parent="1" vertex="1">
                    <mxGeometry x="-2720" y="-148" width="100" height="100" as="geometry"/>
                </mxCell>
                <mxCell id="15" style="edgeStyle=none;html=1;entryX=-0.051;entryY=0.881;entryDx=0;entryDy=0;entryPerimeter=0;fontSize=14;" parent="1" source="10" target="12" edge="1">
                    <mxGeometry relative="1" as="geometry"/>
                </mxCell>
                <mxCell id="10" value="" style="shape=image;verticalLabelPosition=bottom;labelBackgroundColor=default;verticalAlign=top;aspect=fixed;imageAspect=0;image=data:image/png,iVBORw0KGgoAAAANSUhEUgAAAEAAAABACAYAAACqaXHeAAAABHNCSVQICAgIfAhkiAAAAAlwSFlzAAAB2AAAAdgB+lymcgAAABl0RVh0U29mdHdhcmUAd3d3Lmlua3NjYXBlLm9yZ5vuPBoAAARiSURBVHic7ZtdaBxVFMd/JxRESWujEUXEDwTBKigVRMSiUsGILwpFqvXJt1CsxUIUVPoi4seLzTZVrOCTFilIodTWlyIUNAYEP1B8SINNW6GmpbGtNCTWvw/3Lruks7szs2dnN05+MMzce+fMvfvfe8+ZmXsHSaTdgEHgKKAubJeAHYBlaXPL35RRgMe79OPrt12eIqwgGxb3J4GHMtq2wybgzXg8DGBmmxX/lXbIKkCVfyT93m7laTGzM/HwHLAKRxESBTCztcAbwJWLigbjvm3lc/ItcBB4HycRGvWAl4CnmthZk7KOImmHmYGTCI0EuCLu9wFf1eWvAV7MU5EnUQQRokJbIrTyAd9J+rCaMLMhekAAAEmjUYRR2hChrxONKwpJFWBLTA4DYxbHR1ryRoHLMLObgSGS/cMcsE/SX171VZFUiT2hQo6e4CYAsBe4v0n5KMG5uiNpZ/zjM4vgKcD1cf89cLou/zbgjrryjhBFELCTDCJ0wge8LmmougGfdKCORCSNAZtjMpVPWNJOMAlJuwgiiBQieA6BIlhhZqtTnPcZcDXwFi2Gw1ITYD1wNofdMHAMeGdxQScEOJgxFKdhHDgPrGzjGvcmZXoKMA7c0qI8F5J+MLNB4Koc5luB7TR4fnETQNJGMxsh2bFelHSqzevPA/NZ7cxsrlm56xCQNO15vSLwvBXeALxA6AGngJclnTGzG4H3gGu96mrCUWCrpIW0Bp49YAuwri79OfAl8AjwnGM9rRgDfk17sqcAz1N7GPqT2nuEvcACBfUASal/PPg6wWngo4T8BYIIPcn/7lY4K6UXwDMKXAc8Ss0HfC1JZtZHuIUtwgdMSZrIYuD9QuThuvQTwCHgGWCPYz1NMbM7Jf2W9nxPAT4lTFpU7wN+jPkTwGGKuw84lsXAMwrsBnYn5E8RhkBPUnonuCxAtxvQbTzD4HbCa++qE3xS0qSZ3QN8QXFOcL2k2bQGnlHgPmAgHq8EbgAmgZsIr8aLmFC9G1gNdEWAp4G7CD1gRtJJAEkHzOxW4BrHuhpxQtLp1qfV8AyDl4CfGpRNAz35sqT0TrD0AnhGgbXABmpR4ANJc2bWT3gvX1QU+DjLGgFPJ1gBHqxLTwL7Cc7xXcd6WjEO/Jz2ZE8BXgWepdYDDsf8/YQpqqJ6wC9ZDDyjwBHgSEL+LPCaVz3elN4Jll4A15mhuE6oDzhbvx7IzAYI09WdZkbS31kMPMPgHmBjTM6b2TpJE2b2GGF1ZxFT8efNbI2kE2kNPIfAH9SW0M4CF+LxubgVwQxhRVpqPKPANmBbQv4ExYTAXJTeCS4L0O0GdJtlAbrdgG5TegHyhsEBM3vbtSWd44FmhVkFqN7crAJeydWc7nEhKTOrAN8AI8DtbTfHn01AP2Fd0vFFZRcJq8gvI5MAkv4lrPjqOeLnPP1ARdKhtHald4KlF6DVEBiIszpLgVwRrZFR9bF2JG5LCZfP5g6Q8bm6R5gifLOUmv8Adw1cZSeuKPgAAAAASUVORK5CYII=;" parent="1" vertex="1">
                    <mxGeometry x="-2640" y="-88" width="88" height="88" as="geometry"/>
                </mxCell>
                <mxCell id="11" value="" style="shape=image;verticalLabelPosition=bottom;labelBackgroundColor=default;verticalAlign=top;aspect=fixed;imageAspect=0;image=data:image/png,iVBORw0KGgoAAAANSUhEUgAAAEAAAABACAYAAACqaXHeAAAABHNCSVQICAgIfAhkiAAAAAlwSFlzAAAB2AAAAdgB+lymcgAAABl0RVh0U29mdHdhcmUAd3d3Lmlua3NjYXBlLm9yZ5vuPBoAAARiSURBVHic7ZtdaBxVFMd/JxRESWujEUXEDwTBKigVRMSiUsGILwpFqvXJt1CsxUIUVPoi4seLzTZVrOCTFilIodTWlyIUNAYEP1B8SINNW6GmpbGtNCTWvw/3Lruks7szs2dnN05+MMzce+fMvfvfe8+ZmXsHSaTdgEHgKKAubJeAHYBlaXPL35RRgMe79OPrt12eIqwgGxb3J4GHMtq2wybgzXg8DGBmmxX/lXbIKkCVfyT93m7laTGzM/HwHLAKRxESBTCztcAbwJWLigbjvm3lc/ItcBB4HycRGvWAl4CnmthZk7KOImmHmYGTCI0EuCLu9wFf1eWvAV7MU5EnUQQRokJbIrTyAd9J+rCaMLMhekAAAEmjUYRR2hChrxONKwpJFWBLTA4DYxbHR1ryRoHLMLObgSGS/cMcsE/SX171VZFUiT2hQo6e4CYAsBe4v0n5KMG5uiNpZ/zjM4vgKcD1cf89cLou/zbgjrryjhBFELCTDCJ0wge8LmmougGfdKCORCSNAZtjMpVPWNJOMAlJuwgiiBQieA6BIlhhZqtTnPcZcDXwFi2Gw1ITYD1wNofdMHAMeGdxQScEOJgxFKdhHDgPrGzjGvcmZXoKMA7c0qI8F5J+MLNB4Koc5luB7TR4fnETQNJGMxsh2bFelHSqzevPA/NZ7cxsrlm56xCQNO15vSLwvBXeALxA6AGngJclnTGzG4H3gGu96mrCUWCrpIW0Bp49YAuwri79OfAl8AjwnGM9rRgDfk17sqcAz1N7GPqT2nuEvcACBfUASal/PPg6wWngo4T8BYIIPcn/7lY4K6UXwDMKXAc8Ss0HfC1JZtZHuIUtwgdMSZrIYuD9QuThuvQTwCHgGWCPYz1NMbM7Jf2W9nxPAT4lTFpU7wN+jPkTwGGKuw84lsXAMwrsBnYn5E8RhkBPUnonuCxAtxvQbTzD4HbCa++qE3xS0qSZ3QN8QXFOcL2k2bQGnlHgPmAgHq8EbgAmgZsIr8aLmFC9G1gNdEWAp4G7CD1gRtJJAEkHzOxW4BrHuhpxQtLp1qfV8AyDl4CfGpRNAz35sqT0TrD0AnhGgbXABmpR4ANJc2bWT3gvX1QU+DjLGgFPJ1gBHqxLTwL7Cc7xXcd6WjEO/Jz2ZE8BXgWepdYDDsf8/YQpqqJ6wC9ZDDyjwBHgSEL+LPCaVz3elN4Jll4A15mhuE6oDzhbvx7IzAYI09WdZkbS31kMPMPgHmBjTM6b2TpJE2b2GGF1ZxFT8efNbI2kE2kNPIfAH9SW0M4CF+LxubgVwQxhRVpqPKPANmBbQv4ExYTAXJTeCS4L0O0GdJtlAbrdgG5TegHyhsEBM3vbtSWd44FmhVkFqN7crAJeydWc7nEhKTOrAN8AI8DtbTfHn01AP2Fd0vFFZRcJq8gvI5MAkv4lrPjqOeLnPP1ARdKhtHald4KlF6DVEBiIszpLgVwRrZFR9bF2JG5LCZfP5g6Q8bm6R5gifLOUmv8Adw1cZSeuKPgAAAAASUVORK5CYII=;" parent="1" vertex="1">
                    <mxGeometry x="-2680" y="-118" width="100" height="100" as="geometry"/>
                </mxCell>
                <mxCell id="12" value="" style="shape=image;verticalLabelPosition=bottom;labelBackgroundColor=default;verticalAlign=top;aspect=fixed;imageAspect=0;image=data:image/png,iVBORw0KGgoAAAANSUhEUgAAAEAAAABACAYAAACqaXHeAAAABHNCSVQICAgIfAhkiAAAAAlwSFlzAAABuwAAAbsBOuzj4gAAABl0RVh0U29mdHdhcmUAd3d3Lmlua3NjYXBlLm9yZ5vuPBoAAAlgSURBVHic7Zt9sNZFFcc/By4vlyDk9fImlDIgc0NABXsTnQyGmjJLY8w/nEYos+xFFLWmF+2FXqwZlVKYkBmptJHKqMYoFImESgNFIDBDI6mLci8TeHmHe/pj94l99tnd3z7PfRAa+87sH7/dc87unv39zp5zdn+oKm4BpgHzgbXAbuBHQH+f7lQvQH879t12LvOBaRV0DkMfYBGggTL3ZE+oBgXMjcxlEdCnRNcFQET6AE8Cswijd6T+VEZszLOAJ+2cKWkrtvIdwKPA0JO9ojW8AUPt2Dsic1tk6ZgWaNwCzARGnICBdQF6BkqPE6SIEXYuWwLznAbGOPiTb4wI6wd8zWp2J7ALWAV8BxiSMZhrgR2RFVFgKzAhc2JXAb8CWqzMZcBlCfpeASXMB2Mh3cqZEQGz7YRjg98DfBqQCP9g4FCCv1QeLZh4X2B5gv9BoHuEd6ZHuxZgv1d5RoDxioyBl8rHI50PA45k8P+uQAGLM2TMi/Ce4dHtJ8A8xGNqAlqrUMA+YHRkADdj9uUU/xWJyZ+fOYajwJkB/iEB2kIFLPTajwCfByYC44EbgIMezbLEJHrYgYy3ynL5Vhas/k0e/Q5gBnAJ0Oa1XVUvBWzw2ucEBH/Yo2nJMGLfD/R9fpWv/1yn7R6v7fZOKwBooNxwHQF6BwQ3BFYg6j4DXYH2QN+/Brom+C5zaA8AA5y2X3qybqiHApq9tr8nBrfOo72gYDX/EehbgQUJni7ApcBdwCSn/l1UOjwz6qGAi722pxODe8yjje7Jln6K5QltjSOLPiFHztVU2qDnCWyFtShgmNfWmhjIXzzaN2VO4DSMA+TyRncC77PznbhSifkyNRlBfwscFxA8lEpbEXRGIgP7utfHnQX0gzAeaGjyn0nwVSigC8XY6D1/U0R6lh5EpBvwbaC7Q/NXVT3sMolILxFZKSJ7ReRbItLVaR7m9XEsNhgRmYCJXC/0mjqAa1T1jvR0KlH0BnwsQPMs5vW7A9gUaP9SQPu3ejQbLf+PqbQDsyMr2I94LPFH4Bbgk0SiV2r8BAQT/IQ6DZV1QLdA5zdn8v8bGBSZQCzJ4ZcjwFl1UYBlHEU6EHIH3xwZ/GDCIalfrkt8w/dWsRBfqJsCLHN/jFscSzDcH+P1dpVfRPj3AlcW8F9ShQKm5ChASlpwMFRVdxKBiIzF7OHNGI9uM7BOVX1jGYU1ZFOAszB7+FPA46l+LZ8A78R4hD0jZPuAB1T18QD/EEz+4HgdVSrgfxkhBTTUKKgHJpprADao6oFODqwROBfYoqptGfTnACMDTceA1aq6p5r+s2yAHvfalgCHHfqjwM9TfAXf9XiOxwU7gbEF9L8NjNkt+4D31G0bdJiHAy8mOm4lsgMkJjOBSk/zKwn68womXyrLcxWQ4wmWsBiTYY1hALDEeoaFEJFJwErL52JQgi3Vv4unMunybICIvBWY7lW/gnn9+zl15wDvBX5WIO9cYIXHWwvaMbtQCccwCdPv5grINYLnec+bgTfbDlcAb/NoowoQkcmY7/i03EEm0AY8DLwM/AHYpKrROCKEXAX09Z4XqGo7gIgsp1wBp8eEiEgTRmG+vFoxCrjNed4sIu9X1edyBeTagCUYTw3gJeAHTts0jzbV+SwqJ+9vWb5fUg2aMed+Z+cyZClAVbdj3NjpmGzNHgARmQNM9cjXJ0Rt857vw6S3XEiCf2+irYS+wJ0ZdP9Fth/gbCfdgLsDvM8AXQr4bsJElx/FLMCtnoxUTrCR8oBqD/AQsDowlql19QMcIU3A7wN8B4GLanCEshXgOGOXA28BGmydYPIBrpzr6+0HICJTgD8Db/ea2oF3q+qqauTViEaM87ReVY8CqJndao9udI6wbAWIyAdtJ74zshu4WFVX5sqqFda4bcNkk9eIyGhb3whc4JHvyJGZ6widjklG9Ag07wfuEpGDwE+BherlA+uI2Zg3AEzw9JyIvAAMxFzxcbEhR2CuH3BpoIMSRnD8rbgQY6nvy5RbLZ4N1L0xULce4xEWIvcTiE0+hElV0IIJsFykXt17gAcK5O3CZIc7cgdQuAtgIsGWAK1f2oDxVe4CvTArq7aP4QX0XTFb6Hav78OY88FUOF97SsxGeRcBr4so8iCwSlUP5um9TLZgYoinVfVIFXyDMWm1fZg44FAB/f9TYnQ2JWbTUdOBZ1T1YVvXhDmkfBFYGlsJERlp6d4QaO4AHgF+krOLiMh4zE7QjIlKNwNPqGrIUCaR7Qlioq9SBucY8D5bv97hj93P6Uo6o1QqXyywAUMwKfgQbwcmdR+8m0BnXWHgGx7tV4ExXt3zEd6pGZNXYE2i/2bM4UuRjF3AqLq7wph8vIsWjBV34T8X1fu4P1RpjfAS8nIJA4HF1rgmkW0DrBvq+teKicQG58rw0EJ5KNwBPKKqsXD6c5iUm4uNmMiyAWOXxjht7wCuARYUDSTrE8BkXly6tbZ+ole/M8I/w6NrB/6EueH5WQouVGCMnMv/Q2w0aNt7Unns9ljdbACVx+A3dlIBfjkEXBvh7U75JctDBI7AgXGezNYiBWTZAHse2OxVbxORicDYHBkZ6A7cLSJXB9rGUP65blPVFp9IVbdgvNESBoiIf/miDLk24AOBumTqO4DtmXTzRGSpqr7i1PlKfinBv4Pys4ZxwL9ixLm7QLUBTgXs6szH+A+twFLM7ZM5mFe6hCbM2YKLl73n1ye68tPthV5toQ0A5gXoYiVoAxxZvfHyhlTeAJ3ntff32ttwDKAn27cVDZ22AZj/AW4H/mk16hb/NFdjQkTkQxjnaaLX5L/SZcdjqrqb8pXsj7nB7mMW5Z/1VrVpsxSyPcHIiubuApdTvjK3YE6GZwAveDJuDPAv82j2A5/C2IdmjJ9w2KNZWFdXuJMK+HKgr1gJXW8ZTeXt8lRpBZpytkH/ckOuy1qC/8rHPoEVlBu7GB5U1ScqOlH9G+aWWC6uU1X/0/LndgAyf5lJvAGNlP8E8VCCdjqVf6i45TfAwAS/ANdj8o4xGW3ARyL8wV9msn+aSgzsSswF5VXA2QW0Z2KOrjZZZezCXJP/BJH/jQIyhgPfwxyG7MVEiGswxjqoQBI/Tb2qv835K3oi5ds+0r/NWaLX7o+TlrgPlVfW3XLbyZ5QDQrwo1e3bMX+P9wFQI3fPRlz+hNCe6T+VEZszPcCk7UUawQ095r6ff4/AwzrXTadtIkAAAAASUVORK5CYII=;" parent="1" vertex="1">
                    <mxGeometry x="-2420" y="-100" width="64" height="64" as="geometry"/>
                </mxCell>
                <mxCell id="16" style="edgeStyle=none;html=1;entryX=0.563;entryY=-0.039;entryDx=0;entryDy=0;fontSize=14;exitX=0.988;exitY=0.373;exitDx=0;exitDy=0;entryPerimeter=0;exitPerimeter=0;" parent="1" source="13" target="8" edge="1">
                    <mxGeometry relative="1" as="geometry">
                        <Array as="points">
                            <mxPoint x="-2180" y="-40"/>
                        </Array>
                    </mxGeometry>
                </mxCell>
                <mxCell id="13" value="" style="shape=image;verticalLabelPosition=bottom;labelBackgroundColor=default;verticalAlign=top;aspect=fixed;imageAspect=0;image=data:image/png,iVBORw0KGgoAAAANSUhEUgAAAEAAAABACAYAAACqaXHeAAAABHNCSVQICAgIfAhkiAAAAAlwSFlzAAABuwAAAbsBOuzj4gAAABl0RVh0U29mdHdhcmUAd3d3Lmlua3NjYXBlLm9yZ5vuPBoAAAlgSURBVHic7Zt9sNZFFcc/By4vlyDk9fImlDIgc0NABXsTnQyGmjJLY8w/nEYos+xFFLWmF+2FXqwZlVKYkBmptJHKqMYoFImESgNFIDBDI6mLci8TeHmHe/pj94l99tnd3z7PfRAa+87sH7/dc87unv39zp5zdn+oKm4BpgHzgbXAbuBHQH+f7lQvQH879t12LvOBaRV0DkMfYBGggTL3ZE+oBgXMjcxlEdCnRNcFQET6AE8Cswijd6T+VEZszLOAJ+2cKWkrtvIdwKPA0JO9ojW8AUPt2Dsic1tk6ZgWaNwCzARGnICBdQF6BkqPE6SIEXYuWwLznAbGOPiTb4wI6wd8zWp2J7ALWAV8BxiSMZhrgR2RFVFgKzAhc2JXAb8CWqzMZcBlCfpeASXMB2Mh3cqZEQGz7YRjg98DfBqQCP9g4FCCv1QeLZh4X2B5gv9BoHuEd6ZHuxZgv1d5RoDxioyBl8rHI50PA45k8P+uQAGLM2TMi/Ce4dHtJ8A8xGNqAlqrUMA+YHRkADdj9uUU/xWJyZ+fOYajwJkB/iEB2kIFLPTajwCfByYC44EbgIMezbLEJHrYgYy3ynL5Vhas/k0e/Q5gBnAJ0Oa1XVUvBWzw2ucEBH/Yo2nJMGLfD/R9fpWv/1yn7R6v7fZOKwBooNxwHQF6BwQ3BFYg6j4DXYH2QN+/Brom+C5zaA8AA5y2X3qybqiHApq9tr8nBrfOo72gYDX/EehbgQUJni7ApcBdwCSn/l1UOjwz6qGAi722pxODe8yjje7Jln6K5QltjSOLPiFHztVU2qDnCWyFtShgmNfWmhjIXzzaN2VO4DSMA+TyRncC77PznbhSifkyNRlBfwscFxA8lEpbEXRGIgP7utfHnQX0gzAeaGjyn0nwVSigC8XY6D1/U0R6lh5EpBvwbaC7Q/NXVT3sMolILxFZKSJ7ReRbItLVaR7m9XEsNhgRmYCJXC/0mjqAa1T1jvR0KlH0BnwsQPMs5vW7A9gUaP9SQPu3ejQbLf+PqbQDsyMr2I94LPFH4Bbgk0SiV2r8BAQT/IQ6DZV1QLdA5zdn8v8bGBSZQCzJ4ZcjwFl1UYBlHEU6EHIH3xwZ/GDCIalfrkt8w/dWsRBfqJsCLHN/jFscSzDcH+P1dpVfRPj3AlcW8F9ShQKm5ChASlpwMFRVdxKBiIzF7OHNGI9uM7BOVX1jGYU1ZFOAszB7+FPA46l+LZ8A78R4hD0jZPuAB1T18QD/EEz+4HgdVSrgfxkhBTTUKKgHJpprADao6oFODqwROBfYoqptGfTnACMDTceA1aq6p5r+s2yAHvfalgCHHfqjwM9TfAXf9XiOxwU7gbEF9L8NjNkt+4D31G0bdJiHAy8mOm4lsgMkJjOBSk/zKwn68womXyrLcxWQ4wmWsBiTYY1hALDEeoaFEJFJwErL52JQgi3Vv4unMunybICIvBWY7lW/gnn9+zl15wDvBX5WIO9cYIXHWwvaMbtQCccwCdPv5grINYLnec+bgTfbDlcAb/NoowoQkcmY7/i03EEm0AY8DLwM/AHYpKrROCKEXAX09Z4XqGo7gIgsp1wBp8eEiEgTRmG+vFoxCrjNed4sIu9X1edyBeTagCUYTw3gJeAHTts0jzbV+SwqJ+9vWb5fUg2aMed+Z+cyZClAVbdj3NjpmGzNHgARmQNM9cjXJ0Rt857vw6S3XEiCf2+irYS+wJ0ZdP9Fth/gbCfdgLsDvM8AXQr4bsJElx/FLMCtnoxUTrCR8oBqD/AQsDowlql19QMcIU3A7wN8B4GLanCEshXgOGOXA28BGmydYPIBrpzr6+0HICJTgD8Db/ea2oF3q+qqauTViEaM87ReVY8CqJndao9udI6wbAWIyAdtJ74zshu4WFVX5sqqFda4bcNkk9eIyGhb3whc4JHvyJGZ6widjklG9Ag07wfuEpGDwE+BherlA+uI2Zg3AEzw9JyIvAAMxFzxcbEhR2CuH3BpoIMSRnD8rbgQY6nvy5RbLZ4N1L0xULce4xEWIvcTiE0+hElV0IIJsFykXt17gAcK5O3CZIc7cgdQuAtgIsGWAK1f2oDxVe4CvTArq7aP4QX0XTFb6Hav78OY88FUOF97SsxGeRcBr4so8iCwSlUP5um9TLZgYoinVfVIFXyDMWm1fZg44FAB/f9TYnQ2JWbTUdOBZ1T1YVvXhDmkfBFYGlsJERlp6d4QaO4AHgF+krOLiMh4zE7QjIlKNwNPqGrIUCaR7Qlioq9SBucY8D5bv97hj93P6Uo6o1QqXyywAUMwKfgQbwcmdR+8m0BnXWHgGx7tV4ExXt3zEd6pGZNXYE2i/2bM4UuRjF3AqLq7wph8vIsWjBV34T8X1fu4P1RpjfAS8nIJA4HF1rgmkW0DrBvq+teKicQG58rw0EJ5KNwBPKKqsXD6c5iUm4uNmMiyAWOXxjht7wCuARYUDSTrE8BkXly6tbZ+ole/M8I/w6NrB/6EueH5WQouVGCMnMv/Q2w0aNt7Unns9ljdbACVx+A3dlIBfjkEXBvh7U75JctDBI7AgXGezNYiBWTZAHse2OxVbxORicDYHBkZ6A7cLSJXB9rGUP65blPVFp9IVbdgvNESBoiIf/miDLk24AOBumTqO4DtmXTzRGSpqr7i1PlKfinBv4Pys4ZxwL9ixLm7QLUBTgXs6szH+A+twFLM7ZM5mFe6hCbM2YKLl73n1ye68tPthV5toQ0A5gXoYiVoAxxZvfHyhlTeAJ3ntff32ttwDKAn27cVDZ22AZj/AW4H/mk16hb/NFdjQkTkQxjnaaLX5L/SZcdjqrqb8pXsj7nB7mMW5Z/1VrVpsxSyPcHIiubuApdTvjK3YE6GZwAveDJuDPAv82j2A5/C2IdmjJ9w2KNZWFdXuJMK+HKgr1gJXW8ZTeXt8lRpBZpytkH/ckOuy1qC/8rHPoEVlBu7GB5U1ScqOlH9G+aWWC6uU1X/0/LndgAyf5lJvAGNlP8E8VCCdjqVf6i45TfAwAS/ANdj8o4xGW3ARyL8wV9msn+aSgzsSswF5VXA2QW0Z2KOrjZZZezCXJP/BJH/jQIyhgPfwxyG7MVEiGswxjqoQBI/Tb2qv835K3oi5ds+0r/NWaLX7o+TlrgPlVfW3XLbyZ5QDQrwo1e3bMX+P9wFQI3fPRlz+hNCe6T+VEZszPcCk7UUawQ095r6ff4/AwzrXTadtIkAAAAASUVORK5CYII=;" parent="1" vertex="1">
                    <mxGeometry x="-2370" y="-64" width="64" height="64" as="geometry"/>
                </mxCell>
                <mxCell id="14" value="" style="shape=image;verticalLabelPosition=bottom;labelBackgroundColor=default;verticalAlign=top;aspect=fixed;imageAspect=0;image=data:image/png,iVBORw0KGgoAAAANSUhEUgAAAEAAAABACAYAAACqaXHeAAAABHNCSVQICAgIfAhkiAAAAAlwSFlzAAABuwAAAbsBOuzj4gAAABl0RVh0U29mdHdhcmUAd3d3Lmlua3NjYXBlLm9yZ5vuPBoAAAlgSURBVHic7Zt9sNZFFcc/By4vlyDk9fImlDIgc0NABXsTnQyGmjJLY8w/nEYos+xFFLWmF+2FXqwZlVKYkBmptJHKqMYoFImESgNFIDBDI6mLci8TeHmHe/pj94l99tnd3z7PfRAa+87sH7/dc87unv39zp5zdn+oKm4BpgHzgbXAbuBHQH+f7lQvQH879t12LvOBaRV0DkMfYBGggTL3ZE+oBgXMjcxlEdCnRNcFQET6AE8Cswijd6T+VEZszLOAJ+2cKWkrtvIdwKPA0JO9ojW8AUPt2Dsic1tk6ZgWaNwCzARGnICBdQF6BkqPE6SIEXYuWwLznAbGOPiTb4wI6wd8zWp2J7ALWAV8BxiSMZhrgR2RFVFgKzAhc2JXAb8CWqzMZcBlCfpeASXMB2Mh3cqZEQGz7YRjg98DfBqQCP9g4FCCv1QeLZh4X2B5gv9BoHuEd6ZHuxZgv1d5RoDxioyBl8rHI50PA45k8P+uQAGLM2TMi/Ce4dHtJ8A8xGNqAlqrUMA+YHRkADdj9uUU/xWJyZ+fOYajwJkB/iEB2kIFLPTajwCfByYC44EbgIMezbLEJHrYgYy3ynL5Vhas/k0e/Q5gBnAJ0Oa1XVUvBWzw2ucEBH/Yo2nJMGLfD/R9fpWv/1yn7R6v7fZOKwBooNxwHQF6BwQ3BFYg6j4DXYH2QN+/Brom+C5zaA8AA5y2X3qybqiHApq9tr8nBrfOo72gYDX/EehbgQUJni7ApcBdwCSn/l1UOjwz6qGAi722pxODe8yjje7Jln6K5QltjSOLPiFHztVU2qDnCWyFtShgmNfWmhjIXzzaN2VO4DSMA+TyRncC77PznbhSifkyNRlBfwscFxA8lEpbEXRGIgP7utfHnQX0gzAeaGjyn0nwVSigC8XY6D1/U0R6lh5EpBvwbaC7Q/NXVT3sMolILxFZKSJ7ReRbItLVaR7m9XEsNhgRmYCJXC/0mjqAa1T1jvR0KlH0BnwsQPMs5vW7A9gUaP9SQPu3ejQbLf+PqbQDsyMr2I94LPFH4Bbgk0SiV2r8BAQT/IQ6DZV1QLdA5zdn8v8bGBSZQCzJ4ZcjwFl1UYBlHEU6EHIH3xwZ/GDCIalfrkt8w/dWsRBfqJsCLHN/jFscSzDcH+P1dpVfRPj3AlcW8F9ShQKm5ChASlpwMFRVdxKBiIzF7OHNGI9uM7BOVX1jGYU1ZFOAszB7+FPA46l+LZ8A78R4hD0jZPuAB1T18QD/EEz+4HgdVSrgfxkhBTTUKKgHJpprADao6oFODqwROBfYoqptGfTnACMDTceA1aq6p5r+s2yAHvfalgCHHfqjwM9TfAXf9XiOxwU7gbEF9L8NjNkt+4D31G0bdJiHAy8mOm4lsgMkJjOBSk/zKwn68womXyrLcxWQ4wmWsBiTYY1hALDEeoaFEJFJwErL52JQgi3Vv4unMunybICIvBWY7lW/gnn9+zl15wDvBX5WIO9cYIXHWwvaMbtQCccwCdPv5grINYLnec+bgTfbDlcAb/NoowoQkcmY7/i03EEm0AY8DLwM/AHYpKrROCKEXAX09Z4XqGo7gIgsp1wBp8eEiEgTRmG+vFoxCrjNed4sIu9X1edyBeTagCUYTw3gJeAHTts0jzbV+SwqJ+9vWb5fUg2aMed+Z+cyZClAVbdj3NjpmGzNHgARmQNM9cjXJ0Rt857vw6S3XEiCf2+irYS+wJ0ZdP9Fth/gbCfdgLsDvM8AXQr4bsJElx/FLMCtnoxUTrCR8oBqD/AQsDowlql19QMcIU3A7wN8B4GLanCEshXgOGOXA28BGmydYPIBrpzr6+0HICJTgD8Db/ea2oF3q+qqauTViEaM87ReVY8CqJndao9udI6wbAWIyAdtJ74zshu4WFVX5sqqFda4bcNkk9eIyGhb3whc4JHvyJGZ6widjklG9Ag07wfuEpGDwE+BherlA+uI2Zg3AEzw9JyIvAAMxFzxcbEhR2CuH3BpoIMSRnD8rbgQY6nvy5RbLZ4N1L0xULce4xEWIvcTiE0+hElV0IIJsFykXt17gAcK5O3CZIc7cgdQuAtgIsGWAK1f2oDxVe4CvTArq7aP4QX0XTFb6Hav78OY88FUOF97SsxGeRcBr4so8iCwSlUP5um9TLZgYoinVfVIFXyDMWm1fZg44FAB/f9TYnQ2JWbTUdOBZ1T1YVvXhDmkfBFYGlsJERlp6d4QaO4AHgF+krOLiMh4zE7QjIlKNwNPqGrIUCaR7Qlioq9SBucY8D5bv97hj93P6Uo6o1QqXyywAUMwKfgQbwcmdR+8m0BnXWHgGx7tV4ExXt3zEd6pGZNXYE2i/2bM4UuRjF3AqLq7wph8vIsWjBV34T8X1fu4P1RpjfAS8nIJA4HF1rgmkW0DrBvq+teKicQG58rw0EJ5KNwBPKKqsXD6c5iUm4uNmMiyAWOXxjht7wCuARYUDSTrE8BkXly6tbZ+ole/M8I/w6NrB/6EueH5WQouVGCMnMv/Q2w0aNt7Unns9ljdbACVx+A3dlIBfjkEXBvh7U75JctDBI7AgXGezNYiBWTZAHse2OxVbxORicDYHBkZ6A7cLSJXB9rGUP65blPVFp9IVbdgvNESBoiIf/miDLk24AOBumTqO4DtmXTzRGSpqr7i1PlKfinBv4Pys4ZxwL9ixLm7QLUBTgXs6szH+A+twFLM7ZM5mFe6hCbM2YKLl73n1ye68tPthV5toQ0A5gXoYiVoAxxZvfHyhlTeAJ3ntff32ttwDKAn27cVDZ22AZj/AW4H/mk16hb/NFdjQkTkQxjnaaLX5L/SZcdjqrqb8pXsj7nB7mMW5Z/1VrVpsxSyPcHIiubuApdTvjK3YE6GZwAveDJuDPAv82j2A5/C2IdmjJ9w2KNZWFdXuJMK+HKgr1gJXW8ZTeXt8lRpBZpytkH/ckOuy1qC/8rHPoEVlBu7GB5U1ScqOlH9G+aWWC6uU1X/0/LndgAyf5lJvAGNlP8E8VCCdjqVf6i45TfAwAS/ANdj8o4xGW3ARyL8wV9msn+aSgzsSswF5VXA2QW0Z2KOrjZZZezCXJP/BJH/jQIyhgPfwxyG7MVEiGswxjqoQBI/Tb2qv835K3oi5ds+0r/NWaLX7o+TlrgPlVfW3XLbyZ5QDQrwo1e3bMX+P9wFQI3fPRlz+hNCe6T+VEZszPcCk7UUawQ095r6ff4/AwzrXTadtIkAAAAASUVORK5CYII=;" parent="1" vertex="1">
                    <mxGeometry x="-2394" y="-82" width="64" height="64" as="geometry"/>
                </mxCell>
                <mxCell id="17" value="Documents&lt;br&gt;Domain Knowledge" style="text;html=1;align=center;verticalAlign=middle;resizable=0;points=[];autosize=1;strokeColor=none;fillColor=none;fontSize=14;" parent="1" vertex="1">
                    <mxGeometry x="-2700" y="12" width="140" height="50" as="geometry"/>
                </mxCell>
                <mxCell id="18" value="Chunks and Encode" style="text;html=1;align=center;verticalAlign=middle;resizable=0;points=[];autosize=1;strokeColor=none;fillColor=none;fontSize=14;" parent="1" vertex="1">
                    <mxGeometry x="-2440" y="12" width="150" height="30" as="geometry"/>
                </mxCell>
                <mxCell id="20" value="" style="endArrow=classic;startArrow=none;html=1;fontSize=14;exitX=0.5;exitY=1;exitDx=0;exitDy=0;" parent="1" source="21" edge="1">
                    <mxGeometry width="50" height="50" relative="1" as="geometry">
                        <mxPoint x="-2010" y="220" as="sourcePoint"/>
                        <mxPoint x="-2186" y="300" as="targetPoint"/>
                    </mxGeometry>
                </mxCell>
                <mxCell id="22" value="" style="endArrow=none;startArrow=classic;html=1;fontSize=14;exitX=0.5;exitY=1;exitDx=0;exitDy=0;entryX=0.5;entryY=0;entryDx=0;entryDy=0;" parent="1" source="8" target="21" edge="1">
                    <mxGeometry width="50" height="50" relative="1" as="geometry">
                        <mxPoint x="-2185.9950000000003" y="150" as="sourcePoint"/>
                        <mxPoint x="-2186" y="270" as="targetPoint"/>
                    </mxGeometry>
                </mxCell>
                <mxCell id="21" value="" style="shape=image;verticalLabelPosition=bottom;labelBackgroundColor=default;verticalAlign=top;aspect=fixed;imageAspect=0;image=data:image/png,iVBORw0KGgoAAAANSUhEUgAAAEAAAABACAYAAACqaXHeAAAABHNCSVQICAgIfAhkiAAAAAlwSFlzAAABuwAAAbsBOuzj4gAAABl0RVh0U29mdHdhcmUAd3d3Lmlua3NjYXBlLm9yZ5vuPBoAAAlgSURBVHic7Zt9sNZFFcc/By4vlyDk9fImlDIgc0NABXsTnQyGmjJLY8w/nEYos+xFFLWmF+2FXqwZlVKYkBmptJHKqMYoFImESgNFIDBDI6mLci8TeHmHe/pj94l99tnd3z7PfRAa+87sH7/dc87unv39zp5zdn+oKm4BpgHzgbXAbuBHQH+f7lQvQH879t12LvOBaRV0DkMfYBGggTL3ZE+oBgXMjcxlEdCnRNcFQET6AE8Cswijd6T+VEZszLOAJ+2cKWkrtvIdwKPA0JO9ojW8AUPt2Dsic1tk6ZgWaNwCzARGnICBdQF6BkqPE6SIEXYuWwLznAbGOPiTb4wI6wd8zWp2J7ALWAV8BxiSMZhrgR2RFVFgKzAhc2JXAb8CWqzMZcBlCfpeASXMB2Mh3cqZEQGz7YRjg98DfBqQCP9g4FCCv1QeLZh4X2B5gv9BoHuEd6ZHuxZgv1d5RoDxioyBl8rHI50PA45k8P+uQAGLM2TMi/Ce4dHtJ8A8xGNqAlqrUMA+YHRkADdj9uUU/xWJyZ+fOYajwJkB/iEB2kIFLPTajwCfByYC44EbgIMezbLEJHrYgYy3ynL5Vhas/k0e/Q5gBnAJ0Oa1XVUvBWzw2ucEBH/Yo2nJMGLfD/R9fpWv/1yn7R6v7fZOKwBooNxwHQF6BwQ3BFYg6j4DXYH2QN+/Brom+C5zaA8AA5y2X3qybqiHApq9tr8nBrfOo72gYDX/EehbgQUJni7ApcBdwCSn/l1UOjwz6qGAi722pxODe8yjje7Jln6K5QltjSOLPiFHztVU2qDnCWyFtShgmNfWmhjIXzzaN2VO4DSMA+TyRncC77PznbhSifkyNRlBfwscFxA8lEpbEXRGIgP7utfHnQX0gzAeaGjyn0nwVSigC8XY6D1/U0R6lh5EpBvwbaC7Q/NXVT3sMolILxFZKSJ7ReRbItLVaR7m9XEsNhgRmYCJXC/0mjqAa1T1jvR0KlH0BnwsQPMs5vW7A9gUaP9SQPu3ejQbLf+PqbQDsyMr2I94LPFH4Bbgk0SiV2r8BAQT/IQ6DZV1QLdA5zdn8v8bGBSZQCzJ4ZcjwFl1UYBlHEU6EHIH3xwZ/GDCIalfrkt8w/dWsRBfqJsCLHN/jFscSzDcH+P1dpVfRPj3AlcW8F9ShQKm5ChASlpwMFRVdxKBiIzF7OHNGI9uM7BOVX1jGYU1ZFOAszB7+FPA46l+LZ8A78R4hD0jZPuAB1T18QD/EEz+4HgdVSrgfxkhBTTUKKgHJpprADao6oFODqwROBfYoqptGfTnACMDTceA1aq6p5r+s2yAHvfalgCHHfqjwM9TfAXf9XiOxwU7gbEF9L8NjNkt+4D31G0bdJiHAy8mOm4lsgMkJjOBSk/zKwn68womXyrLcxWQ4wmWsBiTYY1hALDEeoaFEJFJwErL52JQgi3Vv4unMunybICIvBWY7lW/gnn9+zl15wDvBX5WIO9cYIXHWwvaMbtQCccwCdPv5grINYLnec+bgTfbDlcAb/NoowoQkcmY7/i03EEm0AY8DLwM/AHYpKrROCKEXAX09Z4XqGo7gIgsp1wBp8eEiEgTRmG+vFoxCrjNed4sIu9X1edyBeTagCUYTw3gJeAHTts0jzbV+SwqJ+9vWb5fUg2aMed+Z+cyZClAVbdj3NjpmGzNHgARmQNM9cjXJ0Rt857vw6S3XEiCf2+irYS+wJ0ZdP9Fth/gbCfdgLsDvM8AXQr4bsJElx/FLMCtnoxUTrCR8oBqD/AQsDowlql19QMcIU3A7wN8B4GLanCEshXgOGOXA28BGmydYPIBrpzr6+0HICJTgD8Db/ea2oF3q+qqauTViEaM87ReVY8CqJndao9udI6wbAWIyAdtJ74zshu4WFVX5sqqFda4bcNkk9eIyGhb3whc4JHvyJGZ6widjklG9Ag07wfuEpGDwE+BherlA+uI2Zg3AEzw9JyIvAAMxFzxcbEhR2CuH3BpoIMSRnD8rbgQY6nvy5RbLZ4N1L0xULce4xEWIvcTiE0+hElV0IIJsFykXt17gAcK5O3CZIc7cgdQuAtgIsGWAK1f2oDxVe4CvTArq7aP4QX0XTFb6Hav78OY88FUOF97SsxGeRcBr4so8iCwSlUP5um9TLZgYoinVfVIFXyDMWm1fZg44FAB/f9TYnQ2JWbTUdOBZ1T1YVvXhDmkfBFYGlsJERlp6d4QaO4AHgF+krOLiMh4zE7QjIlKNwNPqGrIUCaR7Qlioq9SBucY8D5bv97hj93P6Uo6o1QqXyywAUMwKfgQbwcmdR+8m0BnXWHgGx7tV4ExXt3zEd6pGZNXYE2i/2bM4UuRjF3AqLq7wph8vIsWjBV34T8X1fu4P1RpjfAS8nIJA4HF1rgmkW0DrBvq+teKicQG58rw0EJ5KNwBPKKqsXD6c5iUm4uNmMiyAWOXxjht7wCuARYUDSTrE8BkXly6tbZ+ole/M8I/w6NrB/6EueH5WQouVGCMnMv/Q2w0aNt7Unns9ljdbACVx+A3dlIBfjkEXBvh7U75JctDBI7AgXGezNYiBWTZAHse2OxVbxORicDYHBkZ6A7cLSJXB9rGUP65blPVFp9IVbdgvNESBoiIf/miDLk24AOBumTqO4DtmXTzRGSpqr7i1PlKfinBv4Pys4ZxwL9ixLm7QLUBTgXs6szH+A+twFLM7ZM5mFe6hCbM2YKLl73n1ye68tPthV5toQ0A5gXoYiVoAxxZvfHyhlTeAJ3ntff32ttwDKAn27cVDZ22AZj/AW4H/mk16hb/NFdjQkTkQxjnaaLX5L/SZcdjqrqb8pXsj7nB7mMW5Z/1VrVpsxSyPcHIiubuApdTvjK3YE6GZwAveDJuDPAv82j2A5/C2IdmjJ9w2KNZWFdXuJMK+HKgr1gJXW8ZTeXt8lRpBZpytkH/ckOuy1qC/8rHPoEVlBu7GB5U1ScqOlH9G+aWWC6uU1X/0/LndgAyf5lJvAGNlP8E8VCCdjqVf6i45TfAwAS/ANdj8o4xGW3ARyL8wV9msn+aSgzsSswF5VXA2QW0Z2KOrjZZZezCXJP/BJH/jQIyhgPfwxyG7MVEiGswxjqoQBI/Tb2qv835K3oi5ds+0r/NWaLX7o+TlrgPlVfW3XLbyZ5QDQrwo1e3bMX+P9wFQI3fPRlz+hNCe6T+VEZszPcCk7UUawQ095r6ff4/AwzrXTadtIkAAAAASUVORK5CYII=;" parent="1" vertex="1">
                    <mxGeometry x="-2206" y="189" width="40" height="40" as="geometry"/>
                </mxCell>
                <mxCell id="26" value="" style="whiteSpace=wrap;html=1;shape=mxgraph.basic.cloud_callout;fontSize=14;" parent="1" vertex="1">
                    <mxGeometry x="-1740" y="262" width="90" height="60" as="geometry"/>
                </mxCell>
                <mxCell id="27" value="Answer" style="text;html=1;align=center;verticalAlign=middle;resizable=0;points=[];autosize=1;strokeColor=none;fillColor=none;fontSize=14;" parent="1" vertex="1">
                    <mxGeometry x="-1730" y="322" width="70" height="30" as="geometry"/>
                </mxCell>
                <mxCell id="33" style="edgeStyle=none;html=1;entryX=0.446;entryY=-0.167;entryDx=0;entryDy=0;entryPerimeter=0;" edge="1" parent="1" source="28" target="29">
                    <mxGeometry relative="1" as="geometry">
                        <Array as="points">
                            <mxPoint x="-2040" y="210"/>
                        </Array>
                    </mxGeometry>
                </mxCell>
                <mxCell id="28" value="" style="shape=image;verticalLabelPosition=bottom;labelBackgroundColor=default;verticalAlign=top;aspect=fixed;imageAspect=0;image=data:image/png,iVBORw0KGgoAAAANSUhEUgAAAEAAAABACAYAAACqaXHeAAAABHNCSVQICAgIfAhkiAAAAAlwSFlzAAAB2AAAAdgB+lymcgAAABl0RVh0U29mdHdhcmUAd3d3Lmlua3NjYXBlLm9yZ5vuPBoAAARiSURBVHic7ZtdaBxVFMd/JxRESWujEUXEDwTBKigVRMSiUsGILwpFqvXJt1CsxUIUVPoi4seLzTZVrOCTFilIodTWlyIUNAYEP1B8SINNW6GmpbGtNCTWvw/3Lruks7szs2dnN05+MMzce+fMvfvfe8+ZmXsHSaTdgEHgKKAubJeAHYBlaXPL35RRgMe79OPrt12eIqwgGxb3J4GHMtq2wybgzXg8DGBmmxX/lXbIKkCVfyT93m7laTGzM/HwHLAKRxESBTCztcAbwJWLigbjvm3lc/ItcBB4HycRGvWAl4CnmthZk7KOImmHmYGTCI0EuCLu9wFf1eWvAV7MU5EnUQQRokJbIrTyAd9J+rCaMLMhekAAAEmjUYRR2hChrxONKwpJFWBLTA4DYxbHR1ryRoHLMLObgSGS/cMcsE/SX171VZFUiT2hQo6e4CYAsBe4v0n5KMG5uiNpZ/zjM4vgKcD1cf89cLou/zbgjrryjhBFELCTDCJ0wge8LmmougGfdKCORCSNAZtjMpVPWNJOMAlJuwgiiBQieA6BIlhhZqtTnPcZcDXwFi2Gw1ITYD1wNofdMHAMeGdxQScEOJgxFKdhHDgPrGzjGvcmZXoKMA7c0qI8F5J+MLNB4Koc5luB7TR4fnETQNJGMxsh2bFelHSqzevPA/NZ7cxsrlm56xCQNO15vSLwvBXeALxA6AGngJclnTGzG4H3gGu96mrCUWCrpIW0Bp49YAuwri79OfAl8AjwnGM9rRgDfk17sqcAz1N7GPqT2nuEvcACBfUASal/PPg6wWngo4T8BYIIPcn/7lY4K6UXwDMKXAc8Ss0HfC1JZtZHuIUtwgdMSZrIYuD9QuThuvQTwCHgGWCPYz1NMbM7Jf2W9nxPAT4lTFpU7wN+jPkTwGGKuw84lsXAMwrsBnYn5E8RhkBPUnonuCxAtxvQbTzD4HbCa++qE3xS0qSZ3QN8QXFOcL2k2bQGnlHgPmAgHq8EbgAmgZsIr8aLmFC9G1gNdEWAp4G7CD1gRtJJAEkHzOxW4BrHuhpxQtLp1qfV8AyDl4CfGpRNAz35sqT0TrD0AnhGgbXABmpR4ANJc2bWT3gvX1QU+DjLGgFPJ1gBHqxLTwL7Cc7xXcd6WjEO/Jz2ZE8BXgWepdYDDsf8/YQpqqJ6wC9ZDDyjwBHgSEL+LPCaVz3elN4Jll4A15mhuE6oDzhbvx7IzAYI09WdZkbS31kMPMPgHmBjTM6b2TpJE2b2GGF1ZxFT8efNbI2kE2kNPIfAH9SW0M4CF+LxubgVwQxhRVpqPKPANmBbQv4ExYTAXJTeCS4L0O0GdJtlAbrdgG5TegHyhsEBM3vbtSWd44FmhVkFqN7crAJeydWc7nEhKTOrAN8AI8DtbTfHn01AP2Fd0vFFZRcJq8gvI5MAkv4lrPjqOeLnPP1ARdKhtHald4KlF6DVEBiIszpLgVwRrZFR9bF2JG5LCZfP5g6Q8bm6R5gifLOUmv8Adw1cZSeuKPgAAAAASUVORK5CYII=;" parent="1" vertex="1">
                    <mxGeometry x="-2160" y="186" width="46" height="46" as="geometry"/>
                </mxCell>
                <mxCell id="29" value="SImilar Chunks + Question" style="text;html=1;align=center;verticalAlign=middle;resizable=0;points=[];autosize=1;strokeColor=none;fillColor=none;fontSize=14;" parent="1" vertex="1">
                    <mxGeometry x="-2125" y="292" width="190" height="30" as="geometry"/>
                </mxCell>
                <mxCell id="30" value="End-users" style="text;html=1;align=center;verticalAlign=middle;resizable=0;points=[];autosize=1;strokeColor=none;fillColor=none;fontSize=14;" parent="1" vertex="1">
                    <mxGeometry x="-2487" y="550" width="90" height="30" as="geometry"/>
                </mxCell>
                <mxCell id="34" style="edgeStyle=none;html=1;" edge="1" parent="1" source="31" target="32">
                    <mxGeometry relative="1" as="geometry"/>
                </mxCell>
                <mxCell id="31" value="&lt;font style=&quot;font-size: 14px;&quot;&gt;Question&lt;/font&gt;" style="text;html=1;align=center;verticalAlign=middle;resizable=0;points=[];autosize=1;strokeColor=none;fillColor=none;" vertex="1" parent="1">
                    <mxGeometry x="-2225.99" y="310" width="80" height="30" as="geometry"/>
                </mxCell>
                <mxCell id="35" style="edgeStyle=none;html=1;" edge="1" parent="1" source="32">
                    <mxGeometry relative="1" as="geometry">
                        <mxPoint x="-1740" y="330" as="targetPoint"/>
                    </mxGeometry>
                </mxCell>
                <mxCell id="32" value="" style="shape=image;verticalLabelPosition=bottom;labelBackgroundColor=default;verticalAlign=top;aspect=fixed;imageAspect=0;image=data:image/png,iVBORw0KGgoAAAANSUhEUgAAAPoAAAD6CAYAAACI7Fo9AAAgAElEQVR4XuxdBWAUV7ee3Y07wSFYcHd3d7cEd5dSKBRaHIK0UFyKOxR3K8UdCoWfAsW9WIjrJvu+787esFnigZZXMu/1D9nMzty5c7977DvnaJSUI2UGUmbgPz8Dmv/8E6Y8YMoMpMyAkgL0lEWQMgNfwAykAP0LeMkpj5gyAylAT1kDKTPwBcxACtC/gJec8ogpM5AC9JQ1kDIDX8AMpAD9C3jJKY+YMgMpQE9ZAykz8AXMQArQv4CXnPKIKTOQAvSUNZAyA1/ADKQA/Qt4ySmPmDIDKUBPWQMpM/AFzEAK0L+Al5zyiCkzkAL0lDWQMgNfwAykAP0LeMkpj5gyAylAT1kDKTPwBcxACtC/gJec8ogpM5AC9JQ1kDIDX8AMpAD9C3jJKY+YMgMpQE9ZAykz8AXMQArQv4CXnPKIKTOQAvSUNZAyA1/ADKQA/Qt4ySmPmDIDKUBPWQMpM/AFzEAK0L+Al5zyiCkzkAL0lDWQMgNfwAz8p4FuMBisnzx54ubrG5QqNDDAJigsTGdra6nXah39s2RxDUqbNu0zjUYT/AW855RH/MJn4D8F9Ldvg9yuXDlf7K+/7ud68+pl6ne+3lkePnycMyQwxDkkLMhKr4+0sLS01NtY2QS7pHYOdnFJdc/dPfdDBwf7d1myuD3Kl6/kxZw5XR9/4Wsi5fH/gzPw/x7oAQEB6ffuPVTv4vmLpe7cvVf82bNHOd+88XYOCwuzwvvS4acCya5AcitarVb8OyIiQvyu01kqOgsrvZ2djT516tSBGTJkvFOwYIHLpUuXuVizZoXdzs7O3v/Bd57ySF/gDPy/BfrRo0fL7d6zv/tvR47X8vV5lzEgIIjSWmdhYaHo9XolMjJSAJs/CW55EOAS9OLfWguFm4H8DP82WFlZRBYsWPBxkSKF9w0cOHxG9uwuD77AtZHyyP+hGfh/BXQA1uHgwSOlV6xYPuzU6TM1goODbSy0VgoALsAcHh5ulNQ68Yr4GcFOEPPfEvDy98gInIMZMOB/cBokvE5sDNwo+Duv6+hk965li5abWrfu+FPRou6P8N3Q/9D7T3mUL2QG/l8AHQDVPHnyyn3JwoV9lixfNigoKMgKqrbi7x+oUIIrBhXM/I8HwcpDfmb6u9wA5N/le+YmIM/j5qBeQL1ORES4kiZNGv9u3TtPadmy+Xp3d/dHX8j6SHnM/8gMfPZAf/HiXfatW7c027hhQ48bN/7MB2DrrK2thbpNCazVWETZ3VKC83Npi0eB1uSFmW4KISEhYrMQG4ZRCzDdJHidsPAQIeWdnByUAgULXOvUqcO0hg3rHXJycnrzH1kHKY/xH5+Bzxrod+48KjDNa+rw346daOzj4+3q4OAQZU8TzKGhqhZtZWUlVHQ62STYTSW7BLu016XqzvNtbeyjbHr1XasOO3kd9buRYiMICQ1SuDG4u2d93bRZ02Xjxo3+Edd6+x9fIymP9x+Ygc8W6Pv3H2oyder0SY8fPc0Hz7olgUaAUrJKFZ02tFS3TZ1u/DftdUp9/ieltfS283sEMK9lobNSqCHwHBXcqnTnv+W9+D29PkxsKPwvMMhfgUc+vHLFCofGTvhuKFT52/+BtfBZPML91yF59/x6quXbt36pbe1sdFp9uOLobO+X1T3HH2lzZHmst7a08w3S2+hsLazDgxVLK4swnd5C0WngT4VOFn0968x+hxzQw9CTD2qwwr+D4agxOxCPiboO5IkirxtuodMaIhT+Z7DUhWv1iqXBxlL3OrOTcimXRvPqs5jAWAbx2QEdANMeOnS84fBvhs9++vRpDoKOwLWytFElrRIhVHaCT8hfoznNcyjh+bmjo0MIQmVPM2XI+CBX3twPnZ2d/nZ2dvTXaq1xSrhtYIC308sXb9J5+7zJfvv2vZw+Pj5u+M+SG4ilhbVxI9FGaQncCKQNrzr0IoWjLjQsWClcNP/VH39Y0LZYsZx/fc4v+nMfG/0wO84+9Ji2aNW4N/4huS1s7PT+vn4GCwRQwsKDg1NnyxiQp3iREPcyxSx8FW2acGtLbaTGwlITbuASEOsYP9+HV8RbMn4OF47p8zMQI3/XAdP01/J30+iM0Ajx/Yjw8Kjvmv/dAt7cNFYWvhldbI+6p3X+ubGTcghr6MOd4zOY/M8K6HzZG9b+4jH821GLITkdIcmFVHV0dFQi9AYlMDBQsbWzFtMGh5z4PCSE6nSw4uDgGFaoUMELdes12lu9euXDJUoUvsPTMPHYxGM+cD+Ld+/e2T9+/Nj96JHjDfbsO1T3f9evVw4NCTdqAVrxk9IfHn6xwdjY2Ih/W1tbKhGR4QoUAMXV1fXRrp1b6+TMqYId17XED8bxtW9gxet074zbER17qSLTpOEaUsL5H8YXbXF+BmviXxnCiWuGqr1GjPjFV7FI5483ZmFto4SGhCkOltZYA+GKT4ivonG2U8o1q6dkKFRQ8UG0JUILzQxg0xk4naqJldifUiM0B7EEvvT3mE8Kz7fE+7eFOWcXGaK4udj6F8+ZoV87V+u1/8oExnPTzwbolOS7dh1oM/r7MdP9/Pyy+Pr4C6lpa2sL77q/YmWtAo4SW6rWBHmmTOmf1G9Qd0+rVh3XlClT+BKAQwAl6cAYdKeOnau8/pdfPE+dPN789at3aan629vbixCc+m9bhRsQXzQ3neBgev51Sp48ea+379BxIWwGy7/u3Sl4596DXIEBfi5h4XqL4KAgu3B9hA72R6iLi7N/uvRpvbNnz3k3ffr0t4sUKXLH3t7pberUmV66u6d6ivGrrv4v6HhtMDj2GbR4/+W7zyr6a6yUUD34D+F6xQaaVGhAMNaAjRIU6ov//BXXEgWVqq1aK952DoqfPkKxt4LmpXAvTxrQpb/GdLpNQW++AZj+bgHVwFFnoUQE+Sp2FmFKQVf74x6FMngW0GhefG6v77MB+pEjx6uMHTNmxfXrN93t7OyEBCfQaWvTLo6EdSXVdUrUjJkyvalRtfLePv17LipatOi5jz2xe/Ycbrhp/cauJ06dru/9FssKjkDeX3j6jfZCuD5UqPlU7X19fcVGIA91czCI803j+dRQaGJQkggNwc423M3N7XXxYkUvlSpV+nDBgoVuFijgfgvhvGcf+5k+1+udv/a2fM/xs44/8Y+w1OvsoTDD6I6AogMgW8KHEhjoB2Mc5jQMcfId6/booeizZlcCaGrBYNbAnIvtiElSx3wunbC8jrphcGPnT42GnAxVUzD/uxZDtMCfsErx90AlgzZE6V4yV+PqNpo9n9tcfxZAv3jxavGJEyb/dObMmaoEt5DaeMEyDEZPNyU6gRQeHqpUqVrlVK9efaY0alT76KdMSsEicVq1ar3HihUr+/zv+o3iVNs5JsmkE5pFpErGkYd0FErPPT+X1FvzOL1wIEKA8+80S3QWGiVbtiw+2d1zXStfruyx2jUbbC1RIu/1/7p6P2XFvgmztx4ZHWjpiFAmgAWz2BZTqokAeQnmdKQhTLGE6as3hCoB4UFKwQb1Ffe69ZS/w8IVa0hUeZiDOj5pHQ2MADbupDKoaE3F8lNYCca/Ezw2Ghs4ZyHRHTWKY+g7pVG29LN6ZbEf9rnZ6v860PFyHIcN+27Kzh07e8MhRhqrKrlBgiGQCCoHRzshMWnONmvecvWAAYNnAgB//FO75rFjF2v37NF1HcaQlhKZ0ppjpGS20NmIYUiAy59ybJKKKzct041ARAciwqCaWgsJz2cVn0FTgN0fkTdv3j/KlSv966CB/eeCIPT0n3ref/I+eP923ceu3Lb72p26fgCNJsIaCQqRij3efySISqHYCIV/Sx+IDVWv+IcGKOmKFFLKdemqvAE0SWGO7TAHeszSXXWfJFTyR9vUsRlYwhXDdxhphXUBoFd2sr3QsWj6xp+bF/5fB/qWLXvqjh83ZuPz53+7iLAX1DYCnB5tvigufKryb+DV6ta9y/yxY0dNw6J/8k8txssnLhfZ/eueLsuWr+gLdc6GpDsZpqP/IDAgVEhkqc6bSnKOX0YIpNkhNwX+Tcbo+YzCLIBE5xxwM6HJAuq+Ymttq89bIO+Vzp27z2zbtsnmz01SJPc9/HbJu+HYaYvW3gyPdPGPsFCsNHaKLoRAh0IeEaoEahE3s0S0JThA0WkjlSA4XsPsbJSag/or2gxplBDOHYWwkRVpPp54AQyNLKGH+bW02IwUPRiZeE8YlWIfEajkigyNaFUqe/MG9prdCb3uP3Fewp/yE4zm9ps3mfu2bn/k99+v5qWU5AKnJBfgoEcbAOKCp8Prm2FDpo0dP2YiXmjgJxjKB5eEAzDtyuWru65cve6r69f+yJg6ddooHjzHJ5JnwhH2g/9APVQbjrZdZKTqHJK/UxNhphxNe/6dlFpuGPxcqvVyUxDSBTYngS/Cirg+nY6I2weXKl361+nTJ32VLVu2+//EHPwT95i54vzkeRv2j3oHh1tAhFax1doD6BGKNWx0ZC8owVr4MxCxtogEExKfhIVCqsNmz9+muVKwVlXFOyxECdNFBTWiDTkukMu/CbCaHfFuDlID4HcxTq0l3hGCO3YGUKWDfZW6+bKO6JVJ+8PnZHL9q0AfP37ipFk/zf2OIKBDi4tbglsmmMAmN/Tp3W/2qO/Hejk6al5/6sXn729Iu3//5qoL5v/83cWLl4pZWFipqjqcgwQd1Wtpq8u4PTnxtNU18M5QI+FPyHLBlef3BGeei8J4Hn/qEBqSjjqCXs2000eRdGSiDueEmx61B56TM2fu/3Xv0XFqu3ZtKd3fe/8+9cR8guu/DDCk7z9x3bYTfz6u4GehVUKxCdopNoo2FDwFbKKU4OGWejAS/RV7+kPCocLj/72DAhSnPFmVVv37KM8xecHv+S1Ro5QEKlNNK+ZHUJmQCTliOk9onfQbYvO3QqjPKdRPKeZiec2jeNrmRTSaz2ZD/teAfuvWrRwNGje/HuQXYG+JWKlksHHiJJWV3vXOHTqsHTtx0sjUqe0+qY1KW/HixYvFFi1aMmT7tp3NGWqzsbETACbIXr9+rbi4uAhJHAYpQm+ssK3JtRLeWdXMkNlvMlVWMvqEpDYuKGmvU7oT8Gr2nFT/1Wvx4DV4b8HMgx1I7YbXyJo1u3e//v2/bd687kZUyfFPyCL9HM/59erTRsOmb/rlWajG1h9+iUjMg40GGxqnFJLbAmwEg2U4nF1+ih3j6aHY1yK1UJIjlRA45loO7quEZUin+EOiq3lM7+PonFNqVKZe8w/j7Ca2uZnzzdTpFptzzgCNzIBNPUJoH5bQOiIVJyQ3umGnal4gU+dGrprPJqb+rwH9+3HjF82YPqN3KudURnVXXeBc1NJOzZ83/9V5C39uV7hw9pufaqECOJpz586V+eWX7d127tjeFL6C9E5OLqpkFoBTqbIqOScEY6X05SIi4IOFR9iAVSEIFJaWhjRpXF+6Zcn6MFeunPfTp8/w3NHe3ge6nR6KuxISEWLp4+Pv6v36VbrHj5/kev73yxwv/37rime2iFIljWm1Mr2Wm4rx2mIzkHF9aBNhLVu32DB0aP9vc+TI8fenmp9Ped35G49+O2PdWS9/gy196mIzs4RDTgu+USSpzhYEUqgSog/G+9ApeojOSKj3GgA7JOCtUqBOdSV73RqKH/xxAmxGYNMkigvo78Nkpk8XPayW0Li8Hu9fB5BHhlso1hijDXapVHpfpXpW58X93B0HYA3FStj6lHNrfu1/BegPHz7M0bRZ61/fvn3jTnOWkorqMBc0FzIXNNTkoO++/25Y795dFn6qCQmA6jh//swuhw//2vYS1HRoFhqOg3YgXzRVaxlOk5uPBJ2g3IapnmD3nNkeFS9e4mjx4qWu5MmT766bW9rHGTNmfJoqVSqfmMaOazj8+eef2Z4/f579/t2/c1z/39USp06erv7g4f3s3GBoxgj5xFg7HHRCxYdmIbn30pPPjadj53Yrx4//7it46X0/1Tx9ius+8jG4e81dO//A+af1fEItFDtbS6joIK+DMGPQwkcDk0ejjVDCI4PxO8wXbrAw8fThlJ6IUIQGKlaZ0yj1BvZS3mJD0OME+tWErwP/xwiYZLpGmnCQNNSzox3QBvA9xsRjUs1NtbCY5oE5ENbWtoo+SFGsoYJosFnZh/kpRZ01fzUpk6lhBY3m7qeYv8Re818B+k+z5w6bOWPOlPCwcAtyFAguVVrCDka8HGE2pUXL5ptWrVrS9VPFyTes29Bx0c/Lhty+dbt4CKiW9OwTTNK2swPzSh0THENG/wElDo+AAD+hUhcuUvi8h0frVRUqlDtWqFChRxgrXnfiDzy37YMHD7IeO3a62soVK7pdvXq1DDcWHjrEian+h8M+lZsApZcsshERGarUrVd3z9q1y1rh/v9vimLsufKi4dS561feeRmWJgzquqpWM0T9PnuQnwnTCPKea0NscEZA6pHREoK/VR/US7HOnlHxCQN5iTkJCM1BiVasMG/00CP+Caqsylcg+HXcMATWVSccrvg+ZB6Drf6hp938/UK7Q7xfhIVB1bXA3W31IUo2S/2b5sXTta7vqDmW+BXx8b/xjwP96VND6pEje644cOBgY0oqJVKt6sJQknQ82dhYRSxbvqhunTp1jnzMR1bV9MvFQYD5BiWomiD11Y4vUhJfeC8CngAnsDgmjjE4RHX0Y1yCd507d+6rnTp3XtSqVdO9kKSsJJswb04CHsbb2zvr0qVLPTZs2NgP6n02mcyjYW4WDnr6uUgt4emlyUAHHp1/Q4d9PX7YsEGTPhdVMa5HxZxrJ685NWr5jmMTfUNge8NPIUBuEiLTGM0hg4hg4GAKMhOajJ/rAWxkQij5GtRU8lWvpLzEhqeFwFDgyDMwGoL54jf0tKEBdAFtfFcYYyIvSV36cJ/Kf6pj+EDiR3+SaIChXS/Wrx6aF30qCAXiWaxx//SIGNTJlWZazezacTk0mpAEvPpPeso/AnS8WCcsYOcjRy4WPHBgd/d9+/Y2BqghKOFpB3tQtctVwAcgdNKoccNd69evbI4X/9F43/fv38+2Zs2G3uvWru35/PmrNPZ2YGHBTLC2sRS7MRU+3p8gF78bnWsEOiU5x5gqleMbD0+Pn4cPHzoLNvsnjQBAqueZNu3HqSeOn2yCUJ/OxSW1GBulOqMAPj5+IgrAPYbjy5wx49s+/ftN6NWr89yPufF8itX3NMjgNmDMkt1nbzwtFqZ1ANDU+Y5+qBI4NqCTIRkAeWzj7qbU7NBW8bFBKNYKZk8ktJ9g2M2wl1FAUAmDNkDVXScYbdQQEB0xSnah3muQP2GS9GauwpuPi6OMkvK8FsaubrYsQYb7IvsR5YbhfQ9RSqe1vd4of6quJe01lz/FPCbmmp8M6K9fGxzv3j1X4ObNu8X27TvQ6ObN26WePHmcgRPHhUoAUWXWYaJFyidYZpRMVJXXrl5Rq079jyPNCfCDBw833rjhl15XrlwtTGko7i+83Wraq6gUix1eZqZF+QtQWYbgB0HHp3rVqlsHDRm0qHDhfJcSM8HJORfjs1++dLnHnLmLJt+/fy+9g4MTnFHqQqOziZsj50ym6BYoWPD+xIljuyN771hy7vupv3vurk/JfuMWHn7pr0kVBGBCp4p2SxVIqoOTYIRBBYyqEQ3xb6wRbrxBUN319tZKRY8WijZnRsWPSSYWMMGo9VDawmmqN8oKagIEPIr6i2taYR75k0x5U85MbECPstVNRyr48Bw7xsRQIDZcLcKxVhiHfVCwksvG8LZR3jT96mW0/uVTz2l81//oQKe9efz476WOHz9U9+TJk01u3LhZGKmgkIapjJRWNamDhwCU0b4RRSIArMJFCv154sSv5bAhJCtsRIfX9u37qm3fsrn70ePH67969co6ffqMqtTGjm9lReoqHWrBImzGUB4PWTmW3HMHB7uIEiWLn2zd2nNNp05tVmFM/0qu8S8bdrSb9sN0r3v37mTjuLlZsjIOxwy/VRRTj4uxWfOm6728xg3/XJNiMEbLWb+cHzxr7b4f/BVb4BEJS0agSzDxJy1o4UUn5glWQUkkgPkK1N+DIUnDAODsVcopuRpUUd7ArLIDJVkj8g8IYpb5VlV1qu2IzCmhmC9e3wYZcpTykYjBR5rZ5jE55cyBIs4R5CcN1jXtfAgMAN0AHd6amY0IBWZAImXlzC5r++Z37PFv+08+GtBp/x49erLKli3bul394/dqDx48ygJVEzOuFXavrK/OmDnBRLWd6aco0Cy8yfQuk8/et1/fuTNmeA2Kb4eK6+8YR61NmzZ3OXjgQJO3b9860rFGcPA+LCyhloRWVS2mmvJzWYOOee5cYGXKlvm9VavmK1q1arENsernyRnPx/jurl0H60+Z4jXn+rX/5QJLTpgadMgRBHJ+uYG6urroBwwcNHTgwF7zPqbp8zGegdd4ajCkHvzN8m2nbj2rgqx+AARhTJKLzI4ovhpVGB5CikNFhg1NqU6g6UEkCgoJVexyZlYqdvdUgsBrEAQlwUpUv8Yri0WO6xDowRDABL5tuAp0PYFvdu/YgP7B54IFyegMljmBjtg+TQFe1xbrKxU2nhJpnc61KuHYrLBG8/JjzWFSrvNRgA4veap5c34etmvn7tZv373NTQnOSZGxZ3qog4OQAGIsB8UFScDzHE6SCBth9vn5wkWLO3h4NF2XlIcBqLOsXrm+27r1azvdu/cgO+6hpVlACc6ftGlRYcbo/KMDCFIBjjYWkeBBCZk5c5a3jRvXW9O6TaflJUvm+9/nZO9u37Kv2fiJo5fcvn0nDdV4Pg+dc8KOBOD5u7f3G6VY8RL3t2/fWPlz2KDM3+PBG75lh05edPhtmKVjcAQcsHL8sbxwquni+fBTxNbpLCPDkEjGv0mP1qMgRen2LRT7XFmVIFyPUjWSzlSuNzbrEEim2o5QLmLw/N0GHHUV6DTfPgytxaiqm4/R6IzTQkhFgP4aAQkeAaBzjDZ4Njs4DLPbW3s3LJyqTXMXzUd1LCcWH8kG+okTFytOnDBx7rVrV4tCFdcKKQ1QUcrIfwtnGySpjANzQQYFhQipTqkqwIhKHY6Otr7bd2ypXqxYsSuJeRC8FKvVqzd4zp83f9TNmzdz29raa2QJKpkFJzz6wumnloriWCi5La10cGx5i3BZvfr1tw4dOmoU6rc/wDlJLmCRmLEn9twlC5b1nzjFawb8G9aC3gmNSfDhMX88+G+G//oMHDBtysQx339uXvgxy8/MXLDpwJBIGxclCGCzgtprGrMwVd+FRBZlvFVQkwpMlV14zQl2qPKG8DDFHx/krFNZyVGhtOIHu5xhtnAIFhtS60irphpPZxmp6QQifreGyk1ARtAvZHwJCVHZo70vsu9I4MEFEfEHkYcJNtQm4D+BpLcEH8MRpmHjAll+7ptTGYh38a9RlpMMdEyKbuPGHe1mzpwx7sWzl+4yDu7oZC/UYFkJRhZYCA9TgUY12rSTChM8CHT/AF+leIlit5YtW9YkZ84sLAOVoOPKlb+KzZv904htO7a3xr10KMEsCC+8l2mtN9N2TLI8FH0CQeBNo3DFrZ69uk/o3LnDnuT6BhI06GScRO1p8ngvryXLV/ThXBLoUXMt6LhqIwqdtUXAoQun8+X9jApYMKzmMX7bwWNXHtQKMkDqku/PkBdDZgDIhweNaFWCE5TCA88cfuGMhDaI72mxYftCWDjlc1dKNqmnhLo6KAE4F7qciJlbQIWm4A1lmI32OvcIfh4VXlP9dvKIkuQxBExj3AiMSTEwJESsnvfgXbQG8OVgdTiC81A2nd3+/sWsuqb/F9X3JAEdkjrdokU/d1+ydNnI4AC9I0FOTzYPShbJbpNVWilBra1sjVxtjfj5vlILXhbsJEqh6jVqHlyyZF63hKicjx+/zLlixdKOG9ZvHPD3369SE7x07gWi9BDvy/Gw5BPvLXPc5T25qfB8tyxZHnZo135x85YN1qPeW7KaK6LBRK779+9kwv00OXJkeYaqMdQKPonzjptb715dN96+fTsvtBfhiedzisq2cAjx3+EAwPjxY8cOGtRnQjL2lY/61cNXX1X66odVh5/7W9iEIP5sYUUmGdTxWIFOUErvu0qaEc44I9iFkw1htmAIixD4Wip5tIT3PZMSDC0N2aLwALBSjRHosM0ZYbNk1qAAOwtNxAxyPrQ5MyI2aa8RObK8Mpl56r1EbB7eAQtIdSuYiu4WoUqXYuk8qqez2PRRJzQRF0s00NnUcPLkH4fPmTt7CGxwmNaWADYSEKCCyeQLSlWqM9wAuOhEUUdbexTUDNeRAKJKHbVUs1DLMEH+/r5Ku/Yd1i5aNHswvhNnc8N79+5lHfu914Jde3Y1pCOH6qpkkvHacsfnvy0sVa467X+ZOIKyUIG169Ta182zy5xy1UudSsR8fXAq/QK7du2tuW3bjn7nz50rwWVUpkzpy82bNV5dq06t/Z8qpXTWrDmjpk6ZPpnuJlbjkTkC3ES5cYbhZ+nSpc/t3bu1JuYzSYy95MxLTN8dv+a3mfM3Hofanl4JgoYnKMbCix7XYaRS0FanVOf5RomuBYi1sI3Dob0FBAQqBRrWUrLUrKj4QpSHQ6uj6q6lzY5VTiccDysAk5KejDhSZCmFTY/4AG4OmOgEG5WGS3chVXiUqRVhvFTB3kqz3K4LexRw7vex5zSh10sU0OFkcxk1avwsOLs609FGSRIJL6cKWnjOyclmZBKzhQKPQsLSi50vX54XWbO5X0eF1Qp+voHQNwFAxBvVvG1un5HwuL9T+g/ov3D48Mkj0qaNPbRGexyL/JvR30+YJOqxG+uyyzpsvCf/TXC7pnYRfgJZVBLMtvCSpUr/2rFjh6XNmzfcDwAkuTc6eQJHjuxqsn792m7nz52t6ucXoEuVylk8DsBPR2QkAH+hQ8d2P1ep0naXm9vHbfTAdFrPNk23nT57oZKdrVrPzvZrJBEAACAASURBVJTko8MGBz9J4MyZP3Zr2LD2vx7HfQvSVPcRS/dcuu9XOVhB7QHB8FPffUzS8v0CNp5HkHNtmYBdwzAc7Ha+6yBsbPbZ3JSqPToor2EvU6oKZxxUd4KPYTUBdCw5OuGELa2646Op7hLosY0pGmHGOEiVUqtqAfwezHbE76m+Ywz43QVptmVdrc70LpeuWUbNp0+1jgn8CQY6458DBgyZu33Hjp6QxFra3CL5BE42NcNLdaqRm8xdl9IcFU+D6tVvuLlhw1qbbWzsQ7//bszS27fuZSMYuTmEIolBqNN4CXSIDf5qwBwvr0mjsGBjLS7x8GFgxgH92286c+Z8ZUcHZ5VoE1WtRU0EEcDGAuDf1DCer5I/f/6bnTp3WdS2bbO9qL56L6E7YUznXbhwvcKGDWs6b9u6oxU2NFeaAYxrS4cY70kPPtlbuJdfpcoVDvTp3HN26Sqlz35ML/6KFSt6jhg+5mdZrEPWpONPaxRyoP+jfXuPFT/+OKVbcp73Y3x3562AeiPGzNr9LsLeIhAuKR3CaoKzYBLcIkjMqZCSkW5qq6v5CJTsjKujlj9qx1kifu6HNVitXxdFSeOqhDDkxZWphruFI46HJSW6GdD5eVybDf8WG1CwjYjr6uBll+fwvgzbCTIeQmwuKJqRwyIsvEmpHJ5NXDRbP8Z8JvYaCQb69Omzhy1ctGAqAKyj9KAKLvKjsX2JMA8mmeBSCycalMpVKh756qshXjVqVDlH1fHRoxcFGjZotB811LMSoFGVWEhPBNj9/HyUfv37zpo6ddJ3camaD289zNGmo+eR27ce5JDxeD60rNCqjkUvwmZcEJDiIQMHDZjet++gJcnNaSdPf9nSSd+sWLG2Bzam1Pb2jlHOMG42olyU8XnU0CHZf0HiZ+rUru/q1Kq1adKUCWMh7T9KVw/cw7pa1doXr175X2FWqeUhU1lRW1os3qJFC/6+YcOqmrFl0iV2wST1/Olbb4yat37PZD/EryNBktExqE2AMeXXZBVGmJFXpIvO3FYX2qAQoSBfIZSmA8PONzhIyd0Q3Peq5RUfvHsy5yyMTj6ZoaYlbVV4zDgOKc1jZ1rHFmYT5iHTYY1FRbTwOVCC0yyAK1gFOgt/YpwO+M8Z6cYNC+QY0yuHlvkIMbj6kjqzCftegoC+ceNODySZTLx8+Uou2sTSay0kKbJ1qJ6DRaYEoa4XCBvePXr2nN2nT7cFpk0IkZZZqHXrDntfPH+RVXZApWSXJZMDA/2Vvn17zZ4ydfLIuFTqhw99crTzbHzsj6s3s8JpJ+4ts8tkCI2fZcqcQV+qdJmtI0d+M71IkfxXkjO5eKm2K1euabt8+apv/rh6tQDbNtHZR61G1SYIKtXmlJuOSueVHVrVWDc3wVy5ct3v2q37zL59u63CZwEJe02xnzVx/LRJU6f+8B3DmcLbDk1JzAMWOUHPwhRz5sxqXaNGhYPJvVdSv3//uSHb98t3LT35vye1/EF7ZrqpDmATIU7EvEU42njx95JVQtyYkCLPEOW6GC+jLkCwg0ZNx1oISkwB8NY53JRqoMSGOtorvkh0IcVabIBqsFw44bRik4kd6HGF2Uz/RqBHCBufJBn4A4T9r8r4cNSBJtBZvdYKQLcFl6N0eqf/dSvl2hyFI//x1NV4gY70yXy9evVfceny5XJMBJEdUqiacvEyrZCLmjZ5njzuz72mTOxbv379XeaL4saNOwXbebbb//Tpsywi3xrfo0Yg4t1YlFTje3XvNmvajKlxS3QAvUnj2sfRky2LagLooqrT8CXQ61yoQKHbPXt2Hd2+k8fmpC5OIW0gMQ8d+q3imjWrB0NNb8JqJaCWooMIiBHUakBHlU4waYZIoDNZRqaSvk99tRP2Oz+vXbvmKWga42rXrk6NJ8l18M6evVS2UcMm5whqtTyVmiASgvit2lnGyjBy5LeD+/TpOjc5c5Gc7244ebvjlJ8PLH3qp4EvTC2EaWephmEx6GhAN867AA8PKfyo5IvDaKuLSANJKhHg10F70QejvhxCWSTAVGzvodii1NQ7pItaCOad+j3hb2caLH6IJBd+zBRWk4dLjG1uKtGVCGopFINqEo0e141AHj2cWKJljyWiANlQ6LJDkUzt6me225Cc+UzKd+MEOsCbZsKEaaNXr1o9iBPAzClZ1VRUQDEmoQQE+Ctwcl0dN27M19WqVToa00Ak0JF6mcXG2s74It87ZIRE79cnftUdQG/erO6JB/cfu1GKqXRHcppVZw3j4l8NGeA1btzY8ckhKKChRI3du/e02rF9R/u3b3ydGMaSvgACV6XR0h+hNppQIwicTjX5Qta+42c8V1aBpROS/gtj2eiAho3r72zatPEG+DHYtyvRJB3c37F8uYrnb9++m5/X5tyqURBVyyBrq0ePbpPGjRs1OikLJLnfwfh0E3+5MGH1tiujfEKQCagFxZiJOACGBs4Zg6S4xnKjmLzysugmHXEaZo4JwEOLgfQOCgxQUpcopJTxbKZ4ozyVFUJslLSR3AToDSfHiPF0LD2dILpE16LjdgzGwKAT5gN5tGr8TkffAYrKROhg1jL+j9ZR/Mga5KAMuFv97Kkn98hrMSE5azMp7yROoG/evLfpuLHfrXj16g3qPal11gXgAXIpPcNBOsmTN9fDiRPH96tbt+7+2AYRBfRHz4Qklju2mB1MCENwsNFnT5kyns64WMNBVN3jA/qQrwdOGzt2zFhcJ9GFGJ48eZJ78+atjbZu3dX75p8384p6JZCStrZ2Uf3XVEnDxAnVvyCSYxAvVUsZqfFs0V1GLWRmTJRRa8BpsbgF8BGtoPNOD4mUI0f2J63btGYkYGvBggVvJOZFMgrRuXPnFTu272nn6Ohi1JSobTDkBo80gOTp2WrdhAmjByJ5511irv0xzj15O6Do/E0HFv967mnZCEuQpQxILhW2sY3IN6A0Fk61WA7hrjOx29V5V80ihn20KAmNyC4SStCNEUAKDAxWrNzSK+U7tlD0jg6KNozqOtHNAhQ4j8QZbs4AON1npkBPLMijhiyur2ZDMulV4X4Nk0Ik1WhtMExwOdCYwhllp0qnc7hUr4Bdj8oOmn+sL4FYr7FNMAbt1Naj/dYD+w7XYlxcljaWdrAEOpxMPjN/mtq5UaNGH6jrptdWgd7+AFRut+QA/dEjH/dmTetBoj/KHIdEnw6JPiYxQCfjbOPGX9quW7ep752//ioENV1LFZuhK5ol5JbzmaW5QbDSfGGqKP0MZOOhOk4EPo+At99K2usEvahTD3Wf/6ZmQPMnDJ5idHkVXG2WTOK1c+fJc6t9+7Yr+vXrsxRjj5NLYDq3s2bNGjpq5Jgf06RJL8ZBR6eqRSDyAIporVpVz3p5TemRO3e2Pz8GeBNzjfVnHnvOX3lw8c1n/o4ae2dRZ48S1cpSJVCpvnH1iAloUSq72U0l0BUAHc2MsWGq5bH5vExNLdi2sZKxQH5BtaYPBTMiwmwEugAkN2kzoMf1XOZjk7/zGkxxZrqqoM0IU4B+A5XtqjUgpwOOwkicY4+xZkMXvhrZXcd1zmnnlRy/UWLeQaxAx0No9u/fX7tvv8G79GER1qK6qZF9xS/xdwIemV+GrwYPHDf0m8GTMeg4mQ8fV6LXOxkd6MZb4wVTdR/y1cAfUAOePO94ucV4Vkuo6ZXWrVs77OjRYzX8/QJsVM3F2GDBWGeev1Mic5NihCE4GFxqVJwhjZae9XLlK17o0aPT4shIS/9Vq5YNPnf2Qnkky2j5PUohkZKLl82QH8HOe3ADoTYgykSLGvaC1KOvU7f2kU7tOy6s26DWvoSo8yDstMQmusXJKZXQFMTCFoUz0AgCPosSJYvdmjRxTLeyZcueTewCSc751DbGr7w0Zf2+E1+/CYNEBbhF7X7CAlqSQWg8HzqgTUFlDnRziU6gy+KcNN/CEM4KxftIU7m0UrZuHcUXwKdKL1LXGBkxqu4aagNUCmIRdbFJd/PPVScf/Qkq0CNZ9gqqO96m8ANo0ZSC/VywzcOMCFOcw72VchnsTnYvk6Wdm0bzSSsbm767GB+Tdl/DJi0PXTh7oZyVsXOIVNslr5q7MRbk+sWLl3/t4BB/Ct6ff94t5Onhue9xHKp7/wG9GEen1z0e1d0U6OrGI+zj6EAfHZ9Ef/v0rdvw77+deOLU2bZPnz62dXR0Fqq44OfDsWVahJEOROHkMvaBE85ESHJ7B9t3Q4YMmtG5c8d5skAj5s9u2ZLVXebOmzXu6dMXadXkHaiWePH8N731spQzQUmwC00BJBduBHTspUuXLrxqtarrvv564I/xqfPnzl2q1LBBw5MsN0UCEW11wZBjEgccnXny5LoP/0mPWrWqxeg/SQ6Y4/ru9eeG/N/NWLv3wq2XOYJt4NMQkhW2OWvzAYAiV5xmoMkqjJ2ZJr3vJtKfYMXcoX+6eDeihRfqxAVDjddlTqvUaNVMCYf6jmRpJL8Yv8ckGppXTFtlPF40UYw7ji6fMSapLjZpbiIIr6nxetUU1SB2LhJbGGdDFZoQodlB6wvzVoq7WjxsWShbhypOmtOfau7Nrxsj0A8fPVepo6fHEUwIatKrxBhOCkNKZJoR7JkyZPKdM39B2xo1yiYobKMCvd3+uFR3I9DjIczQRo8B6EZ6ktEZF6fqjhfmsHLZ+uYLFi8Y99ft2+6ymIOpbU0wygYL0t6W1WhEPzgHBwOScPZ8990Yr3LlYu7meu3ag3wTJ46aeP7cxWZv3ry2YPENeu5lDXs6N1noUU3bVevTScBzQ2Gp57z58j/v2bPnBHjN2bAhRnX+/Pnz5Zs1bX2GTjjmFKhkJKi0II0Q6DlzZXvuNXkCKs9UP/BPLSze59c/XlX+7oetOx8FGlKFItASTCemBmxG2MsEuiW5+SIc9V6qxwd0ZrNJG50+EQs8YziLQFKmYg7DkJ9OckwYwFa0bk0lddECSiAuGgl/gJC8zG4zAl314EevGWc+PzFJ9mifiVg5M+JUjm04xDjXiZaZkbDNrRB2ozcgkEw5Hfn3vkouW+2bxu5uvVtn0Wz7p95HjEDv2XPA+j179nrygWRVTkovkVcOm5Kfe7bzXD5v3k+94lPZ5YMkQqLHCXRzG134TYXXXX0UE6CPw2fRKK44L/WWLfsqrVmzctDJE8erwxmkEe2QjS2apcSmZBCps8b6cbTFSQYi4OEXiCxTtuSvzZu3WdGuXfMd+E6chf+ovh46dKjmutUbB584faKq91sftP1Wi1+IWuTkQxurxtAE4BxTIkhWH3P7qZJWrFj5TLcuXefXa1jjkCk/gc9MoDdu1OIMHZxqF1oW2lRFGIsz5Muf68XkSZN6VK1aad8/tbDY83zF6stjlu06N+ydwQrpo3A8UvCFWio2OmtUYWFVW5JL3ivvAkDmSDcp1qi+Y1Wyq2uTGwQBDI87cr91rPSC+Ho4JHoINKi0+XMrBZvWVoLo8IuKzqk140RCDM0bM4JOfNLdFORC7TcSZii9yZ/XC9UdGiF9AJToAHokNUG+E6judrowJQ06tVVK67StW3HXLmmTWUkpoe/zA6CjmWHmunUbn0Ejg6yCP41dUDiUoFbSiUTJkz5DuleLFy9uWa5cwhNCEmKjJ1Sit2hR79T9u48yiRLNMQJ9ECT6aIYwouLTlxBv3rBlW8c9u3d44NlSswuLSITB80XZjQAfDxkKk6FEY6zfkDNHtuvNUIa6a9eOaxLb6BGdXjJt3Li99aaN63vcvv1XQS4R3svayl547CWjj/Mr4sskWxhLPnNxsfpOmjQuIc1btFzRtWOHDUVKFCGdVhi8J347U7Vxs2bHOB+iwYHw/DN0jJpqAHqhgvkfTpgwtkeVKlX+seIHVx4Ysv+wePOWY9efl/TXWitBFmh9DVJVWGAk+qtZK7ZAWzjAaRD5Ee8PcxKsOe5lXF1Kdb47azY5hG/GEjsHtQRGcDTs3+dip1Tqysoz7HtHvwveLTZ1fpdONAvR4y+6xz822zymDUAksFBNJ6cdoOamLSvOsgoONxMh6aG5hUOih0eGKHZwvNqE+Sr57KyftKySpWFta831hII1Oed9APTly9f08PKaOj8oKBTFLGHriER6hgnUCaJE79yl89I5c2b0TMyNPyXQCUSZKccxg5n3w7Rp4xleC0ZxyLyLF67qdvS3Q23uoOoMzyWoRBkmHCyIIWPe/K6sgiNj5QQNJbqDo0PArNnT+jZv3jRZbXZu3LhRcPv23c3R9qnvn3/eyOToAAcaNlQmCRHgvBcBy/vyc7mghS1LaiXG6OaW6XnDRo1/adKk+bqyZQtf+nXv0UZNWrXYLVpGGYEu4vkAOkNOBQrkvTth8sTuVStWPJGYd5acc3defltv6txtvzzwDncMQhZZKForiXxwjI+SzhqSlyCmlJc2Op85CtjGf5gD7wOBL4pGwvkFI1x1sKmsOT3ebyBAVaRNU8Uld3ZseFDnmb9u7NYbEkihpYbE4jricsqpQFeVEAJdhPE478aUVQoRDZh/UDDwk91nULoM6rsW/dmcsUc3KJH7+35ZlCl47tjji8l5CSbf/QDo3347bvHKlSt7RTGTqOJQPGAs9ArDexy2ctmKBjXqJE46fEqg82WoXUdDhMo7dsyYsUOG9p+5cuW6Dlu2bOlx/tz54vB+i7JSBA+fJyrLjc38jN1RxULDf6LEs7GOHDcEqve+fu8MZcqUutqyVes1np4tViYnJo3xWu/de6Tytm2b+h06+FsDhPYQToaUg9quNmtQcwb4O/9NVZ/PJpJVwLijxOLzIof+TvceXeej803q+fMWjiZZhuYAD74yVs8hQ65MmZJ/eE2e2A0FNn7/SOsmPnBYjl56YeGq7ae6h4ABF4ImCmFY4PR4kz2mhTrOogzC623GdU8M0EXuN2Pq3DSYh08eA6MYemyQ4XrFD2p0pkolldyoPKMn0BjZIG0Z4+FmIB2vMT1MQiS7BDqxolaVpRqlRoDIuKO3PxK8iUg8L30TrIZji881iBRg61PKuKXe27OEY7d/opd6NKDj4ewbNWp95OzZM2VlEUdOomCBYSJpQ5YqUerS4d/2lQEgEkXMJ9A7eHrue/joedbY4uhJUd1lkQuCgkCgRCxWtNA5WwcH/bGjR8sB1BaytJUsUGkKZtlqSdr4XAh8yaJXO2mlVO8Yo6V0hOSg+VKpQqWL3bp1nNLao/WuhPooYllMtgcPHqu6ePHCb48fO1lVVsWRDSXes+nemxRyTGIzQGgPr0Fvb2+r9/EJsHFGeE3m+fNdUQujM65hg/q/jh8/umeOHDke/kNAt285cvu+S3+9rRIA8IXSKWiUfrTIBdDhjRbyj5piHLQt0zh7TGOPoEONeenwScAIExKV5aM0cEwGkpLmllYp07COoqW2g7rvrB8o8uDZwQXnvc85U6+eEIDLcahAV6m6lgxrMpymjkBE85C/o7aXwvisGF2hiQbYiC6xAHtWW4O+V6ms1Wu7apJVEyEh7zTaFF+/da9Uh7bt97548TydatNwy1U7mXBRUW0fNmzI1HHjx4xMyMVNz0kI0AcM6D13stfEb+MLr5na6FL6ynRVGcoiEJyc0RyAoTK8WFab4UHpzHMl8YWfSYqq4K2bqPIyx1vEbqECy02BgIdDTF++QqWNQwYMmlWibOE/pL2c2Hnh+czz37BhW/v1a1b3+9+ffxZgeIwSW3XUWQkJLk0O0zJdwtY09mYjoUklM3GTUkNGOvQkY1y5e7fO8xC2/BpjTDTFNinPs+2qd6Pvpqz7xUdvZxsM8IWLLC/KWhxc6KSKIhxFCUjJF+Upi+FmcQFd1IOlL44JRXhOAl3QYyFVNUhwCeUmA99SEXjf0xbIjYYPND9J3YYZBE1CrIEYS1i9H0hcwCfQWWleVd1VWq0EOk0SPf/AKscgR7EIBnPjaV6I/Aw4t50jfJX2RXPM6JbTevinVt+jAX379r0tv/lmxFrQCG3UCQTIMSEi3oiFTimxZf2GRrUb1d6b2AWQENXdCHTG0ePIR48eXpPjlM4ssZbo6DG2GJZxf4JU2PKgnRK48nyquHCsBaHYogZ567aUiPwuJbtwbgkbUOWuE1QEnTBlcHDDSJcuw7s+fXv+1LJl69Xu7pkeJXZeTM9n88m5c38eunPHznZwvqUSpaEAYNGf3RiG47hNyDWiLr2k1FJT4nmy2g/7sllaWxlGfz9yWJ8+vWYmZ2wJ/S7WjPbrRcdXrt93uWOoFYqTMLRlXGVCzTY6r5jtxYO/mzZBlEUc5P3eA01VIE0XLIGudk3FM8MQJtCx1dHjJqR6BGzyoOAQJUup4krB+tWVd1TvEZXglajk83vm9xNjisNuN/e6MzxHPLNpgwjXGTUXIc3xb/q4whHyY1lzC2OYWggO1pND19Xy6awPDqnk1vpTe9+jAf3npav6TZ44dS7UXwYcVRICgC5isljk1ta6kFOnjxfKmjVrogs3fCqgM5Qk7VipmhMMjCFTzZYqvfSsi9a8AD1B4exs/6ZipYoHq1SsfgA7vOWhQwdqX/n99wZv375zVjuqqgfPJYuNgCL4CS41e031C/C+hYsUvdqhQ+vVDRq03Zktm8v9hAIjpvNO/Hah5qZN69ofOHywJRNq1HCcmmfPhaZ2W1VDcLTDCXyW0xZpv8zNjiqhHaHYO9qHzZ0/u2PDevX+kSozj18bMvX7ceP2K4/8ygRCajNOLtR1okuAmr+yzJIKdAFykyozpsCLDriYgc6QFsNsOoIbDjk6H0UlGtYGAPAC/AMUhyxuSrl2zZUg1pJjlIUJrgSnDZsyqu85oeA2f18RZFDiQ0s2l+DzkKSEZ6Q/goclyUFsAIksPS3CfGEMFzLJBUw6RwM2IZ1PSNsa+WvUt9N8UtZiNKBP/3Hu8Nk/zZmKhYtyyWzip6ruVIcYR8+ZM9uDg4f2FU9Ki96EEGYSItE/iKNjounskIe1NcsdBwj1SLDQVFqp+I8bF0HKMk9FixU/06ZN65/Lly9+Knv27A/4/ef3n2c7cOxIvd07dne4+sef5ZFRB36GOkXcUKRKbMqYk9clCO3sbULR+OE3JJksadSoNktVJbm5nsHX4Lp+z45W69dvaH/pwoXKKFWlYYqsqaOOkltqKCoNk4faUICbgJW1Fi2ds99fuHBVo0/ZY9508W864+3ptWDT+ifBSFRi2WNIMhFm4uomDEX0AGq7MSc8Sm03KyklKsOY8CPMqbJiv+BVQb7huTqWgmY4EdaJ6IXGODYz1gJRPBIAL9yigeKSM5sSytJSEF5hxg2TQI/L2xTnBkBAmwEduSsC5IzPc1xWcAxakD4NeyUcwpLsfp7ggOw9x4gQxSnyhVKzULbv++VN9Um579GAPnHyjKnz5swZIbyIIHGI1kksRg9O9zuftwoIFyd379le15yIYr7LxfS7CvT2YMY9+TCpBV8IDPJXkmKjywQOgj0MO6cKbumpVkMolOKSdZbZLZNPp05dJ9SuXf9AbIsfxSfzbNuyq+XSZatGAOzOIszFGKmoC69SYyWFVZBe8FJJUOGmwHtBsgbVb1DvQK9e/aaWKVPoYkLmJ7ZzyGvYuGZrk5VrV4+4dfOvbNQqqMrznpJFJ/IOUMpK9cbbCNVdFOREZdTadapvW758CVsqJ8p5mtQxj191derqvedGvGZbJGgYlGaC820sAsneZ7TXEw90IXe55aoQp8ougGb0RwDoorusqBcHe53mFtaEDtlrPqj6m71KKSU/Wjf5I66tpyZGk4zRGqPqHdPzxiflpSOOM4s6E8IMibLNcUE+twVMQGbohSGchqEA7NzkNIpdOMK8ALqdzl8p7Gp1ZVjlbHU/ZT25KKCD0OE4adK02evXb+qqFi9gM3rGHaF+wLnz1vu10pRdTjetaY1FE2+yiPnExQ50nondP5FAv3fnoUqY4c4pbGa1kL50sjE9kx/L+HPatOm9UdZqd5PGTdagCeHp+KQtIxCXLl0ttmzZir7nL5xt9Oa1j7NKK1UZc9KpJ1tKcb54LwJebjRODg5/9+zba27Hjl2WpU/vkKyWPGhMUXjZsjV9Nv/ySxfQkO0YFZGHpChzPnx90NHMGIGgCluxUqWjixatbRpXwc2kgtr8e3+8Dsk7ZcGR5Yf/eFwh0AJRECwebLsAATVD9exwqu+EKzK61EPm8au/Sb1EalIy1TfqXDrTxJ4VvWCFiF2zXqEgeQHoTJ4hRRYbQUiIj2JlFxbR2LOtzj9VRuU5ikDoXFyVYGxCNkxaMvqjoj2PSWiba8w80B1Vhx7Ppmos6jZkniTD0lLCQSgcd++99DpaDHgOLf6RXu+n9K+Qt1799JoE0cmT8r6igI6Hce07YPCcTes3txeUTGPjOwKdQyQzy7N9m7VLlszvmhQP88cC+qNHj9ybN2978t7d+5mYQmpKlqE0l9RRMsKEBIbaVrBw4Ut9enaf0rx5E4bD3hvfCZgxzIsFstsqL1669Lsb1/9XBrawI5ls0kanR1VNqlHzzKW050Kl9H/9+iXAVuF23379RrVq1fBgXI7G+IaDsWh+++1E9Rk/zhhz4sTJqkwf5sZD/4Hs6+5g7yTGxs1GdnDp3av3T5OnjGHlniRXvY1vbPz7vP1Xvlm29cL0+z6gIqNYI51hYAIIoGuMSR+RbIFEkokR6KLIo8khgR7r/UzMNCFx6SzGyfRwC1UfYBe14rnR4z9SY8MD3ygVi2S702VA/8m/PXsz77nBwuE1NDEt6h5aQLWW1WZiArqU6jEBnftNfP3UY9IKoq5J8EPCp4sMUDrmTDOmcwH7iQmZ56ScEwV0b2+D8/ffD5qzYcOWTqSHMlleEEjUfUoks7Tr0BbZanO7JCVMQ6C3a9fhwKMHjzN/EEfHHSjR+w/ohzDQuBFxhdeiAV1QPtXOJHJhS/aYpZVVRLFiJa6XLl3y2NixI8iSY05okg+8HEsUmqHNngAAIABJREFUhey9efOWztev3ygJsMPfQ7XM6MuAhJH2uvTUC28w1Gj6DMibqFGz6pHevfv9VKdOVWSaJb1eHDflSZOmDtqwflP/58+fwXRPg/ejhuDUNFW1xr4wKbDhpU2dNmjshFEjPTzazE9O3D+uySO3fcSUdWv3nX/SJNQmrRKMjC3eXwcNh42RVdYYw2lGoFOSCsv9PdBNQcGzpbZm+rn893tDRC3wyOoxIplEdHOhI44lQ1CrDfu6k1VY2OivetTrVDHDmdFXQpZcfPa64ztLFBIBeqXq/oH33egziI2yRpORR3K99no48VJj/63iHHHZs3rOxgU0mhdJXqRxfNFUolsP+ebbn9atWt+XEp3eWy2kVCR2R6rulBr16tfe/8vmtc2xWBJduUUFersDjx4C6FGlpFRtgUdCVXcCvUXz1qfu3n2YUeV2q15xkXjCWmT2NqB8FrhbslSJX1u18lxUokTej1rJg9Vsf/hhxvBr167XAGc9iyw+KMN83BxlBR41hq/msYumCvDOw5Hp06p16yXdunVenydPjqvJeakb1v7SdvbceVOuXPk9B8J8anRE1I0zqaPHVArct0iRQjfmL5jlgbn5X3LuGdt3T98LLD1mzprt1574Z9ZbpgLvC6YM67WxZzi/xJi5cbVRzRZSVFSaee8mMgd6XONUgS4UdnFahDGrTQCdDRkBRDroLELAK8/i9GjN7KFlcjlqXi1+ZBi+4+Kf0/zs0yoBcIox5CWTXMQwZWjNqLqbAj26dFZ1Dwn0uOz5aNc1eSh+x4D7O0YGKTktfF63K1ukS510mk+SeBTNGTd+/JQJaLU0mmQZpjyKNE1BFdQIqVSqZLHfjxw7UCUp6mc0oLOUVJSXWH3yxAG9FYD+AEAHIcZYEEOSXlK5pvIf9tXXo7r2arcyOVIzrkVG+33hwpW958+fP977jbeDiIvSjhMJEiqbTn4matnhb6IMNmulkZOAhVi2XNmLbdu2W9iqVaN9sPeTbL/v2HGo+eTJ42ejKk4W1VHnKHwIBJmItyNaojLsIpVevXtTY6IKnyztJqa5WXb8UafZK/asfBEYqQmEWq5DrTQZohULnfFlASI1d0In6v+rRBrTQ9rm8jM1Qy3mg551SahR9QL6AtCjnO8CtrkOPALniHdKg0pFdi0e2dqTmuJxgyH/uiOPT133CXNVnNKpCUQxHiqQYwewugXQsRbTERfwTf+mwzuyighSXLS++gZ5s3n1z+fEZKw4i7jEtTZjnSvTPyxY9PPXkydOm470TR1VE9FcAVPJiiqUFlmzuf19/MSh/EmpEU6gt2/ncfDhw6eZhOpuCnRRM45e977xMuNUiS6BDmccbD+CR2Z65XDP8XzKVK/2lSuXPpaUCUnod65evVepQwfPLa9fvkovw3di4RorysjrsIgENQ8ZxydXnWYQTY20aVOHFS1c9HTbth7L23g2Y755ojUl3ufkyYu1Bg8etPSv27eyicaLOGTdfRtb1DUxLmZq9LPn/NQKfd93JPQ5E3Kev8GQ9vufz0/bcuRCV39ISYgIxQbOQtaEE3VRGW4i0LkJ8h9kx4mGkAi3mfFfzYFubrNHAxBZZqoTSRR5pXTXAtx8BzQYCKBsDmEvR/RqOaJd9byreN49g8F57aWXv/52722pMMc0Ip7OWLzpITekuAGsAp213OWRWKnOkVOz0SCrzRq1Vkqkt73Wp1S2pvltNQ8TMu+JOSfadrRt287O33zz7WI/vyBrOpfU3liYCKhDghdsYYjcu+9wcfQNv5aYm/DcWCW6UUUi0PsPGECJQwpsrMw4c6BbwOnDCZZJHwUK5ns52Wt6u6pVS/6W2DEm5vzjx3+vMmLE11sf3HuYRvgyjP/xGlF2JGmfRlYd/y4488ZqODIawM+cnR3869Stt71Llx7zkhqO27Bhe0cUl5jx4sWrtKIwpDHHXhS5MPaf43ssX6H8xV27tlZIrFMyrrk5di+s9IQFO1dfefA6XyiIIdQsGMNmCIzhL8bOZacUtdEB67VxTyNrjjL5PVg+TEtVtSVzMPEbwhkm1HepMTAHnNdlIScLZMgFKiUy6u6PGdajW5XcjseN78Zq+V++Xvv+ejv0OXLjI7DxilJTLAMtNAx5J3VMcjxyDFE2uXHdqvXi4j/MNwH+zm8io0JselqLCCWLVejrnkVztqqZSXMi/ism7oxoozx69GStvn0Hb3n79rWzWncM0hJeSdrodHTQg7xm7YYOHh5N1yXuNgT6n7DRu6g2uqlEjwI6q8D2/2nKlLFxeoejA11tGywlOn9mdsv8Zsb0Hz2q1CjzSXOvT5++VqV//x5bX/39No10fElnXNSiMFJlzV+ytOFFv3isHG4C7CabMVMGv06duszu37/njKSQkuAs7Dn6+9GLQGHW0g8iNx8R7sOCJuhZtWbl8mUdmrZonOh3GNs7X3/6Rdfv5uxY7h0BT7u1yqYM9/VX7G1sETuGv4D8AoEb/A1EGQl00mNZndW8lFRsktFU2kdtDUYvvGhqymIWjKOLcBjYj+CSd6tbdFFfz7ojc6TSIBagHseDDVW2nv973U2fCLcAOE/CWFveBLDqeIx3MPHyi0/lnpMIoMcEcnU2cD1QnOm/4YVTRfgpHYpnn9wxpw2LpiQqOhQfHqMBnUSRDh16HEAOdw4SQUQlU8YJ6bDAQLy938DO65XoXHQOgkDv2qX7gRs3bmVm7rVUcVkRJSDQT9yrXv16u4YOHTC2ePHisTqphNe9WctTjx49zcjQEp1PMpWAQIfq/nbK1AkeiJX/Gt/DJ+fvp0//XmXgwEFbXr74Oy3NGj4Tf9IpyI2Mi1Jm1qkdVBjPhYqGECDnk85Nfkd2quFn/Du/X61alSsenu3nNW5ce2tiAM/IyZAhvZYe2L+/FdVmSlbhEKO2gfenlptWlEKFCl09tGFvFU0czSwTOjf0to/8Yf+SLSfutlVcMqBLaqDIzmLF/UiEIRVWe6WvQIhGAJ3FEpmEAonOQooq0OMNqn0gWSXo+M4FfwC9BehLsgb7jLY7q8G6Oen8x3St06t99VwbTZ/naoghz9bf32y8+NyveKCVnajnJjQtZrRBExJOVBlNifLGqQiPYuxFRdZjUvvjnj3TyAGTaoKRG29v76DYhvso5TNZnm5bKmvHorYawdb8WEc0oGMAFp6eHQ8cOPBrTRZKpCSgRJf8bjrkihYtcu/kqSPFEuvoItA7tO908PHjZ5lI6FDroFN9YTcReM2NvdIqV6lwplevnlPr16/DEFTULiwfWAL9yZPnGUkaUXdiTrZaaCFHjpz/GNAHDRq09eWLl2nUss8qd1tmuAHk+sJFi969+9etbAGBAbbckGTtOVGxx1gsg+w1bgica8l4e/XqFVtb6Xv17jGnX7+vpyeGbHPx4sWKQ74atvrmzTvuglCE+YkqaInxUftwcnIIRwZiVzRgTLZUv+RtyDpy8roTF+8FZIuwc1VCYW+ytrkNM8gAmAg45dS8bEGNET3SWGYJJF2V+y7EZ8xAF+tDUpCNktRcOhKUapRILYYZySQfSkikgRbI6vh0yleeLarltI/GTsQ1LFfcjRx26M+HXk/RHDHUQjX/yEcXar9wXuIpaGJAq1XHED/Q47PRuT5Mz5Heftazs0TVHatIfyWXi/5Ry7I5uzZKpTn6sUDO63xgYIwcPe6H9as3DEY5Y0vhOYbXXaR+IkyiqqgRhiULFndo1qbx+sQMhDZ661atDz569DCTs7OzUa2E2oTkEZnvrtqwaErn4BBevUaNnXB2raxVqzpJJlFqzMuXL3PWr9/0xB9Xr2Vyc3MT3zcFunvOHN5IyWz7T0h0Av3xw8dp1Nx9sL5YtcZY7w1UW+958xY2/OOPK+V3bd/W5+q1/+XhS+YmJ8NfBDzHz82BmwA3DG5WlPTGUtCGEd8OnzBixNBxiZnrmT/O+X7CxMkTeV0Wi2RyjzCXjLFhah51a9c+tX7TqlpJdQDK8aw+7e0xdvbyDb5KKgUGAwQ0QI21wn5jllhddLbRRo8k2I1Ap12tY3NEjoexdaNElyDgT6kimzvnoubBqFLL7DU1Tx9XhuPYBje21wZHNqxYcOW8ftX74hofuNZ/9TZU3nb6/q4bIREuQSjnJa7DlYR0UgpxtYDHe3hEjccIeBHaExsRu7RE9yOYAzrOd0caLvvPhSC9GGE2O52PUq9ojplf53Mkn+Sjqe8fAP3gwYP1vx05es3zZy9T8+FJ8RTljRCf5oMxJ712nTr7Nm5czXh6gqmw7OHWpXPPvb///rs7JVdUKMoo6eQi54KkY44vLlv2HM9bNm+2ql6tWmtKlCtxC/cz3EI3VRA/Tr78+1VmAssSVEv1UCW6e85sALrXPwb0J4+epGECkLg/HW9475SgoNz6Xv79Sl486qsDB45V3b9/T8f9+w62ePLkkQvps7IgpLAnye8w5s0zS5AHr8G/5c+f938n9/1WVeOc8IYODzFHTdu0OYM5z0CmnHQIUnUnU5A/06XP8G7Nmp9rFitW7EpiNhHTczE+u/4Ljy9ev+9cBwunDIof9jmtlTWeBzXNoZ5b0SNuTN2MgAlBbIpefYS80esu/EAmq/ADp1csgxPmPb5ngUKTIqpALQEfcmNAPR4lg3VIWB+PRsMHNs4zO6ZLXA8yZNl67vGBs+/0BfxAnmFkNJxefL5LjFsfTubc+1Za5kCPYvQZufbyHvFJdfO/q6QrMPRCAXQtywX4KKWypPptaPn0bVD3/W1S34359z4AOgZi1aBB0+PXrt0oJ+qmAYgyQUItw0T+uCbkxxmzu8IpF832iWtQCCml6927z7od23fXYhdUtiZi+xzakHx4mWdNaUPAmjqssudwf9yxY4dlgwf3nnb//rv0bds0OXn37p2somKqsczuPw30U6cuVx48uP+2F89ewxmn9n7jIWuz29pa+x09drFwzpyuj407vO2ZM1dKo3LuyG1bt9VzdHQyVrCxFBJdbTfNBaYWkGBYjKYSQnC+586fLIA5e56Ylz5unNe0uXPmDafJoKavoj0TawAa/QVk6n0/+vshvXt3mZOY65qee/2tIUuXb5dcu++jd9HC+eePjqZa2LxCHQff3IprhQXV6TAlP87IN+A1mHQiee5xOa7jI6SQqi1IM+z6gpO50Vig+GKpbHY3pw9o37you83tmJ6P6vu6uyEjt995M+6FHqoAtp9wqNCizjuz2/AeRG1BY2ku9mnjQbmvgtVovJsAPTanW1zzS/8EL20j4oMsLheqZLKODBpUK2e1avaaZCVEmd43xtiAl9ePEydPnvI9iw1GGGuqkUopmV6UNlWrVTm2fPnmZq6uGt+ELpRVq9Z3nvHjzJmPHj1w5VyxzRGlGSUiVXZZJUaqmfxdFF8QTiStgtTSs+3atVm+dOmK7/+8cSMbu7uK9SIOaaPTGTfpkzvjCPRBgwduefroWTpKJSuUKSKYOE984eAaAKDHC5tXi8XfHOAd95g9a+Z3L168zK5nfTNqTlSzYSJJ6U4NCmaKkjFj+oA/rl3KD3s7UV09EOfP07pV44uvX71zkoUn5eYpgIb13LxFi3Xz5v3YLTGamem7XnfiXt+vfti0QEmVBaYdHJHI1FIs8U5Ytx1apyWTNpChJRI7QDYV9BbWVRfMODWebkqBjWkdxV6IQj07DOC0tUaQirx2ZhBCOtrofZTONYssmN6nWv+41ubRd4Zmyy++WPuXX7g9BQ/HxrFTmhHoFlasMahy72THGEnQiU2iGzf1WG9ruhlwP9Ry7YOPb8m9A1VyaLM4hvsrrUrmndm/gOUwarEJxVdc58UI9Cs3b2b3aOZ5xcfnnQvb5sjUT/Uh1EaC2O0MkAi9e/XquiQxA1m/ZpPnsmVLR1/541p+curZk8za2laN06ttfoWpYOrJljatsYYafggHoZqfGOXIeQ90tG5GY4nEFa9MzDPwXAL9qyH9Nz95+Hd6bjYMQcokGm6EKGPle+LEmUJubqljBCgBP2zocK9du/d2Rh0zJy4A2tJM1OGGqtaD0yiO9o4BFy6fzAc++7PEjJGO1datOx7Yv/dATSa/yBZTXDdSshcrUeT6xJlTOpTMl3heBMcy+MdNG9aefuaht08HozYAYIdmY+mMFFB60smoRGgWzwH2FRYO49X4XL41FonEx/DKCFs9viMuwDOcRwefyNXHekhjFapM7F2nb9fqeRbFdd0XIPr8eCF42+nHrytRVmvhxQtnUQwW6GTOgKgrJ3FmZMJJG91YBJK59aZHYqS6mmbLKAHmCTQjGjUWGuSpRwYrpTPa7BtWOYNn6o/EYowR6FTfhw3/7seVy1cNtDZ2BZUxYpkZxUWYJ2/uW7NmzRxQpkyJRMWsaWejgkrXnTt2d0S/9OxUVynRZHKK9Eqb1luX5ZkFW4/hGrxUtZGh6nHnoXrdc7yZBhu9as2Kn5QwwzZI/foP2vri6d/p+HKjEmus1Z5q6dK5+p2/cKVg6tSxS2J8z2bkyPFTFy9aNJjXEOE2Vik1Em3oAIVWFXD+wolEA53zMX/+4iHfDPt2JotGUusQNjo2JDmvGTOn9xkzZnSvFi0aJbqP/D0/Q55uw346eyckletb5MRZalFFhR5qSHS0KhetkS0QZrOA04154QqaOFCisz+62J6N+rpwaMuYdAzEGOmMiy15RMwVJCE7qvLfXBt50tv/uXNWmxrpNfG3Cpt73zBs343nP/jAJg9n/XXkeKgqO91PvCiAz/QbI95FP3WWjZZRABOHXUz2eXw2u0qZJrEK0QpcMxz9o5y0aD6hexfRq17xOg1cNB9lHcdK6/nrrwfF6jVseCQ4MNBVxIPxsCLMBnWaIRsubJRAVlo0a7p7yvTlXd3cEu84OHz4cMPNG7d13n9wXyN//yBbquyqdETdNix4tca6SnEVvb6NBBRZw068WMTS1QVMNSscDrzMr6ZPm+5ZteqnBTolOto8b37198v0ojSSMRbLn6xikyqVs//5C5cLxAN0i3HjJk6ePWv+cBF7F9JB3bj4bKwegzAbgH45f1zXiU1qkQDVzrPjIcSGqSQa02hVM4j2rJ2dTfjQYd8MRbunufFJVPO//7TvwVfz1u3/6R1IMmEIDQn7EgclnBoyE1uvqGeggkQtFCHOicZfN7F3xVnRj6jwmhlx5f1ZLB4F0wchNlGyCXH81rWKrVzar0IPfDdezvhBf0ONxQf+PPJY54AmE/aizTKsMGErR4h68ewVh6gI4v8caTCqQLKJoqUxD503iFG3joOjb+pwtGKLLiSOGVDIM5zVYjEOTWig4moRrDQqmnnCV/ntxyb23cR0fqxAp0d14OCvf1qxfGUv2JlKKMrkCnsZ0letM87fYSOFBynDv/lmwsjvvmEpnERzteFwSg/b3WPXrl3tLl+6VBI2q462O8NO3EwYulIrn6oSXAKKC1Ut9gjPu3BmqV7qvPlyvvCa7NW+WrVKHzUOaT55lOiDBn+9+fHDRxn4NzoVpXebm2EqV2cA9GKcAMV4rQF0r9mz5n5tY40XLMSbkXoJdCQX6GwW0aZNu19fvXybgVRhFWRGjQHAZArtwAEDJn07atjoxCwmjFvX5+cLW7Yf+7MZK5Qzc+xDAMd9xfdgl0CXmpnqlRe5ECwkyc3P2PZI7Wn2/jyVpc6S1jB18C97K43ioPhHju7p0alX1bQJ4gg8MhhSLTrx9OCxN6Glg2xdUXoKjRDZst3AIqKqycFCltbh1qIWXBAKuLNclRWr12CYKoU3+sFniw1YppucKIFFHwCpt9YEPISbxlYUzbBGH/nyWRwPjauc1tM5ES20Y5v1WIHOLxw/frrK0GFD196//zCLPWxHEY+Fd5ULWlYbNTZ2MAwaONBr9NiR3ydmwZieC1Ze1i2/7G67YeOa/nfu3MvG1sKiqaNfoNhYZAmnqIojJFuwpBMmiqoWPfCo4kqgP5k9a3aHEiWKfHS+sOl4L1y4UAGq+6anj1+4xQR0ZxfnwIuXLuaLR6JbjR87wWvW7HlDPwXQve95Z23bp8PWy5eulLK1cYxixnG8NAsI+k4dOqyfMWs6pV+Ci1JcehhW4qufth6//jwIlT8IgOjLKH519f1MqsKePejUnxT7KnRUkopGxNjf/65aaervJOZoka0m/HoQAvbgixdzc7q4xKtt/YSGpujLWH07eMr6q3eH+dmmhn9IrekfDqAzghIJQo0uAmDXs4caKv9aIu+D/gdjrN8U0qbPbQ6smOZEsOxIDuS1bAF0NJ1gP3XyD3Rh/koOu7CwPpXyesIGSXYzxjiBThty7qKf+08YM34awmzIqFPJ/6r3XS2LzMw2xmYBtvCBgwZM+eabwROTGuhnyOPKlb8KzJs3++tDB/e18fVFUwKQa2SbYUo8kTDB1saQSCIGCYcenXecLJoWsHdCunXrMh188aWJ7Y+W0E3KF4UfZk2a+tWK5StGhKB1VSxADwLQ88YHdEj0KZ9KojOkOWDAV0u2b9vVhK2f1DJbqsbA6AC1oMYNGh6cv3hOR/gHXif0+ZcfvdNjwtJDSwI0qURVU9OwWWzXiA38MUlDgX3jhcwJM/I6qjnADiisEYecAdJ8A14pvZpVXjCtW5Wv8HuCa9if8zZUWnDszyNPI6ysAiIR+WCjSsS0WcFWi/Atq+OQ0UfTIxTF4UjdFV1hxBiIiQ9hJD+Ja9OjCWwBTTCUPgZoI3pRIRZFTcFd0YE8k9bgp7QolGFSjyKpE6VxxfQO4gQ6v8DFMnDg0AUHDxxqDqBr2emCgKJEp23MsFJQsFp1lftAx47tFoz49pvJiY37mg6Ou+zhw6fr/DhtyncXLl2oQK+87JMlHUkyHhwG5wnHwnuL/HnWCbPUGnLmzPVw3NjRvaDCX8BL/yj51+R13zt/vuC0aXOm/vXX7YpopYRy4qptaq66O7s4Bl+8dDnPvwl0b29v50njp81YsmxZdwJd7S1npJtCKgUHBig1a9Q8s2jpvDYJ9erTpBuy/Mz8dQeudtHbpMbiNGaPxWGTmr1bs3UYO/1VhdGHSzQKPEKlDwPhhOWjwxVnbYDv/OGd69cvkjpRpZNxPadJZ16uOfPQu4mvzhFlsFCDHeuaAsQK4S9hLkBvN4g2S3he9HSTDmDRRNEU6PHY5qZORRoeFqDfhjCMLOJruGo4jBUsZnBRFWclUCnsbLg6qH7ueu4JcCzGtVHHC3R++cKF6xWmTPGadvrUqYpIQgGFWZXoasqlWpCR4Pfz9xGfVahY7ly3br2ntqrW4LfkJE74+BhSrV49v+PBA792OnPmXBEMxVImj/CedGBRdWexBart0n7n5iMokVY6fc1q1XegOOPsatXK3gTgk8Q0wkJwPHv2Yok16zZ0v/7HH/UfP36aBiAX5gJb7wrVy8xGR3gt+NLl3+MF+qdU3TEuB3j1Jy1csGCwnS1DbO+JPYyjByERpHrVaheWzlrc2tVI7IlPqh+6F17zhyX7Vl+49zKTHn3VknqYSzrRntvY3EH+lLZ5bD9F2TBWwEVZayXUV6laMOuJ2WObNM0RQ45EfOPccC9syObzd2Y+p5UP5yLXFsOk7LhqWrYKJXOEM072dEcfVdXskBqI2Y3Mn9Mc6BrkAnAta7B5yFbakUwxxlzYI2LhZhXu27FannaNk1l5JkFA59j37TvWGBJy1quXb9zJ2KKU5UPQ8URKJ6UFiywIxxhip+nTp/Vu1bLFkg6dOm1Mbsmkh9cf5l+1bUPHnTt3dr5/714m2uxq8wTkWkPNYjUcvhiGKWT+NXdj9CQTUt7d3f1hxUrlNzdt2nxTiRKFryeGIHL9+q1SRw7/2mDjps09Hz9+7Mbr8xlVDzmVR9Wxy9+lM44LhBL9YwEdzLgkhdcMrw2Ow6d+N/nnJUsRJrU3dqdRK7DQ3Ar091PqVK9xbsHyBW0SaubM3vuw/5JdZ356EhhpGY66cCzEmJzD6MYTAtJACit548af0Wxzo80ubXf+JEfeQDVbD99R2FulS6Pyc2Z0LUuSSYLVdjn2MyGGXCsPPjlxPUjJ6KOzEyQusYEzOYfOMqE9qIUuDQh/yV5y9Mir9fBiPqI87DFsAJTokuevILwmNFI6AoyxAktoKZnstfp6Bd1G9c+rzMBzxU84iGUcCQY6vz9o0PAlG1EOGiDTEVzcgcRix0REAcBYOombgb2DLarSZLndq2uPZQ2aNtmYOXPqJ0ldFLiH5tKlSxXWrNnYad/efe1evHiB/cUBkhQv2hiCU+Pr8AMzk4w1to1hN36Gcw05c+W6Vbp0md+G9h8wLXU8Y0F7pIwHDhz13LZ1Sw9k3uVlN1aZ904gs0ebrAX3uQIdWkeqcaMnzly+cnUX5gTQuSmjE1aI9wf4+Sr16tQ8tvTHqe3ss2ePtyjhU4Mh9dh5Z5fuPH27GUpRKpHc8NjgUPDME7WUTCQgwa3+mhgnnjifxTwgfXX6YKVgGs2zr7o07tqutMvhpKwx3Nt+9Kk3W079HVLPGyEu0ufFho5SXNxwhJYBdZr12+kEZMslZuSxkIZ5WbSYnsV0K5DPKYFuwTg6QrKMLeuY4GIshMFN1B73LJ/Z8UyHCq5di9lo/krKs6nrMxFH2zad9p48cbqBiBWzHZBIzVQ7oHDw7+1nozqLORDFFbDDVq5S+UTXrl1nNWhQ81f8nuQOJiCjpNm//1iNjRvXDPztyNFKiKCKcXARyyozsv851VPRQQVmBTci/huAjyxfvvzJRo0br/D0bL7GfJfEc1gfPny8wa7t2z1PnT1d+/UrbxfJ2hPaAiQID9U/ARKIMX78OUp06YzbuWNPE0p04cREbFikdpLY4/NOadOmxe4ly5d0wTx4x7cU/ngcWmjwvIP7Lj32y0KQs0SUlmw4ky+ag1VIRcbtjSQg4TSTnHeWZWbkXeRPqBVeVM7E++8Y2ZCxiEvY5ggbRsIJV79EprOe19YSAAAgAElEQVTDOjTrUjZn0sBAQbL6tjJ8ze+3pvpauyoBKBFrZweYIa9d0KvZ7hgbEtsj83d2ZGHhDI3svWQ2wtgkuelpRra/yJ9nEpBKs1Wz/OBmFPezgLM7XyrN8y5l0vWqndEm0T0P5f0SDHQumho16l96/ux5FpW2Cu+kMcymMtRUZpJIOQUI6I3ny6N3l0AUGXB2NmE1a9Xe361bj2mwmRPlMDF/08hLT/X771cbjh/nNenOnTvZeC9HB+co9Vm8DmM2mawAQ5ua4+B4s2TO/KpYyVLHhw4d9EOePO6ib/idOw8LT548yet/12+W+/vv52hyqD6LZOLxHNri3Dh4HZE9BxVY3TE/P9WdWWw9+vfdef78xcL2ds5Rzko1WoF3Amdc7z5d5yOxYVBC1ML1Z5+2GfPzb5tehtsqIWySAIqoOdA5F6ZgNwe6XCfq+yHt871EN/2uqYYg6sCrkbdoP8X7APBcdUFKvyZlxwz3KDotMWaZ+ZoC973Yxisv19z0Di3kH0reO4QIpS3uK0thWRmBHSZsdUkGin4l0+ePXalXvxPBTQ0/CXQCXswBJHqEse69Jf6dDt1cmuS2n9OnZMYkmSXq+kzgsX//8SbdunbcgcWvoTQnJ1s2S+Ci56F2KFV3ZGskGog4NyUfpIcsY0TQpEmTzqd5sxaLe/YetEBmdyVwGB+cdg+x4p9/nj1w965tfV69UiuyyjCg2GhIQjBuPgS4/F2yw1Kndn5WuUq1w5ZardXe/QdrIVMvHZ9HsPJY2ND4fV5XtndSO7a8b9jwuTrj2N2lSePWJ9DWyUU64yiN5DthbYFRI78Z1X9g/6nxzf9zP0OamRtPzV126IZHqG1ahJ5USYfAU7zkEAlaCQAp0cW8IS2XP03/Zvp3sSEQ0DH8ZCzbEhI3f2rrd+P7tGhdp6htoqjY5s98Cc+48+arJSduPWumt0Q/dRakQNIR7fEw2s/kh6KvO2ETIerTU8q/N5sTA3B5bxXooAqzyQU2M9EkUqjuKkuSc2EX5qNUyqhc6VYvX+O8Gk2ich7kfRIM9PlzFw4fP2HSVHjbcW98zRhPFymVLGqAgwuIFFZVVVPtdgJCJMUYyw7zu8w356aQw9391oABg7y6dPHYmxDVMa7FiG4qVRYsWDD63NnzVVC9xkqE35CiKVJt2d9dOtFwf5kSynFSIvv4eAsPukyuEc8EYpCozIJxyp7k0omlaicMMaosMx5JDa8lxOueVGfc4QOHm3q067iDjiXa6LIKi1roE5xqJ6fg8RNGDfLw8FgaH9AvPDIUHP7T+j3XXkVkD1SQPw1PN30fcQHd/Jrmaj0ZYawYKwgvVOfxk+E0KSmlZ1tex4Q2IzYXC2gE1uGhhmJZXW5MHtCsSdX/a+8qwKLauvYMApKCWCg2FiJ67e66didY2N1e7O5CxFYUFezOa14b49rd3YXSNf/77nOOjkgMer/vv3yeeR5EZs6cs/fa+92r18r+8+WXVjzTtdoccNv/PXhXJPYPwcd+cRGQ7qTmkMiUIyCF+VwKzY7rpXDyxOwOzN7jraj7S1KLXKBSBjpxZoJsPCfrqMdu1Z2b1LDVnktsreL63GCge3iM8Vy1ckVvSsNClJVj0Wl1ljt8wjai1bLQAReNXE+/ZbEwZEmBNQI4ISFBCgijK1Wu+GejRg39UNqILZOCfmQi/A4NKnv37qu3dIlPl2PHAsphEUwIQBHpBH87DyLlUJKeAV8ySljRqCc8CajGojRPZOcTjl8x6Cl+U4al4v1whFHHoAqPuVR04t8J9KFDx8z0nD1rgI0NklqYHyXHPXAtaFtwzJvz6bjxU9yrVSqVoAGL+qv3/ld9pvps9gxDF5bPiAc3M5PUmthiemJrp389S0xFsXAIqroI9U8uVEGACwOdXMo5PqCzeiqNVXkz2NzpUL/CkIzpNc9Qm9IoGPkhVhYao1CcQ8JBQiYk3wS3ZN4zw0y1kM6pbGojg6J0pibGRpH4uRWhyXPhwYspLwPDLELAZSm6c5wEegyTdtjumXHuwrDPPnLfCucJ1aHnEPQNjzzQ2DZaAJ219Hg/uQqQOPJEJh3UI4SZ20J8r1ck95Q++c1H/YhXwSCgY3FSdO3ce+X2Hdta038uklwAIOH3gw5Ozlfot0I3gPnwCxcv/cbFJHi+hKtyzeS8cm4wKaRVyqLiNTwU7O0zvWvQsL5fo0Z11pUoUeJkYhsmoc9ZzWbjxq2NVq7073Tvzv2cfF6aNOnEc0QdPDmJXVExeFjRrUFOTT+9aICAhVXSY2noYwVczjdHzmyPWrVuvfzGjWsue3bvbgyLv6DhD3L0RGPdkb0WfObssbyGBrR8AYVOZ16+XOVjFy5cLMr6fwS6JN1IkY2UsKpWq3R08uzpbXNmyvQoQXrqdLYjPE/47zl1q1Z0SkCL3IZiKw1scQSI6INZXwzXF+H5/ygW90RtdQ0OWKaGKgY7fTH+y3zi2Km0gmvDwxD6GqXJ42D33ipFdAgyy8zDqHqhKGU0QkotkX3C6ygOw6oAndgY00fWOfLkjUQTdWNddHgEIBymDY6OigwytzayccieOcoMLmP2NmfPdTxbfJeZbIyUIzBZCovMhZZ/vYCZxHRyUWZHfklfkxQTSSVgR2U5AIuVeBS7BMJ8zZBGUjKz9f6BpTK1z2qpTVIREnHAGAIo6K0Z3Vw7rjt+/Gh5ircEDK3PTCyhLv7g4QPNuHHjJzRtUH+dz0q/7lu3bnZ7/ep9Kqk+mtSDixtMSALYYEpDAaUpocjjxtEbFhaiyZLF4VnTZk1WtmvXZm52A1w+8Y0fzzS6detpgYP79/8+d+7cIQhysQNgtQS9WCB5gzJZRjIYSUE2ijjOGGspMMhIw2KN9vbpwt3atlnSpEmzxahrf338+KmjZs6YMYox+T8BdNPEQmB/FOgHDx6s4dq63a5oWHUodRDo0pzlWmdYu/Zdu3hOGjN0YGKGuJM3wl16zN146nFQSstw6KyMK2dtNmHFpxYXzyLwed/o43L2ofJ+FFyURqkzQURG9JlimZfvpv9dAYc4diqfK+wuGEtKJqrRtSqtBiJJUyJiDodbKCoMs2IRLeVwxYZpYaVnGYzIYBFNx8DGFPiuSVSQJgTvRUDizFukiMbcLh3Ce/E9UbaNEXFS91ZGwvF+pqgfzyGxfrw+V08I6GJOesT6opqIjq4K0CVVgMU6hM6OMZARGUPVym4Z9aFf8SxuFbOYJbltk0FAR/nnvJ3de6y5cu1KYaVdL/PuOQAOJBjW26nTpvVAf/MFmEyqHTv2lV3gPW/4yYCA0mwuRX2WL4JcyTsXhSBFdRmpLhcXmmIxDw4eBCWKFQ/o3r3b7HoNa29MbCMmdFjt2nW47uBBgxYj0CcjpQwm5vAlifMSyEWEHVZcOXAU1YNzo0hfsXzF0wOG9BtTqlSl07a22g/8Pko1TZ7n7e3BgyyuNFXE6BsaAos01bmD4ktq+VGgu7t39t+4YVMra2tbkXEohQdL7iu6Ha2sLCNGjBzVvV27Fj6JHfbeu68NG+1zZGKkpQMAzrxzqSgiDUlfuVL8d1EkKCXNWLkyCmWnjOyyoNyypAvLJ6b4JbLsuNnljD5miQlk8UcEskjNFaVS0biQoj8Mc8Y4mLU4tCNDYCwkoxGFL+QsN+abo4ClMCRFMf8b3JpNOgFmHVorUxyPQtBXZmcnjZ1DZpFTrwPnptHtq8mNDRfgnsQhwYwUlowQDSCU4cu/Y0slX/6OFTMgDg9R614CeiQRTiMnbV2i1DqGymfBv54q/K2mdf60PrVLZ+6ZI4kuaoOAfv78rUIDBvRefevmzQJS1prctRNjYzTau3dvNQsXLWrTrl3r1cqEAwN1duvWrWju5eU57MXzV1kkq7XkkhOcE2F+gtPIxizJXyqJg4ruBxdQeIOG9Ta4ubnNLV262DlDAU+d8syZq0Xnec0Zeuz48eroPGMtpbxKeiqfrxjojKEf8hUOEVB6H3W2obfzelRyfdC9e4/Z9erV2Org4PBNsM+YMRMme89d4CH51ZV8dOnezEf/J4F+9txxZMHFXakmLnidOnWuZPNmzQ/CLmGpxXi4r/W5OevRpbdP/3DrpvXVs2TJcjchoON7xu1m7Ni459qnBp9iLDRW2IGoUaAxNscBwhRLctJYAVtCQpI3tLK+sZ9BEIeR9umyQlxFLj7FVFnKMhJVJFBDjx4PcDsWloxi/X78lsJhof4BqNRpI2hwFclW5ID0QEsvpfuLKETJaDYecuKgEDmoLPMqIt1E+SaGojGqk2cFip9a2llrCvxWSIjRUZgfWzJDuZMKa8jmRxExh/uKI0QPRfrzkA6sb+Wdbzm+vsVeav/MirkC6HJxCyMa5zBwHmgpUWKqQlaboz2rZ2ye1Nh3g4B+8eK1wmhWsPrunTv5uWmEyMb1xWqyKmxYWKhm+Qof11atmn9XAhoRZjlmzpw1bPu2Xa0DAz9ZkANSpJdcV9ICKAEpih7PzaFEubFai0Nm+89urq0WtuvQ2zsxdxwSObIuWLCsg8+yZb2eP3udljq3oj6Q8AS4wtkknVAagynqg5FTMV6fRSPQn2w16qp7586d+3pcQBiLPPLZs72HkhOTzaBgpuQX/gJ0JrVcSDTWPTHRHQcG0l2PG6yj054ycKDHokULl3SkbYHcjS9KSiJJA65Oql5NGjdZt3ChFxsPxid5i+8dvvu5wJhFW4+ff6m1CYlGmSMUSGCt/yhyRnCZGHKbOCIzlb7hCQE9HPsoysxGo0HtPzPEzTMcNEK4bQAqgIwjZ7422z1EQhSHIi9zdIjq4NTs8sYwXH2O+nVDKyCSWy1JqPu6lOL0I9ilNsvMAddB9IfCLoQD54L5NOY2lhDNOVda2WVAQ8QmxYzocxMvSbJQXrGpmTDQ+XVJVJcMc8yd4awVoEsHlyj0AlefUehnTc5UmtDm5R1bNXPQbotrX8b3nkFAv3D79m+923X2u//woQC64l6T2gnpNB8+fNDM9Z7frmNH15VxPYj6MtxfFdeuXd/ryF9Hq0LntREGO1jolRf/ln6kyClKCtLawAWD3GkeKPnyOd3r2KndnFq1mu/Kls32vv6znj9/nm3nzj/r+/v5db548ZILuSx9/cpGo39fMUYpRh+e0AQmxXPq6vYZ7QOrVCq3vUXrliuqVq14KCFCjh07cZLXnHlDGQobN0c3DOiJuddw6KCAxXGDY93X+m12HTbSY15IcDjqFUh9zaTDNFIcsMxDwJzD0Vu9XqVErO2c/5RtV8cv3XpsxJsY5FJFGWvMhHEcmV3wYojSyKJy6fch2HGVfopNT27sMADJFOtkYpYa+hSiGwlcIcXC0EYRWWATXhxWsSG3E9wbABAlpRlzTgBKhivp9f1YvoBNH+j8v3CN4TdoYkq3K9piGUF0jkE2poNjdk2WXFArsPdiaMCUga5DwIwIEqKxTEijFOu/HiAJH5tSPEBs8CtjluwdtO5LQNcK/VgqB27CyEZUz7FBN5c6hbLOG1A6jUFBTgpVDAI6e4J3aN/e/9atW4WUYnlcbAFELNSHD+8002dMR+2JbgmWJGJ03caN2xps27a19ZnTZ8uEhISZUj8W4Y+YpQRwyRqv1IRTotJYBIDGOnIgNB/Y1bFLx4Vo7vAXhhC+f//RGsuXL+l6+NCR2tDBjUVDBdmtpojqipTA36KiLSUS4dMX7rWYIkULn2rZtNkqtw4tGBYrKfIJvCaMmzJ5tqeXx3dAxyYlxwQnRj7634bkoyeoo7OUlKF+dAYP9evb0e/o0WPlvnTawcEpRfIFS8E/oGPZMuUObdrkXwvzTLAuPzZkStdZB7btP3+/ZpQpep6zfZJYJ3YzkaQXIYp+cQl9JZghQEcgOSCMtWAF1hQ2Gh24u84ilSaaRjQaoWBkY6klwiOSRl1Rl0oOnREBJl+56bcA+xbs3wFLgFwGOjcCG04Q6Ey3xlyigwM15mlTa34r+psmFEY3HjwC6MKYxvx0ETojewlo0f867/iA/kUtSWBPKSGxQoWlUiCrIqJNFAyW5jiYLAH0Ypmtj/Wpk6M59PSXie3TJAGd8eUd2ndeHxBwurIibks9z+hSjBKup2HDPaaNHz/mD0Me/O7duyzbtu2uvXjx0r4Xzv/txOIStHpLhRHg9waXVKyuBI3SyogSBN/npoU7LrBUiWIHzCwtIg4fOPz7c4SspkqFaCZayuWmEGxPTL1cse6Tm/H7UsVWqepqkSLFLjdt1tindeMmmxNLdNGf25jR4yZ7eS3wYHtiiaPTxiMZuv5ZoNt8Djh93Ckx9xrmlQbSwchFi5f1ZgIOASli2s1QAUZU2JXUoXfv32gOHthTCvH+pxNbqz1XPlcasWz3/luvw7G7cbBjXWDugnGITQfwt+A43waMfM+tpKfEBXyC3BRFJVlPPRwecQJda2WLIudwjRE8SJihd5n0pR9bnCpChxXmaNn9FJed+yvQv+rMsTi9cLHSKEcdnTHrOLh4uGCPxIBzstrkbyUKa4wtkUbKCrOypEDvBefyNWNNDluNw83IeccHcOV9xWJPrwDvJBkXvwU61VyUzIdnQaOxjgrWZDaL0LlVce5aL4uxwRWYDeLoFL3RA8xn+7YtbSECIyYAAgaMUPzNmGmIzZomjRpsWbN+dePENo/yOb6rPXHiTNENGza027VzR9vnz1+mYmMHgp3pp6JQpMx1CVZyXj5P5KPD2BWCqAgraySroLYcOTSDXRRLOp+hhLsKcV1IA4xyk4Jn6C7LlClzcKPGjZZ16tRmiZOTE7vAJCnfEsa4qRDdh8QNdBrjUhvI0ceyOGS8Vnc7u8SBTlp6zvLq7zlnwfjAwA8WpB3HJZJwYHsg7Qh0RsOVKVd22+YNa5pgvnGHdOkt4Jz993vPWHPK6210SgEEiuqwYQtgWkDXFxb4eBb8O900DksA/dvYwsJOIkJfEDwTjXXU4XAyAdhT0HiL6qwEA6PTxMOESkfRXQGuVPnl+5f0uX6AyjdivcLVmVhDiQTGWFPsk4iQz9LhFRGiccjjqHHIgZr1rMaD9yRQCl4uFGqJGSVo4vgG6N9LFkxTlQZvxPEI6z4lByXBBeNiN2N4J8KjpFYVFuj5ngqRcrULZ5vbr1S6vonZWBS6GAR0Xjx27NQZixct6AegCw2KQBfZahgcOZiTU74bJ0/95WLIBtJfFBqPzp+4XGba3KmDd+7YVRtidAozLHJQEGqcQ+Ska0gQQvbBKtlN0vFOvRsMALXgmTbLFEylEg2vE00LoVpI4rkFOHiwsCfUrVf34LBhQ0YVL178dFLHq4x9HNxrnnPmxsPR/zmg0zBI0T2+ij0E+YYNO5sMG+qx6s3rd2boviqMbqSXCIzBRpaq66Jiia3luz/37q+QLVvGOA2M+uvy4IPOduKagGXbzj5rHATfszGCNvgKZUowaG/MpJYvcd7fc9VvARbPaSDq/rFDDaHDZoy0rgNn7LGOtTcxt4YLD+/ThSX0c2GXxp6DCiJKSDNqTU7rjOcR0tv4nhyoIqzYsj2I4ruIVacKgAqyzLqOhvWdZaJiwiDG25gL8Z0Wd6E/C8uYIsJL3Frf2BiXNJNgpBzDyPWALtzV8r5WGkboIHEYwRAZgxgAUtkYUXJWaMZYNKP1rS71c9TMr9U+SnDq8ocGA93L03vwlKnTJ5FB8rsUjwl0cglOkN1DT5w8VjpfPscfisXFPSzXrt3QbNlSnx7oz1YEnTNScAOQMytFHvjcr40IsMhy0wfBueRacqJbB4jHH3J+vs+YbBrYEb13rk2btsvgBlyLz3+4vBTGajZw4LDpq1au6gE6cAfGEt0JdFtw9PMG6OgJc3Rb21QoG308TqBTh0bXl/Yjho/0DA2JMBPGNtBCacEk3KDYxAQ5agOEDejfvz9iHZZj7olW69147kPD2WsOr7zyVmONGhMaK5Q6CgcHj4KxzBRSXBjyFVJCBfrazfbb7WYI0BVLMxNdhe5L4yEOEJZrMkLgitbUWmOUEiWwwFQE0Gn0Y+gpbi4wT+4n3FuJxqN9sW5/A3TegfQhwwLXFpl02D8xSNjRRTLYPVzjUrYUAoRo8Jc6uQiVSA7RVYy6sYGmD/iERiaBWoIgO89Kdyb4OTNJtWArvghINVpIO1p8EA2gp2LbJpOo8KYV8rV3zWVsUFs0g4G+Z8+emj17DNgMcFvQSk2LuRJwwhh2cpGBAwYOGjp8wExDTpj4rnn69F3mRfPm9t2xe3trtkYGMRGIJQWlMKoN8eVCZxcGITngRdLh2dpIDjBg8AvdPiQc3suWLfPjenXrru/SrbNXbH94Usd6586j/H6rfV137NjdhSWlqDKwBTTVAr54uPCwSZ3aLuTM2eN5EtKtMTZExklAZ9IJuTCbL/IAY5ov7R/Irvt84uTR73R0GjYXLFjSBf3Vhn8KDDFTkmwUewQlG9HSCjuF961ao/Km+XM9e0D1eW3InGfsfjps2d5z458E6ozowqKFm5xUsnJLVmHxEtVVvm7n+HT0uCRcAj1SKbLA6DBhfEIQE/3XzBDTptSY2zogJRZRi+aw21BiDnqnsciQHiobY14gDYhkdorPNOiKgAERTkvw69jdVo6XV7LMBJh4jTx+0YiF7jUG4NA9ypZaNNYCUBpIiGmyO2jyOjlpQhBbIcYr6hMi0USvX15c9FQook+P2LQRQJcDZaAQSZKGTEsF7BynMIDCvRYOT4cZDhwTVKNJaxqlq10o29g+BY0nGqJ2Ggz09+91Nr/XLHf6wYNHebmpWCRSP2SUBSIrV6kQsG3bpkqGcIzENhtLTe/ZsbPZtp17Wr59+zot3WNUF6REE0ldYKQbAc/IPGEBlqlLsBHkGTNmelujWpXNdRvU94W77Kfi5xEdmG3Hjj3NNm/e6n750iUnjkHplWZnl1aDMYqKOpRAWFLLFuWeTx46mi9NPC2ZJOlEAvpcrwWDCHApwk7x80ueh/QZbIPOnzzrZCF3fMF3TLZv311prd/aAQcOHayOQyZF+nT2wu5A2ojafYg9UKrsROLQc3HJf27atFl9S5RwMYgG99DzfKTP0bV/XnpWOtSIhjG4ISVTkaDrN+60WECX5/Xd8sYHdDmyG7cEmOk/Fn3TJbcZpYfoCNRvS58JfddRlBTqF11PoR8+ajQ2aAMFS7QGVnFyYr6EdK4YxciGeQjIfuqEgC4MdgA5ubqWPzjUYsDNqaeb2qbSuBR0FkZA6upsq8z+6QpoFdH9O5tELArEeQCK5pNSRByBTtuAkFBkrk7rvgncfSIsGwU2wiKkCEdG+1npQjUlc9peci2VsVNJAzLaDAY6B+Past3ug4f/qqWI07RaszAjF1/K6koZstp3bY0KVYqfSAzIhnwO4livX7O17qYtm1yPHj1SFZtaiKc8ZJQe4jzE06RJjVTTj3LsPVJiI8Ojylcod7hlyxaLq1evcgAND7EzfuxFMX337gM1ly3z6Rlw6mRFSBQQIKTYbKWjjGI3YDAK/8+01wwZ0n+8fOV83oQ4qAD6KADde8Eg9qGT3KYSB+YGonfBOpU52i8HiG6qbMiwfv2Gtnv3HGgKV2dOHg48/JRMQa4L7RHClYj9Q+6ewT79y4GortG6ddPNhtojjt78VNbD5/CeK68irKENi8QN6UUhW4KmqL8QB8gVoBviXpNiwZgBRwVYykFg6gn3U7SouMo2TgikgUHK3BYl5CE5atGiVYeElc8ofiFqOYG7UY4X6prIV4Cezzp2FIXl4CjeVzpoZPFYcHRpRkrvMwF0OVoOsoRw7SFMTnwnV4G82GOo+c4cD9qDRGEVqK3C8/AthJRAofh2m/7VpKZkfINxm1F6NAoS5KCHpLsjkAvvCW8U5hwpniVVvDVB+aw8tpr3rUo49mxsgPieJKCvXr6uW69+feZjQ2nNzaRkDnI2SbeCIQEnYQf3tp5Tp07s/2OwivtbIESajRu3VJk+beaoK1euFGAnF4JNtGGCj1GpD/fu3RtNkaLFbvTq1XNsgwbNDllbaw2uVR7Xk2ErKDR58vTRly5ero2Iu5QEo1IuiyASkWawbisVdj4GEuDphMHP2dn52tFjB0uCNvDVxDsv0+HDx02aP2/uQHMEjQiQMPJKjiegpyBzZvvA8RNHtzl35kylDRs3ucI7kcHCQir6oTxbsVEoXIMgl3LtjQL79es/AvENCw0R75RRLjnwsOeUDQHeL8OlOgPcfoSI0GFFJhjfix2o8u0cRXOCeFxOypWS1V1qq4zzVETGaeWCFuTcNLRptdI+i0ZDA3MziPdodMDgmRizjCI6j9FxtHyLKkKYOF2zFMdFGW7hd5d1YBnYwvcu54ArQJcmKXF0ERaLfUwvgw5htgyNTZs1s8bRMQdcXBCvxdylWvZUG/S9i5JKkPDOF/CV6aIAnXxd5Nbhu5LKIhW54DFgjNOfAWO0vAvq43BjhHAK2EvSGoVoquZLt2xo2bQMnkkw9iNJQP/8WZfOxSXfbV2MzjY4KFQ2+kheGhp86MZC9tmtud6zOpQs+XOlouIiF7Poxo+dOnCZz9LuAJOFCKUFUYIQ0YTkD12Xrt1ndO7cZqmjo+MPF9ETYIORa8YMzwHr123sdf/+vUxfSltjW/KAkeYriVFK00nOnVb+9+/faj6gFtvo0cMnjR07ZnhCy47nmHt4jJi0YP6CfhYIAxVcSc4yE4E92LzU91PZpILA8t5WiSegzqaU8lIKavCQFS2qcDjQGAfpJ3LkiCHD+vTr5Y17GVyj72aoLsd0n2Mrtp15VOETQKafiKLotlIEFzumSpzy+6ZE3886bj86iy1yaNzm4NC4p8LRRV42pAla3fEvWhRBYjQJD6pbq+q2B09fF7z2+L3LJx2+A4YTJZfajoLLjWCXwn7lOnWyWK+oDgLoBKSQJuQDS1jfcVCA1gLkhJtIuoL4DqCnsEypKViwgMYkpfJGDhEAACAASURBVCl0dYwXSEMpceFmFDnjscAd+4Dj33ECDQSUovoYHCNV7KEUw843bN/M99llleMS7ZVpwWCXVx7i+Mw8OlDjkt78eofKuZqXS6O9ltBeSxLQMWBtr16Dlq7x93fnySkCMig+ypZtnjzcnA0bNVi1dOn8LknZYAmfg99++hC10OYtWzz4+LEjlRlwXbxE8b+6du3m6eycO8HJJvYMzC+Vn9+a+l5e80ei/3oeFqugu0qpOMMFo7pCwPGHRknOXZSqwtyFOIfQKrc2bbxnzpw8DvNPsI487mfXu/egGSt9l3ewhHFTal7JZpGSDqiAHSrRl97rUqCSnPILkY5GQElsRa821iHHWEzByYcNHzG4c+f2tLAnKT7g8ANdqRELt2269io0U7ixXFOA2WryZpYMRpJbiy8a6X4c6BIn41ERDdDy3oLDy0OWHDxIeAFnNYt6r6laxnl/u4Zlutln1bzzWnHF98zNFw2eRphpQmC0E2nTbHsMMZ+SAZtvUiVQfOzxA12KLaeor6MLkfMBV9dRL8bfOuRx8PO8BfJrUqe3E0DXwZevhZEzHNlypmi1oP+KC+T8PDbQ9Lm6KAUpgA6ODqBHUcLh3HHYCTcmbQMAdzTAT28z15u+HjO0qk4DgbFp2UK9OhcwnfePAZ03OnDgePk2bq33ov0jElRoeOJmwymEU4eWbm72tGltPk2eMtutadPaOxID1898Tv2ZNMTL4L5hcT2PBq7Tpy8XXbZsQS+/1etcOYf06dMLMZDAlg4ySXJRUlrJSclVaR3ni8Jj1qzZr3fs5La4W7cuSw055NhvbsSIcXN37the39YWjSxRdFOqJy5JDJQ6JbBLEYNc7ODgUPFcZt1JRTS+0h22CLj1LJ/2HzBwYvv2rhxDkkDOeUw58GyI95oDU8ktI2EAihZ6ITmOJJbyhoLTyi4ttkQSseeJiKxxcXTFNy34HTg3XWZIvcH/ATAhIvNQAyOBmJreLCS6SbXCY6e1KjCe47yn09ms2vm0/87bn7tefxNqHwGAm0K1Yv8yanMM7omm1V3OTowP6ASPVBuKP1hLYSjB9xhIw1oFNMqBs6fPnEmTJXs24fqLxs2i6IVgX3ZUholnT33z9hcrR2x1hrkdoKgJ5iwVuMBBz4QvHKTCVIcxUaIR44O0EkWxHt9JwVoQGJdZ5DtN+Vz2m3vXzNYloX5zSeLoHPkHBFL069dl/o7tO1uJskyidhx1dcl/y1OINeHKlC1zEsUZehQpkvfSz4D5P/3d06dPl96yZW+jrVs2uj979iINLfki3h5Hp5JSq2S8SUUppJLJDKGlbkhOnjt33qsd2rf2aVi7/paMOTI+NHTMMK4VHjRo6LJjR48VRsFMTdDnEJHKixgCOUdfilGQ7AHB4kClsYl/f4DlGTXfQHdYnbFXYfQLLuBS4OiQIX0nIBAoACD/PrsjkYG9QcOH3mtP7dp5+l55HTq7IOhQWJuFDsloLZEyKomVCkcn0Gm80q+cEtdj4gQ6tzgxziIfADqoDg4GUVlEoRHoNG6aaiwQkp/DPDBwdJ8WLRs4W+1V7s8DevyJyK47z9wZeOfp2+yRcFGGIoIsmi2VEHQVJcJb5Sq9ImxViZaTvQf4lC2XxYlKZVsY5Oii42/+EPj4wf/Nrcw0OXLl0JhbWiAkFs1KwM1TWsAjgZJqcdV1j00Dfd38m89koFMy4lpHw9NAiYQHKQ8nSjiMiCO+hArJnHoeQviM3N4cWlmuVNoHvesWaFHWRns2viVOMtB5oz///KuWe0f3dZGREdbUUYQBRC6UqNRYoxW8vXs7H2/vGT0N4W6GguOfui7oQZD98p2rm0FU7/T44dMC8EsbUedX/NB8jqKHKy2nCGrWyhOtgHAQ2NpZf6xbt9aW5s1b+FaoUOZIUse2b9+hqog98Hv6+HkGei9Eiiu4Ol9m2EQUxSU7gORjVfrNSfEDiCUT8QMxALzV6yYtGvi4tW7j7+TkeCWp41CuD3ihy9/fc/fBa29j7EMAPCZoGyG2WhKv8ZKt7BSwwT/FW4Kjyy4sPQB+GUJ87idJTxaatOSfljPBuHlFnXOWvhLQT6GxRRnBkhlDrs4Y6P57XjRq0J8f++H5Hnjefue5h0NvvYvJ+A5NEiPgc8aJKcvLTFqh6gEuKBsIGUUrah1SJ2c4nCLfi2g7YcmT5kTjHMEezeCZME0eiO/WtgjBZjELhBaLM0GOA4g990SB9aWklHSlCIHlnhMHqRQXwJfkmdAXl772muV3+G1rcHX3ink9OhW0mhrf2ic6nri+SN1yiMfQEcuWLu9viTBFbk6p1DMtoFL2mWQYCtH06tVj2rgJw4f+CIf50Q2b0PcwdqN167Y39/VZ2vfy1SslGGFIiYQWfAKNYbRCB8Lf3IyiOoqcncX3KcrjuohaNWsdaNO+jVexYi4n4fpCgHTSX6tWreo0eMDwReDSRkqjAlrSxTMhFtIfz2dKIaxS7IB+0QwcBLr69epvc+/cY1bVqkX+TszymtgIPXffGDt93elRbzSpRYJJJGhhlgKiK3VWaTtKIjo4egzCYsU7iQBd0UUVwCtjEC5Afh/z4laOZBFG8nBwNsZC0q9Ofsbr4EXStK9k7zmxfc04vTl4humC00GdV/55fuCj0JQ5Phixgi8Aao00aJFzznxzRtN9DX8VMeqwmjNyUEaYBHJJbwK45QMMfnrhZgPgM2S212TOlllwcwKdfd804MD6ry/zTYDYwv7yBbvfQjAxT4Vy2y/XIZjIKuqDpkae1Jsm1HBoG98e+CGg82FHz54t26dLN7+H9x9nYx05KUIMIZKwRBL0SuAILo3q06/nhBEjhtA4lYgml9hW/LnP0dKp5LJFPp33HTzUHO4ya8EVASz+ZkabkhIruI0k8QnAS0khEKJQWrhQoUJXunbrPKtMmbr7sme3TLSNUXwjpmUfxTzm+vr4d2aVViVLjxtblMmWjXx8fuCnD2LDM3aABw04elTF8uUDmrZwnVe6dPFTOXMmXNzREKpxPJ1m7Vu7/cKzhsEpMyASLZUmCJV6zWTRXIjYCqdhuqoUCc0Ci99xdL6f0IZVQK8P9CiGl1KKpjAtDhNG44H+KOWU1To8eFyn390aFU67NSF6Ljz1tv3Kw7dHXngZ4hBhbifaHwvurJjCQENTPIc6vDhLRa8z2lh4AIhBy7o6c8HJrskFoKaF00MahUQbUxSkcKFtnDGxkptNHlBcAFcMqt+BkyOKBfQkA1y+KVUiJrrkMAt51a9j0XJltNo4Kwb9MNAxMO30mXNGes6cPRwcyZTuNqab8tSXAC/5N8mJECKra9+h/bxJk0YPxyL/cIy5IRs2rmuYFrtw4dL2PstW9H/79k1qAkbZtFI6J78lB13IFmxhXcaPVNM9ku67Tx06tJ3Xf0DfWdCN3/7oWJTvoamCQ40aNf96eO9ZLnouuPlpZJMlBqE30pLOv6mLYyw6lFh+V6x4yYDGjRv7VqtWYT88AoE/Ow7l+3/dCy4+2nvjvpuBJrYfY2BtpyEO3NUE4ahCB5dgLSzuUoCLVJ5Y1I+TXVaGjEV/QxPobMIgupqJwg78H5/F0FCkFwNkZsjUqpg/45nNw2pUAY3ijUlQnj3/XFC79Ueujzz/LMgxEk0YwulUh0FOiMNUf2iupq1B7rjCkFv2UiNjF2ZHGkHFD+clAT0SwSnC9QbDXB6UmLKwsYbRj3UOuWu+NYXEq4vHIs5XL0b8VEsM/IrobqYL05iHQ1WuWap/x/xaz7ju+MNA583gXsoweuSEcWvXrXcHsI2Vgo/UdZWEExKOPl5u2Hr1625yd28/h+GoWLRE0yQN2TgJXXP//vNsR44cqbxqle+gUydPOkshopLLSGR2Qd9WylJT71UaGyicnWJ8+gz2byqWK7O/Y5cuXqhbl2gOt6FjXrXKv3nfPv3WmVKfxFYj55ayzSJEKCvphdDa0IwZMzzMlj3rFXDu09Wr19qRM2fmBz9iTU9sXBN33Ji0ZMPRocEmaTUfIgA6iDSm5lAZRG02if0oAR4cr6hhKJvM9O+d2OYU95H1UW52UxEFJunoCkeX/mOiSQmxOa3uvaZr88pDPeo4JtpNRhmH/82g31fvuTnt7KPPLkEAuw6Va6KRCBIpxHiWqsYP/dSgN/3Xkh4sjUtEtvHgYvNI+hhgBKNfPQJqFAPs7XM5auwzI/4+AhVucGhIDRwkXdmQuX9vtPwKQYO+r/ccyRMCtZlRDbAnFM9iu3Veg8yt4/JC/RTQSZyLZy8WHjpq1KKLFy4XF/5kGKmUhArJp2uKIJL3GtvUqUQMdsFCLndatGg5p23bFhsBsleJbcAf+RwEs0a541Irlq3qte/AgboQvY1YcUWJA6edhcEtit5LsVwkyogaeKHCwg33WlievLnPtmvXlpVsdvyoHh7X+DE+qwYNGm4/dPBIZRvr1EKiUHzmzAyT4/hD27ZrMxvZdr45czrc+U+qPRiPRfv5p3x3nbnbVIOSTiG0RWHrMsRT8ulL4jTxJ6LVRAKKVOpJsWPFt05KBdi4dHRhORYFJtkNhaIwQSNJVpQYLGKCNIXT6u55dGvUsGaulFeTshfWX9fV8d13acLpBx9/+4BgHHRoYM8wyf7B0FmI9VIiCzm6oqeTi1N854FAlyGLR0KNgt+PteJpnEtpY4vGF3mkyDXRnYnW8q9FKZUx6tsm9AEcW3mN7W2Lb45xHQKCo0PaSAGDoLFpSk36mM/h45sULF08vfZC7Pv8NNB5wyMHT1ToO6D/kmfPnuahH5g6ra2N3ZdiEUqnUyV33draUudcwPlYhw6dVtarV30XAG9wSZyEFpsbdt++IxXXrVvbJuDUiZrPnr2yI4CV5BPReALyFm0KfNHYRe7JMtQEuNLJJW/e3BdbtGyxyNW1+W6Ix4+TssEMuXad/8YmPXv32siCCywuqagOXEwW8uCBWL5CmVMoj9UsscoyhjwvsWu2XP7UcPra4yuvvAqzjmFVVYIaHI2GqhQmjMgiD+ffUqCM6CxiINDj2qAK6LnpaSDji0AX/9PzClpBbG9dPMuWuT0rtsR3Eix7Fdcc993UlZ23/8qMM0+CSr2AlKKxRPUaUQyShwn4oCC8bBOQb0Cgs8Irr+NvpqsaofJtZDj83LTAgyY58jtprFjNSOj2skdC/n7s+SYGsPi4uCHcXQBd5PNDGkJYsBV6tLmXzzaoa5HU32WQJjaOxPbIl8/Xr9/RonevnqsgApsQ2PoFI5QWwwJoOAWVeHELC9OwosWKnaxQofKWGjWq/wXX0LUf4VxM2dy791DFffv2NLhw7kLFB4+eZOYzyMGVhBPmtCttnjkOKapPimgjUclFEVf+ql7dxr5NmzffVLy48xmDJ5+ECyltNGzQdOe+ffsrMOuNFXKUXHolfx6GwejWrq5eU6aMG5CEW//wpTO23xvl/eelsW+i4SNWUn+FD4rAlhIvpFJHFGYlK6UpQlcp0scT3BnnWL4DAQ3fPFSoJVNHl4EulW3WaWyj3mqGtigxsG+dgrN+dHKb7+nKrdx3fdLhW6/Lh6QEOPEQ+s5FQI1wC+pljHMAQjdn2ioz2Si6MztOCoeNYgBOaIjGHhw9E8R3RBkLu4L+y1CgJwRkQ0AukYpl0ySVIRydXmxTRGiqOlrumlLTgRWEvqk58I8BHQ8z2rx5V60eXbttjtZFmyo13Bmy+Y0BRs4lFTHiohmAlBCTOnWaj4VcCpwuV7HcsXLlSv2VL1++O+D07+PSR5kye+PG2Txol1z4r7+OVbh961apu3fv5gCAjci9CWo+Uz9OWxgFmQQjcr0lcPE302tRoSa6edOmq7t16eFVsKjT5f+EDqxshulTZw+fPGXKBMUAxwNR6edObs4Dx9nZ6dqMmV6t0RHm8o9ucEO/90KnS9dn8j6/ky+iq78MR5tgWr+hlxvLiSJg6QLgooa5SB2l8wtZVTLQWaxR5H7ryaDxbVR98Z3/F+oAXVUM6xWdehjCS886vfQRmtI5ba/N6F69lksa7Tc19Q2dm3LduVc6xyHLT6yDxFI03MRG84kNLeiy5EFFNx4CbIRYJXQoObVVAJzvsb48stYgvofDXUyDHjvVFCleDFlsUrsm/bZUyhxJA7EHxf6O39kkFe5I/BXnPXjIyN1+o+BKYGBRdouY923qOTVunE77TVyHYU9JfBxfrti4cXuT6dOnj3v08HF+0SRBhFdJOih/FEMYQccNzmYJyvsEnsz9dba2doG2qW3eIRjkY0pTUyG2hYRGpAgNCbZFA0Q7cHFbJLMYK0Ejin9ZaXXM65WsMnJwShn6defE/7GhICIfadWqpXezZo33GGLVTQIpvrsUJa9r9OrZ0//Tp6A0qIArlbqSF1oE4YgmkKYaqA3zpk2b2PtHpJukjm/ThbA6M/y2b7z83sQsGMEm9A+Tm6WkvQocj9XLlMgvckIF6Caw9H7l6AZUeIljYEJHp7sLLlmKekoRS1O49HRBrzU1imQ/vHFwjYb/hKfmTIguy+SFARvPPPlcIhScPYwxEbTIw7sg5bVTXOdGFfm3UtFISHuM0tOwTxtDjXEAxvB9HAh58ueH+I4YElybENATA1hiQE+Mu4ugLhCSa4XkPo2duVFYg0KZR/QrZvaN+J7YOJK6b8T1AZculRo7dOQMNPgrA+CJYpIEs5RnLS2osNBjkCmpA9IoQtcHy0aJ2G5p0/N9pVe5KAkt30dUisVBweuZBy9EX3AF5Z5SEQope4nfEVF7cgwmDwamkWayt3/UuUvXhe6dXBf8k26q+AjGbjfDhw/2PnkioBzHZZMqtZibUtCS4+N8YDN4dXDb7srZXbLf+CHiJ/FLnode9Vi26/TsR0EmpgiyBd1Af2xoVmrj5jGC9ftr1RNwdEbHYWOxqKMUzcUt9GNAFwwAYrooKiJ37dHB721jGq1Jaxwc1LNV1f49ytkvTeKU4r2c0svU7c+GHbn8wu3Oh09po2AfCUeZLJ1kVRPl6ET3BhF7z7huBgsR6AhcYgYZwY6oOFaesbO31+R0dEQJbBa2/PrSB1RCIP2at/497RIDt/I0tsQinuj6g3wqpDHet6iD2YkRjbPWzaHVfqnD8B8BOgdy/frdAp5zPYfu3rm7IcRTCyXyi7Ha+iIcLYZf9Gg9rq9MVvRWl11f/J7Cpfm5iEWXc6+V8sbKNcJVJbK7JKlBAT/08sDqNWrs7dmzz+xixZz/MXdZQpuRNoQePfrN2b1rV0sll1wJGxabnfNCNhQjCbt07TZn4sRR/f8b3PwKRNo5Wy7O3H3hYYOP2PARyO9mXbQYbBwTuRKpZCWWsqkowkvuZ5aSkgqDso7Zz7wk9xSs+MKaz4A09J6P+aQpnsPqztCuTZpXzqy9+DP3j/3dd8hQnLrj9bDjd190uPkyMD0z30Q0OVNdCXBa5L8gSa46w0MP42IzxhhUL2JJaBMwKOdCBRFXzzBdPZehvJ5xgfUbFfaLNC89z1Bwx75OFMSGQdCExkMQEDk9muzW0W/G1nNqWCKD9ktFoZ9bpURWAIOyXLRoRZs9e3a1P37iREmCz9oKoZUAIMVpIXbL+bWKPq1wZaVXGnVWRd9WQK4cGgSI0uhBkQaUA0ABkFKUwsLM4nPZCmX2tmzZbF29erW34LtJTvr4kQ2HFs7ZZ8/0Grpm7Tqk7SL6Tm43zSq3DIQRVWQQwPP+w1tN0WKFz2/fvqkuRPofjrhLyhj3wt88cdXxlRefhaSj1Tsa+nik3MKJ0ey0gxuJHG2hlX/pKCr853Ji3Pfuovj10bjGJrr90MCHfcBgUpZcThn6UtOsbNYdfZtV6eVop/3HvR6PdLrUS/e/7Lz79L2Bj4Oi0n9my2JKFMYoq0x3H4vKy73a2bhRC4uhDmWlWBRDK2LfIW2iPLQjrO8WtjbMGBe6uyJxKvOMC7zf567HDUFDgS8KUeAWIp1VJFnpNJksYnQti2Ts36mYzRxlLP9RoCsPCQgIKLV2/ZYWBw/sc33y+EU6RfQWUUgi+03CnBJvzkkqfcyVQg+KcSM2kBkHrhwOgtfIwTDKQRGMOt2ZM2V8697ZfbqbW8s1KAn0U4adpACJfecmTpw+fuuWzQhi4HJw/0g14WiM4xwJGhqhEGcQOmv2jM6NG9fzS8ozfubaRXvu9vHef2vKw6AU5sbYgZEYVzALXwB6FMuZsGLKSi14MauK0Bdx/+KHQS0MOPkazqlszsQ2qb5ExzpsxuCKRmiHkgJrZ46CDhlTBn0Y1KzIoLblcq78TxlGWc565dkXQ7acedjx/vuw9OE4aLTs/Q4Oz/7vWhqRuS+pkzN/FhydIKcIz9DYGBzQaWF5z5gNdd+FUc8wvvF9qamvEkRidIvrAKEkS/qJscmHTRrjcE2pbGY7u9TL1TGXViuKgf5XgC6LJmYBAX8X2rFrZz1s/E4P7j/JQLHcBlxN0dkVwHIjKIeB4u7R1+P1WwArIjufoRSBIMGUjqys/IL3g7r36DLrjz8GTvtPG9yUxdi3b1/V0aPHz75x/Qb6wDFAR5onuZeUasqmhyxiAYMlpJs+/XqP7tp14Ox06bQ/lCCTVMAz3XjmpmMLFx9/1eKjUSp0AQkVRqVgJIQgZllUSWV1ExOWyqZtijYQpk7S8EMJFw/kb1EN9ksmVsKjiHMjy913UgJg0czWg5W7ZC67p8NaFW5dLa/dsaTOKynXYzxWHgcCex248dLj/oPnNuEI0mF5KnZ31dHboFjiqabIVngdAlQIfjZjtLKx0uTIm/sL0GNzdP2xxFdLToQTG/iKk36scENbFLOzRKEKpNQi0Mg5veWl9g3zt65grRU1/A1/ioGDSewyivNXrz6x339wa8MD+/9qdPnihSIoCW+uGOMU8VzhzHxfKbqgvCcGLlvwxfUifVLi5spLMcRR9/38ORBBMqaa+g3qbXB37zS9bNkS8ebtJjb+xD5nWPDcufM6rVy+uvfb928zUJcjwGlsogeCEojUbAJVTeHnZ835KtUq7pw40bNnYp1iE3t2Uj7/+FGXeuzy3Qv9z39sHmyWFoJ5GDhZjOYzCj2gZpKwLDMHPSU4BalLhxf1c6az8LfSTJQBL0qed1zPV9ZB+Ux/s4o6dCzqAYBb4uBjGWOrFFGaJpUKLPRo7TQKtb5/quafIfTAeCyGHAjscyjgcp+XH8MzBukgvkOEZx910WeQkgtrS7NUFz1vKAMdgyQXEziwU6L9dI58BDoNl5JBWdmbsecbXy05Q4EeH8jJOsRnbNQBKKCyv8Yk7L2mcM50l1v+nqfV/xvQ9YmPARrfuvUoy969210PHz5e8emzR3lfvnydHnq5Cbi9ltwcursk8sqWdIBGJyXMaHW4JtrYyCQCue9sQySuI4eXQnARi8z2znIrY4qZzJHPnNkhqF//PhNbVGuyKm3etN/kNhuyMeK7hvntm4/trLTOf13/4ydPlKC3hkk+SpNHKZsv/IuVnYcX9dOixX4LGDZs2OBSpYod/5nnJ/W7oH2KZbuuDJq+5e8pH4zQJAEgD0bsv5Z58chEpPvPGP5lI7ZiEuen1DZYquWGfSVLnNTjE8pJTEgclQJl4M+GgSu1Ceq9RgVq7C0jPnq4N+rQtHCqeDPVkjrXxK4nLeaf+9x+y6HzE84//GgfaZFBE2mRBioVLe6YNBunh1HQApjY3usTKoSBLhkc0mvSZbJHxKCkn8fa24ka2EhCJZ4gvjHqM6/Y1zBKMQzjEyniKHllaRSpsYoO1tghb6xa4ey+jSpl6euo1YrEp/86R0+I6CBWqjNnrjjfuHc93/uXb7N8CHxrHRocaYEAHJYawQY0DrVESWnbNOk/5cqZ4356+0z3Mtilezd3rtdAv9V+vQgqpstKBRKlqDipDBSsklgs/h9ZY1ILKed8T5s3b766fPnS+7Nlc3iQPXv2B4ltiNifk3tfvXo1x4kTp8qgiETbixcuFQz8+FnLRBla18m1+ZKaR8KyLFw3+BtiILn5b4Vdjg4f/sfQEiVKGFRvPanjS+z6U9felvTcc3nR0euvCoUxVRcgDwxFOTB6P9iPnEFGojSEnh5OLxS9T2LnyO19E7C/JQh0BuAgS43av1nEB+RVv9MUyZn6wSB310blc2r/65WJlgYEttly+ubQ0/ffOQXqUBjTKi0iziBRMtAKblwa5Gj0IqgsLMxYCFV0rYmhQVEEFMlVqYT5gpERtHOI3DipWpXe5184fCJqT8IHJTwkUKnIBKlCpUS6asqQ15r8mSxftqrwW7uqOU32KXvgXwX0xDZmfJ9THejUoesC/7Vr2yDQRjJ2Ic+cfmqKX1KsPRYK7xNgBByt3DwIcubMFuiU1+lc0RLFDzrlyXPX3iHji3Q2qd9b2Vl9hmQQCos4y5Sahr4PtXgT9CbVmzdv7D68/ZDm2s27WW7dulHi3LnzZR89fJST8ekEuFlKi2+Mg1LDCSkSj0E6DLllbbe8+fJc8PAYMqhixbKHfnTeP/s90MNszuEP7iv3nhj34NmrNCZW1pqgCGxabOyUZlbI52AYKHzmlGCVDC+ZmyteNVTM+AkvOu5LtQbWbFtEbDpnTX27SrF83r3q5GPl2qSZ73+WGPL3fc5HNd179vrQS49eFniHMjvhIgEGcgt0YBG6DUBxLW1T22ky2meAeYLbQ0qGoeCDPmLit/K3UHsYISeORSniQPnNRwq9/gcPSj6JqpQovQUjIbP9MloZh5YvkHVVrQoOQxRuzuf8TwBdJliqsWMnjvZbubbrh8APlgygoQivVLwR5agZqafEuaPZAolM7s49RfBDFdBB3A5CQ4hAC0vrYBMjoxC0Yg4JCg1KGRQUbAGgWgR9DrSBWGuF/5tIzQwRrIPvClGcRhEgQFEzOC5ewwOALZzNLRCei2uKlyhy8I8/PIYg7fX8P7Q/f/g2oEHKJeei6wacPdvt5afAXBClU9AARFGgQwAAH2BJREFUHRUZrY1iQJPWWMf2emIzMlNL3qhKKofwsMexUelQUcLX9QfH96WNJ7k3Ge+BUu3R+RzSnK1UvoBnrewmZ0Gj/3gKc0IE2xuoy3Xm7PM2N24/aRgao7OIQYVMJPkYIbAGtSpS6EytrEIsrWwizM2NUbcygp5akfcaE2OkNQLSEYMeRY8kkpZQwUo2IMkPZOgBi7zq/449Fn5O2U+UoBe5ABJQld8oNyVFNzAULTxEZwlbQVh4WJStmUlwwVyZ/Sq4WPln0Wrf69/3fwboMtjTLFjg03Klr8/IR4+eZVCs3IqhT4muU2qvffr8UXB4JRJP8c8rBFL0IyUpRwm3lYxrUnQe/y9yybE1KaIrHgO+LyrFQrTj86lOUH1o2rTxys5des8uXDjPPxoI8sNIl79444Uu+8uwj7ZmWlujUG0k7CPwFFiYYH/oZWfR0yYXPdXP2TKF50mAFq7o7zYtcob034Ok/uXvSNwrItJEZ4rEuIxWmtf50mmf/+w8/qnvY83MT73ROKSE4yFFZBArZmkjrUy1JhERuigbqzDkwWmDYKdE78mYz6gbwrgt5dkpwqRKHbAuifcicb7THf8N8PCemf571PJYhg+/w6y+0sgEYSTKRyjj94V2fJ/3o+UAYRgwpeJwCNGEFYsn7uB/Cugy2I32799fedZM71mnTgUUpCitBNNIurrUBVYBpKjDJtp0cQfSeipVdqG/mxZ7UY1EdPBgpVLE4iMhQoSrytcrVmUCXclCU6QGM5y0PCyoNqAU9IfWri2md+rUfsHPtIj6pzayep9fiwL/c0BXlo+GskmTZo7cvn1XS3RPScP3RQslBKoonF2I2NQ+hWuEpJB+MyxT+Zuiv1QMgRlx0vtSfTmpHbOI12d9d+je+u2bFWkAbr3wIkWKnurTs+fYStXKHf1vReT9WttYnW1iFPifBboy8WOnzlaaN2fe0MuXr5b69OljKqURA0EujGR6abTC1UG/qd5LSbJRkmSUwB3psJBUSYrmlAakfPcvenl01syZbtdv0Ni3Y+feC+3sJDeH+lIp8P9Bgf95oMtAtNi//2ilP//c63b06PFqjx49Sie5vCCey7HnSnSeYkhT3BoicUbOhOO9YgfliDBeiPJKJJ6tbaqwAi7Op+rUqrO/avXqGx0ds9z5/1hY9ZkqBb5hWL8SOR4gqOX27YBSp06dL4v4+7ooXJHt7es35gSy0p2VACfohW9STptVsudEczthyZeSaSKQxcRrYdCLQY25R78VLHCuYpUKx8oVKnMwd5HcIvRQfakU+DdQ4Jfg6LEJTZcSAnOKPHv5ONvlC5cLnz9/qezVq9dyIU89NSq/ihYkoqkdQKxY6PmeVPo5mtlmYWiP/An13B7nzet0uUBh5zOliha/6+iY7fZ/M2nm37CB1DEkDwr8kkDXXxqG4cInnubduyjLsLBX1hcv3sp//+GdPB/fv7P5HBKCSjAhljGRMVEwqgUhfPZlnjz5bzk55biaOnX2QAuLyDCA/TM4/H8lESV5bCl1lP9GCvzyQI9rUQh+vE/a0OQu1xaSQrz5o1rO/41bWR1TQhRQga7uD5UCvwAFVKD/AousTlGlgAp0dQ+oFPgFKKAC/RdYZHWKKgVUoKt7QKXAL0ABFei/wCKrU1QpoAJd3QMqBX4BCqhA/wUWWZ2iSgEV6OoeUCnwC1BABfovsMjqFFUKqEBX94BKgV+AAirQf4FFVqeoUkAFuroHVAr8AhRQgf4LLLI6RZUCKtDVPaBS4BeggAr0X2CR1SmqFFCBru4BlQK/AAVUoP8Ci6xOUaWACnR1D6gU+AUooAL9F1hkdYoqBVSgq3tApcAvQAEV6FhkVn1Fr7bUqOVujGYMLN8c9AusvZji+/fvbdivHXNO9i2j2AEVU7JAr3q2v/6mbbD+euI67cePH21sbW0//SoVfX95oHOjr1q1yu3PfQdbhYaEGufPn+eat7d3T2wAdrj/n3thkxv5rl7d6mzAmWqfPn22/Pjxffrw8MjoTJkyv7CxsQhs2LDhmsqVKx9PbhNfvXp1683btrX4GPgxTbq0dkHNGjfzatq06e7Y80Cf+nTjJkwYf/P69Xz2DvYPRgwdMT5btmz3k9t8kzreXx7ou3btqv6Hx7DlV69ccTAxNdVYWVlFzJwxu6e7e5ulSSXmv/16cLq07u4dlx89eqwS5mpsbm72DqXr0YLOSIfecZb379+3zpYjx/M27dotHjdy+Nh/+3yU8eHwStG1a9fly31XtIlENx1z9Lxv0az5hhUrVjSPPYdbb986dGjcaM/JY8dc8ubL99J/tV/dokWL/p1c5vqj4/zlge7nt9a1S9cuqyDGBaPlkhlEeOPCRYucOXH0SBlwdald6v/Ai2Bo6eq6bsumLU0yZMjwqWevXlO7dHKfB3WFDSo0z549y9SlS9fV167fKIj+cp8nTZzaq3PndquTw9RPnjxZokuXLv537t11zJoly5u79+6ly5c//4Ply5e2LVWs1DfSyVsAvV69entOBZxycSlY8NnyZT71ixUrdj45zPNnxvhLA50crmOnrgv27fuz6ZTJk7udPnemqN8qv85omBi4c8eBSoUL57moT9x7995nffbsahYzMzN2bdGEsCMjeq6jP3qMg4PD26xZs96jnnj+/PncEBEtK1aseAuHxRdd8elTXZrnz8/mBPfUli5d+ho+C5ZBluX27ScOJUq4PIKN4A0aQBYNDw83wga8DwnjlR7nsjt58qxjZGQIuLG5JgSdHov/9tsT/Wvi2wxz5s/vNHHs+FnoL2fdq2/f2bOnTx3AaynK8xfGomMTyrp1Sx27fedurkZNGm2fMnHikJw5c96iDQPPLWxsrDPOmDPnoyxp0754/PhxDhwOaXlQmJunCipY0Ok+7hES+/n4bqqLFy/mxCEK/dkcveuCou3s7N7ky5fvgd68tJAmcj9+88bOMVOmN6TjxYv38oSHv02D7+tSmJmFFytU6LZCL/1ncPxQtboM8fhjQdkyZQNq1a69YfToUTN5zaABA6eNGTPmD/3rCfT6DRvsPXniRIE8ufM88/f3V4H+MydIcvguAFmoYqUqF+3sbD8uW7qisY2NZUSVqtWPoRWytl///pMmjh87XH8zTp48deDS5cuHxkRGoFGyVgecpcS1KQDO8MbNms2bMWXSsGvXrjn37NVvxeOnj51GjhzepX2bNmsIIt5n8+ZtjT2GenihUaPxsqWLG1WqVOkU3589e84g73nzRjVq2HChk1P+q2PHjfXUxcSYjR49rlenTu18eM3lyw/yrfZf1n7rlk2dP378lMLOLlUUOjZH1Pi9xramjZr5V6pU7lh8NKcdYsDgwXNX+a5qY2lpGRH48b0FpRW59RS/hj+1kfjbsn37jvN9fVe0TW1nF7Nk8ZLmTZs22vTmzZtMNWvWOvLs+XP7Ht27zyxZsnjA/EWL+pw/d740DiTzXLny3G/dqtmiDh06rNU/dGDwSu09f2HPzZu2tHvz5lVadKyNCgsN1ZYpWy6gZ49+EytWLHEWz43Cc0179uw3f+uOrc0qVaqwu1XzVv4rV67ocfrM38XQ9NLMxiZ1YPdunaa4urr6pkuX7ps+dzhE8kyZPmXmWv+1dadMnTLarbXbvCLFij7FnM2aNWm6EUB2xTMiFNrcunXLoX2HDnsDTgcUcHZ2frZ65ap6v/3224XksF9/Zoy/LEfH5jLz9PLqNWjg4OktWrXYtHDevG7okhqcz8nlzr17dxwaN228ZZ2/f3NuRIXAx4+fLnbu/PlSRiYaTUojY6NlPiu6XLlyyRlKbtT6dWua1KpVa/vff/9dsHuPPlsuXjyfc8zYsYOH/jF4pgL05X5r2gzs02cZOLrJiuWr6zVuXGcn7z1lypQh4ydMmgqQkCMaAYzhODyCuvfuPalnl07zCZiOHbuu3rlrR+2yZUqfrF27/jaI18Hbd2x2PXPmXCmnfPmv79q1rQZA8DyuzXD48OFSo8eM8Tp65Fjx/PnzP7p+/Wr2uK4j8OfNW9y5/4C+8wHKaN8Vvi0UoFesVO3krVs3suV3crr/KTg4VaXyFQ7Z2qV5tn7duo6vX79MhTFHz583v62bWyt/3vvzZ126wYN7jV+/YX1XB4csN5s0rr8xXbpML/6+8HexFct9OhQsWODO5EmTeoNmfxLoXXv0mLdyxcpOUKHCMmfN+rRsqTL78uZ1vH7o8NHq27dvawB1I3jCpAkd27m5rdMf+549e2p2793Dzzlv/lsDBgwYXKVKlVN169Y9uGv3rsoFCri8mj5nWrtaVcQzeJjpbr295dC1ade9fx35qwCkiuerV62up4ruP3OE/Mu/i4VPU7Jk2SNXrl527t+v3/iJE8ePwZBNevTovWjxksXtnPPnfzp16uRO3IjxgCJljRq1dh08dLCqi4vztcOHDpWFSBp47tw5l06du2xmG+bZs2b069Wrl5cC9FWr/FwHDhq0LCwszHT1Kt869evX38N7T5/uOXjIH4OmAdwacMfbw0Z4DEubOvVnAPdxwYIFbw4Z4jHBZ/lyjxyOOS95z1nctWRJl3P8Hg+eXn17rbt982aWGdNn9e/Ro/O8uMa6e/efDXv36TvnwYN7WYsVLXLxzJnTheNbnlWr/Fu1aePmD46umTl7Znv3du18Hz4MzkiRHnNypMGyXoN626dPmdIbYv3zpb6+bbp27OxDLaZH9x4+48aNHo3W0U8PHTpUsVHjpoegMz8cNmz4mJYtm60HHcIhomcbM2b8pNV+q1uPHjVi8ujRo4fhuyZ9BwzwXrRgURd0p43o07v3hBYtmi3Nnj37i0uXrhdo3qLp0Vs3b6YeOXrUtHFjRg9VXGIU2z09Pfv5rlzZber0KUNqVK2xm9x79ZrVrbt07urHHvazvWb16NW11wIF6BTda9Wru+dsQICLU/78z1f5rlSB/i/H6k8N7/LlyznLlC1/z9nZ6cbEKVP6Vq1Y8QABefHiNefyFcpehk5pNGz48MmjRw4fxgdxo1DElX90ixYt6TJq9GhvtFXW/H3uTOm8efOe5XU3b94s6OrWdvPf5845zpzt1X9Av55zFKCvXu3vNuSPP5ZBrDSFBFBbAfrkqdMHT5o4cVratHavdu7YURUi5TWqpnwsN3WV6jUCjhz+q2TVKpWPLtq8qUWq8HBj6q7g6qElSpY9d+vm9Ry9e/fzmjt3Vt+4iLJ+/fqmw4aPnAOQZSpVqszZkyeOlIiPeKtXr2nRwb3DWgJ3lpdntz7duy8i0Bs3rngUqk6uipUqH5s2ddKAkiVLisPm6dOnaRo1bnzk7Jlzzo65cj3z99vYDLaG00OGDJk6ffrMQb//XvvPiRPH9i9SpMhjSCYm4NhRAwcPGQ3uP6h+w/pbli1e3BWSzMfOnTvPX+qzrFOFShXOLFm/qXGeNGmek24Ec/0GDbaBQ9d1c3Nd5eXp1Rf3+MBn3/18N32rqq2OPn7yJNtc73ltmjdpslFeqzTp7TPcxdrYQlLwHOkxdCxiBT7ys3fv3mWuU7fu7gAY4/K7OD9f6eOrAv2nkPQv/7KHx7AZM2bOHNi5U6cF8+d7D8RwKaLTMGWV37nA+Vu3bmet9XvtA4sXz3eHoe2JDHQxqy27d9cZ+cfw2RDxc40ZPXroH38MnqqAmXq/e8dOG2/evJVr4oQJ/QcM6PcF6PBfuw0ZNGQZDhHTtWv8atesWVNw9ImTJw8ePWrMtJw5cz25dfNqPrwVih+2bqbVX1eidJlLZwNOu5Cb2ttnCoqMDDeGDUwHo2DkkydPUsEYqOncpduc2TOn9ouL7Js376o7bvxI74sXLmYr4FLo7tUrF3LHD3R/N7xWWVlbR/ssW9KyefPmGx8+fJixdu06R65fv5G7XsMG+yaNH9fPxcXlhkyTlO7unRcuX+7TLk3atKH+fqvq1qhR42jtOvV37d+/rwYCVzRp06Z/CpNAioiIKHNbW7u3T548yv7m9Wtj6P0nlyxZ0DZLliyP+g7su2C+9wIAvdLpZYsWNwQ3pxFSqJaNmzXetmP7zrpubV395ixZ3sdGNnBiXDmKlyxxEQeekZfnnPZNmjTZIc/LtJVbq/nQ29tkcnAImj51mjv0+w0K0GvWqb3r77NnC+YvUOC57zIfFej/cqz+1PAKFylx+8L5c7mrVqtytnat+qthUTaFMTwF9OeoJT5LBt29fduelu35S5a07eDaapXyMFqRu3fvM2P5imWdoa/e2bp18+8MuFBEw2MAukfvvptOnDzpOHPGNAB9gBfByoOAonufvn19CPQ1/hvA0SWgT5kybdD4CROmOzk5Pz575iSBzmAdAj2K3yteosyZy5cvFgcg3uXInvMq9GctDHr4iYiJ0WljLMzNY6pWr7m1X5/u3nER5ezZayX69O0+99TJ4yWw8T8+f/YkNa9Txqz322T8+IlDoc+PheU7GFzXtU6d37eRozdqVP7IxUuXc9eu9fuB8eNn9y1SJPd1+R5m7du3n+/nv7ZDpkyZPq30XdWwYsWyx6pX/33H4b8O/w67RyjmdSNNGpsQLXD7+XOIJlUqS21QUKi2devm6zt27Dif9+nctev8pUuXdKpaucqZbdu21VeMeuTojZo22rF189baHTp28B+/xKdPZq32HQUaiO29hw4fNjNFihTR5WAzsDI3DxOCjpnJ59cv3+Q/fPiQs7GJicbDY+jU8WPHjqNXAJ6CLE2aNtl59ty5glQ91vj5q0D/KST9C7+sbGj6XZs0bX4IoqRl6jRpPhkbGUekSAGQR0YK67hRChPdo0cP0oBTaGAln+bevu/kHDlSf+Qm8vVd3bz/gP4rwU0jVq1cUb9atWr79UEDUaBQ2ybNNt24edNxytQZHoMH9pmqkGLhwoXdho8YNS80NNRo3Vr/OvDnisgt6ujDRwyd5uCQ8fH9e/fyMipPEd2Jx5Jlyl6+eP5CgWYtmvn7rVzpmlTS4l4p+/cfPHvhogXdIfaG79yxrUxcBqgrV644tnRtc+Da5cvZGzRouGv0jKlDiuTOfZ0cvV7DxkevXLyYq2TJ0n97ey/uUby48xmOgy7D32sVCbh27UquQoVcLq309e0Ibn+lS/fuPksWLnZ1c2uz3tNz5gDo3s/iGzeNcf369Zs/Z65XRxy8Z7Zu2loPB8Rrma4pwJ13rF2zrpZbG9c1UyZO6Z05c+Z3NFA6uxS4/ezp07R2adJEI473I61tYSEhWlMz0xi4TjWR4ZG2wcHBKQoULHhv26bN1XLkyPGQQG/ZquXOY8ePw/xR8JnP0mWqey2pGyq5XN+rV59FS5Yu7cKF/2PI0EkRmphgU1OTFNrIGETIRGrCQ8JNV63y7XPqVAD2rMt9P79VbtgUp27deuswcEin9Xt37ynTHkaqMWMWDcycWYvosq8v6oCNm7TYfPbs6eI1a9TcvHnzhlY0ENEvPHv2xCkrV61sBG6l2bRxW50aNSoKoE+Fjj523LhpGM/jq1cu5eb1iqpAjg7R2H/N2jWtSpcue8l77mw3Jyena/yerMNq4RtPBR00VN+NFHstGCI6eIjH4hfPn1u2dG21Z+SwYYNpC1CuQ6BQhnGTJo/ymu3ZA5JMxBzPWT3atm27jJ/jM/sSJUseu3PnXi64EzWY+wrPpYuHWGu1bzZs2ADPYotNVCu6duu+eMyo4eNgjHu5adPWhtD116dLl+btrJme/Rs0qLuBLjzleZifFcBqjIOHMfYmPfv1nT/fy6tjtZrVz27ZsLmuPtCbtWq+Y+O6DbXadWi3ZsWyFb1xn3d8bnv3DpugGgTVr19vZcXyFQNoV9HBeoHbCX/hsSOHKvqt9u/AmKCAk6eKYy3PvQsJyVy7cuWdp8+cLlSwUCEV6MkFtEkdJ4NeWrWufeDChYu5m8LPumbN6mZx3WPBggW9evfpN5eW8IULFrZo1ar5hlGjxkyZ4+U1BBtKA6PRkTyOuW9FRsaYmJmlhLU895nevbst5L06denuBxdSa1s7u4gGdev6W1hYRT548CA3jEb2cEVlB3DM1qxbU79e7dpCp5w8efIf48ZPnOLomPPplcuX8mCPUkf/8rp+/XqB1q1d916/cdOhYoVKAXCR3fj48QPDdeFuj0nx9u271O3auS6GW2lXAlzTasKESYMw/mEI5jEpWaL4+QIFCsF/TNOEsQbjy75v/59VwXlD3VxdfTw8hkzC/1/wMBE6ep06R69fv5mLUg60G03VKtVO2djZvL3w98Xijx8/tMfro+dszw5NmjTknGJu376dady4ifPWrV/XAJ6EZ3jeCVvb1MEh4cFauCO14LRmtWrU2g66+lPi6NGnh/cKH99OJUuU/BsGyToU3eXDzrhZ82abN27cWLeje8cNENd74hB4U79xgz17du35vVrVaofWrV3bIlWqVG9jz3337t012nVovzUwMNC8Y0fYYry9B8Igma61q+vev8//7ZQrV67n9KOr7rWkoigZXA8/cd+hw/6Yyg3tOdu7db16NWK7z2iQi9m+/c8avft034hgEct2bdutWLDAe2DVGjX3nT4VUJRcDQYwYbzDpjfC5o9q2bK5L6x6nUgCAnPwYI95CLMsR6MZdOpPzZs1W9+wYWO/qdOmjr906aKLz7LlTX//vdphXj9z9uwB48dNmJYje/b758+fK0gJNDYp9+49UHnFiuV9L12+VCo46LNpcEioNYAQaW1t8yF3rlyvZsyZ2eY3PQ4d11J81unSHdl1sNDoMcMWvnv7Ns2nz5+toOsbIew9xNLSOjR9ugyvPUYP96hQsuQFcGX65MkYYwDKjCVKlDp67fr1XOXLVzhRpUrFg1u37Gj84uXLvCEhQZq8TvnudACNXF1bLWFGmPxs7dWrV/PMX7Bg4L4/99eLQHAR3IqWcHlpofaE5s6d60mH9u2muru7+1J079Chk+/WbVtblilX9tBav9UCuDLQTSpUrnrm3Jkzhdq7t188cdy4IRDLLdzatd9+9/Yd5xatWy2fM3NGT1xLmwZfQv3i75s3H2YdPnyI994/99ZBDP+D/Xt3F4fkY9qwSRP/gJMBlbJly/p0jf/6Ri4u+YQH4X/59csFzGBD2CGoJbeJid3HggVz3CWoucCK1VzsEMmVZgoXXPbQ0Mh0adNmeOnomPkeOGGae/deZo6KijSNjAzUkLtpwPHDPwTFZM6c4Rn9vspmwQFh/elTitRv3txO5+jo+AIHy3sCmH5kbHhriN838bcIxnkKn/6jkydzpkqV5b2LS9Z78W04jMsCn5ndvv3OPCTkSTorK7uIDBlSv0Z0WnjsiLGENi1EfVvIzCYv795N9/ZtoDXG/g4i8EdwygiMSQHqF2MduL193XqNjl27ejlXnz695iGsdHh0dOqYwMCnGYyMIlNotalfZc9uG0zRnMYzklChJ7k1OKoFAG5+8969jFqYF/PmzfkcXD2E+QWKOP8AY3p//1XWjBlTBcKo90h//I8ePcr54sXH9M7OOe9TpOf6/H3lSt6U+HKBAgWe4FreRwH4N1On3/zRo+f2IHVU4cKFr+K6aM4nNDQ6rZWVzfssWdK+5GH2vwxysb//1ycY1/wUo5whc5dBLzibcr28mb/8Ges+pKnYdLIOLTZ+LFp/2ZTxbdDYY9PX2fUOo28OKEPmE9d99UApElxib/wH0NHrl6twjMY4ZIktRiCRB33ZCqiVe8Y1F31a/+wcYn//R+b7q37nlwT6jyy2ssn0v2soSH/keYl957+56eleq1a98PEHDx7m7NGrx6LxY8YMhQRAIxoPwP+ZDL/EaJ6cP1eBnpxX7780dia1VK5S7Tii4LK2bevmNcfTc4y+iP9fGob6mJ+ggAr0nyDer/JVSA+WyNuvC+3FGKG+N1Co4bJiX/hVaJDc56kCPbmvoDp+lQIGUEAFugFEUi9RKZDcKaACPbmvoDp+lQIGUEAFugFEUi9RKZDcKaACPbmvoDp+lQIGUEAFugFEUi9RKZDcKaACPbmvoDp+lQIGUEAFugFEUi9RKZDcKaACPbmvoDp+lQIGUEAFugFEUi9RKZDcKaACPbmvoDp+lQIGUEAFugFEUi9RKZDcKaACPbmvoDp+lQIGUEAFugFEUi9RKZDcKaACPbmvoDp+lQIGUEAFugFEUi9RKZDcKaACPbmvoDp+lQIGUEAFugFEUi9RKZDcKaACPbmvoDp+lQIGUEAFugFEUi9RKZDcKaACPbmvoDp+lQIGUEAFugFEUi9RKZDcKaACPbmvoDp+lQIGUEAFugFEUi9RKZDcKaACPbmvoDp+lQIGUEAFugFEUi9RKZDcKaACPbmvoDp+lQIGUEAFugFEUi9RKZDcKaACPbmvoDp+lQIGUEAFugFEUi9RKZDcKaACPbmvoDp+lQIGUEAFugFEUi9RKZDcKaACPbmvoDp+lQIGUEAFugFEUi9RKZDcKaACPbmvoDp+lQIGUEAFugFEUi9RKZDcKaACPbmvoDp+lQIGUEAFugFEUi9RKZDcKaACPbmvoDp+lQIGUEAFugFEUi9RKZDcKaACPbmvoDp+lQIGUEAFugFEUi9RKZDcKaACPbmvoDp+lQIGUEAFugFEUi9RKZDcKaACPbmvoDp+lQIGUEAFugFEUi9RKZDcKaACPbmvoDp+lQIGUEAFugFEUi9RKZDcKaACPbmvoDp+lQIGUEAFugFEUi9RKZDcKaACPbmvoDp+lQIGUEAFugFEUi9RKZDcKfB/piZv9Q2pReEAAAAASUVORK5CYII=;" vertex="1" parent="1">
                    <mxGeometry x="-1919.9999999999998" y="280" width="100" height="100" as="geometry"/>
                </mxCell>
            </root>
        </mxGraphModel>
    </diagram>
</mxfile>